ISO-10303-21;
HEADER;
/* Generated by software containing ST-Developer
 * from STEP Tools, Inc. (www.steptools.com) 
 */
/* OPTION: using custom renumber hook */

FILE_DESCRIPTION(
/* description */ ('STEP AP214'),
/* implementation_level */ '2;1');

FILE_NAME(
/* name */ '68e562f44c0ea6da53ecc15c',
/* time_stamp */ '2025-10-07T18:59:01Z',
/* author */ (''),
/* organization */ (''),
/* preprocessor_version */ 'ST-DEVELOPER v20',
/* originating_system */ 'ONSHAPE BY PTC INC, 1.204',
/* authorisation */ '  ');

FILE_SCHEMA (('AUTOMOTIVE_DESIGN {1 0 10303 214 3 1 1}'));
ENDSEC;

DATA;
#10=PROPERTY_DEFINITION_REPRESENTATION(#14,#12);
#11=PROPERTY_DEFINITION_REPRESENTATION(#15,#13);
#12=REPRESENTATION('',(#16),#2018);
#13=REPRESENTATION('',(#17),#2018);
#14=PROPERTY_DEFINITION('pmi validation property','',#2023);
#15=PROPERTY_DEFINITION('pmi validation property','',#2023);
#16=VALUE_REPRESENTATION_ITEM('number of annotations',COUNT_MEASURE(0.));
#17=VALUE_REPRESENTATION_ITEM('number of views',COUNT_MEASURE(0.));
#18=SHAPE_REPRESENTATION_RELATIONSHIP('','',#1230,#19);
#19=ADVANCED_BREP_SHAPE_REPRESENTATION('',(#1228),#2018);
#20=ELLIPSE('',#1286,0.0257099202643649,0.025);
#21=ELLIPSE('',#1301,0.0215963330220665,0.021);
#22=PLANE('',#1247);
#23=PLANE('',#1254);
#24=PLANE('',#1260);
#25=PLANE('',#1273);
#26=PLANE('',#1274);
#27=PLANE('',#1275);
#28=PLANE('',#1284);
#29=PLANE('',#1287);
#30=PLANE('',#1295);
#31=PLANE('',#1296);
#32=PLANE('',#1297);
#33=PLANE('',#1298);
#34=PLANE('',#1299);
#35=PLANE('',#1302);
#36=PLANE('',#1303);
#37=PLANE('',#1304);
#38=PLANE('',#1305);
#39=PLANE('',#1306);
#40=PLANE('',#1308);
#41=PLANE('',#1309);
#42=PLANE('',#1310);
#43=PLANE('',#1311);
#44=PLANE('',#1312);
#45=PLANE('',#1314);
#46=PLANE('',#1315);
#47=PLANE('',#1316);
#48=PLANE('',#1317);
#49=PLANE('',#1318);
#50=PLANE('',#1319);
#51=PLANE('',#1320);
#52=PLANE('',#1322);
#53=PLANE('',#1323);
#54=PLANE('',#1324);
#55=PLANE('',#1325);
#56=PLANE('',#1326);
#57=PLANE('',#1327);
#58=PLANE('',#1328);
#59=PLANE('',#1330);
#60=PLANE('',#1331);
#61=PLANE('',#1332);
#62=PLANE('',#1333);
#63=LINE('',#1678,#184);
#64=LINE('',#1682,#185);
#65=LINE('',#1686,#186);
#66=LINE('',#1690,#187);
#67=LINE('',#1695,#188);
#68=LINE('',#1699,#189);
#69=LINE('',#1703,#190);
#70=LINE('',#1707,#191);
#71=LINE('',#1712,#192);
#72=LINE('',#1716,#193);
#73=LINE('',#1720,#194);
#74=LINE('',#1724,#195);
#75=LINE('',#1734,#196);
#76=LINE('',#1739,#197);
#77=LINE('',#1741,#198);
#78=LINE('',#1742,#199);
#79=LINE('',#1745,#200);
#80=LINE('',#1747,#201);
#81=LINE('',#1749,#202);
#82=LINE('',#1751,#203);
#83=LINE('',#1753,#204);
#84=LINE('',#1754,#205);
#85=LINE('',#1756,#206);
#86=LINE('',#1758,#207);
#87=LINE('',#1760,#208);
#88=LINE('',#1762,#209);
#89=LINE('',#1764,#210);
#90=LINE('',#1765,#211);
#91=LINE('',#1767,#212);
#92=LINE('',#1769,#213);
#93=LINE('',#1771,#214);
#94=LINE('',#1773,#215);
#95=LINE('',#1775,#216);
#96=LINE('',#1777,#217);
#97=LINE('',#1779,#218);
#98=LINE('',#1781,#219);
#99=LINE('',#1782,#220);
#100=LINE('',#1784,#221);
#101=LINE('',#1786,#222);
#102=LINE('',#1788,#223);
#103=LINE('',#1790,#224);
#104=LINE('',#1792,#225);
#105=LINE('',#1796,#226);
#106=LINE('',#1799,#227);
#107=LINE('',#1800,#228);
#108=LINE('',#1802,#229);
#109=LINE('',#1804,#230);
#110=LINE('',#1808,#231);
#111=LINE('',#1833,#232);
#112=LINE('',#1838,#233);
#113=LINE('',#1840,#234);
#114=LINE('',#1842,#235);
#115=LINE('',#1844,#236);
#116=LINE('',#1845,#237);
#117=LINE('',#1848,#238);
#118=LINE('',#1850,#239);
#119=LINE('',#1852,#240);
#120=LINE('',#1857,#241);
#121=LINE('',#1858,#242);
#122=LINE('',#1860,#243);
#123=LINE('',#1861,#244);
#124=LINE('',#1863,#245);
#125=LINE('',#1864,#246);
#126=LINE('',#1879,#247);
#127=LINE('',#1881,#248);
#128=LINE('',#1885,#249);
#129=LINE('',#1887,#250);
#130=LINE('',#1890,#251);
#131=LINE('',#1894,#252);
#132=LINE('',#1895,#253);
#133=LINE('',#1899,#254);
#134=LINE('',#1904,#255);
#135=LINE('',#1906,#256);
#136=LINE('',#1908,#257);
#137=LINE('',#1909,#258);
#138=LINE('',#1910,#259);
#139=LINE('',#1912,#260);
#140=LINE('',#1914,#261);
#141=LINE('',#1917,#262);
#142=LINE('',#1919,#263);
#143=LINE('',#1923,#264);
#144=LINE('',#1925,#265);
#145=LINE('',#1928,#266);
#146=LINE('',#1930,#267);
#147=LINE('',#1932,#268);
#148=LINE('',#1934,#269);
#149=LINE('',#1937,#270);
#150=LINE('',#1938,#271);
#151=LINE('',#1942,#272);
#152=LINE('',#1944,#273);
#153=LINE('',#1946,#274);
#154=LINE('',#1948,#275);
#155=LINE('',#1951,#276);
#156=LINE('',#1953,#277);
#157=LINE('',#1955,#278);
#158=LINE('',#1957,#279);
#159=LINE('',#1959,#280);
#160=LINE('',#1961,#281);
#161=LINE('',#1963,#282);
#162=LINE('',#1966,#283);
#163=LINE('',#1968,#284);
#164=LINE('',#1970,#285);
#165=LINE('',#1972,#286);
#166=LINE('',#1975,#287);
#167=LINE('',#1977,#288);
#168=LINE('',#1979,#289);
#169=LINE('',#1981,#290);
#170=LINE('',#1983,#291);
#171=LINE('',#1985,#292);
#172=LINE('',#1987,#293);
#173=LINE('',#1990,#294);
#174=LINE('',#1992,#295);
#175=LINE('',#1994,#296);
#176=LINE('',#1996,#297);
#177=LINE('',#1999,#298);
#178=LINE('',#2001,#299);
#179=LINE('',#2003,#300);
#180=LINE('',#2005,#301);
#181=LINE('',#2007,#302);
#182=LINE('',#2009,#303);
#183=LINE('',#2011,#304);
#184=VECTOR('',#1344,1.);
#185=VECTOR('',#1347,1.);
#186=VECTOR('',#1350,1.);
#187=VECTOR('',#1353,1.);
#188=VECTOR('',#1358,1.);
#189=VECTOR('',#1361,1.);
#190=VECTOR('',#1364,1.);
#191=VECTOR('',#1367,1.);
#192=VECTOR('',#1372,1.);
#193=VECTOR('',#1375,1.);
#194=VECTOR('',#1378,1.);
#195=VECTOR('',#1381,1.);
#196=VECTOR('',#1392,1.);
#197=VECTOR('',#1395,1.);
#198=VECTOR('',#1396,1.);
#199=VECTOR('',#1397,1.);
#200=VECTOR('',#1398,1.);
#201=VECTOR('',#1399,1.);
#202=VECTOR('',#1400,1.);
#203=VECTOR('',#1401,1.);
#204=VECTOR('',#1402,1.);
#205=VECTOR('',#1403,1.);
#206=VECTOR('',#1404,1.);
#207=VECTOR('',#1405,1.);
#208=VECTOR('',#1406,1.);
#209=VECTOR('',#1407,1.);
#210=VECTOR('',#1408,1.);
#211=VECTOR('',#1409,1.);
#212=VECTOR('',#1410,1.);
#213=VECTOR('',#1411,1.);
#214=VECTOR('',#1412,1.);
#215=VECTOR('',#1413,1.);
#216=VECTOR('',#1414,1.);
#217=VECTOR('',#1415,1.);
#218=VECTOR('',#1416,1.);
#219=VECTOR('',#1417,1.);
#220=VECTOR('',#1418,1.);
#221=VECTOR('',#1419,1.);
#222=VECTOR('',#1420,1.);
#223=VECTOR('',#1421,1.);
#224=VECTOR('',#1422,1.);
#225=VECTOR('',#1423,1.);
#226=VECTOR('',#1428,1.);
#227=VECTOR('',#1429,1.);
#228=VECTOR('',#1430,1.);
#229=VECTOR('',#1431,1.);
#230=VECTOR('',#1432,1.);
#231=VECTOR('',#1435,1.);
#232=VECTOR('',#1464,1.);
#233=VECTOR('',#1467,1.);
#234=VECTOR('',#1468,1.);
#235=VECTOR('',#1469,1.);
#236=VECTOR('',#1470,1.);
#237=VECTOR('',#1471,1.);
#238=VECTOR('',#1472,1.);
#239=VECTOR('',#1473,1.);
#240=VECTOR('',#1474,1.);
#241=VECTOR('',#1479,1.);
#242=VECTOR('',#1480,1.);
#243=VECTOR('',#1483,1.);
#244=VECTOR('',#1484,1.);
#245=VECTOR('',#1487,1.);
#246=VECTOR('',#1488,1.);
#247=VECTOR('',#1509,1.);
#248=VECTOR('',#1510,1.);
#249=VECTOR('',#1515,1.);
#250=VECTOR('',#1518,1.);
#251=VECTOR('',#1523,1.);
#252=VECTOR('',#1526,1.);
#253=VECTOR('',#1527,1.);
#254=VECTOR('',#1530,1.);
#255=VECTOR('',#1539,1.);
#256=VECTOR('',#1540,1.);
#257=VECTOR('',#1541,1.);
#258=VECTOR('',#1542,1.);
#259=VECTOR('',#1543,1.);
#260=VECTOR('',#1546,1.);
#261=VECTOR('',#1549,1.);
#262=VECTOR('',#1554,1.);
#263=VECTOR('',#1555,1.);
#264=VECTOR('',#1560,1.);
#265=VECTOR('',#1563,1.);
#266=VECTOR('',#1568,1.);
#267=VECTOR('',#1569,1.);
#268=VECTOR('',#1572,1.);
#269=VECTOR('',#1573,1.);
#270=VECTOR('',#1578,1.);
#271=VECTOR('',#1579,1.);
#272=VECTOR('',#1586,1.);
#273=VECTOR('',#1587,1.);
#274=VECTOR('',#1590,1.);
#275=VECTOR('',#1591,1.);
#276=VECTOR('',#1596,1.);
#277=VECTOR('',#1597,1.);
#278=VECTOR('',#1598,1.);
#279=VECTOR('',#1599,1.);
#280=VECTOR('',#1602,1.);
#281=VECTOR('',#1605,1.);
#282=VECTOR('',#1608,1.);
#283=VECTOR('',#1613,1.);
#284=VECTOR('',#1614,1.);
#285=VECTOR('',#1617,1.);
#286=VECTOR('',#1618,1.);
#287=VECTOR('',#1623,1.);
#288=VECTOR('',#1624,1.);
#289=VECTOR('',#1625,1.);
#290=VECTOR('',#1626,1.);
#291=VECTOR('',#1629,1.);
#292=VECTOR('',#1632,1.);
#293=VECTOR('',#1635,1.);
#294=VECTOR('',#1640,1.);
#295=VECTOR('',#1641,1.);
#296=VECTOR('',#1644,1.);
#297=VECTOR('',#1645,1.);
#298=VECTOR('',#1650,1.);
#299=VECTOR('',#1651,1.);
#300=VECTOR('',#1652,1.);
#301=VECTOR('',#1653,1.);
#302=VECTOR('',#1656,1.);
#303=VECTOR('',#1659,1.);
#304=VECTOR('',#1662,1.);
#305=ORIENTED_EDGE('',*,*,#639,.F.);
#306=ORIENTED_EDGE('',*,*,#640,.T.);
#307=ORIENTED_EDGE('',*,*,#641,.T.);
#308=ORIENTED_EDGE('',*,*,#642,.T.);
#309=ORIENTED_EDGE('',*,*,#643,.F.);
#310=ORIENTED_EDGE('',*,*,#644,.T.);
#311=ORIENTED_EDGE('',*,*,#645,.F.);
#312=ORIENTED_EDGE('',*,*,#646,.T.);
#313=ORIENTED_EDGE('',*,*,#647,.F.);
#314=ORIENTED_EDGE('',*,*,#648,.T.);
#315=ORIENTED_EDGE('',*,*,#649,.T.);
#316=ORIENTED_EDGE('',*,*,#650,.T.);
#317=ORIENTED_EDGE('',*,*,#651,.F.);
#318=ORIENTED_EDGE('',*,*,#652,.T.);
#319=ORIENTED_EDGE('',*,*,#653,.F.);
#320=ORIENTED_EDGE('',*,*,#654,.T.);
#321=ORIENTED_EDGE('',*,*,#655,.F.);
#322=ORIENTED_EDGE('',*,*,#656,.T.);
#323=ORIENTED_EDGE('',*,*,#657,.T.);
#324=ORIENTED_EDGE('',*,*,#658,.T.);
#325=ORIENTED_EDGE('',*,*,#659,.F.);
#326=ORIENTED_EDGE('',*,*,#660,.T.);
#327=ORIENTED_EDGE('',*,*,#661,.F.);
#328=ORIENTED_EDGE('',*,*,#662,.T.);
#329=ORIENTED_EDGE('',*,*,#663,.T.);
#330=ORIENTED_EDGE('',*,*,#664,.T.);
#331=ORIENTED_EDGE('',*,*,#665,.T.);
#332=ORIENTED_EDGE('',*,*,#666,.T.);
#333=ORIENTED_EDGE('',*,*,#667,.F.);
#334=ORIENTED_EDGE('',*,*,#668,.T.);
#335=ORIENTED_EDGE('',*,*,#669,.F.);
#336=ORIENTED_EDGE('',*,*,#670,.F.);
#337=ORIENTED_EDGE('',*,*,#671,.F.);
#338=ORIENTED_EDGE('',*,*,#672,.F.);
#339=ORIENTED_EDGE('',*,*,#673,.F.);
#340=ORIENTED_EDGE('',*,*,#674,.F.);
#341=ORIENTED_EDGE('',*,*,#675,.F.);
#342=ORIENTED_EDGE('',*,*,#676,.F.);
#343=ORIENTED_EDGE('',*,*,#645,.T.);
#344=ORIENTED_EDGE('',*,*,#677,.F.);
#345=ORIENTED_EDGE('',*,*,#678,.F.);
#346=ORIENTED_EDGE('',*,*,#679,.F.);
#347=ORIENTED_EDGE('',*,*,#680,.F.);
#348=ORIENTED_EDGE('',*,*,#681,.F.);
#349=ORIENTED_EDGE('',*,*,#682,.F.);
#350=ORIENTED_EDGE('',*,*,#653,.T.);
#351=ORIENTED_EDGE('',*,*,#683,.F.);
#352=ORIENTED_EDGE('',*,*,#684,.F.);
#353=ORIENTED_EDGE('',*,*,#685,.F.);
#354=ORIENTED_EDGE('',*,*,#686,.T.);
#355=ORIENTED_EDGE('',*,*,#687,.T.);
#356=ORIENTED_EDGE('',*,*,#688,.F.);
#357=ORIENTED_EDGE('',*,*,#689,.F.);
#358=ORIENTED_EDGE('',*,*,#690,.F.);
#359=ORIENTED_EDGE('',*,*,#691,.F.);
#360=ORIENTED_EDGE('',*,*,#661,.T.);
#361=ORIENTED_EDGE('',*,*,#692,.F.);
#362=ORIENTED_EDGE('',*,*,#693,.F.);
#363=ORIENTED_EDGE('',*,*,#694,.F.);
#364=ORIENTED_EDGE('',*,*,#695,.F.);
#365=ORIENTED_EDGE('',*,*,#696,.F.);
#366=ORIENTED_EDGE('',*,*,#697,.F.);
#367=ORIENTED_EDGE('',*,*,#698,.T.);
#368=ORIENTED_EDGE('',*,*,#699,.T.);
#369=ORIENTED_EDGE('',*,*,#700,.T.);
#370=ORIENTED_EDGE('',*,*,#670,.T.);
#371=ORIENTED_EDGE('',*,*,#701,.F.);
#372=ORIENTED_EDGE('',*,*,#702,.T.);
#373=ORIENTED_EDGE('',*,*,#703,.F.);
#374=ORIENTED_EDGE('',*,*,#704,.T.);
#375=ORIENTED_EDGE('',*,*,#705,.T.);
#376=ORIENTED_EDGE('',*,*,#706,.T.);
#377=ORIENTED_EDGE('',*,*,#707,.T.);
#378=ORIENTED_EDGE('',*,*,#708,.T.);
#379=ORIENTED_EDGE('',*,*,#709,.T.);
#380=ORIENTED_EDGE('',*,*,#710,.F.);
#381=ORIENTED_EDGE('',*,*,#711,.F.);
#382=ORIENTED_EDGE('',*,*,#712,.F.);
#383=ORIENTED_EDGE('',*,*,#657,.F.);
#384=ORIENTED_EDGE('',*,*,#713,.F.);
#385=ORIENTED_EDGE('',*,*,#649,.F.);
#386=ORIENTED_EDGE('',*,*,#714,.F.);
#387=ORIENTED_EDGE('',*,*,#641,.F.);
#388=ORIENTED_EDGE('',*,*,#715,.F.);
#389=ORIENTED_EDGE('',*,*,#716,.F.);
#390=ORIENTED_EDGE('',*,*,#717,.F.);
#391=ORIENTED_EDGE('',*,*,#718,.F.);
#392=ORIENTED_EDGE('',*,*,#719,.F.);
#393=ORIENTED_EDGE('',*,*,#720,.T.);
#394=ORIENTED_EDGE('',*,*,#721,.T.);
#395=ORIENTED_EDGE('',*,*,#722,.T.);
#396=ORIENTED_EDGE('',*,*,#723,.T.);
#397=ORIENTED_EDGE('',*,*,#724,.T.);
#398=ORIENTED_EDGE('',*,*,#725,.F.);
#399=ORIENTED_EDGE('',*,*,#726,.T.);
#400=ORIENTED_EDGE('',*,*,#727,.T.);
#401=ORIENTED_EDGE('',*,*,#728,.F.);
#402=ORIENTED_EDGE('',*,*,#729,.T.);
#403=ORIENTED_EDGE('',*,*,#730,.F.);
#404=ORIENTED_EDGE('',*,*,#704,.F.);
#405=ORIENTED_EDGE('',*,*,#731,.T.);
#406=ORIENTED_EDGE('',*,*,#732,.F.);
#407=ORIENTED_EDGE('',*,*,#705,.F.);
#408=ORIENTED_EDGE('',*,*,#730,.T.);
#409=ORIENTED_EDGE('',*,*,#733,.T.);
#410=ORIENTED_EDGE('',*,*,#722,.F.);
#411=ORIENTED_EDGE('',*,*,#724,.F.);
#412=ORIENTED_EDGE('',*,*,#734,.F.);
#413=ORIENTED_EDGE('',*,*,#731,.F.);
#414=ORIENTED_EDGE('',*,*,#703,.T.);
#415=ORIENTED_EDGE('',*,*,#735,.T.);
#416=ORIENTED_EDGE('',*,*,#723,.F.);
#417=ORIENTED_EDGE('',*,*,#733,.F.);
#418=ORIENTED_EDGE('',*,*,#729,.F.);
#419=ORIENTED_EDGE('',*,*,#734,.T.);
#420=ORIENTED_EDGE('',*,*,#736,.F.);
#421=ORIENTED_EDGE('',*,*,#737,.F.);
#422=ORIENTED_EDGE('',*,*,#738,.F.);
#423=ORIENTED_EDGE('',*,*,#739,.F.);
#424=ORIENTED_EDGE('',*,*,#708,.F.);
#425=ORIENTED_EDGE('',*,*,#736,.T.);
#426=ORIENTED_EDGE('',*,*,#709,.F.);
#427=ORIENTED_EDGE('',*,*,#737,.T.);
#428=ORIENTED_EDGE('',*,*,#707,.F.);
#429=ORIENTED_EDGE('',*,*,#738,.T.);
#430=ORIENTED_EDGE('',*,*,#706,.F.);
#431=ORIENTED_EDGE('',*,*,#739,.T.);
#432=ORIENTED_EDGE('',*,*,#735,.F.);
#433=ORIENTED_EDGE('',*,*,#740,.T.);
#434=ORIENTED_EDGE('',*,*,#741,.T.);
#435=ORIENTED_EDGE('',*,*,#719,.T.);
#436=ORIENTED_EDGE('',*,*,#742,.F.);
#437=ORIENTED_EDGE('',*,*,#743,.T.);
#438=ORIENTED_EDGE('',*,*,#720,.F.);
#439=ORIENTED_EDGE('',*,*,#741,.F.);
#440=ORIENTED_EDGE('',*,*,#744,.F.);
#441=ORIENTED_EDGE('',*,*,#732,.T.);
#442=ORIENTED_EDGE('',*,*,#721,.F.);
#443=ORIENTED_EDGE('',*,*,#743,.F.);
#444=ORIENTED_EDGE('',*,*,#718,.T.);
#445=ORIENTED_EDGE('',*,*,#666,.F.);
#446=ORIENTED_EDGE('',*,*,#711,.T.);
#447=ORIENTED_EDGE('',*,*,#745,.T.);
#448=ORIENTED_EDGE('',*,*,#746,.F.);
#449=ORIENTED_EDGE('',*,*,#747,.T.);
#450=ORIENTED_EDGE('',*,*,#698,.F.);
#451=ORIENTED_EDGE('',*,*,#748,.T.);
#452=ORIENTED_EDGE('',*,*,#749,.F.);
#453=ORIENTED_EDGE('',*,*,#750,.T.);
#454=ORIENTED_EDGE('',*,*,#717,.T.);
#455=ORIENTED_EDGE('',*,*,#665,.F.);
#456=ORIENTED_EDGE('',*,*,#716,.T.);
#457=ORIENTED_EDGE('',*,*,#664,.F.);
#458=ORIENTED_EDGE('',*,*,#715,.T.);
#459=ORIENTED_EDGE('',*,*,#663,.F.);
#460=ORIENTED_EDGE('',*,*,#751,.F.);
#461=ORIENTED_EDGE('',*,*,#752,.T.);
#462=ORIENTED_EDGE('',*,*,#753,.F.);
#463=ORIENTED_EDGE('',*,*,#689,.T.);
#464=ORIENTED_EDGE('',*,*,#754,.T.);
#465=ORIENTED_EDGE('',*,*,#726,.F.);
#466=ORIENTED_EDGE('',*,*,#755,.F.);
#467=ORIENTED_EDGE('',*,*,#685,.T.);
#468=ORIENTED_EDGE('',*,*,#755,.T.);
#469=ORIENTED_EDGE('',*,*,#725,.T.);
#470=ORIENTED_EDGE('',*,*,#756,.F.);
#471=ORIENTED_EDGE('',*,*,#686,.F.);
#472=ORIENTED_EDGE('',*,*,#756,.T.);
#473=ORIENTED_EDGE('',*,*,#728,.T.);
#474=ORIENTED_EDGE('',*,*,#757,.F.);
#475=ORIENTED_EDGE('',*,*,#687,.F.);
#476=ORIENTED_EDGE('',*,*,#688,.T.);
#477=ORIENTED_EDGE('',*,*,#757,.T.);
#478=ORIENTED_EDGE('',*,*,#727,.F.);
#479=ORIENTED_EDGE('',*,*,#754,.F.);
#480=ORIENTED_EDGE('',*,*,#758,.F.);
#481=ORIENTED_EDGE('',*,*,#759,.T.);
#482=ORIENTED_EDGE('',*,*,#701,.T.);
#483=ORIENTED_EDGE('',*,*,#669,.T.);
#484=ORIENTED_EDGE('',*,*,#760,.F.);
#485=ORIENTED_EDGE('',*,*,#758,.T.);
#486=ORIENTED_EDGE('',*,*,#668,.F.);
#487=ORIENTED_EDGE('',*,*,#761,.F.);
#488=ORIENTED_EDGE('',*,*,#700,.F.);
#489=ORIENTED_EDGE('',*,*,#762,.T.);
#490=ORIENTED_EDGE('',*,*,#761,.T.);
#491=ORIENTED_EDGE('',*,*,#667,.T.);
#492=ORIENTED_EDGE('',*,*,#702,.F.);
#493=ORIENTED_EDGE('',*,*,#759,.F.);
#494=ORIENTED_EDGE('',*,*,#760,.T.);
#495=ORIENTED_EDGE('',*,*,#762,.F.);
#496=ORIENTED_EDGE('',*,*,#699,.F.);
#497=ORIENTED_EDGE('',*,*,#744,.T.);
#498=ORIENTED_EDGE('',*,*,#742,.T.);
#499=ORIENTED_EDGE('',*,*,#740,.F.);
#500=ORIENTED_EDGE('',*,*,#763,.F.);
#501=ORIENTED_EDGE('',*,*,#764,.T.);
#502=ORIENTED_EDGE('',*,*,#683,.T.);
#503=ORIENTED_EDGE('',*,*,#652,.F.);
#504=ORIENTED_EDGE('',*,*,#691,.T.);
#505=ORIENTED_EDGE('',*,*,#765,.F.);
#506=ORIENTED_EDGE('',*,*,#766,.F.);
#507=ORIENTED_EDGE('',*,*,#662,.F.);
#508=ORIENTED_EDGE('',*,*,#767,.F.);
#509=ORIENTED_EDGE('',*,*,#655,.T.);
#510=ORIENTED_EDGE('',*,*,#766,.T.);
#511=ORIENTED_EDGE('',*,*,#768,.T.);
#512=ORIENTED_EDGE('',*,*,#752,.F.);
#513=ORIENTED_EDGE('',*,*,#769,.T.);
#514=ORIENTED_EDGE('',*,*,#763,.T.);
#515=ORIENTED_EDGE('',*,*,#651,.T.);
#516=ORIENTED_EDGE('',*,*,#751,.T.);
#517=ORIENTED_EDGE('',*,*,#684,.T.);
#518=ORIENTED_EDGE('',*,*,#764,.F.);
#519=ORIENTED_EDGE('',*,*,#769,.F.);
#520=ORIENTED_EDGE('',*,*,#753,.T.);
#521=ORIENTED_EDGE('',*,*,#768,.F.);
#522=ORIENTED_EDGE('',*,*,#765,.T.);
#523=ORIENTED_EDGE('',*,*,#690,.T.);
#524=ORIENTED_EDGE('',*,*,#770,.F.);
#525=ORIENTED_EDGE('',*,*,#771,.T.);
#526=ORIENTED_EDGE('',*,*,#677,.T.);
#527=ORIENTED_EDGE('',*,*,#644,.F.);
#528=ORIENTED_EDGE('',*,*,#682,.T.);
#529=ORIENTED_EDGE('',*,*,#772,.F.);
#530=ORIENTED_EDGE('',*,*,#773,.F.);
#531=ORIENTED_EDGE('',*,*,#654,.F.);
#532=ORIENTED_EDGE('',*,*,#774,.F.);
#533=ORIENTED_EDGE('',*,*,#647,.T.);
#534=ORIENTED_EDGE('',*,*,#773,.T.);
#535=ORIENTED_EDGE('',*,*,#775,.T.);
#536=ORIENTED_EDGE('',*,*,#776,.T.);
#537=ORIENTED_EDGE('',*,*,#777,.T.);
#538=ORIENTED_EDGE('',*,*,#778,.T.);
#539=ORIENTED_EDGE('',*,*,#770,.T.);
#540=ORIENTED_EDGE('',*,*,#643,.T.);
#541=ORIENTED_EDGE('',*,*,#678,.T.);
#542=ORIENTED_EDGE('',*,*,#771,.F.);
#543=ORIENTED_EDGE('',*,*,#778,.F.);
#544=ORIENTED_EDGE('',*,*,#779,.T.);
#545=ORIENTED_EDGE('',*,*,#681,.T.);
#546=ORIENTED_EDGE('',*,*,#780,.F.);
#547=ORIENTED_EDGE('',*,*,#775,.F.);
#548=ORIENTED_EDGE('',*,*,#772,.T.);
#549=ORIENTED_EDGE('',*,*,#680,.T.);
#550=ORIENTED_EDGE('',*,*,#781,.F.);
#551=ORIENTED_EDGE('',*,*,#776,.F.);
#552=ORIENTED_EDGE('',*,*,#780,.T.);
#553=ORIENTED_EDGE('',*,*,#679,.T.);
#554=ORIENTED_EDGE('',*,*,#779,.F.);
#555=ORIENTED_EDGE('',*,*,#777,.F.);
#556=ORIENTED_EDGE('',*,*,#781,.T.);
#557=ORIENTED_EDGE('',*,*,#782,.F.);
#558=ORIENTED_EDGE('',*,*,#783,.T.);
#559=ORIENTED_EDGE('',*,*,#692,.T.);
#560=ORIENTED_EDGE('',*,*,#660,.F.);
#561=ORIENTED_EDGE('',*,*,#697,.T.);
#562=ORIENTED_EDGE('',*,*,#784,.F.);
#563=ORIENTED_EDGE('',*,*,#785,.F.);
#564=ORIENTED_EDGE('',*,*,#748,.F.);
#565=ORIENTED_EDGE('',*,*,#786,.F.);
#566=ORIENTED_EDGE('',*,*,#749,.T.);
#567=ORIENTED_EDGE('',*,*,#785,.T.);
#568=ORIENTED_EDGE('',*,*,#787,.T.);
#569=ORIENTED_EDGE('',*,*,#788,.T.);
#570=ORIENTED_EDGE('',*,*,#789,.T.);
#571=ORIENTED_EDGE('',*,*,#790,.T.);
#572=ORIENTED_EDGE('',*,*,#782,.T.);
#573=ORIENTED_EDGE('',*,*,#659,.T.);
#574=ORIENTED_EDGE('',*,*,#693,.T.);
#575=ORIENTED_EDGE('',*,*,#783,.F.);
#576=ORIENTED_EDGE('',*,*,#790,.F.);
#577=ORIENTED_EDGE('',*,*,#791,.T.);
#578=ORIENTED_EDGE('',*,*,#696,.T.);
#579=ORIENTED_EDGE('',*,*,#792,.F.);
#580=ORIENTED_EDGE('',*,*,#787,.F.);
#581=ORIENTED_EDGE('',*,*,#784,.T.);
#582=ORIENTED_EDGE('',*,*,#695,.T.);
#583=ORIENTED_EDGE('',*,*,#793,.F.);
#584=ORIENTED_EDGE('',*,*,#788,.F.);
#585=ORIENTED_EDGE('',*,*,#792,.T.);
#586=ORIENTED_EDGE('',*,*,#694,.T.);
#587=ORIENTED_EDGE('',*,*,#791,.F.);
#588=ORIENTED_EDGE('',*,*,#789,.F.);
#589=ORIENTED_EDGE('',*,*,#793,.T.);
#590=ORIENTED_EDGE('',*,*,#794,.F.);
#591=ORIENTED_EDGE('',*,*,#795,.T.);
#592=ORIENTED_EDGE('',*,*,#671,.T.);
#593=ORIENTED_EDGE('',*,*,#747,.F.);
#594=ORIENTED_EDGE('',*,*,#676,.T.);
#595=ORIENTED_EDGE('',*,*,#796,.F.);
#596=ORIENTED_EDGE('',*,*,#797,.F.);
#597=ORIENTED_EDGE('',*,*,#646,.F.);
#598=ORIENTED_EDGE('',*,*,#798,.F.);
#599=ORIENTED_EDGE('',*,*,#639,.T.);
#600=ORIENTED_EDGE('',*,*,#797,.T.);
#601=ORIENTED_EDGE('',*,*,#799,.T.);
#602=ORIENTED_EDGE('',*,*,#800,.T.);
#603=ORIENTED_EDGE('',*,*,#801,.T.);
#604=ORIENTED_EDGE('',*,*,#802,.T.);
#605=ORIENTED_EDGE('',*,*,#794,.T.);
#606=ORIENTED_EDGE('',*,*,#746,.T.);
#607=ORIENTED_EDGE('',*,*,#675,.T.);
#608=ORIENTED_EDGE('',*,*,#803,.F.);
#609=ORIENTED_EDGE('',*,*,#799,.F.);
#610=ORIENTED_EDGE('',*,*,#796,.T.);
#611=ORIENTED_EDGE('',*,*,#674,.T.);
#612=ORIENTED_EDGE('',*,*,#804,.F.);
#613=ORIENTED_EDGE('',*,*,#800,.F.);
#614=ORIENTED_EDGE('',*,*,#803,.T.);
#615=ORIENTED_EDGE('',*,*,#673,.T.);
#616=ORIENTED_EDGE('',*,*,#805,.F.);
#617=ORIENTED_EDGE('',*,*,#801,.F.);
#618=ORIENTED_EDGE('',*,*,#804,.T.);
#619=ORIENTED_EDGE('',*,*,#672,.T.);
#620=ORIENTED_EDGE('',*,*,#795,.F.);
#621=ORIENTED_EDGE('',*,*,#802,.F.);
#622=ORIENTED_EDGE('',*,*,#805,.T.);
#623=ORIENTED_EDGE('',*,*,#798,.T.);
#624=ORIENTED_EDGE('',*,*,#745,.F.);
#625=ORIENTED_EDGE('',*,*,#710,.T.);
#626=ORIENTED_EDGE('',*,*,#640,.F.);
#627=ORIENTED_EDGE('',*,*,#786,.T.);
#628=ORIENTED_EDGE('',*,*,#658,.F.);
#629=ORIENTED_EDGE('',*,*,#712,.T.);
#630=ORIENTED_EDGE('',*,*,#750,.F.);
#631=ORIENTED_EDGE('',*,*,#774,.T.);
#632=ORIENTED_EDGE('',*,*,#642,.F.);
#633=ORIENTED_EDGE('',*,*,#714,.T.);
#634=ORIENTED_EDGE('',*,*,#648,.F.);
#635=ORIENTED_EDGE('',*,*,#767,.T.);
#636=ORIENTED_EDGE('',*,*,#650,.F.);
#637=ORIENTED_EDGE('',*,*,#713,.T.);
#638=ORIENTED_EDGE('',*,*,#656,.F.);
#639=EDGE_CURVE('',#806,#807,#922,.F.);
#640=EDGE_CURVE('',#806,#808,#63,.T.);
#641=EDGE_CURVE('',#808,#809,#923,.T.);
#642=EDGE_CURVE('',#809,#810,#64,.F.);
#643=EDGE_CURVE('',#811,#810,#924,.F.);
#644=EDGE_CURVE('',#811,#812,#65,.F.);
#645=EDGE_CURVE('',#813,#812,#925,.T.);
#646=EDGE_CURVE('',#813,#807,#66,.T.);
#647=EDGE_CURVE('',#814,#815,#926,.F.);
#648=EDGE_CURVE('',#814,#816,#67,.T.);
#649=EDGE_CURVE('',#816,#817,#927,.T.);
#650=EDGE_CURVE('',#817,#818,#68,.F.);
#651=EDGE_CURVE('',#819,#818,#928,.F.);
#652=EDGE_CURVE('',#819,#820,#69,.F.);
#653=EDGE_CURVE('',#821,#820,#929,.T.);
#654=EDGE_CURVE('',#821,#815,#70,.T.);
#655=EDGE_CURVE('',#822,#823,#930,.F.);
#656=EDGE_CURVE('',#822,#824,#71,.T.);
#657=EDGE_CURVE('',#824,#825,#931,.T.);
#658=EDGE_CURVE('',#825,#826,#72,.F.);
#659=EDGE_CURVE('',#827,#826,#932,.F.);
#660=EDGE_CURVE('',#827,#828,#73,.F.);
#661=EDGE_CURVE('',#829,#828,#933,.T.);
#662=EDGE_CURVE('',#829,#823,#74,.T.);
#663=EDGE_CURVE('',#830,#830,#934,.T.);
#664=EDGE_CURVE('',#831,#831,#935,.T.);
#665=EDGE_CURVE('',#832,#832,#936,.T.);
#666=EDGE_CURVE('',#833,#833,#937,.T.);
#667=EDGE_CURVE('',#834,#835,#75,.T.);
#668=EDGE_CURVE('',#834,#836,#938,.T.);
#669=EDGE_CURVE('',#837,#836,#76,.T.);
#670=EDGE_CURVE('',#835,#837,#77,.T.);
#671=EDGE_CURVE('',#838,#839,#78,.T.);
#672=EDGE_CURVE('',#840,#838,#79,.T.);
#673=EDGE_CURVE('',#841,#840,#80,.T.);
#674=EDGE_CURVE('',#842,#841,#81,.T.);
#675=EDGE_CURVE('',#843,#842,#82,.T.);
#676=EDGE_CURVE('',#813,#843,#83,.T.);
#677=EDGE_CURVE('',#844,#812,#84,.T.);
#678=EDGE_CURVE('',#845,#844,#85,.T.);
#679=EDGE_CURVE('',#846,#845,#86,.T.);
#680=EDGE_CURVE('',#847,#846,#87,.T.);
#681=EDGE_CURVE('',#848,#847,#88,.T.);
#682=EDGE_CURVE('',#821,#848,#89,.T.);
#683=EDGE_CURVE('',#849,#820,#90,.T.);
#684=EDGE_CURVE('',#850,#849,#91,.T.);
#685=EDGE_CURVE('',#851,#850,#92,.T.);
#686=EDGE_CURVE('',#851,#852,#93,.T.);
#687=EDGE_CURVE('',#852,#853,#94,.T.);
#688=EDGE_CURVE('',#854,#853,#95,.T.);
#689=EDGE_CURVE('',#855,#854,#96,.T.);
#690=EDGE_CURVE('',#856,#855,#97,.T.);
#691=EDGE_CURVE('',#829,#856,#98,.T.);
#692=EDGE_CURVE('',#857,#828,#99,.T.);
#693=EDGE_CURVE('',#858,#857,#100,.T.);
#694=EDGE_CURVE('',#859,#858,#101,.T.);
#695=EDGE_CURVE('',#860,#859,#102,.T.);
#696=EDGE_CURVE('',#861,#860,#103,.T.);
#697=EDGE_CURVE('',#862,#861,#104,.T.);
#698=EDGE_CURVE('',#862,#839,#939,.T.);
#699=EDGE_CURVE('',#863,#864,#105,.T.);
#700=EDGE_CURVE('',#864,#835,#106,.T.);
#701=EDGE_CURVE('',#865,#837,#107,.T.);
#702=EDGE_CURVE('',#865,#866,#108,.T.);
#703=EDGE_CURVE('',#867,#866,#109,.T.);
#704=EDGE_CURVE('',#867,#868,#940,.T.);
#705=EDGE_CURVE('',#868,#863,#110,.T.);
#706=EDGE_CURVE('',#869,#869,#941,.T.);
#707=EDGE_CURVE('',#870,#870,#942,.T.);
#708=EDGE_CURVE('',#871,#871,#943,.T.);
#709=EDGE_CURVE('',#872,#872,#944,.T.);
#710=EDGE_CURVE('',#873,#808,#945,.T.);
#711=EDGE_CURVE('',#874,#873,#946,.T.);
#712=EDGE_CURVE('',#825,#874,#947,.T.);
#713=EDGE_CURVE('',#817,#824,#948,.T.);
#714=EDGE_CURVE('',#809,#816,#949,.T.);
#715=EDGE_CURVE('',#875,#875,#950,.T.);
#716=EDGE_CURVE('',#876,#876,#951,.T.);
#717=EDGE_CURVE('',#877,#877,#952,.T.);
#718=EDGE_CURVE('',#878,#878,#953,.T.);
#719=EDGE_CURVE('',#879,#880,#111,.T.);
#720=EDGE_CURVE('',#879,#881,#954,.T.);
#721=EDGE_CURVE('',#881,#882,#112,.T.);
#722=EDGE_CURVE('',#882,#883,#113,.T.);
#723=EDGE_CURVE('',#883,#884,#114,.T.);
#724=EDGE_CURVE('',#884,#880,#115,.T.);
#725=EDGE_CURVE('',#885,#886,#116,.T.);
#726=EDGE_CURVE('',#885,#887,#117,.T.);
#727=EDGE_CURVE('',#887,#888,#118,.T.);
#728=EDGE_CURVE('',#886,#888,#119,.T.);
#729=EDGE_CURVE('',#889,#890,#955,.T.);
#730=EDGE_CURVE('',#868,#890,#120,.T.);
#731=EDGE_CURVE('',#867,#889,#121,.T.);
#732=EDGE_CURVE('',#863,#882,#122,.T.);
#733=EDGE_CURVE('',#890,#883,#123,.T.);
#734=EDGE_CURVE('',#889,#884,#124,.T.);
#735=EDGE_CURVE('',#866,#880,#125,.T.);
#736=EDGE_CURVE('',#891,#891,#956,.F.);
#737=EDGE_CURVE('',#892,#892,#957,.F.);
#738=EDGE_CURVE('',#893,#893,#958,.F.);
#739=EDGE_CURVE('',#894,#894,#959,.F.);
#740=EDGE_CURVE('',#866,#895,#126,.T.);
#741=EDGE_CURVE('',#895,#879,#127,.T.);
#742=EDGE_CURVE('',#896,#895,#20,.F.);
#743=EDGE_CURVE('',#896,#881,#128,.T.);
#744=EDGE_CURVE('',#863,#896,#129,.T.);
#745=EDGE_CURVE('',#873,#897,#130,.F.);
#746=EDGE_CURVE('',#898,#897,#960,.F.);
#747=EDGE_CURVE('',#898,#839,#131,.F.);
#748=EDGE_CURVE('',#862,#899,#132,.T.);
#749=EDGE_CURVE('',#900,#899,#961,.F.);
#750=EDGE_CURVE('',#900,#874,#133,.T.);
#751=EDGE_CURVE('',#901,#850,#134,.T.);
#752=EDGE_CURVE('',#901,#902,#135,.T.);
#753=EDGE_CURVE('',#855,#902,#136,.T.);
#754=EDGE_CURVE('',#854,#887,#137,.T.);
#755=EDGE_CURVE('',#851,#885,#138,.T.);
#756=EDGE_CURVE('',#852,#886,#139,.T.);
#757=EDGE_CURVE('',#853,#888,#140,.T.);
#758=EDGE_CURVE('',#903,#836,#141,.T.);
#759=EDGE_CURVE('',#903,#865,#142,.T.);
#760=EDGE_CURVE('',#903,#904,#21,.T.);
#761=EDGE_CURVE('',#904,#834,#143,.T.);
#762=EDGE_CURVE('',#864,#904,#144,.T.);
#763=EDGE_CURVE('',#905,#819,#145,.T.);
#764=EDGE_CURVE('',#905,#849,#146,.T.);
#765=EDGE_CURVE('',#906,#856,#147,.T.);
#766=EDGE_CURVE('',#823,#906,#148,.T.);
#767=EDGE_CURVE('',#822,#818,#962,.T.);
#768=EDGE_CURVE('',#906,#902,#149,.T.);
#769=EDGE_CURVE('',#901,#905,#150,.T.);
#770=EDGE_CURVE('',#907,#811,#151,.T.);
#771=EDGE_CURVE('',#907,#844,#152,.T.);
#772=EDGE_CURVE('',#908,#848,#153,.T.);
#773=EDGE_CURVE('',#815,#908,#154,.T.);
#774=EDGE_CURVE('',#814,#810,#963,.T.);
#775=EDGE_CURVE('',#908,#909,#155,.T.);
#776=EDGE_CURVE('',#909,#910,#156,.T.);
#777=EDGE_CURVE('',#910,#911,#157,.T.);
#778=EDGE_CURVE('',#911,#907,#158,.T.);
#779=EDGE_CURVE('',#911,#845,#159,.T.);
#780=EDGE_CURVE('',#909,#847,#160,.T.);
#781=EDGE_CURVE('',#910,#846,#161,.T.);
#782=EDGE_CURVE('',#912,#827,#162,.T.);
#783=EDGE_CURVE('',#912,#857,#163,.T.);
#784=EDGE_CURVE('',#913,#861,#164,.T.);
#785=EDGE_CURVE('',#899,#913,#165,.T.);
#786=EDGE_CURVE('',#900,#826,#964,.T.);
#787=EDGE_CURVE('',#913,#914,#166,.T.);
#788=EDGE_CURVE('',#914,#915,#167,.T.);
#789=EDGE_CURVE('',#915,#916,#168,.T.);
#790=EDGE_CURVE('',#916,#912,#169,.T.);
#791=EDGE_CURVE('',#916,#858,#170,.T.);
#792=EDGE_CURVE('',#914,#860,#171,.T.);
#793=EDGE_CURVE('',#915,#859,#172,.T.);
#794=EDGE_CURVE('',#917,#898,#173,.T.);
#795=EDGE_CURVE('',#917,#838,#174,.T.);
#796=EDGE_CURVE('',#918,#843,#175,.T.);
#797=EDGE_CURVE('',#807,#918,#176,.T.);
#798=EDGE_CURVE('',#806,#897,#965,.T.);
#799=EDGE_CURVE('',#918,#919,#177,.T.);
#800=EDGE_CURVE('',#919,#920,#178,.T.);
#801=EDGE_CURVE('',#920,#921,#179,.T.);
#802=EDGE_CURVE('',#921,#917,#180,.T.);
#803=EDGE_CURVE('',#919,#842,#181,.T.);
#804=EDGE_CURVE('',#920,#841,#182,.T.);
#805=EDGE_CURVE('',#921,#840,#183,.T.);
#806=VERTEX_POINT('',#1676);
#807=VERTEX_POINT('',#1677);
#808=VERTEX_POINT('',#1679);
#809=VERTEX_POINT('',#1681);
#810=VERTEX_POINT('',#1683);
#811=VERTEX_POINT('',#1685);
#812=VERTEX_POINT('',#1687);
#813=VERTEX_POINT('',#1689);
#814=VERTEX_POINT('',#1693);
#815=VERTEX_POINT('',#1694);
#816=VERTEX_POINT('',#1696);
#817=VERTEX_POINT('',#1698);
#818=VERTEX_POINT('',#1700);
#819=VERTEX_POINT('',#1702);
#820=VERTEX_POINT('',#1704);
#821=VERTEX_POINT('',#1706);
#822=VERTEX_POINT('',#1710);
#823=VERTEX_POINT('',#1711);
#824=VERTEX_POINT('',#1713);
#825=VERTEX_POINT('',#1715);
#826=VERTEX_POINT('',#1717);
#827=VERTEX_POINT('',#1719);
#828=VERTEX_POINT('',#1721);
#829=VERTEX_POINT('',#1723);
#830=VERTEX_POINT('',#1727);
#831=VERTEX_POINT('',#1729);
#832=VERTEX_POINT('',#1731);
#833=VERTEX_POINT('',#1733);
#834=VERTEX_POINT('',#1735);
#835=VERTEX_POINT('',#1736);
#836=VERTEX_POINT('',#1738);
#837=VERTEX_POINT('',#1740);
#838=VERTEX_POINT('',#1743);
#839=VERTEX_POINT('',#1744);
#840=VERTEX_POINT('',#1746);
#841=VERTEX_POINT('',#1748);
#842=VERTEX_POINT('',#1750);
#843=VERTEX_POINT('',#1752);
#844=VERTEX_POINT('',#1755);
#845=VERTEX_POINT('',#1757);
#846=VERTEX_POINT('',#1759);
#847=VERTEX_POINT('',#1761);
#848=VERTEX_POINT('',#1763);
#849=VERTEX_POINT('',#1766);
#850=VERTEX_POINT('',#1768);
#851=VERTEX_POINT('',#1770);
#852=VERTEX_POINT('',#1772);
#853=VERTEX_POINT('',#1774);
#854=VERTEX_POINT('',#1776);
#855=VERTEX_POINT('',#1778);
#856=VERTEX_POINT('',#1780);
#857=VERTEX_POINT('',#1783);
#858=VERTEX_POINT('',#1785);
#859=VERTEX_POINT('',#1787);
#860=VERTEX_POINT('',#1789);
#861=VERTEX_POINT('',#1791);
#862=VERTEX_POINT('',#1793);
#863=VERTEX_POINT('',#1797);
#864=VERTEX_POINT('',#1798);
#865=VERTEX_POINT('',#1801);
#866=VERTEX_POINT('',#1803);
#867=VERTEX_POINT('',#1805);
#868=VERTEX_POINT('',#1807);
#869=VERTEX_POINT('',#1810);
#870=VERTEX_POINT('',#1812);
#871=VERTEX_POINT('',#1814);
#872=VERTEX_POINT('',#1816);
#873=VERTEX_POINT('',#1819);
#874=VERTEX_POINT('',#1821);
#875=VERTEX_POINT('',#1826);
#876=VERTEX_POINT('',#1828);
#877=VERTEX_POINT('',#1830);
#878=VERTEX_POINT('',#1832);
#879=VERTEX_POINT('',#1834);
#880=VERTEX_POINT('',#1835);
#881=VERTEX_POINT('',#1837);
#882=VERTEX_POINT('',#1839);
#883=VERTEX_POINT('',#1841);
#884=VERTEX_POINT('',#1843);
#885=VERTEX_POINT('',#1846);
#886=VERTEX_POINT('',#1847);
#887=VERTEX_POINT('',#1849);
#888=VERTEX_POINT('',#1851);
#889=VERTEX_POINT('',#1855);
#890=VERTEX_POINT('',#1856);
#891=VERTEX_POINT('',#1867);
#892=VERTEX_POINT('',#1869);
#893=VERTEX_POINT('',#1871);
#894=VERTEX_POINT('',#1873);
#895=VERTEX_POINT('',#1880);
#896=VERTEX_POINT('',#1884);
#897=VERTEX_POINT('',#1891);
#898=VERTEX_POINT('',#1893);
#899=VERTEX_POINT('',#1896);
#900=VERTEX_POINT('',#1898);
#901=VERTEX_POINT('',#1905);
#902=VERTEX_POINT('',#1907);
#903=VERTEX_POINT('',#1918);
#904=VERTEX_POINT('',#1922);
#905=VERTEX_POINT('',#1929);
#906=VERTEX_POINT('',#1933);
#907=VERTEX_POINT('',#1943);
#908=VERTEX_POINT('',#1947);
#909=VERTEX_POINT('',#1952);
#910=VERTEX_POINT('',#1954);
#911=VERTEX_POINT('',#1956);
#912=VERTEX_POINT('',#1967);
#913=VERTEX_POINT('',#1971);
#914=VERTEX_POINT('',#1976);
#915=VERTEX_POINT('',#1978);
#916=VERTEX_POINT('',#1980);
#917=VERTEX_POINT('',#1991);
#918=VERTEX_POINT('',#1995);
#919=VERTEX_POINT('',#2000);
#920=VERTEX_POINT('',#2002);
#921=VERTEX_POINT('',#2004);
#922=CIRCLE('',#1233,0.01);
#923=CIRCLE('',#1234,0.01);
#924=CIRCLE('',#1235,0.01);
#925=CIRCLE('',#1236,0.01);
#926=CIRCLE('',#1238,0.01);
#927=CIRCLE('',#1239,0.01);
#928=CIRCLE('',#1240,0.01);
#929=CIRCLE('',#1241,0.01);
#930=CIRCLE('',#1243,0.01);
#931=CIRCLE('',#1244,0.01);
#932=CIRCLE('',#1245,0.01);
#933=CIRCLE('',#1246,0.01);
#934=CIRCLE('',#1248,0.0012);
#935=CIRCLE('',#1249,0.0012);
#936=CIRCLE('',#1250,0.0012);
#937=CIRCLE('',#1251,0.0012);
#938=CIRCLE('',#1252,0.021);
#939=CIRCLE('',#1253,0.01);
#940=CIRCLE('',#1255,0.02);
#941=CIRCLE('',#1256,0.001025);
#942=CIRCLE('',#1257,0.001025);
#943=CIRCLE('',#1258,0.001025);
#944=CIRCLE('',#1259,0.001025);
#945=CIRCLE('',#1261,0.0017);
#946=CIRCLE('',#1262,0.01);
#947=CIRCLE('',#1263,0.0017);
#948=CIRCLE('',#1264,0.0017);
#949=CIRCLE('',#1265,0.0017);
#950=CIRCLE('',#1266,0.0012);
#951=CIRCLE('',#1267,0.0012);
#952=CIRCLE('',#1268,0.0012);
#953=CIRCLE('',#1269,0.0012);
#954=CIRCLE('',#1270,0.025);
#955=CIRCLE('',#1272,0.02);
#956=CIRCLE('',#1276,0.001025);
#957=CIRCLE('',#1277,0.001025);
#958=CIRCLE('',#1278,0.001025);
#959=CIRCLE('',#1279,0.001025);
#960=CIRCLE('',#1290,0.01);
#961=CIRCLE('',#1291,0.01);
#962=CIRCLE('',#1307,0.0017);
#963=CIRCLE('',#1313,0.0017);
#964=CIRCLE('',#1321,0.0017);
#965=CIRCLE('',#1329,0.0017);
#966=EDGE_LOOP('',(#305,#306,#307,#308,#309,#310,#311,#312));
#967=EDGE_LOOP('',(#313,#314,#315,#316,#317,#318,#319,#320));
#968=EDGE_LOOP('',(#321,#322,#323,#324,#325,#326,#327,#328));
#969=EDGE_LOOP('',(#329));
#970=EDGE_LOOP('',(#330));
#971=EDGE_LOOP('',(#331));
#972=EDGE_LOOP('',(#332));
#973=EDGE_LOOP('',(#333,#334,#335,#336));
#974=EDGE_LOOP('',(#337,#338,#339,#340,#341,#342,#343,#344,#345,#346,#347,
#348,#349,#350,#351,#352,#353,#354,#355,#356,#357,#358,#359,#360,#361,#362,
#363,#364,#365,#366,#367));
#975=EDGE_LOOP('',(#368,#369,#370,#371,#372,#373,#374,#375));
#976=EDGE_LOOP('',(#376));
#977=EDGE_LOOP('',(#377));
#978=EDGE_LOOP('',(#378));
#979=EDGE_LOOP('',(#379));
#980=EDGE_LOOP('',(#380,#381,#382,#383,#384,#385,#386,#387));
#981=EDGE_LOOP('',(#388));
#982=EDGE_LOOP('',(#389));
#983=EDGE_LOOP('',(#390));
#984=EDGE_LOOP('',(#391));
#985=EDGE_LOOP('',(#392,#393,#394,#395,#396,#397));
#986=EDGE_LOOP('',(#398,#399,#400,#401));
#987=EDGE_LOOP('',(#402,#403,#404,#405));
#988=EDGE_LOOP('',(#406,#407,#408,#409,#410));
#989=EDGE_LOOP('',(#411,#412,#413,#414,#415));
#990=EDGE_LOOP('',(#416,#417,#418,#419));
#991=EDGE_LOOP('',(#420));
#992=EDGE_LOOP('',(#421));
#993=EDGE_LOOP('',(#422));
#994=EDGE_LOOP('',(#423));
#995=EDGE_LOOP('',(#424));
#996=EDGE_LOOP('',(#425));
#997=EDGE_LOOP('',(#426));
#998=EDGE_LOOP('',(#427));
#999=EDGE_LOOP('',(#428));
#1000=EDGE_LOOP('',(#429));
#1001=EDGE_LOOP('',(#430));
#1002=EDGE_LOOP('',(#431));
#1003=EDGE_LOOP('',(#432,#433,#434,#435));
#1004=EDGE_LOOP('',(#436,#437,#438,#439));
#1005=EDGE_LOOP('',(#440,#441,#442,#443));
#1006=EDGE_LOOP('',(#444));
#1007=EDGE_LOOP('',(#445));
#1008=EDGE_LOOP('',(#446,#447,#448,#449,#450,#451,#452,#453));
#1009=EDGE_LOOP('',(#454));
#1010=EDGE_LOOP('',(#455));
#1011=EDGE_LOOP('',(#456));
#1012=EDGE_LOOP('',(#457));
#1013=EDGE_LOOP('',(#458));
#1014=EDGE_LOOP('',(#459));
#1015=EDGE_LOOP('',(#460,#461,#462,#463,#464,#465,#466,#467));
#1016=EDGE_LOOP('',(#468,#469,#470,#471));
#1017=EDGE_LOOP('',(#472,#473,#474,#475));
#1018=EDGE_LOOP('',(#476,#477,#478,#479));
#1019=EDGE_LOOP('',(#480,#481,#482,#483));
#1020=EDGE_LOOP('',(#484,#485,#486,#487));
#1021=EDGE_LOOP('',(#488,#489,#490,#491));
#1022=EDGE_LOOP('',(#492,#493,#494,#495,#496,#497,#498,#499));
#1023=EDGE_LOOP('',(#500,#501,#502,#503));
#1024=EDGE_LOOP('',(#504,#505,#506,#507));
#1025=EDGE_LOOP('',(#508,#509,#510,#511,#512,#513,#514,#515));
#1026=EDGE_LOOP('',(#516,#517,#518,#519));
#1027=EDGE_LOOP('',(#520,#521,#522,#523));
#1028=EDGE_LOOP('',(#524,#525,#526,#527));
#1029=EDGE_LOOP('',(#528,#529,#530,#531));
#1030=EDGE_LOOP('',(#532,#533,#534,#535,#536,#537,#538,#539,#540));
#1031=EDGE_LOOP('',(#541,#542,#543,#544));
#1032=EDGE_LOOP('',(#545,#546,#547,#548));
#1033=EDGE_LOOP('',(#549,#550,#551,#552));
#1034=EDGE_LOOP('',(#553,#554,#555,#556));
#1035=EDGE_LOOP('',(#557,#558,#559,#560));
#1036=EDGE_LOOP('',(#561,#562,#563,#564));
#1037=EDGE_LOOP('',(#565,#566,#567,#568,#569,#570,#571,#572,#573));
#1038=EDGE_LOOP('',(#574,#575,#576,#577));
#1039=EDGE_LOOP('',(#578,#579,#580,#581));
#1040=EDGE_LOOP('',(#582,#583,#584,#585));
#1041=EDGE_LOOP('',(#586,#587,#588,#589));
#1042=EDGE_LOOP('',(#590,#591,#592,#593));
#1043=EDGE_LOOP('',(#594,#595,#596,#597));
#1044=EDGE_LOOP('',(#598,#599,#600,#601,#602,#603,#604,#605,#606));
#1045=EDGE_LOOP('',(#607,#608,#609,#610));
#1046=EDGE_LOOP('',(#611,#612,#613,#614));
#1047=EDGE_LOOP('',(#615,#616,#617,#618));
#1048=EDGE_LOOP('',(#619,#620,#621,#622));
#1049=EDGE_LOOP('',(#623,#624,#625,#626));
#1050=EDGE_LOOP('',(#627,#628,#629,#630));
#1051=EDGE_LOOP('',(#631,#632,#633,#634));
#1052=EDGE_LOOP('',(#635,#636,#637,#638));
#1053=FACE_BOUND('',#966,.T.);
#1054=FACE_BOUND('',#967,.T.);
#1055=FACE_BOUND('',#968,.T.);
#1056=FACE_BOUND('',#969,.T.);
#1057=FACE_BOUND('',#970,.T.);
#1058=FACE_BOUND('',#971,.T.);
#1059=FACE_BOUND('',#972,.T.);
#1060=FACE_BOUND('',#973,.T.);
#1061=FACE_BOUND('',#974,.T.);
#1062=FACE_BOUND('',#975,.T.);
#1063=FACE_BOUND('',#976,.T.);
#1064=FACE_BOUND('',#977,.T.);
#1065=FACE_BOUND('',#978,.T.);
#1066=FACE_BOUND('',#979,.T.);
#1067=FACE_BOUND('',#980,.T.);
#1068=FACE_BOUND('',#981,.T.);
#1069=FACE_BOUND('',#982,.T.);
#1070=FACE_BOUND('',#983,.T.);
#1071=FACE_BOUND('',#984,.T.);
#1072=FACE_BOUND('',#985,.T.);
#1073=FACE_BOUND('',#986,.T.);
#1074=FACE_BOUND('',#987,.T.);
#1075=FACE_BOUND('',#988,.T.);
#1076=FACE_BOUND('',#989,.T.);
#1077=FACE_BOUND('',#990,.T.);
#1078=FACE_BOUND('',#991,.T.);
#1079=FACE_BOUND('',#992,.T.);
#1080=FACE_BOUND('',#993,.T.);
#1081=FACE_BOUND('',#994,.T.);
#1082=FACE_BOUND('',#995,.T.);
#1083=FACE_BOUND('',#996,.T.);
#1084=FACE_BOUND('',#997,.T.);
#1085=FACE_BOUND('',#998,.T.);
#1086=FACE_BOUND('',#999,.T.);
#1087=FACE_BOUND('',#1000,.T.);
#1088=FACE_BOUND('',#1001,.T.);
#1089=FACE_BOUND('',#1002,.T.);
#1090=FACE_BOUND('',#1003,.T.);
#1091=FACE_BOUND('',#1004,.T.);
#1092=FACE_BOUND('',#1005,.T.);
#1093=FACE_BOUND('',#1006,.T.);
#1094=FACE_BOUND('',#1007,.T.);
#1095=FACE_BOUND('',#1008,.T.);
#1096=FACE_BOUND('',#1009,.T.);
#1097=FACE_BOUND('',#1010,.T.);
#1098=FACE_BOUND('',#1011,.T.);
#1099=FACE_BOUND('',#1012,.T.);
#1100=FACE_BOUND('',#1013,.T.);
#1101=FACE_BOUND('',#1014,.T.);
#1102=FACE_BOUND('',#1015,.T.);
#1103=FACE_BOUND('',#1016,.T.);
#1104=FACE_BOUND('',#1017,.T.);
#1105=FACE_BOUND('',#1018,.T.);
#1106=FACE_BOUND('',#1019,.T.);
#1107=FACE_BOUND('',#1020,.T.);
#1108=FACE_BOUND('',#1021,.T.);
#1109=FACE_BOUND('',#1022,.T.);
#1110=FACE_BOUND('',#1023,.T.);
#1111=FACE_BOUND('',#1024,.T.);
#1112=FACE_BOUND('',#1025,.T.);
#1113=FACE_BOUND('',#1026,.T.);
#1114=FACE_BOUND('',#1027,.T.);
#1115=FACE_BOUND('',#1028,.T.);
#1116=FACE_BOUND('',#1029,.T.);
#1117=FACE_BOUND('',#1030,.T.);
#1118=FACE_BOUND('',#1031,.T.);
#1119=FACE_BOUND('',#1032,.T.);
#1120=FACE_BOUND('',#1033,.T.);
#1121=FACE_BOUND('',#1034,.T.);
#1122=FACE_BOUND('',#1035,.T.);
#1123=FACE_BOUND('',#1036,.T.);
#1124=FACE_BOUND('',#1037,.T.);
#1125=FACE_BOUND('',#1038,.T.);
#1126=FACE_BOUND('',#1039,.T.);
#1127=FACE_BOUND('',#1040,.T.);
#1128=FACE_BOUND('',#1041,.T.);
#1129=FACE_BOUND('',#1042,.T.);
#1130=FACE_BOUND('',#1043,.T.);
#1131=FACE_BOUND('',#1044,.T.);
#1132=FACE_BOUND('',#1045,.T.);
#1133=FACE_BOUND('',#1046,.T.);
#1134=FACE_BOUND('',#1047,.T.);
#1135=FACE_BOUND('',#1048,.T.);
#1136=FACE_BOUND('',#1049,.T.);
#1137=FACE_BOUND('',#1050,.T.);
#1138=FACE_BOUND('',#1051,.T.);
#1139=FACE_BOUND('',#1052,.T.);
#1140=CYLINDRICAL_SURFACE('',#1232,0.01);
#1141=CYLINDRICAL_SURFACE('',#1237,0.01);
#1142=CYLINDRICAL_SURFACE('',#1242,0.01);
#1143=CYLINDRICAL_SURFACE('',#1271,0.02);
#1144=CYLINDRICAL_SURFACE('',#1280,0.001025);
#1145=CYLINDRICAL_SURFACE('',#1281,0.001025);
#1146=CYLINDRICAL_SURFACE('',#1282,0.001025);
#1147=CYLINDRICAL_SURFACE('',#1283,0.001025);
#1148=CYLINDRICAL_SURFACE('',#1285,0.025);
#1149=CYLINDRICAL_SURFACE('',#1288,0.0012);
#1150=CYLINDRICAL_SURFACE('',#1289,0.01);
#1151=CYLINDRICAL_SURFACE('',#1292,0.0012);
#1152=CYLINDRICAL_SURFACE('',#1293,0.0012);
#1153=CYLINDRICAL_SURFACE('',#1294,0.0012);
#1154=CYLINDRICAL_SURFACE('',#1300,0.021);
#1155=CYLINDRICAL_SURFACE('',#1334,0.0017);
#1156=CYLINDRICAL_SURFACE('',#1335,0.0017);
#1157=CYLINDRICAL_SURFACE('',#1336,0.0017);
#1158=CYLINDRICAL_SURFACE('',#1337,0.0017);
#1159=ADVANCED_FACE('',(#1053),#1140,.F.);
#1160=ADVANCED_FACE('',(#1054),#1141,.F.);
#1161=ADVANCED_FACE('',(#1055),#1142,.F.);
#1162=ADVANCED_FACE('',(#1056,#1057,#1058,#1059,#1060,#1061),#22,.F.);
#1163=ADVANCED_FACE('',(#1062,#1063,#1064,#1065,#1066),#23,.T.);
#1164=ADVANCED_FACE('',(#1067,#1068,#1069,#1070,#1071,#1072,#1073),#24,
 .T.);
#1165=ADVANCED_FACE('',(#1074),#1143,.T.);
#1166=ADVANCED_FACE('',(#1075),#25,.F.);
#1167=ADVANCED_FACE('',(#1076),#26,.T.);
#1168=ADVANCED_FACE('',(#1077,#1078,#1079,#1080,#1081),#27,.F.);
#1169=ADVANCED_FACE('',(#1082,#1083),#1144,.F.);
#1170=ADVANCED_FACE('',(#1084,#1085),#1145,.F.);
#1171=ADVANCED_FACE('',(#1086,#1087),#1146,.F.);
#1172=ADVANCED_FACE('',(#1088,#1089),#1147,.F.);
#1173=ADVANCED_FACE('',(#1090),#28,.F.);
#1174=ADVANCED_FACE('',(#1091),#1148,.T.);
#1175=ADVANCED_FACE('',(#1092),#29,.T.);
#1176=ADVANCED_FACE('',(#1093,#1094),#1149,.F.);
#1177=ADVANCED_FACE('',(#1095),#1150,.F.);
#1178=ADVANCED_FACE('',(#1096,#1097),#1151,.F.);
#1179=ADVANCED_FACE('',(#1098,#1099),#1152,.F.);
#1180=ADVANCED_FACE('',(#1100,#1101),#1153,.F.);
#1181=ADVANCED_FACE('',(#1102),#30,.T.);
#1182=ADVANCED_FACE('',(#1103),#31,.F.);
#1183=ADVANCED_FACE('',(#1104),#32,.F.);
#1184=ADVANCED_FACE('',(#1105),#33,.T.);
#1185=ADVANCED_FACE('',(#1106),#34,.F.);
#1186=ADVANCED_FACE('',(#1107),#1154,.F.);
#1187=ADVANCED_FACE('',(#1108),#35,.F.);
#1188=ADVANCED_FACE('',(#1109),#36,.F.);
#1189=ADVANCED_FACE('',(#1110),#37,.F.);
#1190=ADVANCED_FACE('',(#1111),#38,.F.);
#1191=ADVANCED_FACE('',(#1112),#39,.T.);
#1192=ADVANCED_FACE('',(#1113),#40,.F.);
#1193=ADVANCED_FACE('',(#1114),#41,.F.);
#1194=ADVANCED_FACE('',(#1115),#42,.F.);
#1195=ADVANCED_FACE('',(#1116),#43,.F.);
#1196=ADVANCED_FACE('',(#1117),#44,.T.);
#1197=ADVANCED_FACE('',(#1118),#45,.F.);
#1198=ADVANCED_FACE('',(#1119),#46,.F.);
#1199=ADVANCED_FACE('',(#1120),#47,.F.);
#1200=ADVANCED_FACE('',(#1121),#48,.F.);
#1201=ADVANCED_FACE('',(#1122),#49,.F.);
#1202=ADVANCED_FACE('',(#1123),#50,.F.);
#1203=ADVANCED_FACE('',(#1124),#51,.T.);
#1204=ADVANCED_FACE('',(#1125),#52,.F.);
#1205=ADVANCED_FACE('',(#1126),#53,.F.);
#1206=ADVANCED_FACE('',(#1127),#54,.F.);
#1207=ADVANCED_FACE('',(#1128),#55,.F.);
#1208=ADVANCED_FACE('',(#1129),#56,.F.);
#1209=ADVANCED_FACE('',(#1130),#57,.F.);
#1210=ADVANCED_FACE('',(#1131),#58,.T.);
#1211=ADVANCED_FACE('',(#1132),#59,.F.);
#1212=ADVANCED_FACE('',(#1133),#60,.F.);
#1213=ADVANCED_FACE('',(#1134),#61,.F.);
#1214=ADVANCED_FACE('',(#1135),#62,.F.);
#1215=ADVANCED_FACE('',(#1136),#1155,.F.);
#1216=ADVANCED_FACE('',(#1137),#1156,.F.);
#1217=ADVANCED_FACE('',(#1138),#1157,.F.);
#1218=ADVANCED_FACE('',(#1139),#1158,.F.);
#1219=CLOSED_SHELL('',(#1159,#1160,#1161,#1162,#1163,#1164,#1165,#1166,
#1167,#1168,#1169,#1170,#1171,#1172,#1173,#1174,#1175,#1176,#1177,#1178,
#1179,#1180,#1181,#1182,#1183,#1184,#1185,#1186,#1187,#1188,#1189,#1190,
#1191,#1192,#1193,#1194,#1195,#1196,#1197,#1198,#1199,#1200,#1201,#1202,
#1203,#1204,#1205,#1206,#1207,#1208,#1209,#1210,#1211,#1212,#1213,#1214,
#1215,#1216,#1217,#1218));
#1220=STYLED_ITEM('',(#1221),#1228);
#1221=PRESENTATION_STYLE_ASSIGNMENT((#1222));
#1222=SURFACE_STYLE_USAGE(.BOTH.,#1223);
#1223=SURFACE_SIDE_STYLE('',(#1224));
#1224=SURFACE_STYLE_FILL_AREA(#1225);
#1225=FILL_AREA_STYLE('',(#1226));
#1226=FILL_AREA_STYLE_COLOUR('',#1227);
#1227=COLOUR_RGB('',0.615686274509804,0.811764705882353,0.929411764705882);
#1228=MANIFOLD_SOLID_BREP('Part 1',#1219);
#1229=SHAPE_DEFINITION_REPRESENTATION(#2023,#1230);
#1230=SHAPE_REPRESENTATION('Part 1',(#1231),#2018);
#1231=AXIS2_PLACEMENT_3D('',#1673,#1338,#1339);
#1232=AXIS2_PLACEMENT_3D('',#1674,#1340,#1341);
#1233=AXIS2_PLACEMENT_3D('',#1675,#1342,#1343);
#1234=AXIS2_PLACEMENT_3D('',#1680,#1345,#1346);
#1235=AXIS2_PLACEMENT_3D('',#1684,#1348,#1349);
#1236=AXIS2_PLACEMENT_3D('',#1688,#1351,#1352);
#1237=AXIS2_PLACEMENT_3D('',#1691,#1354,#1355);
#1238=AXIS2_PLACEMENT_3D('',#1692,#1356,#1357);
#1239=AXIS2_PLACEMENT_3D('',#1697,#1359,#1360);
#1240=AXIS2_PLACEMENT_3D('',#1701,#1362,#1363);
#1241=AXIS2_PLACEMENT_3D('',#1705,#1365,#1366);
#1242=AXIS2_PLACEMENT_3D('',#1708,#1368,#1369);
#1243=AXIS2_PLACEMENT_3D('',#1709,#1370,#1371);
#1244=AXIS2_PLACEMENT_3D('',#1714,#1373,#1374);
#1245=AXIS2_PLACEMENT_3D('',#1718,#1376,#1377);
#1246=AXIS2_PLACEMENT_3D('',#1722,#1379,#1380);
#1247=AXIS2_PLACEMENT_3D('',#1725,#1382,#1383);
#1248=AXIS2_PLACEMENT_3D('',#1726,#1384,#1385);
#1249=AXIS2_PLACEMENT_3D('',#1728,#1386,#1387);
#1250=AXIS2_PLACEMENT_3D('',#1730,#1388,#1389);
#1251=AXIS2_PLACEMENT_3D('',#1732,#1390,#1391);
#1252=AXIS2_PLACEMENT_3D('',#1737,#1393,#1394);
#1253=AXIS2_PLACEMENT_3D('',#1794,#1424,#1425);
#1254=AXIS2_PLACEMENT_3D('',#1795,#1426,#1427);
#1255=AXIS2_PLACEMENT_3D('',#1806,#1433,#1434);
#1256=AXIS2_PLACEMENT_3D('',#1809,#1436,#1437);
#1257=AXIS2_PLACEMENT_3D('',#1811,#1438,#1439);
#1258=AXIS2_PLACEMENT_3D('',#1813,#1440,#1441);
#1259=AXIS2_PLACEMENT_3D('',#1815,#1442,#1443);
#1260=AXIS2_PLACEMENT_3D('',#1817,#1444,#1445);
#1261=AXIS2_PLACEMENT_3D('',#1818,#1446,#1447);
#1262=AXIS2_PLACEMENT_3D('',#1820,#1448,#1449);
#1263=AXIS2_PLACEMENT_3D('',#1822,#1450,#1451);
#1264=AXIS2_PLACEMENT_3D('',#1823,#1452,#1453);
#1265=AXIS2_PLACEMENT_3D('',#1824,#1454,#1455);
#1266=AXIS2_PLACEMENT_3D('',#1825,#1456,#1457);
#1267=AXIS2_PLACEMENT_3D('',#1827,#1458,#1459);
#1268=AXIS2_PLACEMENT_3D('',#1829,#1460,#1461);
#1269=AXIS2_PLACEMENT_3D('',#1831,#1462,#1463);
#1270=AXIS2_PLACEMENT_3D('',#1836,#1465,#1466);
#1271=AXIS2_PLACEMENT_3D('',#1853,#1475,#1476);
#1272=AXIS2_PLACEMENT_3D('',#1854,#1477,#1478);
#1273=AXIS2_PLACEMENT_3D('',#1859,#1481,#1482);
#1274=AXIS2_PLACEMENT_3D('',#1862,#1485,#1486);
#1275=AXIS2_PLACEMENT_3D('',#1865,#1489,#1490);
#1276=AXIS2_PLACEMENT_3D('',#1866,#1491,#1492);
#1277=AXIS2_PLACEMENT_3D('',#1868,#1493,#1494);
#1278=AXIS2_PLACEMENT_3D('',#1870,#1495,#1496);
#1279=AXIS2_PLACEMENT_3D('',#1872,#1497,#1498);
#1280=AXIS2_PLACEMENT_3D('',#1874,#1499,#1500);
#1281=AXIS2_PLACEMENT_3D('',#1875,#1501,#1502);
#1282=AXIS2_PLACEMENT_3D('',#1876,#1503,#1504);
#1283=AXIS2_PLACEMENT_3D('',#1877,#1505,#1506);
#1284=AXIS2_PLACEMENT_3D('',#1878,#1507,#1508);
#1285=AXIS2_PLACEMENT_3D('',#1882,#1511,#1512);
#1286=AXIS2_PLACEMENT_3D('',#1883,#1513,#1514);
#1287=AXIS2_PLACEMENT_3D('',#1886,#1516,#1517);
#1288=AXIS2_PLACEMENT_3D('',#1888,#1519,#1520);
#1289=AXIS2_PLACEMENT_3D('',#1889,#1521,#1522);
#1290=AXIS2_PLACEMENT_3D('',#1892,#1524,#1525);
#1291=AXIS2_PLACEMENT_3D('',#1897,#1528,#1529);
#1292=AXIS2_PLACEMENT_3D('',#1900,#1531,#1532);
#1293=AXIS2_PLACEMENT_3D('',#1901,#1533,#1534);
#1294=AXIS2_PLACEMENT_3D('',#1902,#1535,#1536);
#1295=AXIS2_PLACEMENT_3D('',#1903,#1537,#1538);
#1296=AXIS2_PLACEMENT_3D('',#1911,#1544,#1545);
#1297=AXIS2_PLACEMENT_3D('',#1913,#1547,#1548);
#1298=AXIS2_PLACEMENT_3D('',#1915,#1550,#1551);
#1299=AXIS2_PLACEMENT_3D('',#1916,#1552,#1553);
#1300=AXIS2_PLACEMENT_3D('',#1920,#1556,#1557);
#1301=AXIS2_PLACEMENT_3D('',#1921,#1558,#1559);
#1302=AXIS2_PLACEMENT_3D('',#1924,#1561,#1562);
#1303=AXIS2_PLACEMENT_3D('',#1926,#1564,#1565);
#1304=AXIS2_PLACEMENT_3D('',#1927,#1566,#1567);
#1305=AXIS2_PLACEMENT_3D('',#1931,#1570,#1571);
#1306=AXIS2_PLACEMENT_3D('',#1935,#1574,#1575);
#1307=AXIS2_PLACEMENT_3D('',#1936,#1576,#1577);
#1308=AXIS2_PLACEMENT_3D('',#1939,#1580,#1581);
#1309=AXIS2_PLACEMENT_3D('',#1940,#1582,#1583);
#1310=AXIS2_PLACEMENT_3D('',#1941,#1584,#1585);
#1311=AXIS2_PLACEMENT_3D('',#1945,#1588,#1589);
#1312=AXIS2_PLACEMENT_3D('',#1949,#1592,#1593);
#1313=AXIS2_PLACEMENT_3D('',#1950,#1594,#1595);
#1314=AXIS2_PLACEMENT_3D('',#1958,#1600,#1601);
#1315=AXIS2_PLACEMENT_3D('',#1960,#1603,#1604);
#1316=AXIS2_PLACEMENT_3D('',#1962,#1606,#1607);
#1317=AXIS2_PLACEMENT_3D('',#1964,#1609,#1610);
#1318=AXIS2_PLACEMENT_3D('',#1965,#1611,#1612);
#1319=AXIS2_PLACEMENT_3D('',#1969,#1615,#1616);
#1320=AXIS2_PLACEMENT_3D('',#1973,#1619,#1620);
#1321=AXIS2_PLACEMENT_3D('',#1974,#1621,#1622);
#1322=AXIS2_PLACEMENT_3D('',#1982,#1627,#1628);
#1323=AXIS2_PLACEMENT_3D('',#1984,#1630,#1631);
#1324=AXIS2_PLACEMENT_3D('',#1986,#1633,#1634);
#1325=AXIS2_PLACEMENT_3D('',#1988,#1636,#1637);
#1326=AXIS2_PLACEMENT_3D('',#1989,#1638,#1639);
#1327=AXIS2_PLACEMENT_3D('',#1993,#1642,#1643);
#1328=AXIS2_PLACEMENT_3D('',#1997,#1646,#1647);
#1329=AXIS2_PLACEMENT_3D('',#1998,#1648,#1649);
#1330=AXIS2_PLACEMENT_3D('',#2006,#1654,#1655);
#1331=AXIS2_PLACEMENT_3D('',#2008,#1657,#1658);
#1332=AXIS2_PLACEMENT_3D('',#2010,#1660,#1661);
#1333=AXIS2_PLACEMENT_3D('',#2012,#1663,#1664);
#1334=AXIS2_PLACEMENT_3D('',#2013,#1665,#1666);
#1335=AXIS2_PLACEMENT_3D('',#2014,#1667,#1668);
#1336=AXIS2_PLACEMENT_3D('',#2015,#1669,#1670);
#1337=AXIS2_PLACEMENT_3D('',#2016,#1671,#1672);
#1338=DIRECTION('',(0.,0.,1.));
#1339=DIRECTION('',(1.,0.,0.));
#1340=DIRECTION('',(0.,-1.,0.));
#1341=DIRECTION('',(0.,0.,-1.));
#1342=DIRECTION('',(0.,1.,0.));
#1343=DIRECTION('',(0.,0.,1.));
#1344=DIRECTION('',(0.,-1.,0.));
#1345=DIRECTION('',(0.,-1.,0.));
#1346=DIRECTION('',(0.,0.,-1.));
#1347=DIRECTION('',(0.,-1.,0.));
#1348=DIRECTION('',(0.,1.,0.));
#1349=DIRECTION('',(0.,0.,1.));
#1350=DIRECTION('',(0.,-1.,0.));
#1351=DIRECTION('',(0.,-1.,0.));
#1352=DIRECTION('',(0.,0.,-1.));
#1353=DIRECTION('',(0.,-1.,0.));
#1354=DIRECTION('',(0.,-1.,0.));
#1355=DIRECTION('',(0.,0.,-1.));
#1356=DIRECTION('',(0.,1.,0.));
#1357=DIRECTION('',(0.,0.,1.));
#1358=DIRECTION('',(0.,-1.,0.));
#1359=DIRECTION('',(0.,-1.,0.));
#1360=DIRECTION('',(0.,0.,-1.));
#1361=DIRECTION('',(0.,-1.,0.));
#1362=DIRECTION('',(0.,1.,0.));
#1363=DIRECTION('',(0.,0.,1.));
#1364=DIRECTION('',(0.,-1.,0.));
#1365=DIRECTION('',(0.,-1.,0.));
#1366=DIRECTION('',(0.,0.,-1.));
#1367=DIRECTION('',(0.,-1.,0.));
#1368=DIRECTION('',(0.,-1.,0.));
#1369=DIRECTION('',(0.,0.,-1.));
#1370=DIRECTION('',(0.,1.,0.));
#1371=DIRECTION('',(0.,0.,1.));
#1372=DIRECTION('',(0.,-1.,0.));
#1373=DIRECTION('',(0.,-1.,0.));
#1374=DIRECTION('',(0.,0.,-1.));
#1375=DIRECTION('',(0.,-1.,0.));
#1376=DIRECTION('',(0.,1.,0.));
#1377=DIRECTION('',(0.,0.,1.));
#1378=DIRECTION('',(0.,-1.,0.));
#1379=DIRECTION('',(0.,-1.,0.));
#1380=DIRECTION('',(0.,0.,-1.));
#1381=DIRECTION('',(0.,-1.,0.));
#1382=DIRECTION('',(0.,-1.,0.));
#1383=DIRECTION('',(1.,0.,0.));
#1384=DIRECTION('',(0.,-1.,0.));
#1385=DIRECTION('',(0.,0.,-1.));
#1386=DIRECTION('',(0.,-1.,0.));
#1387=DIRECTION('',(0.,0.,-1.));
#1388=DIRECTION('',(0.,-1.,0.));
#1389=DIRECTION('',(0.,0.,-1.));
#1390=DIRECTION('',(0.,-1.,0.));
#1391=DIRECTION('',(0.,0.,-1.));
#1392=DIRECTION('',(0.644073778436196,0.,-0.764963376855992));
#1393=DIRECTION('',(0.,1.,0.));
#1394=DIRECTION('',(0.,0.,1.));
#1395=DIRECTION('',(0.659581641978956,0.,0.751632927408283));
#1396=DIRECTION('',(1.,0.,0.));
#1397=DIRECTION('',(-0.86602540378444,0.,-0.5));
#1398=DIRECTION('',(-2.12827901487762E-15,0.,-1.));
#1399=DIRECTION('',(0.866025403784437,0.,-0.5));
#1400=DIRECTION('',(0.86602540378444,0.,0.5));
#1401=DIRECTION('',(2.37866478133384E-15,0.,1.));
#1402=DIRECTION('',(-0.866025403784437,0.,0.5));
#1403=DIRECTION('',(0.5,0.,-0.86602540378444));
#1404=DIRECTION('',(1.,0.,-2.00308613164953E-15));
#1405=DIRECTION('',(0.5,0.,0.866025403784437));
#1406=DIRECTION('',(-0.5,0.,0.866025403784439));
#1407=DIRECTION('',(-1.,0.,2.00308613164953E-15));
#1408=DIRECTION('',(-0.5,0.,-0.866025403784437));
#1409=DIRECTION('',(0.866025403784439,0.,0.5));
#1410=DIRECTION('',(2.00308613164953E-15,0.,1.));
#1411=DIRECTION('',(1.,0.,0.));
#1412=DIRECTION('',(-2.16840434497101E-16,0.,-1.));
#1413=DIRECTION('',(1.,0.,0.));
#1414=DIRECTION('',(-2.16840434497101E-16,0.,-1.));
#1415=DIRECTION('',(1.,0.,0.));
#1416=DIRECTION('',(-1.87789324842143E-15,0.,-1.));
#1417=DIRECTION('',(0.866025403784438,0.,-0.5));
#1418=DIRECTION('',(-0.5,0.,0.86602540378444));
#1419=DIRECTION('',(-1.,0.,2.00308613164953E-15));
#1420=DIRECTION('',(-0.5,0.,-0.866025403784437));
#1421=DIRECTION('',(0.5,0.,-0.86602540378444));
#1422=DIRECTION('',(1.,0.,-2.00308613164953E-15));
#1423=DIRECTION('',(0.5,0.,0.866025403784437));
#1424=DIRECTION('',(0.,-1.,0.));
#1425=DIRECTION('',(0.,0.,-1.));
#1426=DIRECTION('',(0.,0.,1.));
#1427=DIRECTION('',(1.,0.,0.));
#1428=DIRECTION('',(1.,0.,0.));
#1429=DIRECTION('',(0.,-1.,0.));
#1430=DIRECTION('',(0.,-1.,0.));
#1431=DIRECTION('',(1.,0.,0.));
#1432=DIRECTION('',(0.,-1.,0.));
#1433=DIRECTION('',(0.,0.,1.));
#1434=DIRECTION('',(1.,0.,0.));
#1435=DIRECTION('',(0.,-1.,0.));
#1436=DIRECTION('',(0.,0.,-1.));
#1437=DIRECTION('',(-1.,0.,0.));
#1438=DIRECTION('',(0.,0.,-1.));
#1439=DIRECTION('',(-1.,0.,0.));
#1440=DIRECTION('',(0.,0.,-1.));
#1441=DIRECTION('',(-1.,0.,0.));
#1442=DIRECTION('',(0.,0.,-1.));
#1443=DIRECTION('',(-1.,0.,0.));
#1444=DIRECTION('',(0.,-1.,0.));
#1445=DIRECTION('',(1.,0.,0.));
#1446=DIRECTION('',(0.,-1.,0.));
#1447=DIRECTION('',(0.,0.,-1.));
#1448=DIRECTION('',(0.,-1.,0.));
#1449=DIRECTION('',(0.,0.,-1.));
#1450=DIRECTION('',(0.,-1.,0.));
#1451=DIRECTION('',(0.,0.,-1.));
#1452=DIRECTION('',(0.,-1.,0.));
#1453=DIRECTION('',(0.,0.,-1.));
#1454=DIRECTION('',(0.,-1.,0.));
#1455=DIRECTION('',(0.,0.,-1.));
#1456=DIRECTION('',(0.,-1.,0.));
#1457=DIRECTION('',(0.,0.,-1.));
#1458=DIRECTION('',(0.,-1.,0.));
#1459=DIRECTION('',(0.,0.,-1.));
#1460=DIRECTION('',(0.,-1.,0.));
#1461=DIRECTION('',(0.,0.,-1.));
#1462=DIRECTION('',(0.,-1.,0.));
#1463=DIRECTION('',(0.,0.,-1.));
#1464=DIRECTION('',(-0.219512195121951,0.,-0.975609756097561));
#1465=DIRECTION('',(0.,-1.,0.));
#1466=DIRECTION('',(0.,0.,-1.));
#1467=DIRECTION('',(0.219512195121951,0.,-0.975609756097561));
#1468=DIRECTION('',(0.,0.,-1.));
#1469=DIRECTION('',(1.,0.,0.));
#1470=DIRECTION('',(0.,0.,1.));
#1471=DIRECTION('',(-2.16840434497101E-16,0.,-1.));
#1472=DIRECTION('',(1.,0.,0.));
#1473=DIRECTION('',(-2.16840434497101E-16,0.,-1.));
#1474=DIRECTION('',(1.,0.,0.));
#1475=DIRECTION('',(0.,0.,-1.));
#1476=DIRECTION('',(-1.,0.,0.));
#1477=DIRECTION('',(0.,0.,1.));
#1478=DIRECTION('',(1.,0.,0.));
#1479=DIRECTION('',(0.,0.,-1.));
#1480=DIRECTION('',(0.,0.,-1.));
#1481=DIRECTION('',(1.,0.,0.));
#1482=DIRECTION('',(0.,0.,-1.));
#1483=DIRECTION('',(0.,-1.,0.));
#1484=DIRECTION('',(0.,-1.,0.));
#1485=DIRECTION('',(1.,0.,0.));
#1486=DIRECTION('',(0.,0.,-1.));
#1487=DIRECTION('',(0.,-1.,0.));
#1488=DIRECTION('',(0.,-1.,0.));
#1489=DIRECTION('',(0.,0.,1.));
#1490=DIRECTION('',(1.,0.,0.));
#1491=DIRECTION('',(0.,0.,1.));
#1492=DIRECTION('',(1.,0.,0.));
#1493=DIRECTION('',(0.,0.,1.));
#1494=DIRECTION('',(1.,0.,0.));
#1495=DIRECTION('',(0.,0.,1.));
#1496=DIRECTION('',(1.,0.,0.));
#1497=DIRECTION('',(0.,0.,1.));
#1498=DIRECTION('',(1.,0.,0.));
#1499=DIRECTION('',(0.,0.,-1.));
#1500=DIRECTION('',(-1.,0.,0.));
#1501=DIRECTION('',(0.,0.,-1.));
#1502=DIRECTION('',(-1.,0.,0.));
#1503=DIRECTION('',(0.,0.,-1.));
#1504=DIRECTION('',(-1.,0.,0.));
#1505=DIRECTION('',(0.,0.,-1.));
#1506=DIRECTION('',(-1.,0.,0.));
#1507=DIRECTION('',(-0.975609756097561,0.,0.219512195121951));
#1508=DIRECTION('',(0.219512195121951,0.,0.975609756097561));
#1509=DIRECTION('',(0.213731506345697,-0.227980273435409,0.949917805980873));
#1510=DIRECTION('',(0.,-1.,0.));
#1511=DIRECTION('',(0.,-1.,0.));
#1512=DIRECTION('',(0.,0.,-1.));
#1513=DIRECTION('',(0.,-0.972387301980517,-0.233372952475324));
#1514=DIRECTION('',(0.,-0.233372952475324,0.972387301980518));
#1515=DIRECTION('',(0.,-1.,0.));
#1516=DIRECTION('',(-0.975609756097561,0.,-0.219512195121951));
#1517=DIRECTION('',(-0.219512195121951,0.,0.975609756097561));
#1518=DIRECTION('',(-0.213731506345697,-0.227980273435409,0.949917805980873));
#1519=DIRECTION('',(0.,-1.,0.));
#1520=DIRECTION('',(0.,0.,-1.));
#1521=DIRECTION('',(0.,-1.,0.));
#1522=DIRECTION('',(0.,0.,-1.));
#1523=DIRECTION('',(0.,-1.,0.));
#1524=DIRECTION('',(0.,1.,0.));
#1525=DIRECTION('',(0.,0.,1.));
#1526=DIRECTION('',(0.,-1.,0.));
#1527=DIRECTION('',(0.,-1.,0.));
#1528=DIRECTION('',(0.,1.,0.));
#1529=DIRECTION('',(0.,0.,1.));
#1530=DIRECTION('',(0.,-1.,0.));
#1531=DIRECTION('',(0.,-1.,0.));
#1532=DIRECTION('',(0.,0.,-1.));
#1533=DIRECTION('',(0.,-1.,0.));
#1534=DIRECTION('',(0.,0.,-1.));
#1535=DIRECTION('',(0.,-1.,0.));
#1536=DIRECTION('',(0.,0.,-1.));
#1537=DIRECTION('',(0.,0.,-1.));
#1538=DIRECTION('',(-1.,0.,0.));
#1539=DIRECTION('',(0.,1.,0.));
#1540=DIRECTION('',(1.,0.,0.));
#1541=DIRECTION('',(0.,-1.,0.));
#1542=DIRECTION('',(0.,-1.,0.));
#1543=DIRECTION('',(0.,-1.,0.));
#1544=DIRECTION('',(-1.,0.,2.16840434497101E-16));
#1545=DIRECTION('',(2.16840434497101E-16,0.,1.));
#1546=DIRECTION('',(0.,-1.,0.));
#1547=DIRECTION('',(0.,0.,-1.));
#1548=DIRECTION('',(-1.,0.,0.));
#1549=DIRECTION('',(0.,-1.,0.));
#1550=DIRECTION('',(-1.,0.,2.16840434497101E-16));
#1551=DIRECTION('',(2.16840434497101E-16,0.,1.));
#1552=DIRECTION('',(0.751632927408282,0.,-0.659581641978956));
#1553=DIRECTION('',(-0.659581641978956,0.,-0.751632927408283));
#1554=DIRECTION('',(0.,-1.,0.));
#1555=DIRECTION('',(-0.64910485363363,0.177526559363083,-0.739693997346179));
#1556=DIRECTION('',(0.,-1.,0.));
#1557=DIRECTION('',(0.,0.,-1.));
#1558=DIRECTION('',(0.,-0.972387301980517,-0.233372952475324));
#1559=DIRECTION('',(0.,-0.233372952475324,0.972387301980518));
#1560=DIRECTION('',(0.,-1.,0.));
#1561=DIRECTION('',(-0.764963376855991,0.,-0.644073778436196));
#1562=DIRECTION('',(-0.644073778436196,0.,0.764963376855992));
#1563=DIRECTION('',(-0.633486196470484,-0.180573253413411,0.752388555889214));
#1564=DIRECTION('',(0.,-0.972387301980517,-0.233372952475324));
#1565=DIRECTION('',(0.,0.233372952475324,-0.972387301980517));
#1566=DIRECTION('',(-0.5,0.,0.866025403784439));
#1567=DIRECTION('',(0.86602540378444,0.,0.5));
#1568=DIRECTION('',(0.866025403784439,0.,0.5));
#1569=DIRECTION('',(0.,1.,0.));
#1570=DIRECTION('',(0.5,0.,0.866025403784437));
#1571=DIRECTION('',(0.866025403784438,0.,-0.5));
#1572=DIRECTION('',(0.,1.,0.));
#1573=DIRECTION('',(0.866025403784438,0.,-0.5));
#1574=DIRECTION('',(0.,1.,0.));
#1575=DIRECTION('',(-1.,0.,0.));
#1576=DIRECTION('',(0.,1.,0.));
#1577=DIRECTION('',(0.,0.,1.));
#1578=DIRECTION('',(-1.87789324842143E-15,0.,-1.));
#1579=DIRECTION('',(2.00308613164953E-15,0.,1.));
#1580=DIRECTION('',(-1.,0.,2.00308613164953E-15));
#1581=DIRECTION('',(2.00308613164953E-15,0.,1.));
#1582=DIRECTION('',(1.,0.,-1.87789324842143E-15));
#1583=DIRECTION('',(-1.87789324842143E-15,0.,-1.));
#1584=DIRECTION('',(0.86602540378444,0.,0.5));
#1585=DIRECTION('',(0.5,0.,-0.86602540378444));
#1586=DIRECTION('',(0.5,0.,-0.86602540378444));
#1587=DIRECTION('',(0.,1.,0.));
#1588=DIRECTION('',(0.866025403784437,0.,-0.5));
#1589=DIRECTION('',(-0.5,0.,-0.866025403784437));
#1590=DIRECTION('',(0.,1.,0.));
#1591=DIRECTION('',(-0.5,0.,-0.866025403784437));
#1592=DIRECTION('',(0.,1.,0.));
#1593=DIRECTION('',(-1.,0.,0.));
#1594=DIRECTION('',(0.,1.,0.));
#1595=DIRECTION('',(0.,0.,1.));
#1596=DIRECTION('',(-1.,0.,2.00308613164953E-15));
#1597=DIRECTION('',(-0.5,0.,0.866025403784439));
#1598=DIRECTION('',(0.5,0.,0.866025403784437));
#1599=DIRECTION('',(1.,0.,-2.00308613164953E-15));
#1600=DIRECTION('',(2.00308613164953E-15,0.,1.));
#1601=DIRECTION('',(1.,0.,-2.00308613164953E-15));
#1602=DIRECTION('',(0.,1.,0.));
#1603=DIRECTION('',(-2.00308613164953E-15,0.,-1.));
#1604=DIRECTION('',(-1.,0.,2.00308613164953E-15));
#1605=DIRECTION('',(0.,1.,0.));
#1606=DIRECTION('',(-0.866025403784439,0.,-0.5));
#1607=DIRECTION('',(-0.5,0.,0.866025403784439));
#1608=DIRECTION('',(0.,1.,0.));
#1609=DIRECTION('',(-0.866025403784437,0.,0.5));
#1610=DIRECTION('',(0.5,0.,0.866025403784437));
#1611=DIRECTION('',(-0.86602540378444,0.,-0.5));
#1612=DIRECTION('',(-0.5,0.,0.86602540378444));
#1613=DIRECTION('',(-0.5,0.,0.86602540378444));
#1614=DIRECTION('',(0.,1.,0.));
#1615=DIRECTION('',(-0.866025403784437,0.,0.5));
#1616=DIRECTION('',(0.5,0.,0.866025403784437));
#1617=DIRECTION('',(0.,1.,0.));
#1618=DIRECTION('',(0.5,0.,0.866025403784437));
#1619=DIRECTION('',(0.,1.,0.));
#1620=DIRECTION('',(-1.,0.,0.));
#1621=DIRECTION('',(0.,1.,0.));
#1622=DIRECTION('',(0.,0.,1.));
#1623=DIRECTION('',(1.,0.,-2.00308613164953E-15));
#1624=DIRECTION('',(0.5,0.,-0.86602540378444));
#1625=DIRECTION('',(-0.5,0.,-0.866025403784437));
#1626=DIRECTION('',(-1.,0.,2.00308613164953E-15));
#1627=DIRECTION('',(-2.00308613164953E-15,0.,-1.));
#1628=DIRECTION('',(-1.,0.,2.00308613164953E-15));
#1629=DIRECTION('',(0.,1.,0.));
#1630=DIRECTION('',(2.00308613164953E-15,0.,1.));
#1631=DIRECTION('',(1.,0.,-2.00308613164953E-15));
#1632=DIRECTION('',(0.,1.,0.));
#1633=DIRECTION('',(0.86602540378444,0.,0.5));
#1634=DIRECTION('',(0.5,0.,-0.86602540378444));
#1635=DIRECTION('',(0.,1.,0.));
#1636=DIRECTION('',(0.866025403784437,0.,-0.5));
#1637=DIRECTION('',(-0.5,0.,-0.866025403784437));
#1638=DIRECTION('',(0.5,0.,-0.866025403784439));
#1639=DIRECTION('',(-0.86602540378444,0.,-0.5));
#1640=DIRECTION('',(-0.86602540378444,0.,-0.5));
#1641=DIRECTION('',(0.,1.,0.));
#1642=DIRECTION('',(-0.5,0.,-0.866025403784437));
#1643=DIRECTION('',(-0.866025403784437,0.,0.5));
#1644=DIRECTION('',(0.,1.,0.));
#1645=DIRECTION('',(-0.866025403784437,0.,0.5));
#1646=DIRECTION('',(0.,1.,0.));
#1647=DIRECTION('',(-1.,0.,0.));
#1648=DIRECTION('',(0.,1.,0.));
#1649=DIRECTION('',(0.,0.,1.));
#1650=DIRECTION('',(2.37866478133384E-15,0.,1.));
#1651=DIRECTION('',(0.86602540378444,0.,0.5));
#1652=DIRECTION('',(0.866025403784437,0.,-0.5));
#1653=DIRECTION('',(-2.12827901487762E-15,0.,-1.));
#1654=DIRECTION('',(-1.,0.,2.37866478133384E-15));
#1655=DIRECTION('',(2.37866478133384E-15,0.,1.));
#1656=DIRECTION('',(0.,1.,0.));
#1657=DIRECTION('',(-0.5,0.,0.86602540378444));
#1658=DIRECTION('',(0.86602540378444,0.,0.5));
#1659=DIRECTION('',(0.,1.,0.));
#1660=DIRECTION('',(0.5,0.,0.866025403784437));
#1661=DIRECTION('',(0.866025403784437,0.,-0.5));
#1662=DIRECTION('',(0.,1.,0.));
#1663=DIRECTION('',(1.,0.,-2.12827901487762E-15));
#1664=DIRECTION('',(-2.12827901487762E-15,0.,-1.));
#1665=DIRECTION('',(0.,-1.,0.));
#1666=DIRECTION('',(0.,0.,-1.));
#1667=DIRECTION('',(0.,-1.,0.));
#1668=DIRECTION('',(0.,0.,-1.));
#1669=DIRECTION('',(0.,-1.,0.));
#1670=DIRECTION('',(0.,0.,-1.));
#1671=DIRECTION('',(0.,-1.,0.));
#1672=DIRECTION('',(0.,0.,-1.));
#1673=CARTESIAN_POINT('',(0.,0.,0.));
#1674=CARTESIAN_POINT('',(0.,0.003,0.031));
#1675=CARTESIAN_POINT('',(0.,-0.018,0.031));
#1676=CARTESIAN_POINT('',(-0.00101308615363526,-0.018,0.0409485504695565));
#1677=CARTESIAN_POINT('',(-0.0029524625058319,-0.018,0.0405542119063613));
#1678=CARTESIAN_POINT('',(-0.00101308615363527,-0.0095,0.0409485504695565));
#1679=CARTESIAN_POINT('',(-0.00101308615363527,-0.022,0.0409485504695565));
#1680=CARTESIAN_POINT('',(0.,-0.022,0.031));
#1681=CARTESIAN_POINT('',(-0.00994855046955648,-0.022,0.0320130861536352));
#1682=CARTESIAN_POINT('',(-0.00994855046955648,-0.0095,0.0320130861536352));
#1683=CARTESIAN_POINT('',(-0.00994855046955648,-0.018,0.0320130861536352));
#1684=CARTESIAN_POINT('',(0.,-0.018,0.031));
#1685=CARTESIAN_POINT('',(-0.00955421190636134,-0.018,0.0339524625058319));
#1686=CARTESIAN_POINT('',(-0.00955421190636134,0.003,0.0339524625058319));
#1687=CARTESIAN_POINT('',(-0.00955421190636134,-0.015,0.0339524625058319));
#1688=CARTESIAN_POINT('',(0.,-0.015,0.031));
#1689=CARTESIAN_POINT('',(-0.0029524625058319,-0.015,0.0405542119063613));
#1690=CARTESIAN_POINT('',(-0.00295246250583191,0.003,0.0405542119063613));
#1691=CARTESIAN_POINT('',(0.,0.003,0.031));
#1692=CARTESIAN_POINT('',(0.,-0.018,0.031));
#1693=CARTESIAN_POINT('',(-0.00994855046955648,-0.018,0.0299869138463647));
#1694=CARTESIAN_POINT('',(-0.00955421190636134,-0.018,0.0280475374941681));
#1695=CARTESIAN_POINT('',(-0.00994855046955648,-0.0095,0.0299869138463647));
#1696=CARTESIAN_POINT('',(-0.00994855046955648,-0.022,0.0299869138463647));
#1697=CARTESIAN_POINT('',(0.,-0.022,0.031));
#1698=CARTESIAN_POINT('',(-0.00101308615363527,-0.022,0.0210514495304435));
#1699=CARTESIAN_POINT('',(-0.00101308615363527,-0.0095,0.0210514495304435));
#1700=CARTESIAN_POINT('',(-0.00101308615363526,-0.018,0.0210514495304435));
#1701=CARTESIAN_POINT('',(0.,-0.018,0.031));
#1702=CARTESIAN_POINT('',(-0.00295246250583189,-0.018,0.0214457880936386));
#1703=CARTESIAN_POINT('',(-0.00295246250583189,0.003,0.0214457880936386));
#1704=CARTESIAN_POINT('',(-0.00295246250583189,-0.015,0.0214457880936386));
#1705=CARTESIAN_POINT('',(0.,-0.015,0.031));
#1706=CARTESIAN_POINT('',(-0.00955421190636134,-0.015,0.0280475374941681));
#1707=CARTESIAN_POINT('',(-0.00955421190636134,0.003,0.0280475374941681));
#1708=CARTESIAN_POINT('',(0.,0.003,0.031));
#1709=CARTESIAN_POINT('',(0.,-0.018,0.031));
#1710=CARTESIAN_POINT('',(0.00101308615363526,-0.018,0.0210514495304435));
#1711=CARTESIAN_POINT('',(0.00295246250583191,-0.018,0.0214457880936386));
#1712=CARTESIAN_POINT('',(0.00101308615363526,-0.0095,0.0210514495304435));
#1713=CARTESIAN_POINT('',(0.00101308615363526,-0.022,0.0210514495304435));
#1714=CARTESIAN_POINT('',(0.,-0.022,0.031));
#1715=CARTESIAN_POINT('',(0.00994855046955648,-0.022,0.0299869138463647));
#1716=CARTESIAN_POINT('',(0.00994855046955648,-0.0095,0.0299869138463647));
#1717=CARTESIAN_POINT('',(0.00994855046955648,-0.018,0.0299869138463647));
#1718=CARTESIAN_POINT('',(0.,-0.018,0.031));
#1719=CARTESIAN_POINT('',(0.00955421190636135,-0.018,0.0280475374941681));
#1720=CARTESIAN_POINT('',(0.00955421190636134,0.003,0.0280475374941681));
#1721=CARTESIAN_POINT('',(0.00955421190636135,-0.015,0.0280475374941681));
#1722=CARTESIAN_POINT('',(0.,-0.015,0.031));
#1723=CARTESIAN_POINT('',(0.00295246250583191,-0.015,0.0214457880936386));
#1724=CARTESIAN_POINT('',(0.00295246250583191,0.003,0.0214457880936386));
#1725=CARTESIAN_POINT('',(0.,-0.015,0.028));
#1726=CARTESIAN_POINT('',(0.0120208152801713,-0.015,0.0430208152801713));
#1727=CARTESIAN_POINT('',(0.0120208152801713,-0.015,0.0418208152801713));
#1728=CARTESIAN_POINT('',(0.0120208152801713,-0.015,0.0189791847198287));
#1729=CARTESIAN_POINT('',(0.0120208152801713,-0.015,0.0177791847198287));
#1730=CARTESIAN_POINT('',(-0.0120208152801713,-0.015,0.0189791847198287));
#1731=CARTESIAN_POINT('',(-0.0120208152801713,-0.015,0.0177791847198287));
#1732=CARTESIAN_POINT('',(-0.0120208152801713,-0.015,0.0430208152801713));
#1733=CARTESIAN_POINT('',(-0.0120208152801713,-0.015,0.0418208152801713));
#1734=CARTESIAN_POINT('',(-0.0112336775757043,-0.015,0.0117372253264199));
#1735=CARTESIAN_POINT('',(-0.0160642309139758,-0.015,0.0174744506528399));
#1736=CARTESIAN_POINT('',(-0.00640312423743287,-0.015,0.006));
#1737=CARTESIAN_POINT('',(-9.66295186227706E-18,-0.015,0.031));
#1738=CARTESIAN_POINT('',(0.0158937246296844,-0.015,0.0172744939111243));
#1739=CARTESIAN_POINT('',(0.0109468623148422,-0.015,0.0116372469555621));
#1740=CARTESIAN_POINT('',(0.006,-0.015,0.006));
#1741=CARTESIAN_POINT('',(0.,-0.015,0.006));
#1742=CARTESIAN_POINT('',(0.0015,-0.015,0.0397156322876315));
#1743=CARTESIAN_POINT('',(0.003,-0.015,0.0405816576914158));
#1744=CARTESIAN_POINT('',(0.00295246250583189,-0.015,0.0405542119063613));
#1745=CARTESIAN_POINT('',(0.003,-0.015,0.0423137084989847));
#1746=CARTESIAN_POINT('',(0.003,-0.015,0.0440457593065537));
#1747=CARTESIAN_POINT('',(0.0015,-0.015,0.0449117847103381));
#1748=CARTESIAN_POINT('',(1.21430643318376E-17,-0.015,0.0457778101141225));
#1749=CARTESIAN_POINT('',(-0.0015,-0.015,0.0449117847103381));
#1750=CARTESIAN_POINT('',(-0.003,-0.015,0.0440457593065537));
#1751=CARTESIAN_POINT('',(-0.003,-0.015,0.0423137084989847));
#1752=CARTESIAN_POINT('',(-0.003,-0.015,0.0405816576914159));
#1753=CARTESIAN_POINT('',(-0.0015,-0.015,0.0397156322876315));
#1754=CARTESIAN_POINT('',(-0.00871563228763146,-0.015,0.0325));
#1755=CARTESIAN_POINT('',(-0.00958165769141587,-0.015,0.034));
#1756=CARTESIAN_POINT('',(-0.0113137084989848,-0.015,0.034));
#1757=CARTESIAN_POINT('',(-0.0130457593065536,-0.015,0.034));
#1758=CARTESIAN_POINT('',(-0.0139117847103381,-0.015,0.0325));
#1759=CARTESIAN_POINT('',(-0.0147778101141225,-0.015,0.031));
#1760=CARTESIAN_POINT('',(-0.0139117847103381,-0.015,0.0295));
#1761=CARTESIAN_POINT('',(-0.0130457593065536,-0.015,0.028));
#1762=CARTESIAN_POINT('',(-0.0113137084989848,-0.015,0.028));
#1763=CARTESIAN_POINT('',(-0.00958165769141587,-0.015,0.028));
#1764=CARTESIAN_POINT('',(-0.00871563228763145,-0.015,0.0295));
#1765=CARTESIAN_POINT('',(-0.0015,-0.015,0.0222843677123685));
#1766=CARTESIAN_POINT('',(-0.003,-0.015,0.0214183423085841));
#1767=CARTESIAN_POINT('',(-0.003,-0.015,0.0196862915010153));
#1768=CARTESIAN_POINT('',(-0.003,-0.015,0.0179791847198287));
#1769=CARTESIAN_POINT('',(0.,-0.015,0.0179791847198287));
#1770=CARTESIAN_POINT('',(-0.006,-0.015,0.0179791847198287));
#1771=CARTESIAN_POINT('',(-0.006,-0.015,0.028));
#1772=CARTESIAN_POINT('',(-0.006,-0.015,0.00997918471982869));
#1773=CARTESIAN_POINT('',(0.,-0.015,0.00997918471982869));
#1774=CARTESIAN_POINT('',(0.006,-0.015,0.00997918471982869));
#1775=CARTESIAN_POINT('',(0.006,-0.015,0.028));
#1776=CARTESIAN_POINT('',(0.006,-0.015,0.0179791847198287));
#1777=CARTESIAN_POINT('',(0.,-0.015,0.0179791847198287));
#1778=CARTESIAN_POINT('',(0.003,-0.015,0.0179791847198287));
#1779=CARTESIAN_POINT('',(0.003,-0.015,0.0196862915010153));
#1780=CARTESIAN_POINT('',(0.003,-0.015,0.0214183423085842));
#1781=CARTESIAN_POINT('',(0.0015,-0.015,0.0222843677123685));
#1782=CARTESIAN_POINT('',(0.00871563228763147,-0.015,0.0295));
#1783=CARTESIAN_POINT('',(0.00958165769141587,-0.015,0.028));
#1784=CARTESIAN_POINT('',(0.0113137084989848,-0.015,0.028));
#1785=CARTESIAN_POINT('',(0.0130457593065536,-0.015,0.028));
#1786=CARTESIAN_POINT('',(0.0139117847103381,-0.015,0.0295));
#1787=CARTESIAN_POINT('',(0.0147778101141225,-0.015,0.031));
#1788=CARTESIAN_POINT('',(0.0139117847103381,-0.015,0.0325));
#1789=CARTESIAN_POINT('',(0.0130457593065536,-0.015,0.034));
#1790=CARTESIAN_POINT('',(0.0113137084989848,-0.015,0.034));
#1791=CARTESIAN_POINT('',(0.00958165769141587,-0.015,0.034));
#1792=CARTESIAN_POINT('',(0.00871563228763144,-0.015,0.0325));
#1793=CARTESIAN_POINT('',(0.00955421190636134,-0.015,0.0339524625058319));
#1794=CARTESIAN_POINT('',(0.,-0.015,0.031));
#1795=CARTESIAN_POINT('',(0.,0.,0.006));
#1796=CARTESIAN_POINT('',(0.,-0.003,0.006));
#1797=CARTESIAN_POINT('',(-0.02,-0.003,0.006));
#1798=CARTESIAN_POINT('',(-0.00640312423743289,-0.003,0.006));
#1799=CARTESIAN_POINT('',(-0.00640312423743287,-0.003,0.006));
#1800=CARTESIAN_POINT('',(0.006,-0.003,0.006));
#1801=CARTESIAN_POINT('',(0.006,-0.003,0.006));
#1802=CARTESIAN_POINT('',(0.,-0.003,0.006));
#1803=CARTESIAN_POINT('',(0.02,-0.003,0.006));
#1804=CARTESIAN_POINT('',(0.02,-0.01,0.006));
#1805=CARTESIAN_POINT('',(0.02,0.,0.006));
#1806=CARTESIAN_POINT('',(0.,5.66553889764798E-18,0.006));
#1807=CARTESIAN_POINT('',(-0.02,0.,0.006));
#1808=CARTESIAN_POINT('',(-0.02,-0.01,0.006));
#1809=CARTESIAN_POINT('',(1.76182853028895E-19,0.01,0.006));
#1810=CARTESIAN_POINT('',(-0.001025,0.01,0.006));
#1811=CARTESIAN_POINT('',(-0.01,-1.7347234759768E-18,0.006));
#1812=CARTESIAN_POINT('',(-0.011025,-1.7347234759768E-18,0.006));
#1813=CARTESIAN_POINT('',(0.01,0.,0.006));
#1814=CARTESIAN_POINT('',(0.008975,0.,0.006));
#1815=CARTESIAN_POINT('',(6.23416249179165E-19,-0.01,0.006));
#1816=CARTESIAN_POINT('',(-0.001025,-0.01,0.006));
#1817=CARTESIAN_POINT('',(0.,-0.022,0.028));
#1818=CARTESIAN_POINT('',(-6.50521303491303E-19,-0.022,0.0423137084989847));
#1819=CARTESIAN_POINT('',(0.00101308615363527,-0.022,0.0409485504695565));
#1820=CARTESIAN_POINT('',(0.,-0.022,0.031));
#1821=CARTESIAN_POINT('',(0.00994855046955648,-0.022,0.0320130861536352));
#1822=CARTESIAN_POINT('',(0.0113137084989848,-0.022,0.031));
#1823=CARTESIAN_POINT('',(-1.51788304147971E-18,-0.022,0.0196862915010153));
#1824=CARTESIAN_POINT('',(-0.0113137084989848,-0.022,0.031));
#1825=CARTESIAN_POINT('',(0.0120208152801713,-0.022,0.0430208152801713));
#1826=CARTESIAN_POINT('',(0.0120208152801713,-0.022,0.0418208152801713));
#1827=CARTESIAN_POINT('',(0.0120208152801713,-0.022,0.0189791847198287));
#1828=CARTESIAN_POINT('',(0.0120208152801713,-0.022,0.0177791847198287));
#1829=CARTESIAN_POINT('',(-0.0120208152801713,-0.022,0.0189791847198287));
#1830=CARTESIAN_POINT('',(-0.0120208152801713,-0.022,0.0177791847198287));
#1831=CARTESIAN_POINT('',(-0.0120208152801713,-0.022,0.0430208152801713));
#1832=CARTESIAN_POINT('',(-0.0120208152801713,-0.022,0.0418208152801713));
#1833=CARTESIAN_POINT('',(0.0221951219512195,-0.022,0.0157560975609756));
#1834=CARTESIAN_POINT('',(0.024390243902439,-0.022,0.0255121951219512));
#1835=CARTESIAN_POINT('',(0.02,-0.022,0.006));
#1836=CARTESIAN_POINT('',(4.57066728635454E-19,-0.022,0.031));
#1837=CARTESIAN_POINT('',(-0.024390243902439,-0.022,0.0255121951219512));
#1838=CARTESIAN_POINT('',(-0.0221951219512195,-0.022,0.0157560975609756));
#1839=CARTESIAN_POINT('',(-0.02,-0.022,0.006));
#1840=CARTESIAN_POINT('',(-0.02,-0.022,0.003));
#1841=CARTESIAN_POINT('',(-0.02,-0.022,0.));
#1842=CARTESIAN_POINT('',(0.,-0.022,0.));
#1843=CARTESIAN_POINT('',(0.02,-0.022,0.));
#1844=CARTESIAN_POINT('',(0.02,-0.022,0.003));
#1845=CARTESIAN_POINT('',(-0.006,-0.022,0.0139791847198287));
#1846=CARTESIAN_POINT('',(-0.006,-0.022,0.0179791847198287));
#1847=CARTESIAN_POINT('',(-0.006,-0.022,0.00997918471982869));
#1848=CARTESIAN_POINT('',(0.,-0.022,0.0179791847198287));
#1849=CARTESIAN_POINT('',(0.006,-0.022,0.0179791847198287));
#1850=CARTESIAN_POINT('',(0.006,-0.022,0.0139791847198287));
#1851=CARTESIAN_POINT('',(0.006,-0.022,0.0099791847198287));
#1852=CARTESIAN_POINT('',(0.,-0.022,0.00997918471982869));
#1853=CARTESIAN_POINT('',(0.,5.66553889764798E-18,0.006));
#1854=CARTESIAN_POINT('',(0.,5.66553889764798E-18,0.));
#1855=CARTESIAN_POINT('',(0.02,0.,0.));
#1856=CARTESIAN_POINT('',(-0.02,0.,0.));
#1857=CARTESIAN_POINT('',(-0.02,0.,0.006));
#1858=CARTESIAN_POINT('',(0.02,0.,0.006));
#1859=CARTESIAN_POINT('',(-0.02,-0.01,0.006));
#1860=CARTESIAN_POINT('',(-0.02,-0.015,0.006));
#1861=CARTESIAN_POINT('',(-0.02,-0.01,0.));
#1862=CARTESIAN_POINT('',(0.02,-0.01,0.006));
#1863=CARTESIAN_POINT('',(0.02,-0.01,0.));
#1864=CARTESIAN_POINT('',(0.02,-0.015,0.006));
#1865=CARTESIAN_POINT('',(0.,0.,0.));
#1866=CARTESIAN_POINT('',(0.01,0.,0.));
#1867=CARTESIAN_POINT('',(0.011025,0.,0.));
#1868=CARTESIAN_POINT('',(6.23416249179165E-19,-0.01,0.));
#1869=CARTESIAN_POINT('',(0.001025,-0.01,0.));
#1870=CARTESIAN_POINT('',(-0.01,-1.7347234759768E-18,0.));
#1871=CARTESIAN_POINT('',(-0.008975,-1.7347234759768E-18,0.));
#1872=CARTESIAN_POINT('',(1.76182853028895E-19,0.01,0.));
#1873=CARTESIAN_POINT('',(0.001025,0.01,0.));
#1874=CARTESIAN_POINT('',(0.01,0.,0.006));
#1875=CARTESIAN_POINT('',(6.23416249179165E-19,-0.01,0.006));
#1876=CARTESIAN_POINT('',(-0.01,-1.7347234759768E-18,0.006));
#1877=CARTESIAN_POINT('',(1.76182853028895E-19,0.01,0.006));
#1878=CARTESIAN_POINT('',(0.0221951219512195,-0.015,0.0157560975609756));
#1879=CARTESIAN_POINT('',(0.0226657492837646,-0.00584346590268222,0.0178477745945093));
#1880=CARTESIAN_POINT('',(0.024390243902439,-0.00768292682926829,0.0255121951219512));
#1881=CARTESIAN_POINT('',(0.024390243902439,-0.015,0.0255121951219512));
#1882=CARTESIAN_POINT('',(4.57066728635454E-19,-0.015,0.031));
#1883=CARTESIAN_POINT('',(4.57066728635454E-19,-0.009,0.031));
#1884=CARTESIAN_POINT('',(-0.024390243902439,-0.00768292682926829,0.0255121951219512));
#1885=CARTESIAN_POINT('',(-0.024390243902439,-0.015,0.0255121951219512));
#1886=CARTESIAN_POINT('',(-0.0221951219512195,-0.015,0.0157560975609756));
#1887=CARTESIAN_POINT('',(-0.0226657492837646,-0.00584346590268222,0.0178477745945093));
#1888=CARTESIAN_POINT('',(-0.0120208152801713,0.003,0.0430208152801713));
#1889=CARTESIAN_POINT('',(0.,0.003,0.031));
#1890=CARTESIAN_POINT('',(0.00101308615363526,-0.0095,0.0409485504695565));
#1891=CARTESIAN_POINT('',(0.00101308615363526,-0.018,0.0409485504695565));
#1892=CARTESIAN_POINT('',(0.,-0.018,0.031));
#1893=CARTESIAN_POINT('',(0.00295246250583189,-0.018,0.0405542119063613));
#1894=CARTESIAN_POINT('',(0.00295246250583189,0.003,0.0405542119063613));
#1895=CARTESIAN_POINT('',(0.00955421190636134,0.003,0.0339524625058319));
#1896=CARTESIAN_POINT('',(0.00955421190636134,-0.018,0.0339524625058319));
#1897=CARTESIAN_POINT('',(0.,-0.018,0.031));
#1898=CARTESIAN_POINT('',(0.00994855046955648,-0.018,0.0320130861536352));
#1899=CARTESIAN_POINT('',(0.00994855046955648,-0.0095,0.0320130861536352));
#1900=CARTESIAN_POINT('',(-0.0120208152801713,0.003,0.0189791847198287));
#1901=CARTESIAN_POINT('',(0.0120208152801713,0.003,0.0189791847198287));
#1902=CARTESIAN_POINT('',(0.0120208152801713,0.003,0.0430208152801713));
#1903=CARTESIAN_POINT('',(0.,0.003,0.0179791847198287));
#1904=CARTESIAN_POINT('',(-0.003,0.003,0.0179791847198287));
#1905=CARTESIAN_POINT('',(-0.003,-0.018,0.0179791847198287));
#1906=CARTESIAN_POINT('',(0.,-0.018,0.0179791847198287));
#1907=CARTESIAN_POINT('',(0.003,-0.018,0.0179791847198287));
#1908=CARTESIAN_POINT('',(0.003,0.003,0.0179791847198287));
#1909=CARTESIAN_POINT('',(0.006,0.003,0.0179791847198287));
#1910=CARTESIAN_POINT('',(-0.006,0.003,0.0179791847198287));
#1911=CARTESIAN_POINT('',(-0.006,0.003,0.0139791847198287));
#1912=CARTESIAN_POINT('',(-0.006,0.003,0.00997918471982869));
#1913=CARTESIAN_POINT('',(0.,0.003,0.00997918471982869));
#1914=CARTESIAN_POINT('',(0.006,0.003,0.00997918471982869));
#1915=CARTESIAN_POINT('',(0.006,0.003,0.0139791847198287));
#1916=CARTESIAN_POINT('',(0.0109468623148422,-0.003,0.0116372469555621));
#1917=CARTESIAN_POINT('',(0.0158937246296844,-0.003,0.0172744939111243));
#1918=CARTESIAN_POINT('',(0.0158937246296844,-0.00570587853866982,0.0172744939111243));
#1919=CARTESIAN_POINT('',(0.0107909585886888,-0.00431030046923819,0.0114595852884924));
#1920=CARTESIAN_POINT('',(-9.66295186227706E-18,-0.003,0.031));
#1921=CARTESIAN_POINT('',(-9.66295186227706E-18,-0.009,0.031));
#1922=CARTESIAN_POINT('',(-0.0160642309139759,-0.00575386815668157,0.0174744506528399));
#1923=CARTESIAN_POINT('',(-0.0160642309139758,-0.003,0.0174744506528399));
#1924=CARTESIAN_POINT('',(-0.0112336775757043,-0.003,0.0117372253264199));
#1925=CARTESIAN_POINT('',(-0.0110761691729021,-0.00433203680213743,0.0115501533422393));
#1926=CARTESIAN_POINT('',(-0.075,-0.009,0.031));
#1927=CARTESIAN_POINT('',(-0.0015,-0.018,0.0222843677123685));
#1928=CARTESIAN_POINT('',(-0.0015,-0.018,0.0222843677123685));
#1929=CARTESIAN_POINT('',(-0.003,-0.018,0.0214183423085841));
#1930=CARTESIAN_POINT('',(-0.003,-0.018,0.0214183423085841));
#1931=CARTESIAN_POINT('',(0.0015,-0.018,0.0222843677123685));
#1932=CARTESIAN_POINT('',(0.003,-0.018,0.0214183423085842));
#1933=CARTESIAN_POINT('',(0.003,-0.018,0.0214183423085842));
#1934=CARTESIAN_POINT('',(0.0015,-0.018,0.0222843677123685));
#1935=CARTESIAN_POINT('',(-1.04083408558608E-17,-0.018,0.029));
#1936=CARTESIAN_POINT('',(-1.51788304147971E-18,-0.018,0.0196862915010153));
#1937=CARTESIAN_POINT('',(0.003,-0.018,0.0196862915010153));
#1938=CARTESIAN_POINT('',(-0.003,-0.018,0.0196862915010153));
#1939=CARTESIAN_POINT('',(-0.003,-0.018,0.0196862915010153));
#1940=CARTESIAN_POINT('',(0.003,-0.018,0.0196862915010153));
#1941=CARTESIAN_POINT('',(-0.00871563228763146,-0.018,0.0325));
#1942=CARTESIAN_POINT('',(-0.00871563228763146,-0.018,0.0325));
#1943=CARTESIAN_POINT('',(-0.00958165769141587,-0.018,0.034));
#1944=CARTESIAN_POINT('',(-0.00958165769141587,-0.018,0.034));
#1945=CARTESIAN_POINT('',(-0.00871563228763145,-0.018,0.0295));
#1946=CARTESIAN_POINT('',(-0.00958165769141587,-0.018,0.028));
#1947=CARTESIAN_POINT('',(-0.00958165769141587,-0.018,0.028));
#1948=CARTESIAN_POINT('',(-0.00871563228763145,-0.018,0.0295));
#1949=CARTESIAN_POINT('',(-1.04083408558608E-17,-0.018,0.029));
#1950=CARTESIAN_POINT('',(-0.0113137084989848,-0.018,0.031));
#1951=CARTESIAN_POINT('',(-0.0113137084989848,-0.018,0.028));
#1952=CARTESIAN_POINT('',(-0.0130457593065536,-0.018,0.028));
#1953=CARTESIAN_POINT('',(-0.0139117847103381,-0.018,0.0295));
#1954=CARTESIAN_POINT('',(-0.0147778101141225,-0.018,0.031));
#1955=CARTESIAN_POINT('',(-0.0139117847103381,-0.018,0.0325));
#1956=CARTESIAN_POINT('',(-0.0130457593065536,-0.018,0.034));
#1957=CARTESIAN_POINT('',(-0.0113137084989848,-0.018,0.034));
#1958=CARTESIAN_POINT('',(-0.0113137084989848,-0.018,0.034));
#1959=CARTESIAN_POINT('',(-0.0130457593065536,-0.018,0.034));
#1960=CARTESIAN_POINT('',(-0.0113137084989848,-0.018,0.028));
#1961=CARTESIAN_POINT('',(-0.0130457593065536,-0.018,0.028));
#1962=CARTESIAN_POINT('',(-0.0139117847103381,-0.018,0.0295));
#1963=CARTESIAN_POINT('',(-0.0147778101141225,-0.018,0.031));
#1964=CARTESIAN_POINT('',(-0.0139117847103381,-0.018,0.0325));
#1965=CARTESIAN_POINT('',(0.00871563228763147,-0.018,0.0295));
#1966=CARTESIAN_POINT('',(0.00871563228763147,-0.018,0.0295));
#1967=CARTESIAN_POINT('',(0.00958165769141587,-0.018,0.028));
#1968=CARTESIAN_POINT('',(0.00958165769141587,-0.018,0.028));
#1969=CARTESIAN_POINT('',(0.00871563228763144,-0.018,0.0325));
#1970=CARTESIAN_POINT('',(0.00958165769141587,-0.018,0.034));
#1971=CARTESIAN_POINT('',(0.00958165769141587,-0.018,0.034));
#1972=CARTESIAN_POINT('',(0.00871563228763144,-0.018,0.0325));
#1973=CARTESIAN_POINT('',(-1.04083408558608E-17,-0.018,0.029));
#1974=CARTESIAN_POINT('',(0.0113137084989848,-0.018,0.031));
#1975=CARTESIAN_POINT('',(0.0113137084989848,-0.018,0.034));
#1976=CARTESIAN_POINT('',(0.0130457593065536,-0.018,0.034));
#1977=CARTESIAN_POINT('',(0.0139117847103381,-0.018,0.0325));
#1978=CARTESIAN_POINT('',(0.0147778101141225,-0.018,0.031));
#1979=CARTESIAN_POINT('',(0.0139117847103381,-0.018,0.0295));
#1980=CARTESIAN_POINT('',(0.0130457593065536,-0.018,0.028));
#1981=CARTESIAN_POINT('',(0.0113137084989848,-0.018,0.028));
#1982=CARTESIAN_POINT('',(0.0113137084989848,-0.018,0.028));
#1983=CARTESIAN_POINT('',(0.0130457593065536,-0.018,0.028));
#1984=CARTESIAN_POINT('',(0.0113137084989848,-0.018,0.034));
#1985=CARTESIAN_POINT('',(0.0130457593065536,-0.018,0.034));
#1986=CARTESIAN_POINT('',(0.0139117847103381,-0.018,0.0325));
#1987=CARTESIAN_POINT('',(0.0147778101141225,-0.018,0.031));
#1988=CARTESIAN_POINT('',(0.0139117847103381,-0.018,0.0295));
#1989=CARTESIAN_POINT('',(0.0015,-0.018,0.0397156322876315));
#1990=CARTESIAN_POINT('',(0.0015,-0.018,0.0397156322876315));
#1991=CARTESIAN_POINT('',(0.003,-0.018,0.0405816576914158));
#1992=CARTESIAN_POINT('',(0.003,-0.018,0.0405816576914158));
#1993=CARTESIAN_POINT('',(-0.0015,-0.018,0.0397156322876315));
#1994=CARTESIAN_POINT('',(-0.003,-0.018,0.0405816576914159));
#1995=CARTESIAN_POINT('',(-0.003,-0.018,0.0405816576914159));
#1996=CARTESIAN_POINT('',(-0.0015,-0.018,0.0397156322876315));
#1997=CARTESIAN_POINT('',(-1.04083408558608E-17,-0.018,0.029));
#1998=CARTESIAN_POINT('',(-6.50521303491303E-19,-0.018,0.0423137084989847));
#1999=CARTESIAN_POINT('',(-0.003,-0.018,0.0423137084989847));
#2000=CARTESIAN_POINT('',(-0.003,-0.018,0.0440457593065537));
#2001=CARTESIAN_POINT('',(-0.0015,-0.018,0.0449117847103381));
#2002=CARTESIAN_POINT('',(1.21430643318376E-17,-0.018,0.0457778101141225));
#2003=CARTESIAN_POINT('',(0.0015,-0.018,0.0449117847103381));
#2004=CARTESIAN_POINT('',(0.003,-0.018,0.0440457593065537));
#2005=CARTESIAN_POINT('',(0.003,-0.018,0.0423137084989847));
#2006=CARTESIAN_POINT('',(-0.003,-0.018,0.0423137084989847));
#2007=CARTESIAN_POINT('',(-0.003,-0.018,0.0440457593065537));
#2008=CARTESIAN_POINT('',(-0.0015,-0.018,0.0449117847103381));
#2009=CARTESIAN_POINT('',(1.21430643318376E-17,-0.018,0.0457778101141225));
#2010=CARTESIAN_POINT('',(0.0015,-0.018,0.0449117847103381));
#2011=CARTESIAN_POINT('',(0.003,-0.018,0.0440457593065537));
#2012=CARTESIAN_POINT('',(0.003,-0.018,0.0423137084989847));
#2013=CARTESIAN_POINT('',(-6.50521303491303E-19,0.003,0.0423137084989847));
#2014=CARTESIAN_POINT('',(0.0113137084989848,0.003,0.031));
#2015=CARTESIAN_POINT('',(-0.0113137084989848,0.003,0.031));
#2016=CARTESIAN_POINT('',(-1.51788304147971E-18,0.003,0.0196862915010153));
#2017=MECHANICAL_DESIGN_GEOMETRIC_PRESENTATION_REPRESENTATION('',(#1220),
#2018);
#2018=(
GEOMETRIC_REPRESENTATION_CONTEXT(3)
GLOBAL_UNCERTAINTY_ASSIGNED_CONTEXT((#2019))
GLOBAL_UNIT_ASSIGNED_CONTEXT((#2022,#2021,#2020))
REPRESENTATION_CONTEXT('Part 1','TOP_LEVEL_ASSEMBLY_PART')
);
#2019=UNCERTAINTY_MEASURE_WITH_UNIT(LENGTH_MEASURE(1.E-8),#2022,
'DISTANCE_ACCURACY_VALUE','Maximum Tolerance applied to model');
#2020=(
NAMED_UNIT(*)
SI_UNIT($,.STERADIAN.)
SOLID_ANGLE_UNIT()
);
#2021=(
NAMED_UNIT(*)
PLANE_ANGLE_UNIT()
SI_UNIT($,.RADIAN.)
);
#2022=(
LENGTH_UNIT()
NAMED_UNIT(*)
SI_UNIT($,.METRE.)
);
#2023=PRODUCT_DEFINITION_SHAPE('','',#2024);
#2024=PRODUCT_DEFINITION('','',#2026,#2025);
#2025=PRODUCT_DEFINITION_CONTEXT('',#2032,'design');
#2026=PRODUCT_DEFINITION_FORMATION_WITH_SPECIFIED_SOURCE('','',#2028,
 .NOT_KNOWN.);
#2027=PRODUCT_RELATED_PRODUCT_CATEGORY('','',(#2028));
#2028=PRODUCT('Part 1','Part 1','Part 1',(#2030));
#2029=PRODUCT_CATEGORY('','');
#2030=PRODUCT_CONTEXT('',#2032,'mechanical');
#2031=APPLICATION_PROTOCOL_DEFINITION('international standard',
'automotive_design',2010,#2032);
#2032=APPLICATION_CONTEXT(
'core data for automotive mechanical design processes');
ENDSEC;
END-ISO-10303-21;
