ISO-10303-21;
HEADER;
/* Generated by software containing ST-Developer
 * from STEP Tools, Inc. (www.steptools.com) 
 */
/* OPTION: using custom renumber hook */

FILE_DESCRIPTION(
/* description */ ('STEP AP214'),
/* implementation_level */ '2;1');

FILE_NAME(
/* name */ '68e562ea4c0ea6da53ecc147',
/* time_stamp */ '2025-10-07T18:58:51Z',
/* author */ (''),
/* organization */ (''),
/* preprocessor_version */ 'ST-DEVELOPER v20',
/* originating_system */ 'ONSHAPE BY PTC INC, 1.204',
/* authorisation */ '  ');

FILE_SCHEMA (('AUTOMOTIVE_DESIGN {1 0 10303 214 3 1 1}'));
ENDSEC;

DATA;
#10=PROPERTY_DEFINITION_REPRESENTATION(#14,#12);
#11=PROPERTY_DEFINITION_REPRESENTATION(#15,#13);
#12=REPRESENTATION('',(#16),#474);
#13=REPRESENTATION('',(#17),#474);
#14=PROPERTY_DEFINITION('pmi validation property','',#479);
#15=PROPERTY_DEFINITION('pmi validation property','',#479);
#16=VALUE_REPRESENTATION_ITEM('number of annotations',COUNT_MEASURE(0.));
#17=VALUE_REPRESENTATION_ITEM('number of views',COUNT_MEASURE(0.));
#18=SHAPE_REPRESENTATION_RELATIONSHIP('','',#290,#19);
#19=ADVANCED_BREP_SHAPE_REPRESENTATION('',(#288),#474);
#20=ELLIPSE('',#296,0.0232937140592268,0.0225);
#21=CIRCLE('',#295,0.0225);
#22=CIRCLE('',#298,0.01725);
#23=CIRCLE('',#299,0.0014);
#24=CIRCLE('',#300,0.0014);
#25=CIRCLE('',#301,0.0014);
#26=CIRCLE('',#302,0.0014);
#27=CIRCLE('',#304,0.01725);
#28=CIRCLE('',#306,0.0014);
#29=CIRCLE('',#308,0.0014);
#30=CIRCLE('',#310,0.0014);
#31=CIRCLE('',#312,0.005);
#32=CIRCLE('',#313,0.005);
#33=CIRCLE('',#315,0.0014);
#34=CYLINDRICAL_SURFACE('',#294,0.0225);
#35=CYLINDRICAL_SURFACE('',#303,0.01725);
#36=CYLINDRICAL_SURFACE('',#305,0.0014);
#37=CYLINDRICAL_SURFACE('',#307,0.0014);
#38=CYLINDRICAL_SURFACE('',#309,0.0014);
#39=CYLINDRICAL_SURFACE('',#311,0.005);
#40=CYLINDRICAL_SURFACE('',#314,0.0014);
#41=ORIENTED_EDGE('',*,*,#107,.F.);
#42=ORIENTED_EDGE('',*,*,#108,.F.);
#43=ORIENTED_EDGE('',*,*,#109,.T.);
#44=ORIENTED_EDGE('',*,*,#110,.F.);
#45=ORIENTED_EDGE('',*,*,#111,.T.);
#46=ORIENTED_EDGE('',*,*,#112,.F.);
#47=ORIENTED_EDGE('',*,*,#113,.F.);
#48=ORIENTED_EDGE('',*,*,#114,.T.);
#49=ORIENTED_EDGE('',*,*,#115,.F.);
#50=ORIENTED_EDGE('',*,*,#116,.T.);
#51=ORIENTED_EDGE('',*,*,#117,.T.);
#52=ORIENTED_EDGE('',*,*,#118,.F.);
#53=ORIENTED_EDGE('',*,*,#119,.T.);
#54=ORIENTED_EDGE('',*,*,#120,.F.);
#55=ORIENTED_EDGE('',*,*,#121,.F.);
#56=ORIENTED_EDGE('',*,*,#122,.F.);
#57=ORIENTED_EDGE('',*,*,#123,.F.);
#58=ORIENTED_EDGE('',*,*,#124,.T.);
#59=ORIENTED_EDGE('',*,*,#123,.T.);
#60=ORIENTED_EDGE('',*,*,#118,.T.);
#61=ORIENTED_EDGE('',*,*,#125,.F.);
#62=ORIENTED_EDGE('',*,*,#112,.T.);
#63=ORIENTED_EDGE('',*,*,#126,.T.);
#64=ORIENTED_EDGE('',*,*,#127,.T.);
#65=ORIENTED_EDGE('',*,*,#128,.T.);
#66=ORIENTED_EDGE('',*,*,#129,.T.);
#67=ORIENTED_EDGE('',*,*,#125,.T.);
#68=ORIENTED_EDGE('',*,*,#117,.F.);
#69=ORIENTED_EDGE('',*,*,#130,.F.);
#70=ORIENTED_EDGE('',*,*,#113,.T.);
#71=ORIENTED_EDGE('',*,*,#131,.T.);
#72=ORIENTED_EDGE('',*,*,#127,.F.);
#73=ORIENTED_EDGE('',*,*,#132,.T.);
#74=ORIENTED_EDGE('',*,*,#128,.F.);
#75=ORIENTED_EDGE('',*,*,#133,.T.);
#76=ORIENTED_EDGE('',*,*,#129,.F.);
#77=ORIENTED_EDGE('',*,*,#134,.T.);
#78=ORIENTED_EDGE('',*,*,#121,.T.);
#79=ORIENTED_EDGE('',*,*,#135,.T.);
#80=ORIENTED_EDGE('',*,*,#109,.F.);
#81=ORIENTED_EDGE('',*,*,#136,.T.);
#82=ORIENTED_EDGE('',*,*,#126,.F.);
#83=ORIENTED_EDGE('',*,*,#137,.F.);
#84=ORIENTED_EDGE('',*,*,#114,.F.);
#85=ORIENTED_EDGE('',*,*,#130,.T.);
#86=ORIENTED_EDGE('',*,*,#116,.F.);
#87=ORIENTED_EDGE('',*,*,#133,.F.);
#88=ORIENTED_EDGE('',*,*,#132,.F.);
#89=ORIENTED_EDGE('',*,*,#131,.F.);
#90=ORIENTED_EDGE('',*,*,#136,.F.);
#91=ORIENTED_EDGE('',*,*,#138,.F.);
#92=ORIENTED_EDGE('',*,*,#110,.T.);
#93=ORIENTED_EDGE('',*,*,#135,.F.);
#94=ORIENTED_EDGE('',*,*,#120,.T.);
#95=ORIENTED_EDGE('',*,*,#138,.T.);
#96=ORIENTED_EDGE('',*,*,#119,.F.);
#97=ORIENTED_EDGE('',*,*,#124,.F.);
#98=ORIENTED_EDGE('',*,*,#111,.F.);
#99=ORIENTED_EDGE('',*,*,#107,.T.);
#100=ORIENTED_EDGE('',*,*,#137,.T.);
#101=ORIENTED_EDGE('',*,*,#115,.T.);
#102=ORIENTED_EDGE('',*,*,#139,.F.);
#103=ORIENTED_EDGE('',*,*,#108,.T.);
#104=ORIENTED_EDGE('',*,*,#139,.T.);
#105=ORIENTED_EDGE('',*,*,#122,.T.);
#106=ORIENTED_EDGE('',*,*,#134,.F.);
#107=EDGE_CURVE('',#140,#141,#164,.T.);
#108=EDGE_CURVE('',#142,#140,#165,.T.);
#109=EDGE_CURVE('',#142,#143,#166,.T.);
#110=EDGE_CURVE('',#144,#143,#167,.T.);
#111=EDGE_CURVE('',#144,#145,#168,.T.);
#112=EDGE_CURVE('',#146,#145,#169,.T.);
#113=EDGE_CURVE('',#147,#146,#170,.T.);
#114=EDGE_CURVE('',#147,#141,#171,.T.);
#115=EDGE_CURVE('',#148,#149,#172,.T.);
#116=EDGE_CURVE('',#148,#150,#173,.T.);
#117=EDGE_CURVE('',#150,#151,#174,.T.);
#118=EDGE_CURVE('',#152,#151,#175,.T.);
#119=EDGE_CURVE('',#152,#153,#176,.T.);
#120=EDGE_CURVE('',#154,#153,#177,.T.);
#121=EDGE_CURVE('',#155,#154,#178,.T.);
#122=EDGE_CURVE('',#149,#155,#179,.T.);
#123=EDGE_CURVE('',#145,#152,#21,.T.);
#124=EDGE_CURVE('',#145,#152,#20,.T.);
#125=EDGE_CURVE('',#146,#151,#22,.T.);
#126=EDGE_CURVE('',#156,#156,#23,.T.);
#127=EDGE_CURVE('',#157,#157,#24,.T.);
#128=EDGE_CURVE('',#158,#158,#25,.T.);
#129=EDGE_CURVE('',#159,#159,#26,.T.);
#130=EDGE_CURVE('',#147,#150,#27,.T.);
#131=EDGE_CURVE('',#160,#160,#28,.T.);
#132=EDGE_CURVE('',#161,#161,#29,.T.);
#133=EDGE_CURVE('',#162,#162,#30,.T.);
#134=EDGE_CURVE('',#142,#155,#31,.T.);
#135=EDGE_CURVE('',#154,#143,#32,.T.);
#136=EDGE_CURVE('',#163,#163,#33,.T.);
#137=EDGE_CURVE('',#141,#148,#180,.T.);
#138=EDGE_CURVE('',#144,#153,#181,.T.);
#139=EDGE_CURVE('',#140,#149,#182,.T.);
#140=VERTEX_POINT('',#403);
#141=VERTEX_POINT('',#404);
#142=VERTEX_POINT('',#406);
#143=VERTEX_POINT('',#408);
#144=VERTEX_POINT('',#410);
#145=VERTEX_POINT('',#412);
#146=VERTEX_POINT('',#414);
#147=VERTEX_POINT('',#416);
#148=VERTEX_POINT('',#420);
#149=VERTEX_POINT('',#421);
#150=VERTEX_POINT('',#423);
#151=VERTEX_POINT('',#425);
#152=VERTEX_POINT('',#427);
#153=VERTEX_POINT('',#429);
#154=VERTEX_POINT('',#431);
#155=VERTEX_POINT('',#433);
#156=VERTEX_POINT('',#441);
#157=VERTEX_POINT('',#443);
#158=VERTEX_POINT('',#445);
#159=VERTEX_POINT('',#447);
#160=VERTEX_POINT('',#452);
#161=VERTEX_POINT('',#455);
#162=VERTEX_POINT('',#458);
#163=VERTEX_POINT('',#464);
#164=LINE('',#402,#183);
#165=LINE('',#405,#184);
#166=LINE('',#407,#185);
#167=LINE('',#409,#186);
#168=LINE('',#411,#187);
#169=LINE('',#413,#188);
#170=LINE('',#415,#189);
#171=LINE('',#417,#190);
#172=LINE('',#419,#191);
#173=LINE('',#422,#192);
#174=LINE('',#424,#193);
#175=LINE('',#426,#194);
#176=LINE('',#428,#195);
#177=LINE('',#430,#196);
#178=LINE('',#432,#197);
#179=LINE('',#434,#198);
#180=LINE('',#466,#199);
#181=LINE('',#468,#200);
#182=LINE('',#471,#201);
#183=VECTOR('',#325,1.);
#184=VECTOR('',#326,1.);
#185=VECTOR('',#327,1.);
#186=VECTOR('',#328,1.);
#187=VECTOR('',#329,1.);
#188=VECTOR('',#330,1.);
#189=VECTOR('',#331,1.);
#190=VECTOR('',#332,1.);
#191=VECTOR('',#335,1.);
#192=VECTOR('',#336,1.);
#193=VECTOR('',#337,1.);
#194=VECTOR('',#338,1.);
#195=VECTOR('',#339,1.);
#196=VECTOR('',#340,1.);
#197=VECTOR('',#341,1.);
#198=VECTOR('',#342,1.);
#199=VECTOR('',#389,1.);
#200=VECTOR('',#392,1.);
#201=VECTOR('',#397,1.);
#202=EDGE_LOOP('',(#41,#42,#43,#44,#45,#46,#47,#48));
#203=EDGE_LOOP('',(#49,#50,#51,#52,#53,#54,#55,#56));
#204=EDGE_LOOP('',(#57,#58));
#205=EDGE_LOOP('',(#59,#60,#61,#62));
#206=EDGE_LOOP('',(#63));
#207=EDGE_LOOP('',(#64));
#208=EDGE_LOOP('',(#65));
#209=EDGE_LOOP('',(#66));
#210=EDGE_LOOP('',(#67,#68,#69,#70));
#211=EDGE_LOOP('',(#71));
#212=EDGE_LOOP('',(#72));
#213=EDGE_LOOP('',(#73));
#214=EDGE_LOOP('',(#74));
#215=EDGE_LOOP('',(#75));
#216=EDGE_LOOP('',(#76));
#217=EDGE_LOOP('',(#77,#78,#79,#80));
#218=EDGE_LOOP('',(#81));
#219=EDGE_LOOP('',(#82));
#220=EDGE_LOOP('',(#83,#84,#85,#86));
#221=EDGE_LOOP('',(#87));
#222=EDGE_LOOP('',(#88));
#223=EDGE_LOOP('',(#89));
#224=EDGE_LOOP('',(#90));
#225=EDGE_LOOP('',(#91,#92,#93,#94));
#226=EDGE_LOOP('',(#95,#96,#97,#98));
#227=EDGE_LOOP('',(#99,#100,#101,#102));
#228=EDGE_LOOP('',(#103,#104,#105,#106));
#229=FACE_BOUND('',#202,.T.);
#230=FACE_BOUND('',#203,.T.);
#231=FACE_BOUND('',#204,.T.);
#232=FACE_BOUND('',#205,.T.);
#233=FACE_BOUND('',#206,.T.);
#234=FACE_BOUND('',#207,.T.);
#235=FACE_BOUND('',#208,.T.);
#236=FACE_BOUND('',#209,.T.);
#237=FACE_BOUND('',#210,.T.);
#238=FACE_BOUND('',#211,.T.);
#239=FACE_BOUND('',#212,.T.);
#240=FACE_BOUND('',#213,.T.);
#241=FACE_BOUND('',#214,.T.);
#242=FACE_BOUND('',#215,.T.);
#243=FACE_BOUND('',#216,.T.);
#244=FACE_BOUND('',#217,.T.);
#245=FACE_BOUND('',#218,.T.);
#246=FACE_BOUND('',#219,.T.);
#247=FACE_BOUND('',#220,.T.);
#248=FACE_BOUND('',#221,.T.);
#249=FACE_BOUND('',#222,.T.);
#250=FACE_BOUND('',#223,.T.);
#251=FACE_BOUND('',#224,.T.);
#252=FACE_BOUND('',#225,.T.);
#253=FACE_BOUND('',#226,.T.);
#254=FACE_BOUND('',#227,.T.);
#255=FACE_BOUND('',#228,.T.);
#256=PLANE('',#292);
#257=PLANE('',#293);
#258=PLANE('',#297);
#259=PLANE('',#316);
#260=PLANE('',#317);
#261=PLANE('',#318);
#262=PLANE('',#319);
#263=PLANE('',#320);
#264=ADVANCED_FACE('',(#229),#256,.T.);
#265=ADVANCED_FACE('',(#230),#257,.T.);
#266=ADVANCED_FACE('',(#231),#34,.F.);
#267=ADVANCED_FACE('',(#232,#233,#234,#235,#236),#258,.F.);
#268=ADVANCED_FACE('',(#237),#35,.T.);
#269=ADVANCED_FACE('',(#238,#239),#36,.F.);
#270=ADVANCED_FACE('',(#240,#241),#37,.F.);
#271=ADVANCED_FACE('',(#242,#243),#38,.F.);
#272=ADVANCED_FACE('',(#244),#39,.T.);
#273=ADVANCED_FACE('',(#245,#246),#40,.F.);
#274=ADVANCED_FACE('',(#247,#248,#249,#250,#251),#259,.T.);
#275=ADVANCED_FACE('',(#252),#260,.T.);
#276=ADVANCED_FACE('',(#253),#261,.T.);
#277=ADVANCED_FACE('',(#254),#262,.F.);
#278=ADVANCED_FACE('',(#255),#263,.F.);
#279=CLOSED_SHELL('',(#264,#265,#266,#267,#268,#269,#270,#271,#272,#273,
#274,#275,#276,#277,#278));
#280=STYLED_ITEM('',(#281),#288);
#281=PRESENTATION_STYLE_ASSIGNMENT((#282));
#282=SURFACE_STYLE_USAGE(.BOTH.,#283);
#283=SURFACE_SIDE_STYLE('',(#284));
#284=SURFACE_STYLE_FILL_AREA(#285);
#285=FILL_AREA_STYLE('',(#286));
#286=FILL_AREA_STYLE_COLOUR('',#287);
#287=COLOUR_RGB('',0.615686274509804,0.811764705882353,0.929411764705882);
#288=MANIFOLD_SOLID_BREP('Part 1',#279);
#289=SHAPE_DEFINITION_REPRESENTATION(#479,#290);
#290=SHAPE_REPRESENTATION('Part 1',(#291),#474);
#291=AXIS2_PLACEMENT_3D('',#400,#321,#322);
#292=AXIS2_PLACEMENT_3D('',#401,#323,#324);
#293=AXIS2_PLACEMENT_3D('',#418,#333,#334);
#294=AXIS2_PLACEMENT_3D('',#435,#343,#344);
#295=AXIS2_PLACEMENT_3D('',#436,#345,#346);
#296=AXIS2_PLACEMENT_3D('',#437,#347,#348);
#297=AXIS2_PLACEMENT_3D('',#438,#349,#350);
#298=AXIS2_PLACEMENT_3D('',#439,#351,#352);
#299=AXIS2_PLACEMENT_3D('',#440,#353,#354);
#300=AXIS2_PLACEMENT_3D('',#442,#355,#356);
#301=AXIS2_PLACEMENT_3D('',#444,#357,#358);
#302=AXIS2_PLACEMENT_3D('',#446,#359,#360);
#303=AXIS2_PLACEMENT_3D('',#448,#361,#362);
#304=AXIS2_PLACEMENT_3D('',#449,#363,#364);
#305=AXIS2_PLACEMENT_3D('',#450,#365,#366);
#306=AXIS2_PLACEMENT_3D('',#451,#367,#368);
#307=AXIS2_PLACEMENT_3D('',#453,#369,#370);
#308=AXIS2_PLACEMENT_3D('',#454,#371,#372);
#309=AXIS2_PLACEMENT_3D('',#456,#373,#374);
#310=AXIS2_PLACEMENT_3D('',#457,#375,#376);
#311=AXIS2_PLACEMENT_3D('',#459,#377,#378);
#312=AXIS2_PLACEMENT_3D('',#460,#379,#380);
#313=AXIS2_PLACEMENT_3D('',#461,#381,#382);
#314=AXIS2_PLACEMENT_3D('',#462,#383,#384);
#315=AXIS2_PLACEMENT_3D('',#463,#385,#386);
#316=AXIS2_PLACEMENT_3D('',#465,#387,#388);
#317=AXIS2_PLACEMENT_3D('',#467,#390,#391);
#318=AXIS2_PLACEMENT_3D('',#469,#393,#394);
#319=AXIS2_PLACEMENT_3D('',#470,#395,#396);
#320=AXIS2_PLACEMENT_3D('',#472,#398,#399);
#321=DIRECTION('',(0.,0.,1.));
#322=DIRECTION('',(1.,0.,0.));
#323=DIRECTION('',(-0.998024840957863,0.,0.0628205128205128));
#324=DIRECTION('',(0.0628205128205128,0.,0.998024840957863));
#325=DIRECTION('',(-0.0606879780151698,-0.258341986200416,-0.964145418228212));
#326=DIRECTION('',(-0.0628205128205128,1.2367337090654E-16,-0.998024840957863));
#327=DIRECTION('',(0.,1.,0.));
#328=DIRECTION('',(0.0628205128205128,0.,0.998024840957863));
#329=DIRECTION('',(-0.0606879780151698,-0.258341986200416,-0.964145418228212));
#330=DIRECTION('',(0.0628205128205128,0.,0.998024840957863));
#331=DIRECTION('',(0.,1.,0.));
#332=DIRECTION('',(0.0628205128205128,0.,0.998024840957863));
#333=DIRECTION('',(0.998024840957863,0.,0.0628205128205128));
#334=DIRECTION('',(0.0628205128205128,0.,-0.998024840957863));
#335=DIRECTION('',(-0.0606879780151698,0.258341986200416,0.964145418228212));
#336=DIRECTION('',(0.0628205128205128,0.,-0.998024840957863));
#337=DIRECTION('',(0.,1.,0.));
#338=DIRECTION('',(0.0628205128205128,0.,-0.998024840957863));
#339=DIRECTION('',(-0.0606879780151698,0.258341986200416,0.964145418228212));
#340=DIRECTION('',(0.0628205128205128,0.,-0.998024840957863));
#341=DIRECTION('',(0.,1.,0.));
#342=DIRECTION('',(-0.0628205128205128,-1.2367337090654E-16,0.998024840957863));
#343=DIRECTION('',(0.,-1.,0.));
#344=DIRECTION('',(0.,0.,-1.));
#345=DIRECTION('',(0.,1.,0.));
#346=DIRECTION('',(0.,0.,1.));
#347=DIRECTION('',(0.,0.965925826289069,-0.25881904510252));
#348=DIRECTION('',(0.,-0.25881904510252,-0.965925826289069));
#349=DIRECTION('',(0.,-1.,0.));
#350=DIRECTION('',(1.,0.,0.));
#351=DIRECTION('',(0.,-1.,0.));
#352=DIRECTION('',(0.,0.,-1.));
#353=DIRECTION('',(0.,-1.,0.));
#354=DIRECTION('',(0.,0.,-1.));
#355=DIRECTION('',(0.,-1.,0.));
#356=DIRECTION('',(0.,0.,-1.));
#357=DIRECTION('',(0.,-1.,0.));
#358=DIRECTION('',(0.,0.,-1.));
#359=DIRECTION('',(0.,-1.,0.));
#360=DIRECTION('',(0.,0.,-1.));
#361=DIRECTION('',(0.,1.,0.));
#362=DIRECTION('',(0.,0.,1.));
#363=DIRECTION('',(0.,-1.,0.));
#364=DIRECTION('',(0.,0.,-1.));
#365=DIRECTION('',(0.,1.,0.));
#366=DIRECTION('',(0.,0.,1.));
#367=DIRECTION('',(0.,-1.,0.));
#368=DIRECTION('',(0.,0.,-1.));
#369=DIRECTION('',(0.,1.,0.));
#370=DIRECTION('',(0.,0.,1.));
#371=DIRECTION('',(0.,-1.,0.));
#372=DIRECTION('',(0.,0.,-1.));
#373=DIRECTION('',(0.,1.,0.));
#374=DIRECTION('',(0.,0.,1.));
#375=DIRECTION('',(0.,-1.,0.));
#376=DIRECTION('',(0.,0.,-1.));
#377=DIRECTION('',(0.,1.,0.));
#378=DIRECTION('',(0.,0.,1.));
#379=DIRECTION('',(0.,1.,1.2391812891936E-16));
#380=DIRECTION('',(0.,-1.2391812891936E-16,1.));
#381=DIRECTION('',(0.,-1.,0.));
#382=DIRECTION('',(0.,0.,-1.));
#383=DIRECTION('',(0.,1.,0.));
#384=DIRECTION('',(0.,0.,1.));
#385=DIRECTION('',(0.,-1.,0.));
#386=DIRECTION('',(0.,0.,-1.));
#387=DIRECTION('',(0.,-1.,0.));
#388=DIRECTION('',(1.,0.,0.));
#389=DIRECTION('',(1.,0.,0.));
#390=DIRECTION('',(0.,1.,0.));
#391=DIRECTION('',(-1.,0.,0.));
#392=DIRECTION('',(1.,0.,0.));
#393=DIRECTION('',(0.,0.965925826289069,-0.25881904510252));
#394=DIRECTION('',(0.,0.25881904510252,0.965925826289069));
#395=DIRECTION('',(0.,0.965925826289069,-0.258819045102521));
#396=DIRECTION('',(0.,0.258819045102521,0.965925826289069));
#397=DIRECTION('',(1.,0.,0.));
#398=DIRECTION('',(0.,1.,1.2391812891936E-16));
#399=DIRECTION('',(0.,-1.2391812891936E-16,1.));
#400=CARTESIAN_POINT('',(0.,0.,0.));
#401=CARTESIAN_POINT('',(-0.0111030263556562,-0.01,0.0981988782051282));
#402=CARTESIAN_POINT('',(-0.0114449068081427,0.0103506829918386,0.0927674487420441));
#403=CARTESIAN_POINT('',(-0.0121850442629702,0.0072,0.0810089397379593));
#404=CARTESIAN_POINT('',(-0.0162255536560161,-0.01,0.0168176658477745));
#405=CARTESIAN_POINT('',(-0.0111030263556562,0.0072,0.0981988782051282));
#406=CARTESIAN_POINT('',(-0.00499012420478934,0.0072,0.195314102564103));
#407=CARTESIAN_POINT('',(-0.00499012420478931,-0.01,0.195314102564103));
#408=CARTESIAN_POINT('',(-0.00499012420478931,0.0172,0.195314102564103));
#409=CARTESIAN_POINT('',(-0.0111030263556562,0.0172,0.0981988782051282));
#410=CARTESIAN_POINT('',(-0.0122679127154689,0.0172,0.0796924147620853));
#411=CARTESIAN_POINT('',(-0.0116072200246674,0.0200124954495451,0.0901887906758442));
#412=CARTESIAN_POINT('',(-0.0163084221085148,0.,0.0155011408719005));
#413=CARTESIAN_POINT('',(-0.0111030263556562,0.,0.0981988782051282));
#414=CARTESIAN_POINT('',(-0.0172159285065232,0.,0.00108365384615383));
#415=CARTESIAN_POINT('',(-0.0172159285065232,-0.01,0.00108365384615383));
#416=CARTESIAN_POINT('',(-0.0172159285065232,-0.01,0.00108365384615383));
#417=CARTESIAN_POINT('',(-0.0111030263556562,-0.01,0.0981988782051282));
#418=CARTESIAN_POINT('',(0.0111030263556562,-0.01,0.0981988782051282));
#419=CARTESIAN_POINT('',(0.0114449068081427,0.0103506829918386,0.0927674487420441));
#420=CARTESIAN_POINT('',(0.0162255536560161,-0.01,0.0168176658477745));
#421=CARTESIAN_POINT('',(0.0121850442629702,0.0072,0.0810089397379593));
#422=CARTESIAN_POINT('',(0.0111030263556562,-0.01,0.0981988782051282));
#423=CARTESIAN_POINT('',(0.0172159285065232,-0.01,0.00108365384615375));
#424=CARTESIAN_POINT('',(0.0172159285065232,-0.01,0.00108365384615375));
#425=CARTESIAN_POINT('',(0.0172159285065232,0.,0.00108365384615375));
#426=CARTESIAN_POINT('',(0.0111030263556562,0.,0.0981988782051282));
#427=CARTESIAN_POINT('',(0.0163084221085148,0.,0.0155011408719005));
#428=CARTESIAN_POINT('',(0.0116072200246674,0.0200124954495451,0.0901887906758442));
#429=CARTESIAN_POINT('',(0.0122679127154689,0.0172,0.0796924147620853));
#430=CARTESIAN_POINT('',(0.0111030263556562,0.0172,0.0981988782051282));
#431=CARTESIAN_POINT('',(0.00499012420478931,0.0172,0.195314102564103));
#432=CARTESIAN_POINT('',(0.00499012420478931,-0.01,0.195314102564103));
#433=CARTESIAN_POINT('',(0.00499012420478928,0.0072,0.195314102564103));
#434=CARTESIAN_POINT('',(0.0111030263556562,0.0072,0.0981988782051282));
#435=CARTESIAN_POINT('',(8.67361737988404E-18,0.0172,-4.33680868994202E-18));
#436=CARTESIAN_POINT('',(8.67361737988404E-18,0.,-4.33680868994202E-18));
#437=CARTESIAN_POINT('',(8.67361737988404E-18,-0.00415351817838681,-4.33680868994202E-18));
#438=CARTESIAN_POINT('',(0.,0.,0.091375));
#439=CARTESIAN_POINT('',(3.2500087647127E-19,0.,4.33680868994202E-19));
#440=CARTESIAN_POINT('',(-0.008,0.,-4.33680868994202E-19));
#441=CARTESIAN_POINT('',(-0.008,0.,-0.0014));
#442=CARTESIAN_POINT('',(1.0842021724855E-18,0.,0.008));
#443=CARTESIAN_POINT('',(1.0842021724855E-18,0.,0.0066));
#444=CARTESIAN_POINT('',(0.008,0.,-4.33680868994202E-19));
#445=CARTESIAN_POINT('',(0.008,0.,-0.0014));
#446=CARTESIAN_POINT('',(0.,0.,-0.008));
#447=CARTESIAN_POINT('',(0.,0.,-0.0094));
#448=CARTESIAN_POINT('',(3.2500087647127E-19,-0.01,4.33680868994202E-19));
#449=CARTESIAN_POINT('',(3.2500087647127E-19,-0.01,4.33680868994202E-19));
#450=CARTESIAN_POINT('',(1.0842021724855E-18,-0.01,0.008));
#451=CARTESIAN_POINT('',(1.0842021724855E-18,-0.01,0.008));
#452=CARTESIAN_POINT('',(1.0842021724855E-18,-0.01,0.0066));
#453=CARTESIAN_POINT('',(0.008,-0.01,-4.33680868994202E-19));
#454=CARTESIAN_POINT('',(0.008,-0.01,-4.33680868994202E-19));
#455=CARTESIAN_POINT('',(0.008,-0.01,-0.0014));
#456=CARTESIAN_POINT('',(0.,-0.01,-0.008));
#457=CARTESIAN_POINT('',(0.,-0.01,-0.008));
#458=CARTESIAN_POINT('',(0.,-0.01,-0.0094));
#459=CARTESIAN_POINT('',(-2.86229373536173E-17,-0.01,0.195));
#460=CARTESIAN_POINT('',(-2.86229373536173E-17,0.0072,0.195));
#461=CARTESIAN_POINT('',(-2.86229373536173E-17,0.0172,0.195));
#462=CARTESIAN_POINT('',(-0.008,-0.01,-4.33680868994202E-19));
#463=CARTESIAN_POINT('',(-0.008,-0.01,-4.33680868994202E-19));
#464=CARTESIAN_POINT('',(-0.008,-0.01,-0.0014));
#465=CARTESIAN_POINT('',(0.,-0.01,0.091375));
#466=CARTESIAN_POINT('',(-0.025,-0.01,0.0168176658477745));
#467=CARTESIAN_POINT('',(0.,0.0172,0.091375));
#468=CARTESIAN_POINT('',(-0.025,0.0172,0.0796924147620853));
#469=CARTESIAN_POINT('',(-0.025,0.0086,0.047596777816993));
#470=CARTESIAN_POINT('',(-0.025,-0.0014,0.0489133027928669));
#471=CARTESIAN_POINT('',(-0.025,0.0072,0.0810089397379593));
#472=CARTESIAN_POINT('',(-0.025,0.0072,0.14050446986898));
#473=MECHANICAL_DESIGN_GEOMETRIC_PRESENTATION_REPRESENTATION('',(#280),
#474);
#474=(
GEOMETRIC_REPRESENTATION_CONTEXT(3)
GLOBAL_UNCERTAINTY_ASSIGNED_CONTEXT((#475))
GLOBAL_UNIT_ASSIGNED_CONTEXT((#478,#477,#476))
REPRESENTATION_CONTEXT('Part 1','TOP_LEVEL_ASSEMBLY_PART')
);
#475=UNCERTAINTY_MEASURE_WITH_UNIT(LENGTH_MEASURE(1.E-8),#478,
'DISTANCE_ACCURACY_VALUE','Maximum Tolerance applied to model');
#476=(
NAMED_UNIT(*)
SI_UNIT($,.STERADIAN.)
SOLID_ANGLE_UNIT()
);
#477=(
NAMED_UNIT(*)
PLANE_ANGLE_UNIT()
SI_UNIT($,.RADIAN.)
);
#478=(
LENGTH_UNIT()
NAMED_UNIT(*)
SI_UNIT($,.METRE.)
);
#479=PRODUCT_DEFINITION_SHAPE('','',#480);
#480=PRODUCT_DEFINITION('','',#482,#481);
#481=PRODUCT_DEFINITION_CONTEXT('',#488,'design');
#482=PRODUCT_DEFINITION_FORMATION_WITH_SPECIFIED_SOURCE('','',#484,
 .NOT_KNOWN.);
#483=PRODUCT_RELATED_PRODUCT_CATEGORY('','',(#484));
#484=PRODUCT('Part 1','Part 1','Part 1',(#486));
#485=PRODUCT_CATEGORY('','');
#486=PRODUCT_CONTEXT('',#488,'mechanical');
#487=APPLICATION_PROTOCOL_DEFINITION('international standard',
'automotive_design',2010,#488);
#488=APPLICATION_CONTEXT(
'core data for automotive mechanical design processes');
ENDSEC;
END-ISO-10303-21;
