ISO-10303-21;
HEADER;
/* Generated by software containing ST-Developer
 * from STEP Tools, Inc. (www.steptools.com) 
 */
/* OPTION: using custom renumber hook */

FILE_DESCRIPTION(
/* description */ ('STEP AP214'),
/* implementation_level */ '2;1');

FILE_NAME(
/* name */ '68e562df4c0ea6da53ecc126',
/* time_stamp */ '2025-10-07T18:58:40Z',
/* author */ (''),
/* organization */ (''),
/* preprocessor_version */ 'ST-DEVELOPER v20',
/* originating_system */ 'ONSHAPE BY PTC INC, 1.204',
/* authorisation */ '  ');

FILE_SCHEMA (('AUTOMOTIVE_DESIGN {1 0 10303 214 3 1 1}'));
ENDSEC;

DATA;
#10=PROPERTY_DEFINITION_REPRESENTATION(#14,#12);
#11=PROPERTY_DEFINITION_REPRESENTATION(#15,#13);
#12=REPRESENTATION('',(#16),#1783);
#13=REPRESENTATION('',(#17),#1783);
#14=PROPERTY_DEFINITION('pmi validation property','',#1788);
#15=PROPERTY_DEFINITION('pmi validation property','',#1788);
#16=VALUE_REPRESENTATION_ITEM('number of annotations',COUNT_MEASURE(0.));
#17=VALUE_REPRESENTATION_ITEM('number of views',COUNT_MEASURE(0.));
#18=SHAPE_REPRESENTATION_RELATIONSHIP('','',#1097,#19);
#19=ADVANCED_BREP_SHAPE_REPRESENTATION('',(#1095),#1783);
#20=CYLINDRICAL_SURFACE('',#1111,0.00175);
#21=CYLINDRICAL_SURFACE('',#1114,0.00175);
#22=CYLINDRICAL_SURFACE('',#1117,0.00175);
#23=CYLINDRICAL_SURFACE('',#1120,0.00175);
#24=CYLINDRICAL_SURFACE('',#1124,0.0014);
#25=CYLINDRICAL_SURFACE('',#1126,0.00140000000000001);
#26=CYLINDRICAL_SURFACE('',#1128,0.0014);
#27=CYLINDRICAL_SURFACE('',#1130,0.00140000000000001);
#28=CYLINDRICAL_SURFACE('',#1133,0.02);
#29=CYLINDRICAL_SURFACE('',#1140,0.0012);
#30=CYLINDRICAL_SURFACE('',#1142,0.0012);
#31=CYLINDRICAL_SURFACE('',#1144,0.0012);
#32=CYLINDRICAL_SURFACE('',#1146,0.0012);
#33=CYLINDRICAL_SURFACE('',#1148,0.007);
#34=CYLINDRICAL_SURFACE('',#1150,0.0175);
#35=CYLINDRICAL_SURFACE('',#1157,0.003);
#36=CYLINDRICAL_SURFACE('',#1160,0.003);
#37=CYLINDRICAL_SURFACE('',#1163,0.003);
#38=CYLINDRICAL_SURFACE('',#1166,0.003);
#39=CIRCLE('',#1100,0.0175);
#40=CIRCLE('',#1101,0.02);
#41=CIRCLE('',#1102,0.0012);
#42=CIRCLE('',#1103,0.0012);
#43=CIRCLE('',#1104,0.0012);
#44=CIRCLE('',#1105,0.0014);
#45=CIRCLE('',#1106,0.00140000000000001);
#46=CIRCLE('',#1107,0.0014);
#47=CIRCLE('',#1108,0.00140000000000001);
#48=CIRCLE('',#1109,0.0012);
#49=CIRCLE('',#1110,0.007);
#50=CIRCLE('',#1112,0.00175);
#51=CIRCLE('',#1113,0.00175);
#52=CIRCLE('',#1115,0.00175);
#53=CIRCLE('',#1116,0.00175);
#54=CIRCLE('',#1118,0.00175);
#55=CIRCLE('',#1119,0.00175);
#56=CIRCLE('',#1121,0.00175);
#57=CIRCLE('',#1122,0.00175);
#58=CIRCLE('',#1125,0.0014);
#59=CIRCLE('',#1127,0.00140000000000001);
#60=CIRCLE('',#1129,0.0014);
#61=CIRCLE('',#1131,0.00140000000000001);
#62=CIRCLE('',#1134,0.02);
#63=CIRCLE('',#1141,0.0012);
#64=CIRCLE('',#1143,0.0012);
#65=CIRCLE('',#1145,0.0012);
#66=CIRCLE('',#1147,0.0012);
#67=CIRCLE('',#1149,0.007);
#68=CIRCLE('',#1151,0.0175);
#69=CIRCLE('',#1153,0.003);
#70=CIRCLE('',#1154,0.003);
#71=CIRCLE('',#1155,0.003);
#72=CIRCLE('',#1156,0.003);
#73=CIRCLE('',#1158,0.003);
#74=CIRCLE('',#1161,0.003);
#75=CIRCLE('',#1164,0.003);
#76=CIRCLE('',#1167,0.003);
#77=ORIENTED_EDGE('',*,*,#345,.F.);
#78=ORIENTED_EDGE('',*,*,#346,.F.);
#79=ORIENTED_EDGE('',*,*,#347,.T.);
#80=ORIENTED_EDGE('',*,*,#348,.F.);
#81=ORIENTED_EDGE('',*,*,#349,.T.);
#82=ORIENTED_EDGE('',*,*,#350,.T.);
#83=ORIENTED_EDGE('',*,*,#351,.T.);
#84=ORIENTED_EDGE('',*,*,#352,.T.);
#85=ORIENTED_EDGE('',*,*,#353,.T.);
#86=ORIENTED_EDGE('',*,*,#354,.T.);
#87=ORIENTED_EDGE('',*,*,#355,.T.);
#88=ORIENTED_EDGE('',*,*,#356,.T.);
#89=ORIENTED_EDGE('',*,*,#357,.T.);
#90=ORIENTED_EDGE('',*,*,#358,.F.);
#91=ORIENTED_EDGE('',*,*,#359,.F.);
#92=ORIENTED_EDGE('',*,*,#360,.F.);
#93=ORIENTED_EDGE('',*,*,#361,.F.);
#94=ORIENTED_EDGE('',*,*,#362,.F.);
#95=ORIENTED_EDGE('',*,*,#363,.F.);
#96=ORIENTED_EDGE('',*,*,#364,.F.);
#97=ORIENTED_EDGE('',*,*,#365,.F.);
#98=ORIENTED_EDGE('',*,*,#366,.F.);
#99=ORIENTED_EDGE('',*,*,#367,.F.);
#100=ORIENTED_EDGE('',*,*,#368,.F.);
#101=ORIENTED_EDGE('',*,*,#369,.F.);
#102=ORIENTED_EDGE('',*,*,#370,.F.);
#103=ORIENTED_EDGE('',*,*,#371,.F.);
#104=ORIENTED_EDGE('',*,*,#372,.F.);
#105=ORIENTED_EDGE('',*,*,#373,.F.);
#106=ORIENTED_EDGE('',*,*,#374,.F.);
#107=ORIENTED_EDGE('',*,*,#375,.F.);
#108=ORIENTED_EDGE('',*,*,#376,.F.);
#109=ORIENTED_EDGE('',*,*,#377,.F.);
#110=ORIENTED_EDGE('',*,*,#378,.T.);
#111=ORIENTED_EDGE('',*,*,#379,.T.);
#112=ORIENTED_EDGE('',*,*,#380,.F.);
#113=ORIENTED_EDGE('',*,*,#381,.F.);
#114=ORIENTED_EDGE('',*,*,#382,.F.);
#115=ORIENTED_EDGE('',*,*,#383,.F.);
#116=ORIENTED_EDGE('',*,*,#384,.F.);
#117=ORIENTED_EDGE('',*,*,#385,.F.);
#118=ORIENTED_EDGE('',*,*,#386,.F.);
#119=ORIENTED_EDGE('',*,*,#387,.T.);
#120=ORIENTED_EDGE('',*,*,#388,.T.);
#121=ORIENTED_EDGE('',*,*,#389,.F.);
#122=ORIENTED_EDGE('',*,*,#390,.T.);
#123=ORIENTED_EDGE('',*,*,#391,.F.);
#124=ORIENTED_EDGE('',*,*,#392,.T.);
#125=ORIENTED_EDGE('',*,*,#393,.F.);
#126=ORIENTED_EDGE('',*,*,#394,.T.);
#127=ORIENTED_EDGE('',*,*,#395,.F.);
#128=ORIENTED_EDGE('',*,*,#396,.F.);
#129=ORIENTED_EDGE('',*,*,#397,.T.);
#130=ORIENTED_EDGE('',*,*,#381,.T.);
#131=ORIENTED_EDGE('',*,*,#398,.F.);
#132=ORIENTED_EDGE('',*,*,#399,.F.);
#133=ORIENTED_EDGE('',*,*,#387,.F.);
#134=ORIENTED_EDGE('',*,*,#352,.F.);
#135=ORIENTED_EDGE('',*,*,#400,.T.);
#136=ORIENTED_EDGE('',*,*,#353,.F.);
#137=ORIENTED_EDGE('',*,*,#401,.T.);
#138=ORIENTED_EDGE('',*,*,#354,.F.);
#139=ORIENTED_EDGE('',*,*,#402,.T.);
#140=ORIENTED_EDGE('',*,*,#355,.F.);
#141=ORIENTED_EDGE('',*,*,#403,.T.);
#142=ORIENTED_EDGE('',*,*,#345,.T.);
#143=ORIENTED_EDGE('',*,*,#404,.F.);
#144=ORIENTED_EDGE('',*,*,#405,.F.);
#145=ORIENTED_EDGE('',*,*,#406,.T.);
#146=ORIENTED_EDGE('',*,*,#348,.T.);
#147=ORIENTED_EDGE('',*,*,#407,.F.);
#148=ORIENTED_EDGE('',*,*,#408,.F.);
#149=ORIENTED_EDGE('',*,*,#404,.T.);
#150=ORIENTED_EDGE('',*,*,#347,.F.);
#151=ORIENTED_EDGE('',*,*,#409,.F.);
#152=ORIENTED_EDGE('',*,*,#410,.T.);
#153=ORIENTED_EDGE('',*,*,#407,.T.);
#154=ORIENTED_EDGE('',*,*,#378,.F.);
#155=ORIENTED_EDGE('',*,*,#411,.F.);
#156=ORIENTED_EDGE('',*,*,#412,.T.);
#157=ORIENTED_EDGE('',*,*,#413,.T.);
#158=ORIENTED_EDGE('',*,*,#377,.T.);
#159=ORIENTED_EDGE('',*,*,#414,.T.);
#160=ORIENTED_EDGE('',*,*,#415,.F.);
#161=ORIENTED_EDGE('',*,*,#389,.T.);
#162=ORIENTED_EDGE('',*,*,#416,.F.);
#163=ORIENTED_EDGE('',*,*,#411,.T.);
#164=ORIENTED_EDGE('',*,*,#380,.T.);
#165=ORIENTED_EDGE('',*,*,#417,.F.);
#166=ORIENTED_EDGE('',*,*,#418,.F.);
#167=ORIENTED_EDGE('',*,*,#398,.T.);
#168=ORIENTED_EDGE('',*,*,#379,.F.);
#169=ORIENTED_EDGE('',*,*,#413,.F.);
#170=ORIENTED_EDGE('',*,*,#419,.T.);
#171=ORIENTED_EDGE('',*,*,#417,.T.);
#172=ORIENTED_EDGE('',*,*,#420,.T.);
#173=ORIENTED_EDGE('',*,*,#349,.F.);
#174=ORIENTED_EDGE('',*,*,#421,.T.);
#175=ORIENTED_EDGE('',*,*,#350,.F.);
#176=ORIENTED_EDGE('',*,*,#422,.T.);
#177=ORIENTED_EDGE('',*,*,#351,.F.);
#178=ORIENTED_EDGE('',*,*,#423,.T.);
#179=ORIENTED_EDGE('',*,*,#356,.F.);
#180=ORIENTED_EDGE('',*,*,#424,.T.);
#181=ORIENTED_EDGE('',*,*,#357,.F.);
#182=ORIENTED_EDGE('',*,*,#346,.T.);
#183=ORIENTED_EDGE('',*,*,#406,.F.);
#184=ORIENTED_EDGE('',*,*,#425,.F.);
#185=ORIENTED_EDGE('',*,*,#409,.T.);
#186=ORIENTED_EDGE('',*,*,#388,.F.);
#187=ORIENTED_EDGE('',*,*,#399,.T.);
#188=ORIENTED_EDGE('',*,*,#418,.T.);
#189=ORIENTED_EDGE('',*,*,#419,.F.);
#190=ORIENTED_EDGE('',*,*,#412,.F.);
#191=ORIENTED_EDGE('',*,*,#416,.T.);
#192=ORIENTED_EDGE('',*,*,#394,.F.);
#193=ORIENTED_EDGE('',*,*,#392,.F.);
#194=ORIENTED_EDGE('',*,*,#390,.F.);
#195=ORIENTED_EDGE('',*,*,#426,.F.);
#196=ORIENTED_EDGE('',*,*,#427,.F.);
#197=ORIENTED_EDGE('',*,*,#428,.F.);
#198=ORIENTED_EDGE('',*,*,#429,.F.);
#199=ORIENTED_EDGE('',*,*,#424,.F.);
#200=ORIENTED_EDGE('',*,*,#423,.F.);
#201=ORIENTED_EDGE('',*,*,#422,.F.);
#202=ORIENTED_EDGE('',*,*,#421,.F.);
#203=ORIENTED_EDGE('',*,*,#420,.F.);
#204=ORIENTED_EDGE('',*,*,#405,.T.);
#205=ORIENTED_EDGE('',*,*,#408,.T.);
#206=ORIENTED_EDGE('',*,*,#410,.F.);
#207=ORIENTED_EDGE('',*,*,#425,.T.);
#208=ORIENTED_EDGE('',*,*,#430,.F.);
#209=ORIENTED_EDGE('',*,*,#429,.T.);
#210=ORIENTED_EDGE('',*,*,#401,.F.);
#211=ORIENTED_EDGE('',*,*,#430,.T.);
#212=ORIENTED_EDGE('',*,*,#431,.F.);
#213=ORIENTED_EDGE('',*,*,#428,.T.);
#214=ORIENTED_EDGE('',*,*,#400,.F.);
#215=ORIENTED_EDGE('',*,*,#431,.T.);
#216=ORIENTED_EDGE('',*,*,#432,.F.);
#217=ORIENTED_EDGE('',*,*,#427,.T.);
#218=ORIENTED_EDGE('',*,*,#403,.F.);
#219=ORIENTED_EDGE('',*,*,#432,.T.);
#220=ORIENTED_EDGE('',*,*,#433,.F.);
#221=ORIENTED_EDGE('',*,*,#426,.T.);
#222=ORIENTED_EDGE('',*,*,#402,.F.);
#223=ORIENTED_EDGE('',*,*,#433,.T.);
#224=ORIENTED_EDGE('',*,*,#434,.T.);
#225=ORIENTED_EDGE('',*,*,#435,.T.);
#226=ORIENTED_EDGE('',*,*,#436,.T.);
#227=ORIENTED_EDGE('',*,*,#437,.T.);
#228=ORIENTED_EDGE('',*,*,#438,.T.);
#229=ORIENTED_EDGE('',*,*,#439,.T.);
#230=ORIENTED_EDGE('',*,*,#395,.T.);
#231=ORIENTED_EDGE('',*,*,#359,.T.);
#232=ORIENTED_EDGE('',*,*,#440,.F.);
#233=ORIENTED_EDGE('',*,*,#434,.F.);
#234=ORIENTED_EDGE('',*,*,#441,.T.);
#235=ORIENTED_EDGE('',*,*,#358,.T.);
#236=ORIENTED_EDGE('',*,*,#442,.F.);
#237=ORIENTED_EDGE('',*,*,#435,.F.);
#238=ORIENTED_EDGE('',*,*,#440,.T.);
#239=ORIENTED_EDGE('',*,*,#363,.T.);
#240=ORIENTED_EDGE('',*,*,#443,.F.);
#241=ORIENTED_EDGE('',*,*,#436,.F.);
#242=ORIENTED_EDGE('',*,*,#442,.T.);
#243=ORIENTED_EDGE('',*,*,#362,.T.);
#244=ORIENTED_EDGE('',*,*,#444,.F.);
#245=ORIENTED_EDGE('',*,*,#437,.F.);
#246=ORIENTED_EDGE('',*,*,#443,.T.);
#247=ORIENTED_EDGE('',*,*,#361,.T.);
#248=ORIENTED_EDGE('',*,*,#445,.F.);
#249=ORIENTED_EDGE('',*,*,#438,.F.);
#250=ORIENTED_EDGE('',*,*,#444,.T.);
#251=ORIENTED_EDGE('',*,*,#360,.T.);
#252=ORIENTED_EDGE('',*,*,#441,.F.);
#253=ORIENTED_EDGE('',*,*,#439,.F.);
#254=ORIENTED_EDGE('',*,*,#445,.T.);
#255=ORIENTED_EDGE('',*,*,#446,.T.);
#256=ORIENTED_EDGE('',*,*,#447,.T.);
#257=ORIENTED_EDGE('',*,*,#448,.T.);
#258=ORIENTED_EDGE('',*,*,#449,.T.);
#259=ORIENTED_EDGE('',*,*,#450,.T.);
#260=ORIENTED_EDGE('',*,*,#451,.T.);
#261=ORIENTED_EDGE('',*,*,#393,.T.);
#262=ORIENTED_EDGE('',*,*,#371,.T.);
#263=ORIENTED_EDGE('',*,*,#452,.F.);
#264=ORIENTED_EDGE('',*,*,#446,.F.);
#265=ORIENTED_EDGE('',*,*,#453,.T.);
#266=ORIENTED_EDGE('',*,*,#370,.T.);
#267=ORIENTED_EDGE('',*,*,#454,.F.);
#268=ORIENTED_EDGE('',*,*,#447,.F.);
#269=ORIENTED_EDGE('',*,*,#452,.T.);
#270=ORIENTED_EDGE('',*,*,#375,.T.);
#271=ORIENTED_EDGE('',*,*,#455,.F.);
#272=ORIENTED_EDGE('',*,*,#448,.F.);
#273=ORIENTED_EDGE('',*,*,#454,.T.);
#274=ORIENTED_EDGE('',*,*,#374,.T.);
#275=ORIENTED_EDGE('',*,*,#456,.F.);
#276=ORIENTED_EDGE('',*,*,#449,.F.);
#277=ORIENTED_EDGE('',*,*,#455,.T.);
#278=ORIENTED_EDGE('',*,*,#373,.T.);
#279=ORIENTED_EDGE('',*,*,#457,.F.);
#280=ORIENTED_EDGE('',*,*,#450,.F.);
#281=ORIENTED_EDGE('',*,*,#456,.T.);
#282=ORIENTED_EDGE('',*,*,#372,.T.);
#283=ORIENTED_EDGE('',*,*,#453,.F.);
#284=ORIENTED_EDGE('',*,*,#451,.F.);
#285=ORIENTED_EDGE('',*,*,#457,.T.);
#286=ORIENTED_EDGE('',*,*,#458,.T.);
#287=ORIENTED_EDGE('',*,*,#459,.T.);
#288=ORIENTED_EDGE('',*,*,#460,.T.);
#289=ORIENTED_EDGE('',*,*,#461,.T.);
#290=ORIENTED_EDGE('',*,*,#462,.T.);
#291=ORIENTED_EDGE('',*,*,#463,.T.);
#292=ORIENTED_EDGE('',*,*,#391,.T.);
#293=ORIENTED_EDGE('',*,*,#365,.T.);
#294=ORIENTED_EDGE('',*,*,#464,.F.);
#295=ORIENTED_EDGE('',*,*,#458,.F.);
#296=ORIENTED_EDGE('',*,*,#465,.T.);
#297=ORIENTED_EDGE('',*,*,#364,.T.);
#298=ORIENTED_EDGE('',*,*,#466,.F.);
#299=ORIENTED_EDGE('',*,*,#459,.F.);
#300=ORIENTED_EDGE('',*,*,#464,.T.);
#301=ORIENTED_EDGE('',*,*,#369,.T.);
#302=ORIENTED_EDGE('',*,*,#467,.F.);
#303=ORIENTED_EDGE('',*,*,#460,.F.);
#304=ORIENTED_EDGE('',*,*,#466,.T.);
#305=ORIENTED_EDGE('',*,*,#368,.T.);
#306=ORIENTED_EDGE('',*,*,#468,.F.);
#307=ORIENTED_EDGE('',*,*,#461,.F.);
#308=ORIENTED_EDGE('',*,*,#467,.T.);
#309=ORIENTED_EDGE('',*,*,#367,.T.);
#310=ORIENTED_EDGE('',*,*,#469,.F.);
#311=ORIENTED_EDGE('',*,*,#462,.F.);
#312=ORIENTED_EDGE('',*,*,#468,.T.);
#313=ORIENTED_EDGE('',*,*,#366,.T.);
#314=ORIENTED_EDGE('',*,*,#465,.F.);
#315=ORIENTED_EDGE('',*,*,#463,.F.);
#316=ORIENTED_EDGE('',*,*,#469,.T.);
#317=ORIENTED_EDGE('',*,*,#470,.F.);
#318=ORIENTED_EDGE('',*,*,#471,.T.);
#319=ORIENTED_EDGE('',*,*,#382,.T.);
#320=ORIENTED_EDGE('',*,*,#397,.F.);
#321=ORIENTED_EDGE('',*,*,#376,.T.);
#322=ORIENTED_EDGE('',*,*,#472,.F.);
#323=ORIENTED_EDGE('',*,*,#473,.F.);
#324=ORIENTED_EDGE('',*,*,#414,.F.);
#325=ORIENTED_EDGE('',*,*,#396,.T.);
#326=ORIENTED_EDGE('',*,*,#386,.T.);
#327=ORIENTED_EDGE('',*,*,#415,.T.);
#328=ORIENTED_EDGE('',*,*,#473,.T.);
#329=ORIENTED_EDGE('',*,*,#474,.T.);
#330=ORIENTED_EDGE('',*,*,#475,.T.);
#331=ORIENTED_EDGE('',*,*,#476,.T.);
#332=ORIENTED_EDGE('',*,*,#470,.T.);
#333=ORIENTED_EDGE('',*,*,#383,.T.);
#334=ORIENTED_EDGE('',*,*,#471,.F.);
#335=ORIENTED_EDGE('',*,*,#476,.F.);
#336=ORIENTED_EDGE('',*,*,#477,.T.);
#337=ORIENTED_EDGE('',*,*,#385,.T.);
#338=ORIENTED_EDGE('',*,*,#478,.F.);
#339=ORIENTED_EDGE('',*,*,#474,.F.);
#340=ORIENTED_EDGE('',*,*,#472,.T.);
#341=ORIENTED_EDGE('',*,*,#384,.T.);
#342=ORIENTED_EDGE('',*,*,#477,.F.);
#343=ORIENTED_EDGE('',*,*,#475,.F.);
#344=ORIENTED_EDGE('',*,*,#478,.T.);
#345=EDGE_CURVE('',#479,#480,#579,.T.);
#346=EDGE_CURVE('',#481,#479,#39,.T.);
#347=EDGE_CURVE('',#481,#482,#580,.T.);
#348=EDGE_CURVE('',#480,#482,#40,.T.);
#349=EDGE_CURVE('',#483,#483,#41,.T.);
#350=EDGE_CURVE('',#484,#484,#42,.T.);
#351=EDGE_CURVE('',#485,#485,#43,.T.);
#352=EDGE_CURVE('',#486,#486,#44,.T.);
#353=EDGE_CURVE('',#487,#487,#45,.T.);
#354=EDGE_CURVE('',#488,#488,#46,.T.);
#355=EDGE_CURVE('',#489,#489,#47,.T.);
#356=EDGE_CURVE('',#490,#490,#48,.T.);
#357=EDGE_CURVE('',#491,#491,#49,.T.);
#358=EDGE_CURVE('',#492,#493,#581,.T.);
#359=EDGE_CURVE('',#494,#492,#582,.T.);
#360=EDGE_CURVE('',#495,#494,#583,.T.);
#361=EDGE_CURVE('',#496,#495,#584,.T.);
#362=EDGE_CURVE('',#497,#496,#585,.T.);
#363=EDGE_CURVE('',#493,#497,#586,.T.);
#364=EDGE_CURVE('',#498,#499,#587,.T.);
#365=EDGE_CURVE('',#500,#498,#588,.T.);
#366=EDGE_CURVE('',#501,#500,#589,.T.);
#367=EDGE_CURVE('',#502,#501,#590,.T.);
#368=EDGE_CURVE('',#503,#502,#591,.T.);
#369=EDGE_CURVE('',#499,#503,#592,.T.);
#370=EDGE_CURVE('',#504,#505,#593,.T.);
#371=EDGE_CURVE('',#506,#504,#594,.T.);
#372=EDGE_CURVE('',#507,#506,#595,.T.);
#373=EDGE_CURVE('',#508,#507,#596,.T.);
#374=EDGE_CURVE('',#509,#508,#597,.T.);
#375=EDGE_CURVE('',#505,#509,#598,.T.);
#376=EDGE_CURVE('',#510,#511,#599,.T.);
#377=EDGE_CURVE('',#512,#510,#600,.T.);
#378=EDGE_CURVE('',#512,#513,#601,.T.);
#379=EDGE_CURVE('',#513,#514,#602,.T.);
#380=EDGE_CURVE('',#515,#514,#603,.T.);
#381=EDGE_CURVE('',#516,#515,#604,.T.);
#382=EDGE_CURVE('',#517,#516,#605,.T.);
#383=EDGE_CURVE('',#518,#517,#606,.T.);
#384=EDGE_CURVE('',#519,#518,#607,.T.);
#385=EDGE_CURVE('',#511,#519,#608,.T.);
#386=EDGE_CURVE('',#520,#521,#50,.F.);
#387=EDGE_CURVE('',#520,#522,#609,.T.);
#388=EDGE_CURVE('',#522,#523,#51,.T.);
#389=EDGE_CURVE('',#521,#523,#610,.T.);
#390=EDGE_CURVE('',#524,#524,#52,.T.);
#391=EDGE_CURVE('',#525,#525,#53,.F.);
#392=EDGE_CURVE('',#526,#526,#54,.T.);
#393=EDGE_CURVE('',#527,#527,#55,.F.);
#394=EDGE_CURVE('',#528,#528,#56,.T.);
#395=EDGE_CURVE('',#529,#529,#57,.F.);
#396=EDGE_CURVE('',#530,#520,#611,.T.);
#397=EDGE_CURVE('',#530,#516,#612,.T.);
#398=EDGE_CURVE('',#531,#515,#613,.T.);
#399=EDGE_CURVE('',#522,#531,#614,.T.);
#400=EDGE_CURVE('',#532,#532,#58,.T.);
#401=EDGE_CURVE('',#533,#533,#59,.T.);
#402=EDGE_CURVE('',#534,#534,#60,.T.);
#403=EDGE_CURVE('',#535,#535,#61,.T.);
#404=EDGE_CURVE('',#536,#480,#615,.T.);
#405=EDGE_CURVE('',#537,#536,#616,.T.);
#406=EDGE_CURVE('',#537,#479,#617,.T.);
#407=EDGE_CURVE('',#538,#482,#618,.T.);
#408=EDGE_CURVE('',#536,#538,#62,.T.);
#409=EDGE_CURVE('',#539,#481,#619,.T.);
#410=EDGE_CURVE('',#539,#538,#620,.T.);
#411=EDGE_CURVE('',#540,#512,#621,.T.);
#412=EDGE_CURVE('',#540,#541,#622,.T.);
#413=EDGE_CURVE('',#541,#513,#623,.T.);
#414=EDGE_CURVE('',#510,#542,#624,.T.);
#415=EDGE_CURVE('',#521,#542,#625,.T.);
#416=EDGE_CURVE('',#540,#523,#626,.T.);
#417=EDGE_CURVE('',#543,#514,#627,.T.);
#418=EDGE_CURVE('',#531,#543,#628,.T.);
#419=EDGE_CURVE('',#541,#543,#629,.T.);
#420=EDGE_CURVE('',#544,#544,#63,.T.);
#421=EDGE_CURVE('',#545,#545,#64,.T.);
#422=EDGE_CURVE('',#546,#546,#65,.T.);
#423=EDGE_CURVE('',#547,#547,#66,.T.);
#424=EDGE_CURVE('',#548,#548,#67,.T.);
#425=EDGE_CURVE('',#539,#537,#68,.T.);
#426=EDGE_CURVE('',#549,#549,#69,.T.);
#427=EDGE_CURVE('',#550,#550,#70,.T.);
#428=EDGE_CURVE('',#551,#551,#71,.T.);
#429=EDGE_CURVE('',#552,#552,#72,.T.);
#430=EDGE_CURVE('',#553,#553,#73,.T.);
#431=EDGE_CURVE('',#554,#554,#74,.T.);
#432=EDGE_CURVE('',#555,#555,#75,.T.);
#433=EDGE_CURVE('',#556,#556,#76,.T.);
#434=EDGE_CURVE('',#557,#558,#630,.T.);
#435=EDGE_CURVE('',#558,#559,#631,.T.);
#436=EDGE_CURVE('',#559,#560,#632,.T.);
#437=EDGE_CURVE('',#560,#561,#633,.T.);
#438=EDGE_CURVE('',#561,#562,#634,.T.);
#439=EDGE_CURVE('',#562,#557,#635,.T.);
#440=EDGE_CURVE('',#558,#492,#636,.T.);
#441=EDGE_CURVE('',#557,#494,#637,.T.);
#442=EDGE_CURVE('',#559,#493,#638,.T.);
#443=EDGE_CURVE('',#560,#497,#639,.T.);
#444=EDGE_CURVE('',#561,#496,#640,.T.);
#445=EDGE_CURVE('',#562,#495,#641,.T.);
#446=EDGE_CURVE('',#563,#564,#642,.T.);
#447=EDGE_CURVE('',#564,#565,#643,.T.);
#448=EDGE_CURVE('',#565,#566,#644,.T.);
#449=EDGE_CURVE('',#566,#567,#645,.T.);
#450=EDGE_CURVE('',#567,#568,#646,.T.);
#451=EDGE_CURVE('',#568,#563,#647,.T.);
#452=EDGE_CURVE('',#564,#504,#648,.T.);
#453=EDGE_CURVE('',#563,#506,#649,.T.);
#454=EDGE_CURVE('',#565,#505,#650,.T.);
#455=EDGE_CURVE('',#566,#509,#651,.T.);
#456=EDGE_CURVE('',#567,#508,#652,.T.);
#457=EDGE_CURVE('',#568,#507,#653,.T.);
#458=EDGE_CURVE('',#569,#570,#654,.T.);
#459=EDGE_CURVE('',#570,#571,#655,.T.);
#460=EDGE_CURVE('',#571,#572,#656,.T.);
#461=EDGE_CURVE('',#572,#573,#657,.T.);
#462=EDGE_CURVE('',#573,#574,#658,.T.);
#463=EDGE_CURVE('',#574,#569,#659,.T.);
#464=EDGE_CURVE('',#570,#498,#660,.T.);
#465=EDGE_CURVE('',#569,#500,#661,.T.);
#466=EDGE_CURVE('',#571,#499,#662,.T.);
#467=EDGE_CURVE('',#572,#503,#663,.T.);
#468=EDGE_CURVE('',#573,#502,#664,.T.);
#469=EDGE_CURVE('',#574,#501,#665,.T.);
#470=EDGE_CURVE('',#575,#530,#666,.T.);
#471=EDGE_CURVE('',#575,#517,#667,.T.);
#472=EDGE_CURVE('',#576,#511,#668,.T.);
#473=EDGE_CURVE('',#542,#576,#669,.T.);
#474=EDGE_CURVE('',#576,#577,#670,.T.);
#475=EDGE_CURVE('',#577,#578,#671,.T.);
#476=EDGE_CURVE('',#578,#575,#672,.T.);
#477=EDGE_CURVE('',#578,#518,#673,.T.);
#478=EDGE_CURVE('',#577,#519,#674,.T.);
#479=VERTEX_POINT('',#1491);
#480=VERTEX_POINT('',#1492);
#481=VERTEX_POINT('',#1494);
#482=VERTEX_POINT('',#1496);
#483=VERTEX_POINT('',#1499);
#484=VERTEX_POINT('',#1501);
#485=VERTEX_POINT('',#1503);
#486=VERTEX_POINT('',#1505);
#487=VERTEX_POINT('',#1507);
#488=VERTEX_POINT('',#1509);
#489=VERTEX_POINT('',#1511);
#490=VERTEX_POINT('',#1513);
#491=VERTEX_POINT('',#1515);
#492=VERTEX_POINT('',#1517);
#493=VERTEX_POINT('',#1518);
#494=VERTEX_POINT('',#1520);
#495=VERTEX_POINT('',#1522);
#496=VERTEX_POINT('',#1524);
#497=VERTEX_POINT('',#1526);
#498=VERTEX_POINT('',#1529);
#499=VERTEX_POINT('',#1530);
#500=VERTEX_POINT('',#1532);
#501=VERTEX_POINT('',#1534);
#502=VERTEX_POINT('',#1536);
#503=VERTEX_POINT('',#1538);
#504=VERTEX_POINT('',#1541);
#505=VERTEX_POINT('',#1542);
#506=VERTEX_POINT('',#1544);
#507=VERTEX_POINT('',#1546);
#508=VERTEX_POINT('',#1548);
#509=VERTEX_POINT('',#1550);
#510=VERTEX_POINT('',#1553);
#511=VERTEX_POINT('',#1554);
#512=VERTEX_POINT('',#1556);
#513=VERTEX_POINT('',#1558);
#514=VERTEX_POINT('',#1560);
#515=VERTEX_POINT('',#1562);
#516=VERTEX_POINT('',#1564);
#517=VERTEX_POINT('',#1566);
#518=VERTEX_POINT('',#1568);
#519=VERTEX_POINT('',#1570);
#520=VERTEX_POINT('',#1574);
#521=VERTEX_POINT('',#1575);
#522=VERTEX_POINT('',#1577);
#523=VERTEX_POINT('',#1579);
#524=VERTEX_POINT('',#1583);
#525=VERTEX_POINT('',#1585);
#526=VERTEX_POINT('',#1588);
#527=VERTEX_POINT('',#1590);
#528=VERTEX_POINT('',#1593);
#529=VERTEX_POINT('',#1595);
#530=VERTEX_POINT('',#1598);
#531=VERTEX_POINT('',#1601);
#532=VERTEX_POINT('',#1605);
#533=VERTEX_POINT('',#1608);
#534=VERTEX_POINT('',#1611);
#535=VERTEX_POINT('',#1614);
#536=VERTEX_POINT('',#1617);
#537=VERTEX_POINT('',#1619);
#538=VERTEX_POINT('',#1623);
#539=VERTEX_POINT('',#1627);
#540=VERTEX_POINT('',#1631);
#541=VERTEX_POINT('',#1633);
#542=VERTEX_POINT('',#1637);
#543=VERTEX_POINT('',#1642);
#544=VERTEX_POINT('',#1648);
#545=VERTEX_POINT('',#1651);
#546=VERTEX_POINT('',#1654);
#547=VERTEX_POINT('',#1657);
#548=VERTEX_POINT('',#1660);
#549=VERTEX_POINT('',#1665);
#550=VERTEX_POINT('',#1667);
#551=VERTEX_POINT('',#1669);
#552=VERTEX_POINT('',#1671);
#553=VERTEX_POINT('',#1674);
#554=VERTEX_POINT('',#1678);
#555=VERTEX_POINT('',#1682);
#556=VERTEX_POINT('',#1686);
#557=VERTEX_POINT('',#1690);
#558=VERTEX_POINT('',#1691);
#559=VERTEX_POINT('',#1693);
#560=VERTEX_POINT('',#1695);
#561=VERTEX_POINT('',#1697);
#562=VERTEX_POINT('',#1699);
#563=VERTEX_POINT('',#1715);
#564=VERTEX_POINT('',#1716);
#565=VERTEX_POINT('',#1718);
#566=VERTEX_POINT('',#1720);
#567=VERTEX_POINT('',#1722);
#568=VERTEX_POINT('',#1724);
#569=VERTEX_POINT('',#1740);
#570=VERTEX_POINT('',#1741);
#571=VERTEX_POINT('',#1743);
#572=VERTEX_POINT('',#1745);
#573=VERTEX_POINT('',#1747);
#574=VERTEX_POINT('',#1749);
#575=VERTEX_POINT('',#1765);
#576=VERTEX_POINT('',#1769);
#577=VERTEX_POINT('',#1773);
#578=VERTEX_POINT('',#1775);
#579=LINE('',#1490,#675);
#580=LINE('',#1495,#676);
#581=LINE('',#1516,#677);
#582=LINE('',#1519,#678);
#583=LINE('',#1521,#679);
#584=LINE('',#1523,#680);
#585=LINE('',#1525,#681);
#586=LINE('',#1527,#682);
#587=LINE('',#1528,#683);
#588=LINE('',#1531,#684);
#589=LINE('',#1533,#685);
#590=LINE('',#1535,#686);
#591=LINE('',#1537,#687);
#592=LINE('',#1539,#688);
#593=LINE('',#1540,#689);
#594=LINE('',#1543,#690);
#595=LINE('',#1545,#691);
#596=LINE('',#1547,#692);
#597=LINE('',#1549,#693);
#598=LINE('',#1551,#694);
#599=LINE('',#1552,#695);
#600=LINE('',#1555,#696);
#601=LINE('',#1557,#697);
#602=LINE('',#1559,#698);
#603=LINE('',#1561,#699);
#604=LINE('',#1563,#700);
#605=LINE('',#1565,#701);
#606=LINE('',#1567,#702);
#607=LINE('',#1569,#703);
#608=LINE('',#1571,#704);
#609=LINE('',#1576,#705);
#610=LINE('',#1580,#706);
#611=LINE('',#1597,#707);
#612=LINE('',#1599,#708);
#613=LINE('',#1600,#709);
#614=LINE('',#1602,#710);
#615=LINE('',#1616,#711);
#616=LINE('',#1618,#712);
#617=LINE('',#1620,#713);
#618=LINE('',#1622,#714);
#619=LINE('',#1626,#715);
#620=LINE('',#1628,#716);
#621=LINE('',#1630,#717);
#622=LINE('',#1632,#718);
#623=LINE('',#1634,#719);
#624=LINE('',#1636,#720);
#625=LINE('',#1638,#721);
#626=LINE('',#1639,#722);
#627=LINE('',#1641,#723);
#628=LINE('',#1643,#724);
#629=LINE('',#1645,#725);
#630=LINE('',#1689,#726);
#631=LINE('',#1692,#727);
#632=LINE('',#1694,#728);
#633=LINE('',#1696,#729);
#634=LINE('',#1698,#730);
#635=LINE('',#1700,#731);
#636=LINE('',#1702,#732);
#637=LINE('',#1703,#733);
#638=LINE('',#1705,#734);
#639=LINE('',#1707,#735);
#640=LINE('',#1709,#736);
#641=LINE('',#1711,#737);
#642=LINE('',#1714,#738);
#643=LINE('',#1717,#739);
#644=LINE('',#1719,#740);
#645=LINE('',#1721,#741);
#646=LINE('',#1723,#742);
#647=LINE('',#1725,#743);
#648=LINE('',#1727,#744);
#649=LINE('',#1728,#745);
#650=LINE('',#1730,#746);
#651=LINE('',#1732,#747);
#652=LINE('',#1734,#748);
#653=LINE('',#1736,#749);
#654=LINE('',#1739,#750);
#655=LINE('',#1742,#751);
#656=LINE('',#1744,#752);
#657=LINE('',#1746,#753);
#658=LINE('',#1748,#754);
#659=LINE('',#1750,#755);
#660=LINE('',#1752,#756);
#661=LINE('',#1753,#757);
#662=LINE('',#1755,#758);
#663=LINE('',#1757,#759);
#664=LINE('',#1759,#760);
#665=LINE('',#1761,#761);
#666=LINE('',#1764,#762);
#667=LINE('',#1766,#763);
#668=LINE('',#1768,#764);
#669=LINE('',#1770,#765);
#670=LINE('',#1772,#766);
#671=LINE('',#1774,#767);
#672=LINE('',#1776,#768);
#673=LINE('',#1778,#769);
#674=LINE('',#1780,#770);
#675=VECTOR('',#1200,1.);
#676=VECTOR('',#1203,1.);
#677=VECTOR('',#1224,1.);
#678=VECTOR('',#1225,1.);
#679=VECTOR('',#1226,1.);
#680=VECTOR('',#1227,1.);
#681=VECTOR('',#1228,1.);
#682=VECTOR('',#1229,1.);
#683=VECTOR('',#1230,1.);
#684=VECTOR('',#1231,1.);
#685=VECTOR('',#1232,1.);
#686=VECTOR('',#1233,1.);
#687=VECTOR('',#1234,1.);
#688=VECTOR('',#1235,1.);
#689=VECTOR('',#1236,1.);
#690=VECTOR('',#1237,1.);
#691=VECTOR('',#1238,1.);
#692=VECTOR('',#1239,1.);
#693=VECTOR('',#1240,1.);
#694=VECTOR('',#1241,1.);
#695=VECTOR('',#1242,1.);
#696=VECTOR('',#1243,1.);
#697=VECTOR('',#1244,1.);
#698=VECTOR('',#1245,1.);
#699=VECTOR('',#1246,1.);
#700=VECTOR('',#1247,1.);
#701=VECTOR('',#1248,1.);
#702=VECTOR('',#1249,1.);
#703=VECTOR('',#1250,1.);
#704=VECTOR('',#1251,1.);
#705=VECTOR('',#1256,1.);
#706=VECTOR('',#1259,1.);
#707=VECTOR('',#1280,1.);
#708=VECTOR('',#1281,1.);
#709=VECTOR('',#1282,1.);
#710=VECTOR('',#1283,1.);
#711=VECTOR('',#1302,1.);
#712=VECTOR('',#1303,1.);
#713=VECTOR('',#1304,1.);
#714=VECTOR('',#1307,1.);
#715=VECTOR('',#1312,1.);
#716=VECTOR('',#1313,1.);
#717=VECTOR('',#1316,1.);
#718=VECTOR('',#1317,1.);
#719=VECTOR('',#1318,1.);
#720=VECTOR('',#1321,1.);
#721=VECTOR('',#1322,1.);
#722=VECTOR('',#1323,1.);
#723=VECTOR('',#1326,1.);
#724=VECTOR('',#1327,1.);
#725=VECTOR('',#1330,1.);
#726=VECTOR('',#1391,1.);
#727=VECTOR('',#1392,1.);
#728=VECTOR('',#1393,1.);
#729=VECTOR('',#1394,1.);
#730=VECTOR('',#1395,1.);
#731=VECTOR('',#1396,1.);
#732=VECTOR('',#1399,1.);
#733=VECTOR('',#1400,1.);
#734=VECTOR('',#1403,1.);
#735=VECTOR('',#1406,1.);
#736=VECTOR('',#1409,1.);
#737=VECTOR('',#1412,1.);
#738=VECTOR('',#1417,1.);
#739=VECTOR('',#1418,1.);
#740=VECTOR('',#1419,1.);
#741=VECTOR('',#1420,1.);
#742=VECTOR('',#1421,1.);
#743=VECTOR('',#1422,1.);
#744=VECTOR('',#1425,1.);
#745=VECTOR('',#1426,1.);
#746=VECTOR('',#1429,1.);
#747=VECTOR('',#1432,1.);
#748=VECTOR('',#1435,1.);
#749=VECTOR('',#1438,1.);
#750=VECTOR('',#1443,1.);
#751=VECTOR('',#1444,1.);
#752=VECTOR('',#1445,1.);
#753=VECTOR('',#1446,1.);
#754=VECTOR('',#1447,1.);
#755=VECTOR('',#1448,1.);
#756=VECTOR('',#1451,1.);
#757=VECTOR('',#1452,1.);
#758=VECTOR('',#1455,1.);
#759=VECTOR('',#1458,1.);
#760=VECTOR('',#1461,1.);
#761=VECTOR('',#1464,1.);
#762=VECTOR('',#1469,1.);
#763=VECTOR('',#1470,1.);
#764=VECTOR('',#1473,1.);
#765=VECTOR('',#1474,1.);
#766=VECTOR('',#1477,1.);
#767=VECTOR('',#1478,1.);
#768=VECTOR('',#1479,1.);
#769=VECTOR('',#1482,1.);
#770=VECTOR('',#1485,1.);
#771=EDGE_LOOP('',(#77,#78,#79,#80));
#772=EDGE_LOOP('',(#81));
#773=EDGE_LOOP('',(#82));
#774=EDGE_LOOP('',(#83));
#775=EDGE_LOOP('',(#84));
#776=EDGE_LOOP('',(#85));
#777=EDGE_LOOP('',(#86));
#778=EDGE_LOOP('',(#87));
#779=EDGE_LOOP('',(#88));
#780=EDGE_LOOP('',(#89));
#781=EDGE_LOOP('',(#90,#91,#92,#93,#94,#95));
#782=EDGE_LOOP('',(#96,#97,#98,#99,#100,#101));
#783=EDGE_LOOP('',(#102,#103,#104,#105,#106,#107));
#784=EDGE_LOOP('',(#108,#109,#110,#111,#112,#113,#114,#115,#116,#117));
#785=EDGE_LOOP('',(#118,#119,#120,#121));
#786=EDGE_LOOP('',(#122));
#787=EDGE_LOOP('',(#123));
#788=EDGE_LOOP('',(#124));
#789=EDGE_LOOP('',(#125));
#790=EDGE_LOOP('',(#126));
#791=EDGE_LOOP('',(#127));
#792=EDGE_LOOP('',(#128,#129,#130,#131,#132,#133));
#793=EDGE_LOOP('',(#134));
#794=EDGE_LOOP('',(#135));
#795=EDGE_LOOP('',(#136));
#796=EDGE_LOOP('',(#137));
#797=EDGE_LOOP('',(#138));
#798=EDGE_LOOP('',(#139));
#799=EDGE_LOOP('',(#140));
#800=EDGE_LOOP('',(#141));
#801=EDGE_LOOP('',(#142,#143,#144,#145));
#802=EDGE_LOOP('',(#146,#147,#148,#149));
#803=EDGE_LOOP('',(#150,#151,#152,#153));
#804=EDGE_LOOP('',(#154,#155,#156,#157));
#805=EDGE_LOOP('',(#158,#159,#160,#161,#162,#163));
#806=EDGE_LOOP('',(#164,#165,#166,#167));
#807=EDGE_LOOP('',(#168,#169,#170,#171));
#808=EDGE_LOOP('',(#172));
#809=EDGE_LOOP('',(#173));
#810=EDGE_LOOP('',(#174));
#811=EDGE_LOOP('',(#175));
#812=EDGE_LOOP('',(#176));
#813=EDGE_LOOP('',(#177));
#814=EDGE_LOOP('',(#178));
#815=EDGE_LOOP('',(#179));
#816=EDGE_LOOP('',(#180));
#817=EDGE_LOOP('',(#181));
#818=EDGE_LOOP('',(#182,#183,#184,#185));
#819=EDGE_LOOP('',(#186,#187,#188,#189,#190,#191));
#820=EDGE_LOOP('',(#192));
#821=EDGE_LOOP('',(#193));
#822=EDGE_LOOP('',(#194));
#823=EDGE_LOOP('',(#195));
#824=EDGE_LOOP('',(#196));
#825=EDGE_LOOP('',(#197));
#826=EDGE_LOOP('',(#198));
#827=EDGE_LOOP('',(#199));
#828=EDGE_LOOP('',(#200));
#829=EDGE_LOOP('',(#201));
#830=EDGE_LOOP('',(#202));
#831=EDGE_LOOP('',(#203));
#832=EDGE_LOOP('',(#204,#205,#206,#207));
#833=EDGE_LOOP('',(#208));
#834=EDGE_LOOP('',(#209));
#835=EDGE_LOOP('',(#210));
#836=EDGE_LOOP('',(#211));
#837=EDGE_LOOP('',(#212));
#838=EDGE_LOOP('',(#213));
#839=EDGE_LOOP('',(#214));
#840=EDGE_LOOP('',(#215));
#841=EDGE_LOOP('',(#216));
#842=EDGE_LOOP('',(#217));
#843=EDGE_LOOP('',(#218));
#844=EDGE_LOOP('',(#219));
#845=EDGE_LOOP('',(#220));
#846=EDGE_LOOP('',(#221));
#847=EDGE_LOOP('',(#222));
#848=EDGE_LOOP('',(#223));
#849=EDGE_LOOP('',(#224,#225,#226,#227,#228,#229));
#850=EDGE_LOOP('',(#230));
#851=EDGE_LOOP('',(#231,#232,#233,#234));
#852=EDGE_LOOP('',(#235,#236,#237,#238));
#853=EDGE_LOOP('',(#239,#240,#241,#242));
#854=EDGE_LOOP('',(#243,#244,#245,#246));
#855=EDGE_LOOP('',(#247,#248,#249,#250));
#856=EDGE_LOOP('',(#251,#252,#253,#254));
#857=EDGE_LOOP('',(#255,#256,#257,#258,#259,#260));
#858=EDGE_LOOP('',(#261));
#859=EDGE_LOOP('',(#262,#263,#264,#265));
#860=EDGE_LOOP('',(#266,#267,#268,#269));
#861=EDGE_LOOP('',(#270,#271,#272,#273));
#862=EDGE_LOOP('',(#274,#275,#276,#277));
#863=EDGE_LOOP('',(#278,#279,#280,#281));
#864=EDGE_LOOP('',(#282,#283,#284,#285));
#865=EDGE_LOOP('',(#286,#287,#288,#289,#290,#291));
#866=EDGE_LOOP('',(#292));
#867=EDGE_LOOP('',(#293,#294,#295,#296));
#868=EDGE_LOOP('',(#297,#298,#299,#300));
#869=EDGE_LOOP('',(#301,#302,#303,#304));
#870=EDGE_LOOP('',(#305,#306,#307,#308));
#871=EDGE_LOOP('',(#309,#310,#311,#312));
#872=EDGE_LOOP('',(#313,#314,#315,#316));
#873=EDGE_LOOP('',(#317,#318,#319,#320));
#874=EDGE_LOOP('',(#321,#322,#323,#324));
#875=EDGE_LOOP('',(#325,#326,#327,#328,#329,#330,#331,#332));
#876=EDGE_LOOP('',(#333,#334,#335,#336));
#877=EDGE_LOOP('',(#337,#338,#339,#340));
#878=EDGE_LOOP('',(#341,#342,#343,#344));
#879=FACE_BOUND('',#771,.T.);
#880=FACE_BOUND('',#772,.T.);
#881=FACE_BOUND('',#773,.T.);
#882=FACE_BOUND('',#774,.T.);
#883=FACE_BOUND('',#775,.T.);
#884=FACE_BOUND('',#776,.T.);
#885=FACE_BOUND('',#777,.T.);
#886=FACE_BOUND('',#778,.T.);
#887=FACE_BOUND('',#779,.T.);
#888=FACE_BOUND('',#780,.T.);
#889=FACE_BOUND('',#781,.T.);
#890=FACE_BOUND('',#782,.T.);
#891=FACE_BOUND('',#783,.T.);
#892=FACE_BOUND('',#784,.T.);
#893=FACE_BOUND('',#785,.T.);
#894=FACE_BOUND('',#786,.T.);
#895=FACE_BOUND('',#787,.T.);
#896=FACE_BOUND('',#788,.T.);
#897=FACE_BOUND('',#789,.T.);
#898=FACE_BOUND('',#790,.T.);
#899=FACE_BOUND('',#791,.T.);
#900=FACE_BOUND('',#792,.T.);
#901=FACE_BOUND('',#793,.T.);
#902=FACE_BOUND('',#794,.T.);
#903=FACE_BOUND('',#795,.T.);
#904=FACE_BOUND('',#796,.T.);
#905=FACE_BOUND('',#797,.T.);
#906=FACE_BOUND('',#798,.T.);
#907=FACE_BOUND('',#799,.T.);
#908=FACE_BOUND('',#800,.T.);
#909=FACE_BOUND('',#801,.T.);
#910=FACE_BOUND('',#802,.T.);
#911=FACE_BOUND('',#803,.T.);
#912=FACE_BOUND('',#804,.T.);
#913=FACE_BOUND('',#805,.T.);
#914=FACE_BOUND('',#806,.T.);
#915=FACE_BOUND('',#807,.T.);
#916=FACE_BOUND('',#808,.T.);
#917=FACE_BOUND('',#809,.T.);
#918=FACE_BOUND('',#810,.T.);
#919=FACE_BOUND('',#811,.T.);
#920=FACE_BOUND('',#812,.T.);
#921=FACE_BOUND('',#813,.T.);
#922=FACE_BOUND('',#814,.T.);
#923=FACE_BOUND('',#815,.T.);
#924=FACE_BOUND('',#816,.T.);
#925=FACE_BOUND('',#817,.T.);
#926=FACE_BOUND('',#818,.T.);
#927=FACE_BOUND('',#819,.T.);
#928=FACE_BOUND('',#820,.T.);
#929=FACE_BOUND('',#821,.T.);
#930=FACE_BOUND('',#822,.T.);
#931=FACE_BOUND('',#823,.T.);
#932=FACE_BOUND('',#824,.T.);
#933=FACE_BOUND('',#825,.T.);
#934=FACE_BOUND('',#826,.T.);
#935=FACE_BOUND('',#827,.T.);
#936=FACE_BOUND('',#828,.T.);
#937=FACE_BOUND('',#829,.T.);
#938=FACE_BOUND('',#830,.T.);
#939=FACE_BOUND('',#831,.T.);
#940=FACE_BOUND('',#832,.T.);
#941=FACE_BOUND('',#833,.T.);
#942=FACE_BOUND('',#834,.T.);
#943=FACE_BOUND('',#835,.T.);
#944=FACE_BOUND('',#836,.T.);
#945=FACE_BOUND('',#837,.T.);
#946=FACE_BOUND('',#838,.T.);
#947=FACE_BOUND('',#839,.T.);
#948=FACE_BOUND('',#840,.T.);
#949=FACE_BOUND('',#841,.T.);
#950=FACE_BOUND('',#842,.T.);
#951=FACE_BOUND('',#843,.T.);
#952=FACE_BOUND('',#844,.T.);
#953=FACE_BOUND('',#845,.T.);
#954=FACE_BOUND('',#846,.T.);
#955=FACE_BOUND('',#847,.T.);
#956=FACE_BOUND('',#848,.T.);
#957=FACE_BOUND('',#849,.T.);
#958=FACE_BOUND('',#850,.T.);
#959=FACE_BOUND('',#851,.T.);
#960=FACE_BOUND('',#852,.T.);
#961=FACE_BOUND('',#853,.T.);
#962=FACE_BOUND('',#854,.T.);
#963=FACE_BOUND('',#855,.T.);
#964=FACE_BOUND('',#856,.T.);
#965=FACE_BOUND('',#857,.T.);
#966=FACE_BOUND('',#858,.T.);
#967=FACE_BOUND('',#859,.T.);
#968=FACE_BOUND('',#860,.T.);
#969=FACE_BOUND('',#861,.T.);
#970=FACE_BOUND('',#862,.T.);
#971=FACE_BOUND('',#863,.T.);
#972=FACE_BOUND('',#864,.T.);
#973=FACE_BOUND('',#865,.T.);
#974=FACE_BOUND('',#866,.T.);
#975=FACE_BOUND('',#867,.T.);
#976=FACE_BOUND('',#868,.T.);
#977=FACE_BOUND('',#869,.T.);
#978=FACE_BOUND('',#870,.T.);
#979=FACE_BOUND('',#871,.T.);
#980=FACE_BOUND('',#872,.T.);
#981=FACE_BOUND('',#873,.T.);
#982=FACE_BOUND('',#874,.T.);
#983=FACE_BOUND('',#875,.T.);
#984=FACE_BOUND('',#876,.T.);
#985=FACE_BOUND('',#877,.T.);
#986=FACE_BOUND('',#878,.T.);
#987=PLANE('',#1099);
#988=PLANE('',#1123);
#989=PLANE('',#1132);
#990=PLANE('',#1135);
#991=PLANE('',#1136);
#992=PLANE('',#1137);
#993=PLANE('',#1138);
#994=PLANE('',#1139);
#995=PLANE('',#1152);
#996=PLANE('',#1159);
#997=PLANE('',#1162);
#998=PLANE('',#1165);
#999=PLANE('',#1168);
#1000=PLANE('',#1169);
#1001=PLANE('',#1170);
#1002=PLANE('',#1171);
#1003=PLANE('',#1172);
#1004=PLANE('',#1173);
#1005=PLANE('',#1174);
#1006=PLANE('',#1175);
#1007=PLANE('',#1176);
#1008=PLANE('',#1177);
#1009=PLANE('',#1178);
#1010=PLANE('',#1179);
#1011=PLANE('',#1180);
#1012=PLANE('',#1181);
#1013=PLANE('',#1182);
#1014=PLANE('',#1183);
#1015=PLANE('',#1184);
#1016=PLANE('',#1185);
#1017=PLANE('',#1186);
#1018=PLANE('',#1187);
#1019=PLANE('',#1188);
#1020=PLANE('',#1189);
#1021=PLANE('',#1190);
#1022=PLANE('',#1191);
#1023=PLANE('',#1192);
#1024=PLANE('',#1193);
#1025=PLANE('',#1194);
#1026=PLANE('',#1195);
#1027=ADVANCED_FACE('',(#879,#880,#881,#882,#883,#884,#885,#886,#887,#888,
#889,#890,#891,#892),#987,.F.);
#1028=ADVANCED_FACE('',(#893),#20,.F.);
#1029=ADVANCED_FACE('',(#894,#895),#21,.F.);
#1030=ADVANCED_FACE('',(#896,#897),#22,.F.);
#1031=ADVANCED_FACE('',(#898,#899),#23,.F.);
#1032=ADVANCED_FACE('',(#900),#988,.F.);
#1033=ADVANCED_FACE('',(#901,#902),#24,.F.);
#1034=ADVANCED_FACE('',(#903,#904),#25,.F.);
#1035=ADVANCED_FACE('',(#905,#906),#26,.F.);
#1036=ADVANCED_FACE('',(#907,#908),#27,.F.);
#1037=ADVANCED_FACE('',(#909),#989,.F.);
#1038=ADVANCED_FACE('',(#910),#28,.T.);
#1039=ADVANCED_FACE('',(#911),#990,.T.);
#1040=ADVANCED_FACE('',(#912),#991,.T.);
#1041=ADVANCED_FACE('',(#913),#992,.F.);
#1042=ADVANCED_FACE('',(#914),#993,.F.);
#1043=ADVANCED_FACE('',(#915),#994,.T.);
#1044=ADVANCED_FACE('',(#916,#917),#29,.F.);
#1045=ADVANCED_FACE('',(#918,#919),#30,.F.);
#1046=ADVANCED_FACE('',(#920,#921),#31,.F.);
#1047=ADVANCED_FACE('',(#922,#923),#32,.F.);
#1048=ADVANCED_FACE('',(#924,#925),#33,.F.);
#1049=ADVANCED_FACE('',(#926),#34,.T.);
#1050=ADVANCED_FACE('',(#927,#928,#929,#930,#931,#932,#933,#934,#935,#936,
#937,#938,#939,#940),#995,.T.);
#1051=ADVANCED_FACE('',(#941,#942),#35,.F.);
#1052=ADVANCED_FACE('',(#943,#944),#996,.T.);
#1053=ADVANCED_FACE('',(#945,#946),#36,.F.);
#1054=ADVANCED_FACE('',(#947,#948),#997,.T.);
#1055=ADVANCED_FACE('',(#949,#950),#37,.F.);
#1056=ADVANCED_FACE('',(#951,#952),#998,.T.);
#1057=ADVANCED_FACE('',(#953,#954),#38,.F.);
#1058=ADVANCED_FACE('',(#955,#956),#999,.T.);
#1059=ADVANCED_FACE('',(#957,#958),#1000,.T.);
#1060=ADVANCED_FACE('',(#959),#1001,.F.);
#1061=ADVANCED_FACE('',(#960),#1002,.F.);
#1062=ADVANCED_FACE('',(#961),#1003,.F.);
#1063=ADVANCED_FACE('',(#962),#1004,.F.);
#1064=ADVANCED_FACE('',(#963),#1005,.F.);
#1065=ADVANCED_FACE('',(#964),#1006,.F.);
#1066=ADVANCED_FACE('',(#965,#966),#1007,.T.);
#1067=ADVANCED_FACE('',(#967),#1008,.F.);
#1068=ADVANCED_FACE('',(#968),#1009,.F.);
#1069=ADVANCED_FACE('',(#969),#1010,.F.);
#1070=ADVANCED_FACE('',(#970),#1011,.F.);
#1071=ADVANCED_FACE('',(#971),#1012,.F.);
#1072=ADVANCED_FACE('',(#972),#1013,.F.);
#1073=ADVANCED_FACE('',(#973,#974),#1014,.T.);
#1074=ADVANCED_FACE('',(#975),#1015,.F.);
#1075=ADVANCED_FACE('',(#976),#1016,.F.);
#1076=ADVANCED_FACE('',(#977),#1017,.F.);
#1077=ADVANCED_FACE('',(#978),#1018,.F.);
#1078=ADVANCED_FACE('',(#979),#1019,.F.);
#1079=ADVANCED_FACE('',(#980),#1020,.F.);
#1080=ADVANCED_FACE('',(#981),#1021,.F.);
#1081=ADVANCED_FACE('',(#982),#1022,.F.);
#1082=ADVANCED_FACE('',(#983),#1023,.T.);
#1083=ADVANCED_FACE('',(#984),#1024,.F.);
#1084=ADVANCED_FACE('',(#985),#1025,.F.);
#1085=ADVANCED_FACE('',(#986),#1026,.F.);
#1086=CLOSED_SHELL('',(#1027,#1028,#1029,#1030,#1031,#1032,#1033,#1034,
#1035,#1036,#1037,#1038,#1039,#1040,#1041,#1042,#1043,#1044,#1045,#1046,
#1047,#1048,#1049,#1050,#1051,#1052,#1053,#1054,#1055,#1056,#1057,#1058,
#1059,#1060,#1061,#1062,#1063,#1064,#1065,#1066,#1067,#1068,#1069,#1070,
#1071,#1072,#1073,#1074,#1075,#1076,#1077,#1078,#1079,#1080,#1081,#1082,
#1083,#1084,#1085));
#1087=STYLED_ITEM('',(#1088),#1095);
#1088=PRESENTATION_STYLE_ASSIGNMENT((#1089));
#1089=SURFACE_STYLE_USAGE(.BOTH.,#1090);
#1090=SURFACE_SIDE_STYLE('',(#1091));
#1091=SURFACE_STYLE_FILL_AREA(#1092);
#1092=FILL_AREA_STYLE('',(#1093));
#1093=FILL_AREA_STYLE_COLOUR('',#1094);
#1094=COLOUR_RGB('',0.615686274509804,0.811764705882353,0.929411764705882);
#1095=MANIFOLD_SOLID_BREP('Part 1',#1086);
#1096=SHAPE_DEFINITION_REPRESENTATION(#1788,#1097);
#1097=SHAPE_REPRESENTATION('Part 1',(#1098),#1783);
#1098=AXIS2_PLACEMENT_3D('',#1488,#1196,#1197);
#1099=AXIS2_PLACEMENT_3D('',#1489,#1198,#1199);
#1100=AXIS2_PLACEMENT_3D('',#1493,#1201,#1202);
#1101=AXIS2_PLACEMENT_3D('',#1497,#1204,#1205);
#1102=AXIS2_PLACEMENT_3D('',#1498,#1206,#1207);
#1103=AXIS2_PLACEMENT_3D('',#1500,#1208,#1209);
#1104=AXIS2_PLACEMENT_3D('',#1502,#1210,#1211);
#1105=AXIS2_PLACEMENT_3D('',#1504,#1212,#1213);
#1106=AXIS2_PLACEMENT_3D('',#1506,#1214,#1215);
#1107=AXIS2_PLACEMENT_3D('',#1508,#1216,#1217);
#1108=AXIS2_PLACEMENT_3D('',#1510,#1218,#1219);
#1109=AXIS2_PLACEMENT_3D('',#1512,#1220,#1221);
#1110=AXIS2_PLACEMENT_3D('',#1514,#1222,#1223);
#1111=AXIS2_PLACEMENT_3D('',#1572,#1252,#1253);
#1112=AXIS2_PLACEMENT_3D('',#1573,#1254,#1255);
#1113=AXIS2_PLACEMENT_3D('',#1578,#1257,#1258);
#1114=AXIS2_PLACEMENT_3D('',#1581,#1260,#1261);
#1115=AXIS2_PLACEMENT_3D('',#1582,#1262,#1263);
#1116=AXIS2_PLACEMENT_3D('',#1584,#1264,#1265);
#1117=AXIS2_PLACEMENT_3D('',#1586,#1266,#1267);
#1118=AXIS2_PLACEMENT_3D('',#1587,#1268,#1269);
#1119=AXIS2_PLACEMENT_3D('',#1589,#1270,#1271);
#1120=AXIS2_PLACEMENT_3D('',#1591,#1272,#1273);
#1121=AXIS2_PLACEMENT_3D('',#1592,#1274,#1275);
#1122=AXIS2_PLACEMENT_3D('',#1594,#1276,#1277);
#1123=AXIS2_PLACEMENT_3D('',#1596,#1278,#1279);
#1124=AXIS2_PLACEMENT_3D('',#1603,#1284,#1285);
#1125=AXIS2_PLACEMENT_3D('',#1604,#1286,#1287);
#1126=AXIS2_PLACEMENT_3D('',#1606,#1288,#1289);
#1127=AXIS2_PLACEMENT_3D('',#1607,#1290,#1291);
#1128=AXIS2_PLACEMENT_3D('',#1609,#1292,#1293);
#1129=AXIS2_PLACEMENT_3D('',#1610,#1294,#1295);
#1130=AXIS2_PLACEMENT_3D('',#1612,#1296,#1297);
#1131=AXIS2_PLACEMENT_3D('',#1613,#1298,#1299);
#1132=AXIS2_PLACEMENT_3D('',#1615,#1300,#1301);
#1133=AXIS2_PLACEMENT_3D('',#1621,#1305,#1306);
#1134=AXIS2_PLACEMENT_3D('',#1624,#1308,#1309);
#1135=AXIS2_PLACEMENT_3D('',#1625,#1310,#1311);
#1136=AXIS2_PLACEMENT_3D('',#1629,#1314,#1315);
#1137=AXIS2_PLACEMENT_3D('',#1635,#1319,#1320);
#1138=AXIS2_PLACEMENT_3D('',#1640,#1324,#1325);
#1139=AXIS2_PLACEMENT_3D('',#1644,#1328,#1329);
#1140=AXIS2_PLACEMENT_3D('',#1646,#1331,#1332);
#1141=AXIS2_PLACEMENT_3D('',#1647,#1333,#1334);
#1142=AXIS2_PLACEMENT_3D('',#1649,#1335,#1336);
#1143=AXIS2_PLACEMENT_3D('',#1650,#1337,#1338);
#1144=AXIS2_PLACEMENT_3D('',#1652,#1339,#1340);
#1145=AXIS2_PLACEMENT_3D('',#1653,#1341,#1342);
#1146=AXIS2_PLACEMENT_3D('',#1655,#1343,#1344);
#1147=AXIS2_PLACEMENT_3D('',#1656,#1345,#1346);
#1148=AXIS2_PLACEMENT_3D('',#1658,#1347,#1348);
#1149=AXIS2_PLACEMENT_3D('',#1659,#1349,#1350);
#1150=AXIS2_PLACEMENT_3D('',#1661,#1351,#1352);
#1151=AXIS2_PLACEMENT_3D('',#1662,#1353,#1354);
#1152=AXIS2_PLACEMENT_3D('',#1663,#1355,#1356);
#1153=AXIS2_PLACEMENT_3D('',#1664,#1357,#1358);
#1154=AXIS2_PLACEMENT_3D('',#1666,#1359,#1360);
#1155=AXIS2_PLACEMENT_3D('',#1668,#1361,#1362);
#1156=AXIS2_PLACEMENT_3D('',#1670,#1363,#1364);
#1157=AXIS2_PLACEMENT_3D('',#1672,#1365,#1366);
#1158=AXIS2_PLACEMENT_3D('',#1673,#1367,#1368);
#1159=AXIS2_PLACEMENT_3D('',#1675,#1369,#1370);
#1160=AXIS2_PLACEMENT_3D('',#1676,#1371,#1372);
#1161=AXIS2_PLACEMENT_3D('',#1677,#1373,#1374);
#1162=AXIS2_PLACEMENT_3D('',#1679,#1375,#1376);
#1163=AXIS2_PLACEMENT_3D('',#1680,#1377,#1378);
#1164=AXIS2_PLACEMENT_3D('',#1681,#1379,#1380);
#1165=AXIS2_PLACEMENT_3D('',#1683,#1381,#1382);
#1166=AXIS2_PLACEMENT_3D('',#1684,#1383,#1384);
#1167=AXIS2_PLACEMENT_3D('',#1685,#1385,#1386);
#1168=AXIS2_PLACEMENT_3D('',#1687,#1387,#1388);
#1169=AXIS2_PLACEMENT_3D('',#1688,#1389,#1390);
#1170=AXIS2_PLACEMENT_3D('',#1701,#1397,#1398);
#1171=AXIS2_PLACEMENT_3D('',#1704,#1401,#1402);
#1172=AXIS2_PLACEMENT_3D('',#1706,#1404,#1405);
#1173=AXIS2_PLACEMENT_3D('',#1708,#1407,#1408);
#1174=AXIS2_PLACEMENT_3D('',#1710,#1410,#1411);
#1175=AXIS2_PLACEMENT_3D('',#1712,#1413,#1414);
#1176=AXIS2_PLACEMENT_3D('',#1713,#1415,#1416);
#1177=AXIS2_PLACEMENT_3D('',#1726,#1423,#1424);
#1178=AXIS2_PLACEMENT_3D('',#1729,#1427,#1428);
#1179=AXIS2_PLACEMENT_3D('',#1731,#1430,#1431);
#1180=AXIS2_PLACEMENT_3D('',#1733,#1433,#1434);
#1181=AXIS2_PLACEMENT_3D('',#1735,#1436,#1437);
#1182=AXIS2_PLACEMENT_3D('',#1737,#1439,#1440);
#1183=AXIS2_PLACEMENT_3D('',#1738,#1441,#1442);
#1184=AXIS2_PLACEMENT_3D('',#1751,#1449,#1450);
#1185=AXIS2_PLACEMENT_3D('',#1754,#1453,#1454);
#1186=AXIS2_PLACEMENT_3D('',#1756,#1456,#1457);
#1187=AXIS2_PLACEMENT_3D('',#1758,#1459,#1460);
#1188=AXIS2_PLACEMENT_3D('',#1760,#1462,#1463);
#1189=AXIS2_PLACEMENT_3D('',#1762,#1465,#1466);
#1190=AXIS2_PLACEMENT_3D('',#1763,#1467,#1468);
#1191=AXIS2_PLACEMENT_3D('',#1767,#1471,#1472);
#1192=AXIS2_PLACEMENT_3D('',#1771,#1475,#1476);
#1193=AXIS2_PLACEMENT_3D('',#1777,#1480,#1481);
#1194=AXIS2_PLACEMENT_3D('',#1779,#1483,#1484);
#1195=AXIS2_PLACEMENT_3D('',#1781,#1486,#1487);
#1196=DIRECTION('',(0.,0.,1.));
#1197=DIRECTION('',(1.,0.,0.));
#1198=DIRECTION('',(0.,-1.,0.));
#1199=DIRECTION('',(1.,0.,0.));
#1200=DIRECTION('',(-0.0125,0.,-0.999921871948004));
#1201=DIRECTION('',(0.,-1.,0.));
#1202=DIRECTION('',(0.,0.,-1.));
#1203=DIRECTION('',(0.0125,0.,-0.999921871948004));
#1204=DIRECTION('',(0.,-1.,0.));
#1205=DIRECTION('',(0.,0.,-1.));
#1206=DIRECTION('',(0.,-1.,0.));
#1207=DIRECTION('',(0.,0.,-1.));
#1208=DIRECTION('',(0.,-1.,0.));
#1209=DIRECTION('',(0.,0.,-1.));
#1210=DIRECTION('',(0.,-1.,0.));
#1211=DIRECTION('',(0.,0.,-1.));
#1212=DIRECTION('',(0.,-1.,0.));
#1213=DIRECTION('',(0.,0.,-1.));
#1214=DIRECTION('',(0.,-1.,0.));
#1215=DIRECTION('',(0.,0.,-1.));
#1216=DIRECTION('',(0.,-1.,0.));
#1217=DIRECTION('',(0.,0.,-1.));
#1218=DIRECTION('',(0.,-1.,0.));
#1219=DIRECTION('',(0.,0.,-1.));
#1220=DIRECTION('',(0.,-1.,0.));
#1221=DIRECTION('',(0.,0.,-1.));
#1222=DIRECTION('',(0.,-1.,0.));
#1223=DIRECTION('',(0.,0.,-1.));
#1224=DIRECTION('',(0.,0.,-1.));
#1225=DIRECTION('',(0.866025403784439,0.,-0.5));
#1226=DIRECTION('',(0.866025403784439,0.,0.5));
#1227=DIRECTION('',(0.,0.,1.));
#1228=DIRECTION('',(-0.866025403784439,0.,0.5));
#1229=DIRECTION('',(-0.866025403784439,0.,-0.5));
#1230=DIRECTION('',(-5.00771532912392E-16,0.,1.));
#1231=DIRECTION('',(-0.866025403784439,0.,0.5));
#1232=DIRECTION('',(-0.866025403784439,0.,-0.5));
#1233=DIRECTION('',(0.,0.,-1.));
#1234=DIRECTION('',(0.866025403784439,0.,-0.5));
#1235=DIRECTION('',(0.866025403784439,0.,0.5));
#1236=DIRECTION('',(-0.5,0.,0.866025403784439));
#1237=DIRECTION('',(-1.,0.,0.));
#1238=DIRECTION('',(-0.5,0.,-0.866025403784439));
#1239=DIRECTION('',(0.5,0.,-0.866025403784439));
#1240=DIRECTION('',(1.,0.,0.));
#1241=DIRECTION('',(0.5,0.,0.866025403784439));
#1242=DIRECTION('',(-0.5,0.,0.866025403784439));
#1243=DIRECTION('',(1.,0.,0.));
#1244=DIRECTION('',(0.,0.,-1.));
#1245=DIRECTION('',(1.,0.,0.));
#1246=DIRECTION('',(1.44560289664734E-16,0.,-1.));
#1247=DIRECTION('',(1.,0.,0.));
#1248=DIRECTION('',(-0.5,0.,-0.866025403784439));
#1249=DIRECTION('',(0.5,0.,-0.866025403784439));
#1250=DIRECTION('',(1.,0.,0.));
#1251=DIRECTION('',(0.5,0.,0.866025403784439));
#1252=DIRECTION('',(0.,-1.,0.));
#1253=DIRECTION('',(0.,0.,-1.));
#1254=DIRECTION('',(0.,1.,0.));
#1255=DIRECTION('',(0.,0.,1.));
#1256=DIRECTION('',(0.,-1.,0.));
#1257=DIRECTION('',(0.,-1.,0.));
#1258=DIRECTION('',(0.,0.,-1.));
#1259=DIRECTION('',(0.,-1.,0.));
#1260=DIRECTION('',(0.,-1.,0.));
#1261=DIRECTION('',(0.,0.,-1.));
#1262=DIRECTION('',(0.,-1.,0.));
#1263=DIRECTION('',(0.,0.,-1.));
#1264=DIRECTION('',(0.,1.,0.));
#1265=DIRECTION('',(0.,0.,1.));
#1266=DIRECTION('',(0.,-1.,0.));
#1267=DIRECTION('',(0.,0.,-1.));
#1268=DIRECTION('',(0.,-1.,0.));
#1269=DIRECTION('',(0.,0.,-1.));
#1270=DIRECTION('',(0.,1.,0.));
#1271=DIRECTION('',(0.,0.,1.));
#1272=DIRECTION('',(0.,-1.,0.));
#1273=DIRECTION('',(0.,0.,-1.));
#1274=DIRECTION('',(0.,-1.,0.));
#1275=DIRECTION('',(0.,0.,-1.));
#1276=DIRECTION('',(0.,1.,0.));
#1277=DIRECTION('',(0.,0.,1.));
#1278=DIRECTION('',(0.,0.,1.));
#1279=DIRECTION('',(1.,0.,0.));
#1280=DIRECTION('',(-1.,0.,0.));
#1281=DIRECTION('',(0.,1.,0.));
#1282=DIRECTION('',(0.,1.,0.));
#1283=DIRECTION('',(1.,0.,0.));
#1284=DIRECTION('',(0.,1.,0.));
#1285=DIRECTION('',(0.,0.,1.));
#1286=DIRECTION('',(0.,-1.,0.));
#1287=DIRECTION('',(0.,0.,-1.));
#1288=DIRECTION('',(0.,1.,0.));
#1289=DIRECTION('',(0.,0.,1.));
#1290=DIRECTION('',(0.,-1.,0.));
#1291=DIRECTION('',(0.,0.,-1.));
#1292=DIRECTION('',(0.,1.,0.));
#1293=DIRECTION('',(0.,0.,1.));
#1294=DIRECTION('',(0.,-1.,0.));
#1295=DIRECTION('',(0.,0.,-1.));
#1296=DIRECTION('',(0.,1.,0.));
#1297=DIRECTION('',(0.,0.,1.));
#1298=DIRECTION('',(0.,-1.,0.));
#1299=DIRECTION('',(0.,0.,-1.));
#1300=DIRECTION('',(0.999921871948004,0.,-0.0125));
#1301=DIRECTION('',(-0.0125,0.,-0.999921871948004));
#1302=DIRECTION('',(0.,1.,0.));
#1303=DIRECTION('',(-0.0125,0.,-0.999921871948004));
#1304=DIRECTION('',(0.,1.,0.));
#1305=DIRECTION('',(0.,1.,0.));
#1306=DIRECTION('',(0.,0.,1.));
#1307=DIRECTION('',(0.,1.,0.));
#1308=DIRECTION('',(0.,-1.,0.));
#1309=DIRECTION('',(0.,0.,-1.));
#1310=DIRECTION('',(0.999921871948004,0.,0.0125));
#1311=DIRECTION('',(0.0125,0.,-0.999921871948004));
#1312=DIRECTION('',(0.,1.,0.));
#1313=DIRECTION('',(0.0125,0.,-0.999921871948004));
#1314=DIRECTION('',(1.,0.,0.));
#1315=DIRECTION('',(0.,0.,-1.));
#1316=DIRECTION('',(0.,1.,0.));
#1317=DIRECTION('',(0.,0.,-1.));
#1318=DIRECTION('',(0.,1.,0.));
#1319=DIRECTION('',(0.,0.,1.));
#1320=DIRECTION('',(1.,0.,0.));
#1321=DIRECTION('',(0.,-1.,0.));
#1322=DIRECTION('',(-1.,0.,0.));
#1323=DIRECTION('',(1.,0.,0.));
#1324=DIRECTION('',(1.,0.,1.44560289664734E-16));
#1325=DIRECTION('',(1.44560289664734E-16,0.,-1.));
#1326=DIRECTION('',(0.,1.,0.));
#1327=DIRECTION('',(1.44560289664734E-16,0.,-1.));
#1328=DIRECTION('',(0.,0.,1.));
#1329=DIRECTION('',(1.,0.,0.));
#1330=DIRECTION('',(1.,0.,0.));
#1331=DIRECTION('',(0.,1.,0.));
#1332=DIRECTION('',(0.,0.,1.));
#1333=DIRECTION('',(0.,-1.,0.));
#1334=DIRECTION('',(0.,0.,-1.));
#1335=DIRECTION('',(0.,1.,0.));
#1336=DIRECTION('',(0.,0.,1.));
#1337=DIRECTION('',(0.,-1.,0.));
#1338=DIRECTION('',(0.,0.,-1.));
#1339=DIRECTION('',(0.,1.,0.));
#1340=DIRECTION('',(0.,0.,1.));
#1341=DIRECTION('',(0.,-1.,0.));
#1342=DIRECTION('',(0.,0.,-1.));
#1343=DIRECTION('',(0.,1.,0.));
#1344=DIRECTION('',(0.,0.,1.));
#1345=DIRECTION('',(0.,-1.,0.));
#1346=DIRECTION('',(0.,0.,-1.));
#1347=DIRECTION('',(0.,1.,0.));
#1348=DIRECTION('',(0.,0.,1.));
#1349=DIRECTION('',(0.,-1.,0.));
#1350=DIRECTION('',(0.,0.,-1.));
#1351=DIRECTION('',(0.,1.,0.));
#1352=DIRECTION('',(0.,0.,1.));
#1353=DIRECTION('',(0.,-1.,0.));
#1354=DIRECTION('',(0.,0.,-1.));
#1355=DIRECTION('',(0.,-1.,0.));
#1356=DIRECTION('',(1.,0.,0.));
#1357=DIRECTION('',(0.,-1.,0.));
#1358=DIRECTION('',(0.,0.,-1.));
#1359=DIRECTION('',(0.,-1.,0.));
#1360=DIRECTION('',(0.,0.,-1.));
#1361=DIRECTION('',(0.,-1.,0.));
#1362=DIRECTION('',(0.,0.,-1.));
#1363=DIRECTION('',(0.,-1.,0.));
#1364=DIRECTION('',(0.,0.,-1.));
#1365=DIRECTION('',(0.,-1.,0.));
#1366=DIRECTION('',(0.,0.,-1.));
#1367=DIRECTION('',(0.,-1.,0.));
#1368=DIRECTION('',(0.,0.,-1.));
#1369=DIRECTION('',(0.,-1.,0.));
#1370=DIRECTION('',(1.,0.,0.));
#1371=DIRECTION('',(0.,-1.,0.));
#1372=DIRECTION('',(0.,0.,-1.));
#1373=DIRECTION('',(0.,-1.,0.));
#1374=DIRECTION('',(0.,0.,-1.));
#1375=DIRECTION('',(0.,-1.,0.));
#1376=DIRECTION('',(1.,0.,0.));
#1377=DIRECTION('',(0.,-1.,0.));
#1378=DIRECTION('',(0.,0.,-1.));
#1379=DIRECTION('',(0.,-1.,0.));
#1380=DIRECTION('',(0.,0.,-1.));
#1381=DIRECTION('',(0.,-1.,0.));
#1382=DIRECTION('',(1.,0.,0.));
#1383=DIRECTION('',(0.,-1.,0.));
#1384=DIRECTION('',(0.,0.,-1.));
#1385=DIRECTION('',(0.,-1.,0.));
#1386=DIRECTION('',(0.,0.,-1.));
#1387=DIRECTION('',(0.,-1.,0.));
#1388=DIRECTION('',(1.,0.,0.));
#1389=DIRECTION('',(0.,1.,0.));
#1390=DIRECTION('',(-1.,0.,0.));
#1391=DIRECTION('',(0.866025403784439,0.,-0.5));
#1392=DIRECTION('',(0.,0.,-1.));
#1393=DIRECTION('',(-0.866025403784439,0.,-0.5));
#1394=DIRECTION('',(-0.866025403784439,0.,0.5));
#1395=DIRECTION('',(0.,0.,1.));
#1396=DIRECTION('',(0.866025403784439,0.,0.5));
#1397=DIRECTION('',(0.5,0.,0.866025403784439));
#1398=DIRECTION('',(0.866025403784439,0.,-0.5));
#1399=DIRECTION('',(0.,1.,0.));
#1400=DIRECTION('',(0.,1.,0.));
#1401=DIRECTION('',(1.,0.,0.));
#1402=DIRECTION('',(0.,0.,-1.));
#1403=DIRECTION('',(0.,1.,0.));
#1404=DIRECTION('',(0.5,0.,-0.866025403784439));
#1405=DIRECTION('',(-0.866025403784439,0.,-0.5));
#1406=DIRECTION('',(0.,1.,0.));
#1407=DIRECTION('',(-0.5,0.,-0.866025403784439));
#1408=DIRECTION('',(-0.866025403784439,0.,0.5));
#1409=DIRECTION('',(0.,1.,0.));
#1410=DIRECTION('',(-1.,0.,0.));
#1411=DIRECTION('',(0.,0.,1.));
#1412=DIRECTION('',(0.,1.,0.));
#1413=DIRECTION('',(-0.5,0.,0.866025403784439));
#1414=DIRECTION('',(0.866025403784439,0.,0.5));
#1415=DIRECTION('',(0.,1.,0.));
#1416=DIRECTION('',(-1.,0.,0.));
#1417=DIRECTION('',(-1.,0.,0.));
#1418=DIRECTION('',(-0.5,0.,0.866025403784439));
#1419=DIRECTION('',(0.5,0.,0.866025403784439));
#1420=DIRECTION('',(1.,0.,0.));
#1421=DIRECTION('',(0.5,0.,-0.866025403784439));
#1422=DIRECTION('',(-0.5,0.,-0.866025403784439));
#1423=DIRECTION('',(0.,0.,-1.));
#1424=DIRECTION('',(-1.,0.,0.));
#1425=DIRECTION('',(0.,1.,0.));
#1426=DIRECTION('',(0.,1.,0.));
#1427=DIRECTION('',(-0.866025403784438,0.,-0.5));
#1428=DIRECTION('',(-0.5,0.,0.866025403784439));
#1429=DIRECTION('',(0.,1.,0.));
#1430=DIRECTION('',(-0.866025403784439,0.,0.5));
#1431=DIRECTION('',(0.5,0.,0.866025403784439));
#1432=DIRECTION('',(0.,1.,0.));
#1433=DIRECTION('',(0.,0.,1.));
#1434=DIRECTION('',(1.,0.,0.));
#1435=DIRECTION('',(0.,1.,0.));
#1436=DIRECTION('',(0.866025403784438,0.,0.5));
#1437=DIRECTION('',(0.5,0.,-0.866025403784439));
#1438=DIRECTION('',(0.,1.,0.));
#1439=DIRECTION('',(0.866025403784439,0.,-0.5));
#1440=DIRECTION('',(-0.5,0.,-0.866025403784439));
#1441=DIRECTION('',(0.,1.,0.));
#1442=DIRECTION('',(-1.,0.,0.));
#1443=DIRECTION('',(-0.866025403784439,0.,0.5));
#1444=DIRECTION('',(-5.00771532912392E-16,0.,1.));
#1445=DIRECTION('',(0.866025403784439,0.,0.5));
#1446=DIRECTION('',(0.866025403784439,0.,-0.5));
#1447=DIRECTION('',(0.,0.,-1.));
#1448=DIRECTION('',(-0.866025403784439,0.,-0.5));
#1449=DIRECTION('',(-0.5,0.,-0.866025403784439));
#1450=DIRECTION('',(-0.866025403784439,0.,0.5));
#1451=DIRECTION('',(0.,1.,0.));
#1452=DIRECTION('',(0.,1.,0.));
#1453=DIRECTION('',(-1.,0.,-5.00771532912392E-16));
#1454=DIRECTION('',(-5.00771532912392E-16,0.,1.));
#1455=DIRECTION('',(0.,1.,0.));
#1456=DIRECTION('',(-0.5,0.,0.866025403784439));
#1457=DIRECTION('',(0.866025403784439,0.,0.5));
#1458=DIRECTION('',(0.,1.,0.));
#1459=DIRECTION('',(0.5,0.,0.866025403784439));
#1460=DIRECTION('',(0.866025403784439,0.,-0.5));
#1461=DIRECTION('',(0.,1.,0.));
#1462=DIRECTION('',(1.,0.,0.));
#1463=DIRECTION('',(0.,0.,-1.));
#1464=DIRECTION('',(0.,1.,0.));
#1465=DIRECTION('',(0.5,0.,-0.866025403784439));
#1466=DIRECTION('',(-0.866025403784439,0.,-0.5));
#1467=DIRECTION('',(0.866025403784439,0.,-0.5));
#1468=DIRECTION('',(-0.5,0.,-0.866025403784439));
#1469=DIRECTION('',(-0.5,0.,-0.866025403784439));
#1470=DIRECTION('',(0.,1.,0.));
#1471=DIRECTION('',(-0.866025403784438,0.,-0.5));
#1472=DIRECTION('',(-0.5,0.,0.866025403784439));
#1473=DIRECTION('',(0.,1.,0.));
#1474=DIRECTION('',(-0.5,0.,0.866025403784439));
#1475=DIRECTION('',(0.,1.,0.));
#1476=DIRECTION('',(-1.,0.,0.));
#1477=DIRECTION('',(0.5,0.,0.866025403784439));
#1478=DIRECTION('',(1.,0.,0.));
#1479=DIRECTION('',(0.5,0.,-0.866025403784439));
#1480=DIRECTION('',(0.866025403784438,0.,0.5));
#1481=DIRECTION('',(0.5,0.,-0.866025403784439));
#1482=DIRECTION('',(0.,1.,0.));
#1483=DIRECTION('',(-0.866025403784439,0.,0.5));
#1484=DIRECTION('',(0.5,0.,0.866025403784439));
#1485=DIRECTION('',(0.,1.,0.));
#1486=DIRECTION('',(0.,0.,1.));
#1487=DIRECTION('',(1.,0.,0.));
#1488=CARTESIAN_POINT('',(0.,0.,0.));
#1489=CARTESIAN_POINT('',(3.46944695195361E-18,0.,0.09875));
#1490=CARTESIAN_POINT('',(-0.0187485350990251,0.,0.100234375));
#1491=CARTESIAN_POINT('',(-0.0174986327590901,0.,0.20021875));
#1492=CARTESIAN_POINT('',(-0.01999843743896,0.,0.00025));
#1493=CARTESIAN_POINT('',(1.03007880003503E-14,0.,0.2));
#1494=CARTESIAN_POINT('',(0.0174986327590901,0.,0.20021875));
#1495=CARTESIAN_POINT('',(0.0187485350990251,0.,0.100234375));
#1496=CARTESIAN_POINT('',(0.0199984374389601,0.,0.000249999999999987));
#1497=CARTESIAN_POINT('',(3.04063289547806E-18,0.,7.31836466427716E-19));
#1498=CARTESIAN_POINT('',(-4.33680868994202E-19,0.,0.01));
#1499=CARTESIAN_POINT('',(-4.33680868994202E-19,0.,0.0088));
#1500=CARTESIAN_POINT('',(-0.01,0.,-6.50521303491303E-19));
#1501=CARTESIAN_POINT('',(-0.01,0.,-0.0012));
#1502=CARTESIAN_POINT('',(3.25260651745651E-18,0.,-0.01));
#1503=CARTESIAN_POINT('',(3.25260651745651E-18,0.,-0.0112));
#1504=CARTESIAN_POINT('',(0.0095,0.,0.2095));
#1505=CARTESIAN_POINT('',(0.0095,0.,0.2081));
#1506=CARTESIAN_POINT('',(-0.0095,0.,0.2095));
#1507=CARTESIAN_POINT('',(-0.0095,0.,0.2081));
#1508=CARTESIAN_POINT('',(-0.0095,0.,0.1905));
#1509=CARTESIAN_POINT('',(-0.0095,0.,0.1891));
#1510=CARTESIAN_POINT('',(0.0095,0.,0.1905));
#1511=CARTESIAN_POINT('',(0.0095,0.,0.1891));
#1512=CARTESIAN_POINT('',(0.01,0.,-1.09315590346985E-19));
#1513=CARTESIAN_POINT('',(0.01,0.,-0.0012));
#1514=CARTESIAN_POINT('',(-6.93889390390723E-18,0.,0.2));
#1515=CARTESIAN_POINT('',(-6.93889390390723E-18,0.,0.193));
#1516=CARTESIAN_POINT('',(0.0143137084989847,0.,0.2));
#1517=CARTESIAN_POINT('',(0.0143137084989847,0.,0.201732050807569));
#1518=CARTESIAN_POINT('',(0.0143137084989847,0.,0.198267949192431));
#1519=CARTESIAN_POINT('',(0.0128137084989848,0.,0.202598076211354));
#1520=CARTESIAN_POINT('',(0.0113137084989848,0.,0.203464101615138));
#1521=CARTESIAN_POINT('',(0.00981370849898475,0.,0.202598076211354));
#1522=CARTESIAN_POINT('',(0.00831370849898477,0.,0.201732050807569));
#1523=CARTESIAN_POINT('',(0.00831370849898477,0.,0.2));
#1524=CARTESIAN_POINT('',(0.00831370849898476,0.,0.198267949192431));
#1525=CARTESIAN_POINT('',(0.00981370849898476,0.,0.197401923788647));
#1526=CARTESIAN_POINT('',(0.0113137084989848,0.,0.196535898384863));
#1527=CARTESIAN_POINT('',(0.0128137084989847,0.,0.197401923788647));
#1528=CARTESIAN_POINT('',(-0.0143137084989847,0.,0.2));
#1529=CARTESIAN_POINT('',(-0.0143137084989847,0.,0.198267949192431));
#1530=CARTESIAN_POINT('',(-0.0143137084989847,0.,0.201732050807569));
#1531=CARTESIAN_POINT('',(-0.0128137084989848,0.,0.197401923788647));
#1532=CARTESIAN_POINT('',(-0.0113137084989848,0.,0.196535898384863));
#1533=CARTESIAN_POINT('',(-0.00981370849898475,0.,0.197401923788647));
#1534=CARTESIAN_POINT('',(-0.00831370849898477,0.,0.198267949192431));
#1535=CARTESIAN_POINT('',(-0.00831370849898477,0.,0.2));
#1536=CARTESIAN_POINT('',(-0.00831370849898476,0.,0.201732050807569));
#1537=CARTESIAN_POINT('',(-0.00981370849898476,0.,0.202598076211354));
#1538=CARTESIAN_POINT('',(-0.0113137084989848,0.,0.203464101615138));
#1539=CARTESIAN_POINT('',(-0.0128137084989847,0.,0.202598076211354));
#1540=CARTESIAN_POINT('',(-0.00259807621135332,0.,0.209813708498985));
#1541=CARTESIAN_POINT('',(-0.00173205080756886,0.,0.208313708498985));
#1542=CARTESIAN_POINT('',(-0.00346410161513773,0.,0.211313708498985));
#1543=CARTESIAN_POINT('',(2.99239799605999E-17,0.,0.208313708498985));
#1544=CARTESIAN_POINT('',(0.00173205080756891,0.,0.208313708498985));
#1545=CARTESIAN_POINT('',(0.0025980762113533,0.,0.209813708498985));
#1546=CARTESIAN_POINT('',(0.00346410161513773,0.,0.211313708498985));
#1547=CARTESIAN_POINT('',(0.00259807621135332,0.,0.212813708498984));
#1548=CARTESIAN_POINT('',(0.00173205080756888,0.,0.214313708498985));
#1549=CARTESIAN_POINT('',(-4.77048955893622E-18,0.,0.214313708498984));
#1550=CARTESIAN_POINT('',(-0.00173205080756887,0.,0.214313708498984));
#1551=CARTESIAN_POINT('',(-0.0025980762113533,0.,0.212813708498985));
#1552=CARTESIAN_POINT('',(-0.00259807621135333,0.,0.187186291501015));
#1553=CARTESIAN_POINT('',(-0.00335654616687888,0.,0.1885));
#1554=CARTESIAN_POINT('',(-0.00346410161513775,0.,0.188686291501015));
#1555=CARTESIAN_POINT('',(0.,0.,0.1885));
#1556=CARTESIAN_POINT('',(-0.005,0.,0.1885));
#1557=CARTESIAN_POINT('',(-0.005,0.,0.1855));
#1558=CARTESIAN_POINT('',(-0.005,0.,0.1825));
#1559=CARTESIAN_POINT('',(0.,0.,0.1825));
#1560=CARTESIAN_POINT('',(0.005,0.,0.1825));
#1561=CARTESIAN_POINT('',(0.005,0.,0.1855));
#1562=CARTESIAN_POINT('',(0.005,0.,0.1885));
#1563=CARTESIAN_POINT('',(0.,0.,0.1885));
#1564=CARTESIAN_POINT('',(0.00335654616687884,0.,0.1885));
#1565=CARTESIAN_POINT('',(0.00259807621135329,0.,0.187186291501015));
#1566=CARTESIAN_POINT('',(0.00346410161513776,0.,0.188686291501015));
#1567=CARTESIAN_POINT('',(0.00259807621135331,0.,0.190186291501015));
#1568=CARTESIAN_POINT('',(0.00173205080756885,0.,0.191686291501015));
#1569=CARTESIAN_POINT('',(-4.27175655959289E-17,0.,0.191686291501015));
#1570=CARTESIAN_POINT('',(-0.00173205080756888,0.,0.191686291501015));
#1571=CARTESIAN_POINT('',(-0.00259807621135332,0.,0.190186291501015));
#1572=CARTESIAN_POINT('',(-1.53956708492941E-17,0.015,0.188686291501015));
#1573=CARTESIAN_POINT('',(-1.53956708492941E-17,-0.003,0.188686291501015));
#1574=CARTESIAN_POINT('',(0.00174005617054434,-0.003,0.1885));
#1575=CARTESIAN_POINT('',(-0.00174005617054437,-0.003,0.1885));
#1576=CARTESIAN_POINT('',(0.00174005617054434,0.015,0.1885));
#1577=CARTESIAN_POINT('',(0.00174005617054434,-0.01,0.1885));
#1578=CARTESIAN_POINT('',(-1.53956708492941E-17,-0.01,0.188686291501015));
#1579=CARTESIAN_POINT('',(-0.00174005617054437,-0.01,0.1885));
#1580=CARTESIAN_POINT('',(-0.00174005617054437,0.015,0.1885));
#1581=CARTESIAN_POINT('',(-0.0113137084989847,0.015,0.2));
#1582=CARTESIAN_POINT('',(-0.0113137084989847,-0.01,0.2));
#1583=CARTESIAN_POINT('',(-0.0113137084989847,-0.01,0.19825));
#1584=CARTESIAN_POINT('',(-0.0113137084989847,-0.003,0.2));
#1585=CARTESIAN_POINT('',(-0.0113137084989847,-0.003,0.20175));
#1586=CARTESIAN_POINT('',(0.,0.015,0.211313708498985));
#1587=CARTESIAN_POINT('',(0.,-0.01,0.211313708498985));
#1588=CARTESIAN_POINT('',(0.,-0.01,0.209563708498985));
#1589=CARTESIAN_POINT('',(0.,-0.003,0.211313708498985));
#1590=CARTESIAN_POINT('',(0.,-0.003,0.213063708498985));
#1591=CARTESIAN_POINT('',(0.0113137084989847,0.015,0.2));
#1592=CARTESIAN_POINT('',(0.0113137084989847,-0.01,0.2));
#1593=CARTESIAN_POINT('',(0.0113137084989847,-0.01,0.19825));
#1594=CARTESIAN_POINT('',(0.0113137084989847,-0.003,0.2));
#1595=CARTESIAN_POINT('',(0.0113137084989847,-0.003,0.20175));
#1596=CARTESIAN_POINT('',(0.,-0.01,0.1885));
#1597=CARTESIAN_POINT('',(0.,-0.003,0.1885));
#1598=CARTESIAN_POINT('',(0.00335654616687884,-0.003,0.1885));
#1599=CARTESIAN_POINT('',(0.00335654616687884,-0.01,0.1885));
#1600=CARTESIAN_POINT('',(0.005,-0.01,0.1885));
#1601=CARTESIAN_POINT('',(0.005,-0.01,0.1885));
#1602=CARTESIAN_POINT('',(0.,-0.01,0.1885));
#1603=CARTESIAN_POINT('',(0.0095,-0.01,0.2095));
#1604=CARTESIAN_POINT('',(0.0095,-0.004,0.2095));
#1605=CARTESIAN_POINT('',(0.0095,-0.004,0.2081));
#1606=CARTESIAN_POINT('',(-0.0095,-0.01,0.2095));
#1607=CARTESIAN_POINT('',(-0.0095,-0.004,0.2095));
#1608=CARTESIAN_POINT('',(-0.0095,-0.004,0.2081));
#1609=CARTESIAN_POINT('',(-0.0095,-0.01,0.1905));
#1610=CARTESIAN_POINT('',(-0.0095,-0.004,0.1905));
#1611=CARTESIAN_POINT('',(-0.0095,-0.004,0.1891));
#1612=CARTESIAN_POINT('',(0.0095,-0.01,0.1905));
#1613=CARTESIAN_POINT('',(0.0095,-0.004,0.1905));
#1614=CARTESIAN_POINT('',(0.0095,-0.004,0.1891));
#1615=CARTESIAN_POINT('',(-0.0187485350990251,-0.01,0.100234375));
#1616=CARTESIAN_POINT('',(-0.01999843743896,-0.01,0.00025));
#1617=CARTESIAN_POINT('',(-0.01999843743896,-0.01,0.00025));
#1618=CARTESIAN_POINT('',(-0.0187485350990251,-0.01,0.100234375));
#1619=CARTESIAN_POINT('',(-0.0174986327590901,-0.01,0.20021875));
#1620=CARTESIAN_POINT('',(-0.0174986327590901,-0.01,0.20021875));
#1621=CARTESIAN_POINT('',(3.04063289547806E-18,-0.01,7.31836466427716E-19));
#1622=CARTESIAN_POINT('',(0.0199984374389601,-0.01,0.000249999999999987));
#1623=CARTESIAN_POINT('',(0.0199984374389601,-0.01,0.000249999999999987));
#1624=CARTESIAN_POINT('',(3.04063289547806E-18,-0.01,7.31836466427716E-19));
#1625=CARTESIAN_POINT('',(0.0187485350990251,-0.01,0.100234375));
#1626=CARTESIAN_POINT('',(0.0174986327590901,-0.01,0.20021875));
#1627=CARTESIAN_POINT('',(0.0174986327590901,-0.01,0.20021875));
#1628=CARTESIAN_POINT('',(0.0187485350990251,-0.01,0.100234375));
#1629=CARTESIAN_POINT('',(-0.005,-0.01,0.1855));
#1630=CARTESIAN_POINT('',(-0.005,-0.01,0.1885));
#1631=CARTESIAN_POINT('',(-0.005,-0.01,0.1885));
#1632=CARTESIAN_POINT('',(-0.005,-0.01,0.1855));
#1633=CARTESIAN_POINT('',(-0.005,-0.01,0.1825));
#1634=CARTESIAN_POINT('',(-0.005,-0.01,0.1825));
#1635=CARTESIAN_POINT('',(0.,-0.01,0.1885));
#1636=CARTESIAN_POINT('',(-0.00335654616687886,-0.01,0.1885));
#1637=CARTESIAN_POINT('',(-0.00335654616687886,-0.003,0.1885));
#1638=CARTESIAN_POINT('',(0.,-0.003,0.1885));
#1639=CARTESIAN_POINT('',(0.,-0.01,0.1885));
#1640=CARTESIAN_POINT('',(0.005,-0.01,0.1855));
#1641=CARTESIAN_POINT('',(0.005,-0.01,0.1825));
#1642=CARTESIAN_POINT('',(0.005,-0.01,0.1825));
#1643=CARTESIAN_POINT('',(0.005,-0.01,0.1855));
#1644=CARTESIAN_POINT('',(0.,-0.01,0.1825));
#1645=CARTESIAN_POINT('',(0.,-0.01,0.1825));
#1646=CARTESIAN_POINT('',(-4.33680868994202E-19,-0.01,0.01));
#1647=CARTESIAN_POINT('',(-4.33680868994202E-19,-0.01,0.01));
#1648=CARTESIAN_POINT('',(-4.33680868994202E-19,-0.01,0.0088));
#1649=CARTESIAN_POINT('',(-0.01,-0.01,-6.50521303491303E-19));
#1650=CARTESIAN_POINT('',(-0.01,-0.01,-6.50521303491303E-19));
#1651=CARTESIAN_POINT('',(-0.01,-0.01,-0.0012));
#1652=CARTESIAN_POINT('',(3.25260651745651E-18,-0.01,-0.01));
#1653=CARTESIAN_POINT('',(3.25260651745651E-18,-0.01,-0.01));
#1654=CARTESIAN_POINT('',(3.25260651745651E-18,-0.01,-0.0112));
#1655=CARTESIAN_POINT('',(0.01,-0.01,-1.09315590346985E-19));
#1656=CARTESIAN_POINT('',(0.01,-0.01,-1.09315590346985E-19));
#1657=CARTESIAN_POINT('',(0.01,-0.01,-0.0012));
#1658=CARTESIAN_POINT('',(-6.93889390390723E-18,-0.01,0.2));
#1659=CARTESIAN_POINT('',(-6.93889390390723E-18,-0.01,0.2));
#1660=CARTESIAN_POINT('',(-6.93889390390723E-18,-0.01,0.193));
#1661=CARTESIAN_POINT('',(1.03007880003503E-14,-0.01,0.2));
#1662=CARTESIAN_POINT('',(1.03007880003503E-14,-0.01,0.2));
#1663=CARTESIAN_POINT('',(3.46944695195361E-18,-0.01,0.09875));
#1664=CARTESIAN_POINT('',(-0.0095,-0.01,0.1905));
#1665=CARTESIAN_POINT('',(-0.0095,-0.01,0.1875));
#1666=CARTESIAN_POINT('',(0.0095,-0.01,0.1905));
#1667=CARTESIAN_POINT('',(0.0095,-0.01,0.1875));
#1668=CARTESIAN_POINT('',(0.0095,-0.01,0.2095));
#1669=CARTESIAN_POINT('',(0.0095,-0.01,0.2065));
#1670=CARTESIAN_POINT('',(-0.0095,-0.01,0.2095));
#1671=CARTESIAN_POINT('',(-0.0095,-0.01,0.2065));
#1672=CARTESIAN_POINT('',(-0.0095,-0.004,0.2095));
#1673=CARTESIAN_POINT('',(-0.0095,-0.004,0.2095));
#1674=CARTESIAN_POINT('',(-0.0095,-0.004,0.2065));
#1675=CARTESIAN_POINT('',(3.46944695195361E-18,-0.004,0.09875));
#1676=CARTESIAN_POINT('',(0.0095,-0.004,0.2095));
#1677=CARTESIAN_POINT('',(0.0095,-0.004,0.2095));
#1678=CARTESIAN_POINT('',(0.0095,-0.004,0.2065));
#1679=CARTESIAN_POINT('',(3.46944695195361E-18,-0.004,0.09875));
#1680=CARTESIAN_POINT('',(0.0095,-0.004,0.1905));
#1681=CARTESIAN_POINT('',(0.0095,-0.004,0.1905));
#1682=CARTESIAN_POINT('',(0.0095,-0.004,0.1875));
#1683=CARTESIAN_POINT('',(3.46944695195361E-18,-0.004,0.09875));
#1684=CARTESIAN_POINT('',(-0.0095,-0.004,0.1905));
#1685=CARTESIAN_POINT('',(-0.0095,-0.004,0.1905));
#1686=CARTESIAN_POINT('',(-0.0095,-0.004,0.1875));
#1687=CARTESIAN_POINT('',(3.46944695195361E-18,-0.004,0.09875));
#1688=CARTESIAN_POINT('',(3.46944695195361E-18,-0.003,0.09875));
#1689=CARTESIAN_POINT('',(0.0128137084989848,-0.003,0.202598076211354));
#1690=CARTESIAN_POINT('',(0.0113137084989848,-0.003,0.203464101615138));
#1691=CARTESIAN_POINT('',(0.0143137084989847,-0.003,0.201732050807569));
#1692=CARTESIAN_POINT('',(0.0143137084989847,-0.003,0.2));
#1693=CARTESIAN_POINT('',(0.0143137084989847,-0.003,0.198267949192431));
#1694=CARTESIAN_POINT('',(0.0128137084989847,-0.003,0.197401923788647));
#1695=CARTESIAN_POINT('',(0.0113137084989848,-0.003,0.196535898384863));
#1696=CARTESIAN_POINT('',(0.00981370849898476,-0.003,0.197401923788647));
#1697=CARTESIAN_POINT('',(0.00831370849898476,-0.003,0.198267949192431));
#1698=CARTESIAN_POINT('',(0.00831370849898477,-0.003,0.2));
#1699=CARTESIAN_POINT('',(0.00831370849898477,-0.003,0.201732050807569));
#1700=CARTESIAN_POINT('',(0.00981370849898475,-0.003,0.202598076211354));
#1701=CARTESIAN_POINT('',(0.0128137084989848,-0.003,0.202598076211354));
#1702=CARTESIAN_POINT('',(0.0143137084989847,-0.003,0.201732050807569));
#1703=CARTESIAN_POINT('',(0.0113137084989848,-0.003,0.203464101615138));
#1704=CARTESIAN_POINT('',(0.0143137084989847,-0.003,0.2));
#1705=CARTESIAN_POINT('',(0.0143137084989847,-0.003,0.198267949192431));
#1706=CARTESIAN_POINT('',(0.0128137084989847,-0.003,0.197401923788647));
#1707=CARTESIAN_POINT('',(0.0113137084989848,-0.003,0.196535898384863));
#1708=CARTESIAN_POINT('',(0.00981370849898476,-0.003,0.197401923788647));
#1709=CARTESIAN_POINT('',(0.00831370849898476,-0.003,0.198267949192431));
#1710=CARTESIAN_POINT('',(0.00831370849898477,-0.003,0.2));
#1711=CARTESIAN_POINT('',(0.00831370849898477,-0.003,0.201732050807569));
#1712=CARTESIAN_POINT('',(0.00981370849898475,-0.003,0.202598076211354));
#1713=CARTESIAN_POINT('',(3.46944695195361E-18,-0.003,0.09875));
#1714=CARTESIAN_POINT('',(2.99239799605999E-17,-0.003,0.208313708498985));
#1715=CARTESIAN_POINT('',(0.00173205080756891,-0.003,0.208313708498985));
#1716=CARTESIAN_POINT('',(-0.00173205080756886,-0.003,0.208313708498985));
#1717=CARTESIAN_POINT('',(-0.00259807621135332,-0.003,0.209813708498985));
#1718=CARTESIAN_POINT('',(-0.00346410161513773,-0.003,0.211313708498985));
#1719=CARTESIAN_POINT('',(-0.0025980762113533,-0.003,0.212813708498985));
#1720=CARTESIAN_POINT('',(-0.00173205080756887,-0.003,0.214313708498984));
#1721=CARTESIAN_POINT('',(-4.77048955893622E-18,-0.003,0.214313708498984));
#1722=CARTESIAN_POINT('',(0.00173205080756888,-0.003,0.214313708498985));
#1723=CARTESIAN_POINT('',(0.00259807621135332,-0.003,0.212813708498984));
#1724=CARTESIAN_POINT('',(0.00346410161513774,-0.003,0.211313708498985));
#1725=CARTESIAN_POINT('',(0.0025980762113533,-0.003,0.209813708498985));
#1726=CARTESIAN_POINT('',(2.99239799605999E-17,-0.003,0.208313708498985));
#1727=CARTESIAN_POINT('',(-0.00173205080756886,-0.003,0.208313708498985));
#1728=CARTESIAN_POINT('',(0.00173205080756891,-0.003,0.208313708498985));
#1729=CARTESIAN_POINT('',(-0.00259807621135332,-0.003,0.209813708498985));
#1730=CARTESIAN_POINT('',(-0.00346410161513773,-0.003,0.211313708498985));
#1731=CARTESIAN_POINT('',(-0.0025980762113533,-0.003,0.212813708498985));
#1732=CARTESIAN_POINT('',(-0.00173205080756887,-0.003,0.214313708498984));
#1733=CARTESIAN_POINT('',(-4.77048955893622E-18,-0.003,0.214313708498984));
#1734=CARTESIAN_POINT('',(0.00173205080756888,-0.003,0.214313708498985));
#1735=CARTESIAN_POINT('',(0.00259807621135332,-0.003,0.212813708498984));
#1736=CARTESIAN_POINT('',(0.00346410161513774,-0.003,0.211313708498985));
#1737=CARTESIAN_POINT('',(0.0025980762113533,-0.003,0.209813708498985));
#1738=CARTESIAN_POINT('',(3.46944695195361E-18,-0.003,0.09875));
#1739=CARTESIAN_POINT('',(-0.0128137084989848,-0.003,0.197401923788647));
#1740=CARTESIAN_POINT('',(-0.0113137084989848,-0.003,0.196535898384863));
#1741=CARTESIAN_POINT('',(-0.0143137084989847,-0.003,0.198267949192431));
#1742=CARTESIAN_POINT('',(-0.0143137084989847,-0.003,0.2));
#1743=CARTESIAN_POINT('',(-0.0143137084989847,-0.003,0.201732050807569));
#1744=CARTESIAN_POINT('',(-0.0128137084989847,-0.003,0.202598076211354));
#1745=CARTESIAN_POINT('',(-0.0113137084989848,-0.003,0.203464101615138));
#1746=CARTESIAN_POINT('',(-0.00981370849898476,-0.003,0.202598076211354));
#1747=CARTESIAN_POINT('',(-0.00831370849898476,-0.003,0.201732050807569));
#1748=CARTESIAN_POINT('',(-0.00831370849898477,-0.003,0.2));
#1749=CARTESIAN_POINT('',(-0.00831370849898477,-0.003,0.198267949192431));
#1750=CARTESIAN_POINT('',(-0.00981370849898475,-0.003,0.197401923788647));
#1751=CARTESIAN_POINT('',(-0.0128137084989848,-0.003,0.197401923788647));
#1752=CARTESIAN_POINT('',(-0.0143137084989847,-0.003,0.198267949192431));
#1753=CARTESIAN_POINT('',(-0.0113137084989848,-0.003,0.196535898384863));
#1754=CARTESIAN_POINT('',(-0.0143137084989847,-0.003,0.2));
#1755=CARTESIAN_POINT('',(-0.0143137084989847,-0.003,0.201732050807569));
#1756=CARTESIAN_POINT('',(-0.0128137084989847,-0.003,0.202598076211354));
#1757=CARTESIAN_POINT('',(-0.0113137084989848,-0.003,0.203464101615138));
#1758=CARTESIAN_POINT('',(-0.00981370849898476,-0.003,0.202598076211354));
#1759=CARTESIAN_POINT('',(-0.00831370849898476,-0.003,0.201732050807569));
#1760=CARTESIAN_POINT('',(-0.00831370849898477,-0.003,0.2));
#1761=CARTESIAN_POINT('',(-0.00831370849898477,-0.003,0.198267949192431));
#1762=CARTESIAN_POINT('',(-0.00981370849898475,-0.003,0.197401923788647));
#1763=CARTESIAN_POINT('',(0.00259807621135329,-0.003,0.187186291501015));
#1764=CARTESIAN_POINT('',(0.00259807621135329,-0.003,0.187186291501015));
#1765=CARTESIAN_POINT('',(0.00346410161513776,-0.003,0.188686291501015));
#1766=CARTESIAN_POINT('',(0.00346410161513776,-0.003,0.188686291501015));
#1767=CARTESIAN_POINT('',(-0.00259807621135333,-0.003,0.187186291501015));
#1768=CARTESIAN_POINT('',(-0.00346410161513775,-0.003,0.188686291501015));
#1769=CARTESIAN_POINT('',(-0.00346410161513775,-0.003,0.188686291501015));
#1770=CARTESIAN_POINT('',(-0.00259807621135333,-0.003,0.187186291501015));
#1771=CARTESIAN_POINT('',(3.46944695195361E-18,-0.003,0.09875));
#1772=CARTESIAN_POINT('',(-0.00259807621135332,-0.003,0.190186291501015));
#1773=CARTESIAN_POINT('',(-0.00173205080756888,-0.003,0.191686291501015));
#1774=CARTESIAN_POINT('',(-4.27175655959289E-17,-0.003,0.191686291501015));
#1775=CARTESIAN_POINT('',(0.00173205080756885,-0.003,0.191686291501015));
#1776=CARTESIAN_POINT('',(0.00259807621135331,-0.003,0.190186291501015));
#1777=CARTESIAN_POINT('',(0.00259807621135331,-0.003,0.190186291501015));
#1778=CARTESIAN_POINT('',(0.00173205080756885,-0.003,0.191686291501015));
#1779=CARTESIAN_POINT('',(-0.00259807621135332,-0.003,0.190186291501015));
#1780=CARTESIAN_POINT('',(-0.00173205080756888,-0.003,0.191686291501015));
#1781=CARTESIAN_POINT('',(-4.27175655959289E-17,-0.003,0.191686291501015));
#1782=MECHANICAL_DESIGN_GEOMETRIC_PRESENTATION_REPRESENTATION('',(#1087),
#1783);
#1783=(
GEOMETRIC_REPRESENTATION_CONTEXT(3)
GLOBAL_UNCERTAINTY_ASSIGNED_CONTEXT((#1784))
GLOBAL_UNIT_ASSIGNED_CONTEXT((#1787,#1786,#1785))
REPRESENTATION_CONTEXT('Part 1','TOP_LEVEL_ASSEMBLY_PART')
);
#1784=UNCERTAINTY_MEASURE_WITH_UNIT(LENGTH_MEASURE(1.E-8),#1787,
'DISTANCE_ACCURACY_VALUE','Maximum Tolerance applied to model');
#1785=(
NAMED_UNIT(*)
SI_UNIT($,.STERADIAN.)
SOLID_ANGLE_UNIT()
);
#1786=(
NAMED_UNIT(*)
PLANE_ANGLE_UNIT()
SI_UNIT($,.RADIAN.)
);
#1787=(
LENGTH_UNIT()
NAMED_UNIT(*)
SI_UNIT($,.METRE.)
);
#1788=PRODUCT_DEFINITION_SHAPE('','',#1789);
#1789=PRODUCT_DEFINITION('','',#1791,#1790);
#1790=PRODUCT_DEFINITION_CONTEXT('',#1797,'design');
#1791=PRODUCT_DEFINITION_FORMATION_WITH_SPECIFIED_SOURCE('','',#1793,
 .NOT_KNOWN.);
#1792=PRODUCT_RELATED_PRODUCT_CATEGORY('','',(#1793));
#1793=PRODUCT('Part 1','Part 1','Part 1',(#1795));
#1794=PRODUCT_CATEGORY('','');
#1795=PRODUCT_CONTEXT('',#1797,'mechanical');
#1796=APPLICATION_PROTOCOL_DEFINITION('international standard',
'automotive_design',2010,#1797);
#1797=APPLICATION_CONTEXT(
'core data for automotive mechanical design processes');
ENDSEC;
END-ISO-10303-21;
