ISO-10303-21;
HEADER;
/* Generated by software containing ST-Developer
 * from STEP Tools, Inc. (www.steptools.com) 
 */
/* OPTION: using custom renumber hook */

FILE_DESCRIPTION(
/* description */ ('STEP AP214'),
/* implementation_level */ '2;1');

FILE_NAME(
/* name */ '68ea3ce030fb87a0e7c89fe6',
/* time_stamp */ '2025-10-11T11:17:53Z',
/* author */ (''),
/* organization */ (''),
/* preprocessor_version */ 'ST-DEVELOPER v20',
/* originating_system */ 'ONSHAPE BY PTC INC, 1.205',
/* authorisation */ '  ');

FILE_SCHEMA (('AUTOMOTIVE_DESIGN {1 0 10303 214 3 1 1}'));
ENDSEC;

DATA;
#10=PROPERTY_DEFINITION_REPRESENTATION(#14,#12);
#11=PROPERTY_DEFINITION_REPRESENTATION(#15,#13);
#12=REPRESENTATION('',(#16),#277);
#13=REPRESENTATION('',(#17),#277);
#14=PROPERTY_DEFINITION('pmi validation property','',#282);
#15=PROPERTY_DEFINITION('pmi validation property','',#282);
#16=VALUE_REPRESENTATION_ITEM('number of annotations',COUNT_MEASURE(0.));
#17=VALUE_REPRESENTATION_ITEM('number of views',COUNT_MEASURE(0.));
#18=SHAPE_REPRESENTATION_RELATIONSHIP('','',#163,#19);
#19=ADVANCED_BREP_SHAPE_REPRESENTATION('',(#161),#277);
#20=PLANE('',#168);
#21=PLANE('',#170);
#22=PLANE('',#178);
#23=PLANE('',#181);
#24=PLANE('',#184);
#25=PLANE('',#187);
#26=ORIENTED_EDGE('',*,*,#50,.F.);
#27=ORIENTED_EDGE('',*,*,#51,.T.);
#28=ORIENTED_EDGE('',*,*,#52,.F.);
#29=ORIENTED_EDGE('',*,*,#50,.T.);
#30=ORIENTED_EDGE('',*,*,#53,.F.);
#31=ORIENTED_EDGE('',*,*,#54,.F.);
#32=ORIENTED_EDGE('',*,*,#55,.F.);
#33=ORIENTED_EDGE('',*,*,#56,.F.);
#34=ORIENTED_EDGE('',*,*,#57,.F.);
#35=ORIENTED_EDGE('',*,*,#51,.F.);
#36=ORIENTED_EDGE('',*,*,#58,.F.);
#37=ORIENTED_EDGE('',*,*,#57,.T.);
#38=ORIENTED_EDGE('',*,*,#58,.T.);
#39=ORIENTED_EDGE('',*,*,#59,.F.);
#40=ORIENTED_EDGE('',*,*,#56,.T.);
#41=ORIENTED_EDGE('',*,*,#59,.T.);
#42=ORIENTED_EDGE('',*,*,#60,.F.);
#43=ORIENTED_EDGE('',*,*,#55,.T.);
#44=ORIENTED_EDGE('',*,*,#60,.T.);
#45=ORIENTED_EDGE('',*,*,#61,.F.);
#46=ORIENTED_EDGE('',*,*,#54,.T.);
#47=ORIENTED_EDGE('',*,*,#61,.T.);
#48=ORIENTED_EDGE('',*,*,#52,.T.);
#49=ORIENTED_EDGE('',*,*,#53,.T.);
#50=EDGE_CURVE('',#62,#62,#74,.T.);
#51=EDGE_CURVE('',#63,#63,#75,.T.);
#52=EDGE_CURVE('',#64,#64,#76,.T.);
#53=EDGE_CURVE('',#65,#65,#77,.T.);
#54=EDGE_CURVE('',#66,#66,#78,.T.);
#55=EDGE_CURVE('',#67,#67,#79,.T.);
#56=EDGE_CURVE('',#68,#68,#80,.T.);
#57=EDGE_CURVE('',#69,#69,#81,.T.);
#58=EDGE_CURVE('',#70,#70,#82,.T.);
#59=EDGE_CURVE('',#71,#71,#83,.T.);
#60=EDGE_CURVE('',#72,#72,#84,.T.);
#61=EDGE_CURVE('',#73,#73,#85,.T.);
#62=VERTEX_POINT('',#242);
#63=VERTEX_POINT('',#244);
#64=VERTEX_POINT('',#247);
#65=VERTEX_POINT('',#250);
#66=VERTEX_POINT('',#252);
#67=VERTEX_POINT('',#254);
#68=VERTEX_POINT('',#256);
#69=VERTEX_POINT('',#258);
#70=VERTEX_POINT('',#261);
#71=VERTEX_POINT('',#265);
#72=VERTEX_POINT('',#269);
#73=VERTEX_POINT('',#273);
#74=CIRCLE('',#166,0.01725);
#75=CIRCLE('',#167,0.01725);
#76=CIRCLE('',#169,0.00325);
#77=CIRCLE('',#171,0.00325);
#78=CIRCLE('',#172,0.0014);
#79=CIRCLE('',#173,0.0014);
#80=CIRCLE('',#174,0.0014);
#81=CIRCLE('',#175,0.0014);
#82=CIRCLE('',#177,0.0014);
#83=CIRCLE('',#180,0.0014);
#84=CIRCLE('',#183,0.0014);
#85=CIRCLE('',#186,0.0014);
#86=EDGE_LOOP('',(#26));
#87=EDGE_LOOP('',(#27));
#88=EDGE_LOOP('',(#28));
#89=EDGE_LOOP('',(#29));
#90=EDGE_LOOP('',(#30));
#91=EDGE_LOOP('',(#31));
#92=EDGE_LOOP('',(#32));
#93=EDGE_LOOP('',(#33));
#94=EDGE_LOOP('',(#34));
#95=EDGE_LOOP('',(#35));
#96=EDGE_LOOP('',(#36));
#97=EDGE_LOOP('',(#37));
#98=EDGE_LOOP('',(#38));
#99=EDGE_LOOP('',(#39));
#100=EDGE_LOOP('',(#40));
#101=EDGE_LOOP('',(#41));
#102=EDGE_LOOP('',(#42));
#103=EDGE_LOOP('',(#43));
#104=EDGE_LOOP('',(#44));
#105=EDGE_LOOP('',(#45));
#106=EDGE_LOOP('',(#46));
#107=EDGE_LOOP('',(#47));
#108=EDGE_LOOP('',(#48));
#109=EDGE_LOOP('',(#49));
#110=FACE_BOUND('',#86,.T.);
#111=FACE_BOUND('',#87,.T.);
#112=FACE_BOUND('',#88,.T.);
#113=FACE_BOUND('',#89,.T.);
#114=FACE_BOUND('',#90,.T.);
#115=FACE_BOUND('',#91,.T.);
#116=FACE_BOUND('',#92,.T.);
#117=FACE_BOUND('',#93,.T.);
#118=FACE_BOUND('',#94,.T.);
#119=FACE_BOUND('',#95,.T.);
#120=FACE_BOUND('',#96,.T.);
#121=FACE_BOUND('',#97,.T.);
#122=FACE_BOUND('',#98,.T.);
#123=FACE_BOUND('',#99,.T.);
#124=FACE_BOUND('',#100,.T.);
#125=FACE_BOUND('',#101,.T.);
#126=FACE_BOUND('',#102,.T.);
#127=FACE_BOUND('',#103,.T.);
#128=FACE_BOUND('',#104,.T.);
#129=FACE_BOUND('',#105,.T.);
#130=FACE_BOUND('',#106,.T.);
#131=FACE_BOUND('',#107,.T.);
#132=FACE_BOUND('',#108,.T.);
#133=FACE_BOUND('',#109,.T.);
#134=CYLINDRICAL_SURFACE('',#165,0.01725);
#135=CYLINDRICAL_SURFACE('',#176,0.0014);
#136=CYLINDRICAL_SURFACE('',#179,0.0014);
#137=CYLINDRICAL_SURFACE('',#182,0.0014);
#138=CYLINDRICAL_SURFACE('',#185,0.0014);
#139=CYLINDRICAL_SURFACE('',#188,0.00325);
#140=ADVANCED_FACE('',(#110,#111),#134,.T.);
#141=ADVANCED_FACE('',(#112,#113),#20,.T.);
#142=ADVANCED_FACE('',(#114,#115,#116,#117,#118,#119),#21,.F.);
#143=ADVANCED_FACE('',(#120,#121),#135,.F.);
#144=ADVANCED_FACE('',(#122),#22,.T.);
#145=ADVANCED_FACE('',(#123,#124),#136,.F.);
#146=ADVANCED_FACE('',(#125),#23,.T.);
#147=ADVANCED_FACE('',(#126,#127),#137,.F.);
#148=ADVANCED_FACE('',(#128),#24,.T.);
#149=ADVANCED_FACE('',(#129,#130),#138,.F.);
#150=ADVANCED_FACE('',(#131),#25,.T.);
#151=ADVANCED_FACE('',(#132,#133),#139,.F.);
#152=CLOSED_SHELL('',(#140,#141,#142,#143,#144,#145,#146,#147,#148,#149,
#150,#151));
#153=STYLED_ITEM('',(#154),#161);
#154=PRESENTATION_STYLE_ASSIGNMENT((#155));
#155=SURFACE_STYLE_USAGE(.BOTH.,#156);
#156=SURFACE_SIDE_STYLE('',(#157));
#157=SURFACE_STYLE_FILL_AREA(#158);
#158=FILL_AREA_STYLE('',(#159));
#159=FILL_AREA_STYLE_COLOUR('',#160);
#160=COLOUR_RGB('',0.615686274509804,0.811764705882353,0.929411764705882);
#161=MANIFOLD_SOLID_BREP('Part 1',#152);
#162=SHAPE_DEFINITION_REPRESENTATION(#282,#163);
#163=SHAPE_REPRESENTATION('Part 1',(#164),#277);
#164=AXIS2_PLACEMENT_3D('',#239,#189,#190);
#165=AXIS2_PLACEMENT_3D('',#240,#191,#192);
#166=AXIS2_PLACEMENT_3D('',#241,#193,#194);
#167=AXIS2_PLACEMENT_3D('',#243,#195,#196);
#168=AXIS2_PLACEMENT_3D('',#245,#197,#198);
#169=AXIS2_PLACEMENT_3D('',#246,#199,#200);
#170=AXIS2_PLACEMENT_3D('',#248,#201,#202);
#171=AXIS2_PLACEMENT_3D('',#249,#203,#204);
#172=AXIS2_PLACEMENT_3D('',#251,#205,#206);
#173=AXIS2_PLACEMENT_3D('',#253,#207,#208);
#174=AXIS2_PLACEMENT_3D('',#255,#209,#210);
#175=AXIS2_PLACEMENT_3D('',#257,#211,#212);
#176=AXIS2_PLACEMENT_3D('',#259,#213,#214);
#177=AXIS2_PLACEMENT_3D('',#260,#215,#216);
#178=AXIS2_PLACEMENT_3D('',#262,#217,#218);
#179=AXIS2_PLACEMENT_3D('',#263,#219,#220);
#180=AXIS2_PLACEMENT_3D('',#264,#221,#222);
#181=AXIS2_PLACEMENT_3D('',#266,#223,#224);
#182=AXIS2_PLACEMENT_3D('',#267,#225,#226);
#183=AXIS2_PLACEMENT_3D('',#268,#227,#228);
#184=AXIS2_PLACEMENT_3D('',#270,#229,#230);
#185=AXIS2_PLACEMENT_3D('',#271,#231,#232);
#186=AXIS2_PLACEMENT_3D('',#272,#233,#234);
#187=AXIS2_PLACEMENT_3D('',#274,#235,#236);
#188=AXIS2_PLACEMENT_3D('',#275,#237,#238);
#189=DIRECTION('',(0.,0.,1.));
#190=DIRECTION('',(1.,0.,0.));
#191=DIRECTION('',(0.,0.,-1.));
#192=DIRECTION('',(-1.,0.,0.));
#193=DIRECTION('',(0.,0.,1.));
#194=DIRECTION('',(1.,0.,0.));
#195=DIRECTION('',(0.,0.,1.));
#196=DIRECTION('',(1.,0.,0.));
#197=DIRECTION('',(0.,0.,1.));
#198=DIRECTION('',(1.,0.,0.));
#199=DIRECTION('',(0.,0.,1.));
#200=DIRECTION('',(1.,0.,0.));
#201=DIRECTION('',(0.,0.,1.));
#202=DIRECTION('',(1.,0.,0.));
#203=DIRECTION('',(0.,0.,-1.));
#204=DIRECTION('',(-1.,0.,0.));
#205=DIRECTION('',(0.,0.,-1.));
#206=DIRECTION('',(-1.,0.,0.));
#207=DIRECTION('',(0.,0.,-1.));
#208=DIRECTION('',(-1.,0.,0.));
#209=DIRECTION('',(0.,0.,-1.));
#210=DIRECTION('',(-1.,0.,0.));
#211=DIRECTION('',(0.,0.,-1.));
#212=DIRECTION('',(-1.,0.,0.));
#213=DIRECTION('',(0.,0.,-1.));
#214=DIRECTION('',(-1.,0.,0.));
#215=DIRECTION('',(0.,0.,-1.));
#216=DIRECTION('',(-1.,0.,0.));
#217=DIRECTION('',(0.,0.,-1.));
#218=DIRECTION('',(1.,0.,0.));
#219=DIRECTION('',(0.,0.,-1.));
#220=DIRECTION('',(-1.,0.,0.));
#221=DIRECTION('',(0.,0.,-1.));
#222=DIRECTION('',(-1.,0.,0.));
#223=DIRECTION('',(0.,0.,-1.));
#224=DIRECTION('',(1.,0.,0.));
#225=DIRECTION('',(0.,0.,-1.));
#226=DIRECTION('',(-1.,0.,0.));
#227=DIRECTION('',(0.,0.,-1.));
#228=DIRECTION('',(-1.,0.,0.));
#229=DIRECTION('',(0.,0.,-1.));
#230=DIRECTION('',(1.,0.,0.));
#231=DIRECTION('',(0.,0.,-1.));
#232=DIRECTION('',(-1.,0.,0.));
#233=DIRECTION('',(0.,0.,-1.));
#234=DIRECTION('',(-1.,0.,0.));
#235=DIRECTION('',(0.,0.,-1.));
#236=DIRECTION('',(1.,0.,0.));
#237=DIRECTION('',(0.,0.,-1.));
#238=DIRECTION('',(-1.,0.,0.));
#239=CARTESIAN_POINT('',(0.,0.,0.));
#240=CARTESIAN_POINT('',(0.,1.05625786426459E-18,0.011));
#241=CARTESIAN_POINT('',(0.,1.05625786426459E-18,0.011));
#242=CARTESIAN_POINT('',(0.01725,1.05625786426459E-18,0.011));
#243=CARTESIAN_POINT('',(0.,1.05625786426459E-18,0.));
#244=CARTESIAN_POINT('',(0.01725,1.05625786426459E-18,0.));
#245=CARTESIAN_POINT('',(0.,0.,0.011));
#246=CARTESIAN_POINT('',(0.,-1.99005104861445E-19,0.011));
#247=CARTESIAN_POINT('',(0.00325,-1.99005104861445E-19,0.011));
#248=CARTESIAN_POINT('',(0.,0.,0.));
#249=CARTESIAN_POINT('',(0.,-1.99005104861445E-19,0.));
#250=CARTESIAN_POINT('',(-0.00325,-1.99005104861445E-19,0.));
#251=CARTESIAN_POINT('',(0.,0.008,0.));
#252=CARTESIAN_POINT('',(-0.0014,0.008,0.));
#253=CARTESIAN_POINT('',(0.008,6.50521303491303E-19,0.));
#254=CARTESIAN_POINT('',(0.0066,6.50521303491303E-19,0.));
#255=CARTESIAN_POINT('',(-0.008,6.50521303491303E-19,0.));
#256=CARTESIAN_POINT('',(-0.0094,6.50521303491303E-19,0.));
#257=CARTESIAN_POINT('',(1.0842021724855E-18,-0.008,0.));
#258=CARTESIAN_POINT('',(-0.0014,-0.008,0.));
#259=CARTESIAN_POINT('',(1.0842021724855E-18,-0.008,0.004));
#260=CARTESIAN_POINT('',(1.0842021724855E-18,-0.008,0.004));
#261=CARTESIAN_POINT('',(-0.0014,-0.008,0.004));
#262=CARTESIAN_POINT('',(0.,0.,0.004));
#263=CARTESIAN_POINT('',(-0.008,6.50521303491303E-19,0.004));
#264=CARTESIAN_POINT('',(-0.008,6.50521303491303E-19,0.004));
#265=CARTESIAN_POINT('',(-0.0094,6.50521303491303E-19,0.004));
#266=CARTESIAN_POINT('',(0.,0.,0.004));
#267=CARTESIAN_POINT('',(0.008,6.50521303491303E-19,0.004));
#268=CARTESIAN_POINT('',(0.008,6.50521303491303E-19,0.004));
#269=CARTESIAN_POINT('',(0.0066,6.50521303491303E-19,0.004));
#270=CARTESIAN_POINT('',(0.,0.,0.004));
#271=CARTESIAN_POINT('',(0.,0.008,0.004));
#272=CARTESIAN_POINT('',(0.,0.008,0.004));
#273=CARTESIAN_POINT('',(-0.0014,0.008,0.004));
#274=CARTESIAN_POINT('',(0.,0.,0.004));
#275=CARTESIAN_POINT('',(0.,-1.99005104861445E-19,0.025));
#276=MECHANICAL_DESIGN_GEOMETRIC_PRESENTATION_REPRESENTATION('',(#153),
#277);
#277=(
GEOMETRIC_REPRESENTATION_CONTEXT(3)
GLOBAL_UNCERTAINTY_ASSIGNED_CONTEXT((#278))
GLOBAL_UNIT_ASSIGNED_CONTEXT((#281,#280,#279))
REPRESENTATION_CONTEXT('Part 1','TOP_LEVEL_ASSEMBLY_PART')
);
#278=UNCERTAINTY_MEASURE_WITH_UNIT(LENGTH_MEASURE(1.E-8),#281,
'DISTANCE_ACCURACY_VALUE','Maximum Tolerance applied to model');
#279=(
NAMED_UNIT(*)
SI_UNIT($,.STERADIAN.)
SOLID_ANGLE_UNIT()
);
#280=(
NAMED_UNIT(*)
PLANE_ANGLE_UNIT()
SI_UNIT($,.RADIAN.)
);
#281=(
LENGTH_UNIT()
NAMED_UNIT(*)
SI_UNIT($,.METRE.)
);
#282=PRODUCT_DEFINITION_SHAPE('','',#283);
#283=PRODUCT_DEFINITION('','',#285,#284);
#284=PRODUCT_DEFINITION_CONTEXT('',#291,'design');
#285=PRODUCT_DEFINITION_FORMATION_WITH_SPECIFIED_SOURCE('','',#287,
 .NOT_KNOWN.);
#286=PRODUCT_RELATED_PRODUCT_CATEGORY('','',(#287));
#287=PRODUCT('Part 1','Part 1','Part 1',(#289));
#288=PRODUCT_CATEGORY('','');
#289=PRODUCT_CONTEXT('',#291,'mechanical');
#290=APPLICATION_PROTOCOL_DEFINITION('international standard',
'automotive_design',2010,#291);
#291=APPLICATION_CONTEXT(
'core data for automotive mechanical design processes');
ENDSEC;
END-ISO-10303-21;
