ISO-10303-21;
HEADER;
/* Generated by software containing ST-Developer
 * from STEP Tools, Inc. (www.steptools.com) 
 */
/* OPTION: using custom renumber hook */

FILE_DESCRIPTION(
/* description */ ('STEP AP214'),
/* implementation_level */ '2;1');

FILE_NAME(
/* name */ '68ea3cdf30fb87a0e7c89fcb',
/* time_stamp */ '2025-10-11T11:17:52Z',
/* author */ (''),
/* organization */ (''),
/* preprocessor_version */ 'ST-DEVELOPER v20',
/* originating_system */ 'ONSHAPE BY PTC INC, 1.205',
/* authorisation */ '  ');

FILE_SCHEMA (('AUTOMOTIVE_DESIGN {1 0 10303 214 3 1 1}'));
ENDSEC;

DATA;
#10=PROPERTY_DEFINITION_REPRESENTATION(#14,#12);
#11=PROPERTY_DEFINITION_REPRESENTATION(#15,#13);
#12=REPRESENTATION('',(#16),#317);
#13=REPRESENTATION('',(#17),#317);
#14=PROPERTY_DEFINITION('pmi validation property','',#322);
#15=PROPERTY_DEFINITION('pmi validation property','',#322);
#16=VALUE_REPRESENTATION_ITEM('number of annotations',COUNT_MEASURE(0.));
#17=VALUE_REPRESENTATION_ITEM('number of views',COUNT_MEASURE(0.));
#18=SHAPE_REPRESENTATION_RELATIONSHIP('','',#185,#19);
#19=ADVANCED_BREP_SHAPE_REPRESENTATION('',(#183),#317);
#20=PLANE('',#190);
#21=PLANE('',#196);
#22=PLANE('',#200);
#23=PLANE('',#203);
#24=PLANE('',#206);
#25=PLANE('',#209);
#26=PLANE('',#212);
#27=ORIENTED_EDGE('',*,*,#55,.F.);
#28=ORIENTED_EDGE('',*,*,#56,.T.);
#29=ORIENTED_EDGE('',*,*,#57,.F.);
#30=ORIENTED_EDGE('',*,*,#58,.F.);
#31=ORIENTED_EDGE('',*,*,#59,.F.);
#32=ORIENTED_EDGE('',*,*,#60,.F.);
#33=ORIENTED_EDGE('',*,*,#61,.F.);
#34=ORIENTED_EDGE('',*,*,#55,.T.);
#35=ORIENTED_EDGE('',*,*,#62,.T.);
#36=ORIENTED_EDGE('',*,*,#56,.F.);
#37=ORIENTED_EDGE('',*,*,#63,.F.);
#38=ORIENTED_EDGE('',*,*,#61,.T.);
#39=ORIENTED_EDGE('',*,*,#63,.T.);
#40=ORIENTED_EDGE('',*,*,#64,.F.);
#41=ORIENTED_EDGE('',*,*,#60,.T.);
#42=ORIENTED_EDGE('',*,*,#64,.T.);
#43=ORIENTED_EDGE('',*,*,#65,.F.);
#44=ORIENTED_EDGE('',*,*,#59,.T.);
#45=ORIENTED_EDGE('',*,*,#65,.T.);
#46=ORIENTED_EDGE('',*,*,#66,.F.);
#47=ORIENTED_EDGE('',*,*,#58,.T.);
#48=ORIENTED_EDGE('',*,*,#66,.T.);
#49=ORIENTED_EDGE('',*,*,#67,.F.);
#50=ORIENTED_EDGE('',*,*,#57,.T.);
#51=ORIENTED_EDGE('',*,*,#68,.F.);
#52=ORIENTED_EDGE('',*,*,#67,.T.);
#53=ORIENTED_EDGE('',*,*,#68,.T.);
#54=ORIENTED_EDGE('',*,*,#62,.F.);
#55=EDGE_CURVE('',#69,#69,#83,.T.);
#56=EDGE_CURVE('',#70,#70,#84,.T.);
#57=EDGE_CURVE('',#71,#71,#85,.T.);
#58=EDGE_CURVE('',#72,#72,#86,.T.);
#59=EDGE_CURVE('',#73,#73,#87,.T.);
#60=EDGE_CURVE('',#74,#74,#88,.T.);
#61=EDGE_CURVE('',#75,#75,#89,.T.);
#62=EDGE_CURVE('',#76,#76,#90,.T.);
#63=EDGE_CURVE('',#77,#77,#91,.T.);
#64=EDGE_CURVE('',#78,#78,#92,.T.);
#65=EDGE_CURVE('',#79,#79,#93,.T.);
#66=EDGE_CURVE('',#80,#80,#94,.T.);
#67=EDGE_CURVE('',#81,#81,#95,.T.);
#68=EDGE_CURVE('',#82,#82,#96,.T.);
#69=VERTEX_POINT('',#276);
#70=VERTEX_POINT('',#278);
#71=VERTEX_POINT('',#281);
#72=VERTEX_POINT('',#283);
#73=VERTEX_POINT('',#285);
#74=VERTEX_POINT('',#287);
#75=VERTEX_POINT('',#289);
#76=VERTEX_POINT('',#292);
#77=VERTEX_POINT('',#295);
#78=VERTEX_POINT('',#299);
#79=VERTEX_POINT('',#303);
#80=VERTEX_POINT('',#307);
#81=VERTEX_POINT('',#311);
#82=VERTEX_POINT('',#314);
#83=CIRCLE('',#188,0.01725);
#84=CIRCLE('',#189,0.01725);
#85=CIRCLE('',#191,0.0067);
#86=CIRCLE('',#192,0.0014);
#87=CIRCLE('',#193,0.0014);
#88=CIRCLE('',#194,0.0014);
#89=CIRCLE('',#195,0.0014);
#90=CIRCLE('',#197,0.00325);
#91=CIRCLE('',#199,0.0014);
#92=CIRCLE('',#202,0.0014);
#93=CIRCLE('',#205,0.0014);
#94=CIRCLE('',#208,0.0014);
#95=CIRCLE('',#211,0.0067);
#96=CIRCLE('',#213,0.00325);
#97=EDGE_LOOP('',(#27));
#98=EDGE_LOOP('',(#28));
#99=EDGE_LOOP('',(#29));
#100=EDGE_LOOP('',(#30));
#101=EDGE_LOOP('',(#31));
#102=EDGE_LOOP('',(#32));
#103=EDGE_LOOP('',(#33));
#104=EDGE_LOOP('',(#34));
#105=EDGE_LOOP('',(#35));
#106=EDGE_LOOP('',(#36));
#107=EDGE_LOOP('',(#37));
#108=EDGE_LOOP('',(#38));
#109=EDGE_LOOP('',(#39));
#110=EDGE_LOOP('',(#40));
#111=EDGE_LOOP('',(#41));
#112=EDGE_LOOP('',(#42));
#113=EDGE_LOOP('',(#43));
#114=EDGE_LOOP('',(#44));
#115=EDGE_LOOP('',(#45));
#116=EDGE_LOOP('',(#46));
#117=EDGE_LOOP('',(#47));
#118=EDGE_LOOP('',(#48));
#119=EDGE_LOOP('',(#49));
#120=EDGE_LOOP('',(#50));
#121=EDGE_LOOP('',(#51));
#122=EDGE_LOOP('',(#52));
#123=EDGE_LOOP('',(#53));
#124=EDGE_LOOP('',(#54));
#125=FACE_BOUND('',#97,.T.);
#126=FACE_BOUND('',#98,.T.);
#127=FACE_BOUND('',#99,.T.);
#128=FACE_BOUND('',#100,.T.);
#129=FACE_BOUND('',#101,.T.);
#130=FACE_BOUND('',#102,.T.);
#131=FACE_BOUND('',#103,.T.);
#132=FACE_BOUND('',#104,.T.);
#133=FACE_BOUND('',#105,.T.);
#134=FACE_BOUND('',#106,.T.);
#135=FACE_BOUND('',#107,.T.);
#136=FACE_BOUND('',#108,.T.);
#137=FACE_BOUND('',#109,.T.);
#138=FACE_BOUND('',#110,.T.);
#139=FACE_BOUND('',#111,.T.);
#140=FACE_BOUND('',#112,.T.);
#141=FACE_BOUND('',#113,.T.);
#142=FACE_BOUND('',#114,.T.);
#143=FACE_BOUND('',#115,.T.);
#144=FACE_BOUND('',#116,.T.);
#145=FACE_BOUND('',#117,.T.);
#146=FACE_BOUND('',#118,.T.);
#147=FACE_BOUND('',#119,.T.);
#148=FACE_BOUND('',#120,.T.);
#149=FACE_BOUND('',#121,.T.);
#150=FACE_BOUND('',#122,.T.);
#151=FACE_BOUND('',#123,.T.);
#152=FACE_BOUND('',#124,.T.);
#153=CYLINDRICAL_SURFACE('',#187,0.01725);
#154=CYLINDRICAL_SURFACE('',#198,0.0014);
#155=CYLINDRICAL_SURFACE('',#201,0.0014);
#156=CYLINDRICAL_SURFACE('',#204,0.0014);
#157=CYLINDRICAL_SURFACE('',#207,0.0014);
#158=CYLINDRICAL_SURFACE('',#210,0.0067);
#159=CYLINDRICAL_SURFACE('',#214,0.00325);
#160=ADVANCED_FACE('',(#125,#126),#153,.T.);
#161=ADVANCED_FACE('',(#127,#128,#129,#130,#131,#132),#20,.T.);
#162=ADVANCED_FACE('',(#133,#134),#21,.F.);
#163=ADVANCED_FACE('',(#135,#136),#154,.F.);
#164=ADVANCED_FACE('',(#137),#22,.T.);
#165=ADVANCED_FACE('',(#138,#139),#155,.F.);
#166=ADVANCED_FACE('',(#140),#23,.T.);
#167=ADVANCED_FACE('',(#141,#142),#156,.F.);
#168=ADVANCED_FACE('',(#143),#24,.T.);
#169=ADVANCED_FACE('',(#144,#145),#157,.F.);
#170=ADVANCED_FACE('',(#146),#25,.T.);
#171=ADVANCED_FACE('',(#147,#148),#158,.T.);
#172=ADVANCED_FACE('',(#149,#150),#26,.T.);
#173=ADVANCED_FACE('',(#151,#152),#159,.F.);
#174=CLOSED_SHELL('',(#160,#161,#162,#163,#164,#165,#166,#167,#168,#169,
#170,#171,#172,#173));
#175=STYLED_ITEM('',(#176),#183);
#176=PRESENTATION_STYLE_ASSIGNMENT((#177));
#177=SURFACE_STYLE_USAGE(.BOTH.,#178);
#178=SURFACE_SIDE_STYLE('',(#179));
#179=SURFACE_STYLE_FILL_AREA(#180);
#180=FILL_AREA_STYLE('',(#181));
#181=FILL_AREA_STYLE_COLOUR('',#182);
#182=COLOUR_RGB('',0.647058823529412,0.647058823529412,0.647058823529412);
#183=MANIFOLD_SOLID_BREP('Part 2',#174);
#184=SHAPE_DEFINITION_REPRESENTATION(#322,#185);
#185=SHAPE_REPRESENTATION('Part 2',(#186),#317);
#186=AXIS2_PLACEMENT_3D('',#273,#215,#216);
#187=AXIS2_PLACEMENT_3D('',#274,#217,#218);
#188=AXIS2_PLACEMENT_3D('',#275,#219,#220);
#189=AXIS2_PLACEMENT_3D('',#277,#221,#222);
#190=AXIS2_PLACEMENT_3D('',#279,#223,#224);
#191=AXIS2_PLACEMENT_3D('',#280,#225,#226);
#192=AXIS2_PLACEMENT_3D('',#282,#227,#228);
#193=AXIS2_PLACEMENT_3D('',#284,#229,#230);
#194=AXIS2_PLACEMENT_3D('',#286,#231,#232);
#195=AXIS2_PLACEMENT_3D('',#288,#233,#234);
#196=AXIS2_PLACEMENT_3D('',#290,#235,#236);
#197=AXIS2_PLACEMENT_3D('',#291,#237,#238);
#198=AXIS2_PLACEMENT_3D('',#293,#239,#240);
#199=AXIS2_PLACEMENT_3D('',#294,#241,#242);
#200=AXIS2_PLACEMENT_3D('',#296,#243,#244);
#201=AXIS2_PLACEMENT_3D('',#297,#245,#246);
#202=AXIS2_PLACEMENT_3D('',#298,#247,#248);
#203=AXIS2_PLACEMENT_3D('',#300,#249,#250);
#204=AXIS2_PLACEMENT_3D('',#301,#251,#252);
#205=AXIS2_PLACEMENT_3D('',#302,#253,#254);
#206=AXIS2_PLACEMENT_3D('',#304,#255,#256);
#207=AXIS2_PLACEMENT_3D('',#305,#257,#258);
#208=AXIS2_PLACEMENT_3D('',#306,#259,#260);
#209=AXIS2_PLACEMENT_3D('',#308,#261,#262);
#210=AXIS2_PLACEMENT_3D('',#309,#263,#264);
#211=AXIS2_PLACEMENT_3D('',#310,#265,#266);
#212=AXIS2_PLACEMENT_3D('',#312,#267,#268);
#213=AXIS2_PLACEMENT_3D('',#313,#269,#270);
#214=AXIS2_PLACEMENT_3D('',#315,#271,#272);
#215=DIRECTION('',(0.,0.,1.));
#216=DIRECTION('',(1.,0.,0.));
#217=DIRECTION('',(0.,0.,-1.));
#218=DIRECTION('',(-1.,0.,0.));
#219=DIRECTION('',(0.,0.,1.));
#220=DIRECTION('',(1.,0.,0.));
#221=DIRECTION('',(0.,0.,1.));
#222=DIRECTION('',(1.,0.,0.));
#223=DIRECTION('',(0.,0.,1.));
#224=DIRECTION('',(1.,0.,0.));
#225=DIRECTION('',(0.,0.,1.));
#226=DIRECTION('',(1.,0.,0.));
#227=DIRECTION('',(0.,0.,1.));
#228=DIRECTION('',(1.,0.,0.));
#229=DIRECTION('',(0.,0.,1.));
#230=DIRECTION('',(1.,0.,0.));
#231=DIRECTION('',(0.,0.,1.));
#232=DIRECTION('',(1.,0.,0.));
#233=DIRECTION('',(0.,0.,1.));
#234=DIRECTION('',(1.,0.,0.));
#235=DIRECTION('',(0.,0.,1.));
#236=DIRECTION('',(1.,0.,0.));
#237=DIRECTION('',(0.,0.,1.));
#238=DIRECTION('',(1.,0.,0.));
#239=DIRECTION('',(0.,0.,1.));
#240=DIRECTION('',(1.,0.,0.));
#241=DIRECTION('',(0.,0.,1.));
#242=DIRECTION('',(1.,0.,0.));
#243=DIRECTION('',(0.,0.,1.));
#244=DIRECTION('',(1.,0.,0.));
#245=DIRECTION('',(0.,0.,1.));
#246=DIRECTION('',(1.,0.,0.));
#247=DIRECTION('',(0.,0.,1.));
#248=DIRECTION('',(1.,0.,0.));
#249=DIRECTION('',(0.,0.,1.));
#250=DIRECTION('',(1.,0.,0.));
#251=DIRECTION('',(0.,0.,1.));
#252=DIRECTION('',(1.,0.,0.));
#253=DIRECTION('',(0.,0.,1.));
#254=DIRECTION('',(1.,0.,0.));
#255=DIRECTION('',(0.,0.,1.));
#256=DIRECTION('',(1.,0.,0.));
#257=DIRECTION('',(0.,0.,1.));
#258=DIRECTION('',(1.,0.,0.));
#259=DIRECTION('',(0.,0.,1.));
#260=DIRECTION('',(1.,0.,0.));
#261=DIRECTION('',(0.,0.,1.));
#262=DIRECTION('',(1.,0.,0.));
#263=DIRECTION('',(0.,0.,-1.));
#264=DIRECTION('',(-1.,0.,0.));
#265=DIRECTION('',(0.,0.,1.));
#266=DIRECTION('',(1.,0.,0.));
#267=DIRECTION('',(0.,0.,1.));
#268=DIRECTION('',(1.,0.,0.));
#269=DIRECTION('',(0.,0.,1.));
#270=DIRECTION('',(1.,0.,0.));
#271=DIRECTION('',(0.,0.,-1.));
#272=DIRECTION('',(-1.,0.,0.));
#273=CARTESIAN_POINT('',(0.,0.,0.));
#274=CARTESIAN_POINT('',(0.,1.05625786426459E-18,0.015));
#275=CARTESIAN_POINT('',(0.,1.05625786426459E-18,0.015));
#276=CARTESIAN_POINT('',(0.01725,1.05625786426459E-18,0.015));
#277=CARTESIAN_POINT('',(0.,1.05625786426459E-18,0.011));
#278=CARTESIAN_POINT('',(0.01725,1.05625786426459E-18,0.011));
#279=CARTESIAN_POINT('',(0.,0.,0.015));
#280=CARTESIAN_POINT('',(2.16633669507281E-18,1.98046057515782E-19,0.015));
#281=CARTESIAN_POINT('',(0.0067,1.98046057515782E-19,0.015));
#282=CARTESIAN_POINT('',(-0.0095,6.50521303491303E-19,0.015));
#283=CARTESIAN_POINT('',(-0.0081,6.50521303491303E-19,0.015));
#284=CARTESIAN_POINT('',(0.,0.0095,0.015));
#285=CARTESIAN_POINT('',(0.0014,0.0095,0.015));
#286=CARTESIAN_POINT('',(0.0095,6.50521303491303E-19,0.015));
#287=CARTESIAN_POINT('',(0.0109,6.50521303491303E-19,0.015));
#288=CARTESIAN_POINT('',(-1.0842021724855E-18,-0.0095,0.015));
#289=CARTESIAN_POINT('',(0.0014,-0.0095,0.015));
#290=CARTESIAN_POINT('',(0.,0.,0.011));
#291=CARTESIAN_POINT('',(0.,-1.99005104861445E-19,0.011));
#292=CARTESIAN_POINT('',(0.00325,-1.99005104861445E-19,0.011));
#293=CARTESIAN_POINT('',(-1.0842021724855E-18,-0.0095,0.012));
#294=CARTESIAN_POINT('',(-1.0842021724855E-18,-0.0095,0.012));
#295=CARTESIAN_POINT('',(0.0014,-0.0095,0.012));
#296=CARTESIAN_POINT('',(0.,0.,0.012));
#297=CARTESIAN_POINT('',(0.0095,6.50521303491303E-19,0.012));
#298=CARTESIAN_POINT('',(0.0095,6.50521303491303E-19,0.012));
#299=CARTESIAN_POINT('',(0.0109,6.50521303491303E-19,0.012));
#300=CARTESIAN_POINT('',(0.,0.,0.012));
#301=CARTESIAN_POINT('',(0.,0.0095,0.012));
#302=CARTESIAN_POINT('',(0.,0.0095,0.012));
#303=CARTESIAN_POINT('',(0.0014,0.0095,0.012));
#304=CARTESIAN_POINT('',(0.,0.,0.012));
#305=CARTESIAN_POINT('',(-0.0095,6.50521303491303E-19,0.012));
#306=CARTESIAN_POINT('',(-0.0095,6.50521303491303E-19,0.012));
#307=CARTESIAN_POINT('',(-0.0081,6.50521303491303E-19,0.012));
#308=CARTESIAN_POINT('',(0.,0.,0.012));
#309=CARTESIAN_POINT('',(2.16633669507281E-18,1.98046057515782E-19,0.0195));
#310=CARTESIAN_POINT('',(2.16633669507281E-18,1.98046057515782E-19,0.0195));
#311=CARTESIAN_POINT('',(0.0067,1.98046057515782E-19,0.0195));
#312=CARTESIAN_POINT('',(0.,0.,0.0195));
#313=CARTESIAN_POINT('',(0.,-1.99005104861445E-19,0.0195));
#314=CARTESIAN_POINT('',(0.00325,-1.99005104861445E-19,0.0195));
#315=CARTESIAN_POINT('',(0.,-1.99005104861445E-19,0.025));
#316=MECHANICAL_DESIGN_GEOMETRIC_PRESENTATION_REPRESENTATION('',(#175),
#317);
#317=(
GEOMETRIC_REPRESENTATION_CONTEXT(3)
GLOBAL_UNCERTAINTY_ASSIGNED_CONTEXT((#318))
GLOBAL_UNIT_ASSIGNED_CONTEXT((#321,#320,#319))
REPRESENTATION_CONTEXT('Part 2','TOP_LEVEL_ASSEMBLY_PART')
);
#318=UNCERTAINTY_MEASURE_WITH_UNIT(LENGTH_MEASURE(1.E-8),#321,
'DISTANCE_ACCURACY_VALUE','Maximum Tolerance applied to model');
#319=(
NAMED_UNIT(*)
SI_UNIT($,.STERADIAN.)
SOLID_ANGLE_UNIT()
);
#320=(
NAMED_UNIT(*)
PLANE_ANGLE_UNIT()
SI_UNIT($,.RADIAN.)
);
#321=(
LENGTH_UNIT()
NAMED_UNIT(*)
SI_UNIT($,.METRE.)
);
#322=PRODUCT_DEFINITION_SHAPE('','',#323);
#323=PRODUCT_DEFINITION('','',#325,#324);
#324=PRODUCT_DEFINITION_CONTEXT('',#331,'design');
#325=PRODUCT_DEFINITION_FORMATION_WITH_SPECIFIED_SOURCE('','',#327,
 .NOT_KNOWN.);
#326=PRODUCT_RELATED_PRODUCT_CATEGORY('','',(#327));
#327=PRODUCT('Part 2','Part 2','Part 2',(#329));
#328=PRODUCT_CATEGORY('','');
#329=PRODUCT_CONTEXT('',#331,'mechanical');
#330=APPLICATION_PROTOCOL_DEFINITION('international standard',
'automotive_design',2010,#331);
#331=APPLICATION_CONTEXT(
'core data for automotive mechanical design processes');
ENDSEC;
END-ISO-10303-21;
