ISO-10303-21;
HEADER;
/* Generated by software containing ST-Developer
 * from STEP Tools, Inc. (www.steptools.com) 
 */
/* OPTION: using custom renumber hook */

FILE_DESCRIPTION(
/* description */ ('STEP AP214'),
/* implementation_level */ '2;1');

FILE_NAME(
/* name */ '68ea3cea30fb87a0e7c8a0c9',
/* time_stamp */ '2025-10-11T11:18:03Z',
/* author */ (''),
/* organization */ (''),
/* preprocessor_version */ 'ST-DEVELOPER v20',
/* originating_system */ 'ONSHAPE BY PTC INC, 1.205',
/* authorisation */ '  ');

FILE_SCHEMA (('AUTOMOTIVE_DESIGN {1 0 10303 214 3 1 1}'));
ENDSEC;

DATA;
#10=PROPERTY_DEFINITION_REPRESENTATION(#14,#12);
#11=PROPERTY_DEFINITION_REPRESENTATION(#15,#13);
#12=REPRESENTATION('',(#16),#509);
#13=REPRESENTATION('',(#17),#509);
#14=PROPERTY_DEFINITION('pmi validation property','',#514);
#15=PROPERTY_DEFINITION('pmi validation property','',#514);
#16=VALUE_REPRESENTATION_ITEM('number of annotations',COUNT_MEASURE(0.));
#17=VALUE_REPRESENTATION_ITEM('number of views',COUNT_MEASURE(0.));
#18=SHAPE_REPRESENTATION_RELATIONSHIP('','',#297,#19);
#19=ADVANCED_BREP_SHAPE_REPRESENTATION('',(#295),#509);
#20=VERTEX_LOOP('',#114);
#21=VERTEX_LOOP('',#116);
#22=VERTEX_LOOP('',#118);
#23=VERTEX_LOOP('',#120);
#24=VERTEX_LOOP('',#127);
#25=VERTEX_LOOP('',#129);
#26=VERTEX_LOOP('',#131);
#27=VERTEX_LOOP('',#133);
#28=CONICAL_SURFACE('',#312,0.001025,1.02974425867665);
#29=CONICAL_SURFACE('',#315,0.001025,1.02974425867665);
#30=CONICAL_SURFACE('',#318,0.001025,1.02974425867665);
#31=CONICAL_SURFACE('',#321,0.001025,1.02974425867665);
#32=CONICAL_SURFACE('',#331,0.000725,1.02974425867665);
#33=CONICAL_SURFACE('',#334,0.000725,1.02974425867665);
#34=CONICAL_SURFACE('',#337,0.000725,1.02974425867665);
#35=CONICAL_SURFACE('',#340,0.000725,1.02974425867665);
#36=PLANE('',#305);
#37=PLANE('',#307);
#38=PLANE('',#326);
#39=ORIENTED_EDGE('',*,*,#83,.T.);
#40=ORIENTED_EDGE('',*,*,#84,.F.);
#41=ORIENTED_EDGE('',*,*,#85,.F.);
#42=ORIENTED_EDGE('',*,*,#86,.T.);
#43=ORIENTED_EDGE('',*,*,#87,.F.);
#44=ORIENTED_EDGE('',*,*,#85,.T.);
#45=ORIENTED_EDGE('',*,*,#88,.T.);
#46=ORIENTED_EDGE('',*,*,#89,.T.);
#47=ORIENTED_EDGE('',*,*,#90,.T.);
#48=ORIENTED_EDGE('',*,*,#91,.T.);
#49=ORIENTED_EDGE('',*,*,#84,.T.);
#50=ORIENTED_EDGE('',*,*,#86,.F.);
#51=ORIENTED_EDGE('',*,*,#92,.F.);
#52=ORIENTED_EDGE('',*,*,#92,.T.);
#53=ORIENTED_EDGE('',*,*,#91,.F.);
#54=ORIENTED_EDGE('',*,*,#93,.F.);
#55=ORIENTED_EDGE('',*,*,#93,.T.);
#56=ORIENTED_EDGE('',*,*,#90,.F.);
#57=ORIENTED_EDGE('',*,*,#94,.F.);
#58=ORIENTED_EDGE('',*,*,#94,.T.);
#59=ORIENTED_EDGE('',*,*,#89,.F.);
#60=ORIENTED_EDGE('',*,*,#95,.F.);
#61=ORIENTED_EDGE('',*,*,#95,.T.);
#62=ORIENTED_EDGE('',*,*,#88,.F.);
#63=ORIENTED_EDGE('',*,*,#87,.T.);
#64=ORIENTED_EDGE('',*,*,#96,.F.);
#65=ORIENTED_EDGE('',*,*,#97,.T.);
#66=ORIENTED_EDGE('',*,*,#98,.T.);
#67=ORIENTED_EDGE('',*,*,#99,.T.);
#68=ORIENTED_EDGE('',*,*,#100,.T.);
#69=ORIENTED_EDGE('',*,*,#83,.F.);
#70=ORIENTED_EDGE('',*,*,#96,.T.);
#71=ORIENTED_EDGE('',*,*,#101,.F.);
#72=ORIENTED_EDGE('',*,*,#101,.T.);
#73=ORIENTED_EDGE('',*,*,#100,.F.);
#74=ORIENTED_EDGE('',*,*,#102,.F.);
#75=ORIENTED_EDGE('',*,*,#102,.T.);
#76=ORIENTED_EDGE('',*,*,#99,.F.);
#77=ORIENTED_EDGE('',*,*,#103,.F.);
#78=ORIENTED_EDGE('',*,*,#103,.T.);
#79=ORIENTED_EDGE('',*,*,#98,.F.);
#80=ORIENTED_EDGE('',*,*,#104,.F.);
#81=ORIENTED_EDGE('',*,*,#104,.T.);
#82=ORIENTED_EDGE('',*,*,#97,.F.);
#83=EDGE_CURVE('',#105,#105,#135,.T.);
#84=EDGE_CURVE('',#106,#106,#136,.T.);
#85=EDGE_CURVE('',#107,#107,#137,.T.);
#86=EDGE_CURVE('',#108,#108,#138,.T.);
#87=EDGE_CURVE('',#109,#109,#139,.T.);
#88=EDGE_CURVE('',#110,#110,#140,.T.);
#89=EDGE_CURVE('',#111,#111,#141,.T.);
#90=EDGE_CURVE('',#112,#112,#142,.T.);
#91=EDGE_CURVE('',#113,#113,#143,.T.);
#92=EDGE_CURVE('',#115,#115,#144,.T.);
#93=EDGE_CURVE('',#117,#117,#145,.T.);
#94=EDGE_CURVE('',#119,#119,#146,.T.);
#95=EDGE_CURVE('',#121,#121,#147,.T.);
#96=EDGE_CURVE('',#122,#122,#148,.T.);
#97=EDGE_CURVE('',#123,#123,#149,.T.);
#98=EDGE_CURVE('',#124,#124,#150,.T.);
#99=EDGE_CURVE('',#125,#125,#151,.T.);
#100=EDGE_CURVE('',#126,#126,#152,.T.);
#101=EDGE_CURVE('',#128,#128,#153,.T.);
#102=EDGE_CURVE('',#130,#130,#154,.T.);
#103=EDGE_CURVE('',#132,#132,#155,.T.);
#104=EDGE_CURVE('',#134,#134,#156,.T.);
#105=VERTEX_POINT('',#436);
#106=VERTEX_POINT('',#438);
#107=VERTEX_POINT('',#441);
#108=VERTEX_POINT('',#443);
#109=VERTEX_POINT('',#446);
#110=VERTEX_POINT('',#449);
#111=VERTEX_POINT('',#451);
#112=VERTEX_POINT('',#453);
#113=VERTEX_POINT('',#455);
#114=VERTEX_POINT('',#457);
#115=VERTEX_POINT('',#459);
#116=VERTEX_POINT('',#462);
#117=VERTEX_POINT('',#464);
#118=VERTEX_POINT('',#467);
#119=VERTEX_POINT('',#469);
#120=VERTEX_POINT('',#472);
#121=VERTEX_POINT('',#474);
#122=VERTEX_POINT('',#478);
#123=VERTEX_POINT('',#481);
#124=VERTEX_POINT('',#483);
#125=VERTEX_POINT('',#485);
#126=VERTEX_POINT('',#487);
#127=VERTEX_POINT('',#489);
#128=VERTEX_POINT('',#491);
#129=VERTEX_POINT('',#494);
#130=VERTEX_POINT('',#496);
#131=VERTEX_POINT('',#499);
#132=VERTEX_POINT('',#501);
#133=VERTEX_POINT('',#504);
#134=VERTEX_POINT('',#506);
#135=CIRCLE('',#300,0.0043);
#136=CIRCLE('',#301,0.0043);
#137=CIRCLE('',#303,0.02);
#138=CIRCLE('',#304,0.02);
#139=CIRCLE('',#306,0.009);
#140=CIRCLE('',#308,0.001025);
#141=CIRCLE('',#309,0.001025);
#142=CIRCLE('',#310,0.001025);
#143=CIRCLE('',#311,0.001025);
#144=CIRCLE('',#313,0.001025);
#145=CIRCLE('',#316,0.001025);
#146=CIRCLE('',#319,0.001025);
#147=CIRCLE('',#322,0.001025);
#148=CIRCLE('',#325,0.009);
#149=CIRCLE('',#327,0.000725);
#150=CIRCLE('',#328,0.000725);
#151=CIRCLE('',#329,0.000725);
#152=CIRCLE('',#330,0.000725);
#153=CIRCLE('',#332,0.000725);
#154=CIRCLE('',#335,0.000725);
#155=CIRCLE('',#338,0.000725);
#156=CIRCLE('',#341,0.000725);
#157=EDGE_LOOP('',(#39));
#158=EDGE_LOOP('',(#40));
#159=EDGE_LOOP('',(#41));
#160=EDGE_LOOP('',(#42));
#161=EDGE_LOOP('',(#43));
#162=EDGE_LOOP('',(#44));
#163=EDGE_LOOP('',(#45));
#164=EDGE_LOOP('',(#46));
#165=EDGE_LOOP('',(#47));
#166=EDGE_LOOP('',(#48));
#167=EDGE_LOOP('',(#49));
#168=EDGE_LOOP('',(#50));
#169=EDGE_LOOP('',(#51));
#170=EDGE_LOOP('',(#52));
#171=EDGE_LOOP('',(#53));
#172=EDGE_LOOP('',(#54));
#173=EDGE_LOOP('',(#55));
#174=EDGE_LOOP('',(#56));
#175=EDGE_LOOP('',(#57));
#176=EDGE_LOOP('',(#58));
#177=EDGE_LOOP('',(#59));
#178=EDGE_LOOP('',(#60));
#179=EDGE_LOOP('',(#61));
#180=EDGE_LOOP('',(#62));
#181=EDGE_LOOP('',(#63));
#182=EDGE_LOOP('',(#64));
#183=EDGE_LOOP('',(#65));
#184=EDGE_LOOP('',(#66));
#185=EDGE_LOOP('',(#67));
#186=EDGE_LOOP('',(#68));
#187=EDGE_LOOP('',(#69));
#188=EDGE_LOOP('',(#70));
#189=EDGE_LOOP('',(#71));
#190=EDGE_LOOP('',(#72));
#191=EDGE_LOOP('',(#73));
#192=EDGE_LOOP('',(#74));
#193=EDGE_LOOP('',(#75));
#194=EDGE_LOOP('',(#76));
#195=EDGE_LOOP('',(#77));
#196=EDGE_LOOP('',(#78));
#197=EDGE_LOOP('',(#79));
#198=EDGE_LOOP('',(#80));
#199=EDGE_LOOP('',(#81));
#200=EDGE_LOOP('',(#82));
#201=FACE_BOUND('',#157,.T.);
#202=FACE_BOUND('',#158,.T.);
#203=FACE_BOUND('',#159,.T.);
#204=FACE_BOUND('',#160,.T.);
#205=FACE_BOUND('',#161,.T.);
#206=FACE_BOUND('',#162,.T.);
#207=FACE_BOUND('',#163,.T.);
#208=FACE_BOUND('',#164,.T.);
#209=FACE_BOUND('',#165,.T.);
#210=FACE_BOUND('',#166,.T.);
#211=FACE_BOUND('',#167,.T.);
#212=FACE_BOUND('',#168,.T.);
#213=FACE_BOUND('',#20,.T.);
#214=FACE_BOUND('',#169,.T.);
#215=FACE_BOUND('',#170,.T.);
#216=FACE_BOUND('',#171,.T.);
#217=FACE_BOUND('',#21,.T.);
#218=FACE_BOUND('',#172,.T.);
#219=FACE_BOUND('',#173,.T.);
#220=FACE_BOUND('',#174,.T.);
#221=FACE_BOUND('',#22,.T.);
#222=FACE_BOUND('',#175,.T.);
#223=FACE_BOUND('',#176,.T.);
#224=FACE_BOUND('',#177,.T.);
#225=FACE_BOUND('',#23,.T.);
#226=FACE_BOUND('',#178,.T.);
#227=FACE_BOUND('',#179,.T.);
#228=FACE_BOUND('',#180,.T.);
#229=FACE_BOUND('',#181,.T.);
#230=FACE_BOUND('',#182,.T.);
#231=FACE_BOUND('',#183,.T.);
#232=FACE_BOUND('',#184,.T.);
#233=FACE_BOUND('',#185,.T.);
#234=FACE_BOUND('',#186,.T.);
#235=FACE_BOUND('',#187,.T.);
#236=FACE_BOUND('',#188,.T.);
#237=FACE_BOUND('',#24,.T.);
#238=FACE_BOUND('',#189,.T.);
#239=FACE_BOUND('',#190,.T.);
#240=FACE_BOUND('',#191,.T.);
#241=FACE_BOUND('',#25,.T.);
#242=FACE_BOUND('',#192,.T.);
#243=FACE_BOUND('',#193,.T.);
#244=FACE_BOUND('',#194,.T.);
#245=FACE_BOUND('',#26,.T.);
#246=FACE_BOUND('',#195,.T.);
#247=FACE_BOUND('',#196,.T.);
#248=FACE_BOUND('',#197,.T.);
#249=FACE_BOUND('',#27,.T.);
#250=FACE_BOUND('',#198,.T.);
#251=FACE_BOUND('',#199,.T.);
#252=FACE_BOUND('',#200,.T.);
#253=CYLINDRICAL_SURFACE('',#299,0.0043);
#254=CYLINDRICAL_SURFACE('',#302,0.02);
#255=CYLINDRICAL_SURFACE('',#314,0.001025);
#256=CYLINDRICAL_SURFACE('',#317,0.001025);
#257=CYLINDRICAL_SURFACE('',#320,0.001025);
#258=CYLINDRICAL_SURFACE('',#323,0.001025);
#259=CYLINDRICAL_SURFACE('',#324,0.009);
#260=CYLINDRICAL_SURFACE('',#333,0.000725);
#261=CYLINDRICAL_SURFACE('',#336,0.000725);
#262=CYLINDRICAL_SURFACE('',#339,0.000725);
#263=CYLINDRICAL_SURFACE('',#342,0.000725);
#264=ADVANCED_FACE('',(#201,#202),#253,.F.);
#265=ADVANCED_FACE('',(#203,#204),#254,.T.);
#266=ADVANCED_FACE('',(#205,#206),#36,.T.);
#267=ADVANCED_FACE('',(#207,#208,#209,#210,#211,#212),#37,.F.);
#268=ADVANCED_FACE('',(#213,#214),#28,.F.);
#269=ADVANCED_FACE('',(#215,#216),#255,.F.);
#270=ADVANCED_FACE('',(#217,#218),#29,.F.);
#271=ADVANCED_FACE('',(#219,#220),#256,.F.);
#272=ADVANCED_FACE('',(#221,#222),#30,.F.);
#273=ADVANCED_FACE('',(#223,#224),#257,.F.);
#274=ADVANCED_FACE('',(#225,#226),#31,.F.);
#275=ADVANCED_FACE('',(#227,#228),#258,.F.);
#276=ADVANCED_FACE('',(#229,#230),#259,.T.);
#277=ADVANCED_FACE('',(#231,#232,#233,#234,#235,#236),#38,.T.);
#278=ADVANCED_FACE('',(#237,#238),#32,.F.);
#279=ADVANCED_FACE('',(#239,#240),#260,.F.);
#280=ADVANCED_FACE('',(#241,#242),#33,.F.);
#281=ADVANCED_FACE('',(#243,#244),#261,.F.);
#282=ADVANCED_FACE('',(#245,#246),#34,.F.);
#283=ADVANCED_FACE('',(#247,#248),#262,.F.);
#284=ADVANCED_FACE('',(#249,#250),#35,.F.);
#285=ADVANCED_FACE('',(#251,#252),#263,.F.);
#286=CLOSED_SHELL('',(#264,#265,#266,#267,#268,#269,#270,#271,#272,#273,
#274,#275,#276,#277,#278,#279,#280,#281,#282,#283,#284,#285));
#287=STYLED_ITEM('',(#288),#295);
#288=PRESENTATION_STYLE_ASSIGNMENT((#289));
#289=SURFACE_STYLE_USAGE(.BOTH.,#290);
#290=SURFACE_SIDE_STYLE('',(#291));
#291=SURFACE_STYLE_FILL_AREA(#292);
#292=FILL_AREA_STYLE('',(#293));
#293=FILL_AREA_STYLE_COLOUR('',#294);
#294=COLOUR_RGB('',0.615686274509804,0.811764705882353,0.929411764705882);
#295=MANIFOLD_SOLID_BREP('Part 1',#286);
#296=SHAPE_DEFINITION_REPRESENTATION(#514,#297);
#297=SHAPE_REPRESENTATION('Part 1',(#298),#509);
#298=AXIS2_PLACEMENT_3D('',#433,#343,#344);
#299=AXIS2_PLACEMENT_3D('',#434,#345,#346);
#300=AXIS2_PLACEMENT_3D('',#435,#347,#348);
#301=AXIS2_PLACEMENT_3D('',#437,#349,#350);
#302=AXIS2_PLACEMENT_3D('',#439,#351,#352);
#303=AXIS2_PLACEMENT_3D('',#440,#353,#354);
#304=AXIS2_PLACEMENT_3D('',#442,#355,#356);
#305=AXIS2_PLACEMENT_3D('',#444,#357,#358);
#306=AXIS2_PLACEMENT_3D('',#445,#359,#360);
#307=AXIS2_PLACEMENT_3D('',#447,#361,#362);
#308=AXIS2_PLACEMENT_3D('',#448,#363,#364);
#309=AXIS2_PLACEMENT_3D('',#450,#365,#366);
#310=AXIS2_PLACEMENT_3D('',#452,#367,#368);
#311=AXIS2_PLACEMENT_3D('',#454,#369,#370);
#312=AXIS2_PLACEMENT_3D('',#456,#371,#372);
#313=AXIS2_PLACEMENT_3D('',#458,#373,#374);
#314=AXIS2_PLACEMENT_3D('',#460,#375,#376);
#315=AXIS2_PLACEMENT_3D('',#461,#377,#378);
#316=AXIS2_PLACEMENT_3D('',#463,#379,#380);
#317=AXIS2_PLACEMENT_3D('',#465,#381,#382);
#318=AXIS2_PLACEMENT_3D('',#466,#383,#384);
#319=AXIS2_PLACEMENT_3D('',#468,#385,#386);
#320=AXIS2_PLACEMENT_3D('',#470,#387,#388);
#321=AXIS2_PLACEMENT_3D('',#471,#389,#390);
#322=AXIS2_PLACEMENT_3D('',#473,#391,#392);
#323=AXIS2_PLACEMENT_3D('',#475,#393,#394);
#324=AXIS2_PLACEMENT_3D('',#476,#395,#396);
#325=AXIS2_PLACEMENT_3D('',#477,#397,#398);
#326=AXIS2_PLACEMENT_3D('',#479,#399,#400);
#327=AXIS2_PLACEMENT_3D('',#480,#401,#402);
#328=AXIS2_PLACEMENT_3D('',#482,#403,#404);
#329=AXIS2_PLACEMENT_3D('',#484,#405,#406);
#330=AXIS2_PLACEMENT_3D('',#486,#407,#408);
#331=AXIS2_PLACEMENT_3D('',#488,#409,#410);
#332=AXIS2_PLACEMENT_3D('',#490,#411,#412);
#333=AXIS2_PLACEMENT_3D('',#492,#413,#414);
#334=AXIS2_PLACEMENT_3D('',#493,#415,#416);
#335=AXIS2_PLACEMENT_3D('',#495,#417,#418);
#336=AXIS2_PLACEMENT_3D('',#497,#419,#420);
#337=AXIS2_PLACEMENT_3D('',#498,#421,#422);
#338=AXIS2_PLACEMENT_3D('',#500,#423,#424);
#339=AXIS2_PLACEMENT_3D('',#502,#425,#426);
#340=AXIS2_PLACEMENT_3D('',#503,#427,#428);
#341=AXIS2_PLACEMENT_3D('',#505,#429,#430);
#342=AXIS2_PLACEMENT_3D('',#507,#431,#432);
#343=DIRECTION('',(0.,0.,1.));
#344=DIRECTION('',(1.,0.,0.));
#345=DIRECTION('',(0.,0.,-1.));
#346=DIRECTION('',(-1.,0.,0.));
#347=DIRECTION('',(0.,0.,1.));
#348=DIRECTION('',(1.,0.,0.));
#349=DIRECTION('',(0.,0.,1.));
#350=DIRECTION('',(1.,0.,0.));
#351=DIRECTION('',(0.,0.,-1.));
#352=DIRECTION('',(-1.,0.,0.));
#353=DIRECTION('',(0.,0.,1.));
#354=DIRECTION('',(1.,0.,0.));
#355=DIRECTION('',(0.,0.,1.));
#356=DIRECTION('',(1.,0.,0.));
#357=DIRECTION('',(0.,0.,1.));
#358=DIRECTION('',(1.,0.,0.));
#359=DIRECTION('',(0.,0.,1.));
#360=DIRECTION('',(1.,0.,0.));
#361=DIRECTION('',(0.,0.,1.));
#362=DIRECTION('',(1.,0.,0.));
#363=DIRECTION('',(0.,0.,1.));
#364=DIRECTION('',(1.,0.,0.));
#365=DIRECTION('',(0.,0.,1.));
#366=DIRECTION('',(1.,0.,0.));
#367=DIRECTION('',(0.,0.,1.));
#368=DIRECTION('',(1.,0.,0.));
#369=DIRECTION('',(0.,0.,1.));
#370=DIRECTION('',(1.,0.,0.));
#371=DIRECTION('',(0.,0.,-1.));
#372=DIRECTION('',(-1.,0.,0.));
#373=DIRECTION('',(0.,0.,1.));
#374=DIRECTION('',(1.,0.,0.));
#375=DIRECTION('',(0.,0.,1.));
#376=DIRECTION('',(1.,0.,0.));
#377=DIRECTION('',(0.,0.,-1.));
#378=DIRECTION('',(-1.,0.,0.));
#379=DIRECTION('',(0.,0.,1.));
#380=DIRECTION('',(1.,0.,0.));
#381=DIRECTION('',(0.,0.,1.));
#382=DIRECTION('',(1.,0.,0.));
#383=DIRECTION('',(0.,0.,-1.));
#384=DIRECTION('',(-1.,0.,0.));
#385=DIRECTION('',(0.,0.,1.));
#386=DIRECTION('',(1.,0.,0.));
#387=DIRECTION('',(0.,0.,1.));
#388=DIRECTION('',(1.,0.,0.));
#389=DIRECTION('',(0.,0.,-1.));
#390=DIRECTION('',(-1.,0.,0.));
#391=DIRECTION('',(0.,0.,1.));
#392=DIRECTION('',(1.,0.,0.));
#393=DIRECTION('',(0.,0.,1.));
#394=DIRECTION('',(1.,0.,0.));
#395=DIRECTION('',(0.,0.,1.));
#396=DIRECTION('',(1.,0.,0.));
#397=DIRECTION('',(0.,0.,1.));
#398=DIRECTION('',(1.,0.,0.));
#399=DIRECTION('',(0.,0.,1.));
#400=DIRECTION('',(1.,0.,0.));
#401=DIRECTION('',(0.,0.,-1.));
#402=DIRECTION('',(-1.,0.,0.));
#403=DIRECTION('',(0.,0.,-1.));
#404=DIRECTION('',(-1.,0.,0.));
#405=DIRECTION('',(0.,0.,-1.));
#406=DIRECTION('',(-1.,0.,0.));
#407=DIRECTION('',(0.,0.,-1.));
#408=DIRECTION('',(-1.,0.,0.));
#409=DIRECTION('',(0.,0.,1.));
#410=DIRECTION('',(1.,0.,0.));
#411=DIRECTION('',(0.,0.,-1.));
#412=DIRECTION('',(-1.,0.,0.));
#413=DIRECTION('',(0.,0.,-1.));
#414=DIRECTION('',(-1.,0.,0.));
#415=DIRECTION('',(0.,0.,1.));
#416=DIRECTION('',(1.,0.,0.));
#417=DIRECTION('',(0.,0.,-1.));
#418=DIRECTION('',(-1.,0.,0.));
#419=DIRECTION('',(0.,0.,-1.));
#420=DIRECTION('',(-1.,0.,0.));
#421=DIRECTION('',(0.,0.,1.));
#422=DIRECTION('',(1.,0.,0.));
#423=DIRECTION('',(0.,0.,-1.));
#424=DIRECTION('',(-1.,0.,0.));
#425=DIRECTION('',(0.,0.,-1.));
#426=DIRECTION('',(-1.,0.,0.));
#427=DIRECTION('',(0.,0.,1.));
#428=DIRECTION('',(1.,0.,0.));
#429=DIRECTION('',(0.,0.,-1.));
#430=DIRECTION('',(-1.,0.,0.));
#431=DIRECTION('',(0.,0.,-1.));
#432=DIRECTION('',(-1.,0.,0.));
#433=CARTESIAN_POINT('',(0.,0.,0.));
#434=CARTESIAN_POINT('',(0.,2.63299061816681E-19,0.014));
#435=CARTESIAN_POINT('',(0.,2.63299061816681E-19,0.0178));
#436=CARTESIAN_POINT('',(0.0043,2.63299061816681E-19,0.0178));
#437=CARTESIAN_POINT('',(0.,2.63299061816681E-19,0.));
#438=CARTESIAN_POINT('',(0.0043,2.63299061816681E-19,0.));
#439=CARTESIAN_POINT('',(0.,1.22464679914735E-18,0.014));
#440=CARTESIAN_POINT('',(0.,1.22464679914735E-18,0.014));
#441=CARTESIAN_POINT('',(0.02,1.22464679914735E-18,0.014));
#442=CARTESIAN_POINT('',(0.,1.22464679914735E-18,0.));
#443=CARTESIAN_POINT('',(0.02,1.22464679914735E-18,0.));
#444=CARTESIAN_POINT('',(0.,0.,0.014));
#445=CARTESIAN_POINT('',(0.,5.51091059616309E-19,0.014));
#446=CARTESIAN_POINT('',(0.009,5.51091059616309E-19,0.014));
#447=CARTESIAN_POINT('',(0.,0.,0.));
#448=CARTESIAN_POINT('',(3.69413058641694E-19,0.01,0.));
#449=CARTESIAN_POINT('',(0.001025,0.01,0.));
#450=CARTESIAN_POINT('',(0.01,0.,0.));
#451=CARTESIAN_POINT('',(0.011025,0.,0.));
#452=CARTESIAN_POINT('',(-1.7347234759768E-18,-0.01,0.));
#453=CARTESIAN_POINT('',(0.001025,-0.01,0.));
#454=CARTESIAN_POINT('',(-0.01,0.,0.));
#455=CARTESIAN_POINT('',(-0.008975,0.,0.));
#456=CARTESIAN_POINT('',(-0.01,0.,0.006));
#457=CARTESIAN_POINT('',(-0.01,0.,0.00661588213450325));
#458=CARTESIAN_POINT('',(-0.01,0.,0.006));
#459=CARTESIAN_POINT('',(-0.008975,0.,0.006));
#460=CARTESIAN_POINT('',(-0.01,0.,0.));
#461=CARTESIAN_POINT('',(-1.7347234759768E-18,-0.01,0.006));
#462=CARTESIAN_POINT('',(-1.6704556656243E-18,-0.01,0.00661588213450325));
#463=CARTESIAN_POINT('',(-1.7347234759768E-18,-0.01,0.006));
#464=CARTESIAN_POINT('',(0.001025,-0.01,0.006));
#465=CARTESIAN_POINT('',(-1.7347234759768E-18,-0.01,0.));
#466=CARTESIAN_POINT('',(0.01,0.,0.006));
#467=CARTESIAN_POINT('',(0.01,0.,0.00661588213450325));
#468=CARTESIAN_POINT('',(0.01,0.,0.006));
#469=CARTESIAN_POINT('',(0.011025,0.,0.006));
#470=CARTESIAN_POINT('',(0.01,0.,0.));
#471=CARTESIAN_POINT('',(3.69413058641694E-19,0.01,0.006));
#472=CARTESIAN_POINT('',(4.33680868994202E-19,0.01,0.00661588213450325));
#473=CARTESIAN_POINT('',(3.69413058641694E-19,0.01,0.006));
#474=CARTESIAN_POINT('',(0.001025,0.01,0.006));
#475=CARTESIAN_POINT('',(3.69413058641694E-19,0.01,0.));
#476=CARTESIAN_POINT('',(0.,5.51091059616309E-19,0.0128));
#477=CARTESIAN_POINT('',(0.,5.51091059616309E-19,0.0178));
#478=CARTESIAN_POINT('',(0.009,5.51091059616309E-19,0.0178));
#479=CARTESIAN_POINT('',(0.,0.,0.0178));
#480=CARTESIAN_POINT('',(0.,0.0075,0.0178));
#481=CARTESIAN_POINT('',(-0.000725,0.0075,0.0178));
#482=CARTESIAN_POINT('',(-0.0075,8.67361737988404E-19,0.0178));
#483=CARTESIAN_POINT('',(-0.008225,8.67361737988404E-19,0.0178));
#484=CARTESIAN_POINT('',(-9.18382993144486E-19,-0.0075,0.0178));
#485=CARTESIAN_POINT('',(-0.000725000000000001,-0.0075,0.0178));
#486=CARTESIAN_POINT('',(0.0075,8.67361737988404E-19,0.0178));
#487=CARTESIAN_POINT('',(0.006775,8.67361737988404E-19,0.0178));
#488=CARTESIAN_POINT('',(0.0075,8.67361737988404E-19,0.0148));
#489=CARTESIAN_POINT('',(0.0075,8.67361737988404E-19,0.014364376051205));
#490=CARTESIAN_POINT('',(0.0075,8.67361737988404E-19,0.0148));
#491=CARTESIAN_POINT('',(0.006775,8.67361737988404E-19,0.0148));
#492=CARTESIAN_POINT('',(0.0075,8.67361737988404E-19,0.0178));
#493=CARTESIAN_POINT('',(-9.18382993144486E-19,-0.0075,0.0148));
#494=CARTESIAN_POINT('',(-9.18382993144486E-19,-0.0075,0.014364376051205));
#495=CARTESIAN_POINT('',(-9.18382993144486E-19,-0.0075,0.0148));
#496=CARTESIAN_POINT('',(-0.000725000000000001,-0.0075,0.0148));
#497=CARTESIAN_POINT('',(-9.18382993144486E-19,-0.0075,0.0178));
#498=CARTESIAN_POINT('',(-0.0075,8.67361737988404E-19,0.0148));
#499=CARTESIAN_POINT('',(-0.0075,8.67361737988404E-19,0.014364376051205));
#500=CARTESIAN_POINT('',(-0.0075,8.67361737988404E-19,0.0148));
#501=CARTESIAN_POINT('',(-0.008225,8.67361737988404E-19,0.0148));
#502=CARTESIAN_POINT('',(-0.0075,8.67361737988404E-19,0.0178));
#503=CARTESIAN_POINT('',(0.,0.0075,0.0148));
#504=CARTESIAN_POINT('',(0.,0.0075,0.014364376051205));
#505=CARTESIAN_POINT('',(0.,0.0075,0.0148));
#506=CARTESIAN_POINT('',(-0.000725,0.0075,0.0148));
#507=CARTESIAN_POINT('',(0.,0.0075,0.0178));
#508=MECHANICAL_DESIGN_GEOMETRIC_PRESENTATION_REPRESENTATION('',(#287),
#509);
#509=(
GEOMETRIC_REPRESENTATION_CONTEXT(3)
GLOBAL_UNCERTAINTY_ASSIGNED_CONTEXT((#510))
GLOBAL_UNIT_ASSIGNED_CONTEXT((#513,#512,#511))
REPRESENTATION_CONTEXT('Part 1','TOP_LEVEL_ASSEMBLY_PART')
);
#510=UNCERTAINTY_MEASURE_WITH_UNIT(LENGTH_MEASURE(1.E-8),#513,
'DISTANCE_ACCURACY_VALUE','Maximum Tolerance applied to model');
#511=(
NAMED_UNIT(*)
SI_UNIT($,.STERADIAN.)
SOLID_ANGLE_UNIT()
);
#512=(
NAMED_UNIT(*)
PLANE_ANGLE_UNIT()
SI_UNIT($,.RADIAN.)
);
#513=(
LENGTH_UNIT()
NAMED_UNIT(*)
SI_UNIT($,.METRE.)
);
#514=PRODUCT_DEFINITION_SHAPE('','',#515);
#515=PRODUCT_DEFINITION('','',#517,#516);
#516=PRODUCT_DEFINITION_CONTEXT('',#523,'design');
#517=PRODUCT_DEFINITION_FORMATION_WITH_SPECIFIED_SOURCE('','',#519,
 .NOT_KNOWN.);
#518=PRODUCT_RELATED_PRODUCT_CATEGORY('','',(#519));
#519=PRODUCT('Part 1','Part 1','Part 1',(#521));
#520=PRODUCT_CATEGORY('','');
#521=PRODUCT_CONTEXT('',#523,'mechanical');
#522=APPLICATION_PROTOCOL_DEFINITION('international standard',
'automotive_design',2010,#523);
#523=APPLICATION_CONTEXT(
'core data for automotive mechanical design processes');
ENDSEC;
END-ISO-10303-21;
