ISO-10303-21;
HEADER;
/* Generated by software containing ST-Developer
 * from STEP Tools, Inc. (www.steptools.com) 
 */
/* OPTION: using custom renumber hook */

FILE_DESCRIPTION(
/* description */ ('STEP AP214'),
/* implementation_level */ '2;1');

FILE_NAME(
/* name */ '68f369b5893047e8a3fb772c',
/* time_stamp */ '2025-10-18T10:19:34Z',
/* author */ (''),
/* organization */ (''),
/* preprocessor_version */ 'ST-DEVELOPER v20',
/* originating_system */ 'ONSHAPE BY PTC INC, 1.205',
/* authorisation */ '  ');

FILE_SCHEMA (('AUTOMOTIVE_DESIGN {1 0 10303 214 3 1 1}'));
ENDSEC;

DATA;
#10=PROPERTY_DEFINITION_REPRESENTATION(#14,#12);
#11=PROPERTY_DEFINITION_REPRESENTATION(#15,#13);
#12=REPRESENTATION('',(#16),#562);
#13=REPRESENTATION('',(#17),#562);
#14=PROPERTY_DEFINITION('pmi validation property','',#567);
#15=PROPERTY_DEFINITION('pmi validation property','',#567);
#16=VALUE_REPRESENTATION_ITEM('number of annotations',COUNT_MEASURE(0.));
#17=VALUE_REPRESENTATION_ITEM('number of views',COUNT_MEASURE(0.));
#18=SHAPE_REPRESENTATION_RELATIONSHIP('','',#349,#19);
#19=ADVANCED_BREP_SHAPE_REPRESENTATION('',(#347),#562);
#20=ELLIPSE('',#355,0.0232937140592268,0.0225);
#21=CIRCLE('',#354,0.0225);
#22=CIRCLE('',#357,0.01725);
#23=CIRCLE('',#358,0.0014);
#24=CIRCLE('',#359,0.0014);
#25=CIRCLE('',#360,0.0014);
#26=CIRCLE('',#361,0.0014);
#27=CIRCLE('',#363,0.01725);
#28=CIRCLE('',#365,0.0014);
#29=CIRCLE('',#367,0.0014);
#30=CIRCLE('',#369,0.0014);
#31=CIRCLE('',#371,0.0014);
#32=CYLINDRICAL_SURFACE('',#353,0.0225);
#33=CYLINDRICAL_SURFACE('',#362,0.01725);
#34=CYLINDRICAL_SURFACE('',#364,0.0014);
#35=CYLINDRICAL_SURFACE('',#366,0.0014);
#36=CYLINDRICAL_SURFACE('',#368,0.0014);
#37=CYLINDRICAL_SURFACE('',#370,0.0014);
#38=ORIENTED_EDGE('',*,*,#120,.T.);
#39=ORIENTED_EDGE('',*,*,#121,.F.);
#40=ORIENTED_EDGE('',*,*,#122,.F.);
#41=ORIENTED_EDGE('',*,*,#123,.F.);
#42=ORIENTED_EDGE('',*,*,#124,.T.);
#43=ORIENTED_EDGE('',*,*,#125,.T.);
#44=ORIENTED_EDGE('',*,*,#126,.F.);
#45=ORIENTED_EDGE('',*,*,#127,.T.);
#46=ORIENTED_EDGE('',*,*,#128,.F.);
#47=ORIENTED_EDGE('',*,*,#129,.F.);
#48=ORIENTED_EDGE('',*,*,#130,.F.);
#49=ORIENTED_EDGE('',*,*,#131,.F.);
#50=ORIENTED_EDGE('',*,*,#132,.T.);
#51=ORIENTED_EDGE('',*,*,#133,.F.);
#52=ORIENTED_EDGE('',*,*,#134,.F.);
#53=ORIENTED_EDGE('',*,*,#135,.T.);
#54=ORIENTED_EDGE('',*,*,#136,.F.);
#55=ORIENTED_EDGE('',*,*,#137,.F.);
#56=ORIENTED_EDGE('',*,*,#138,.F.);
#57=ORIENTED_EDGE('',*,*,#139,.F.);
#58=ORIENTED_EDGE('',*,*,#140,.F.);
#59=ORIENTED_EDGE('',*,*,#141,.T.);
#60=ORIENTED_EDGE('',*,*,#140,.T.);
#61=ORIENTED_EDGE('',*,*,#126,.T.);
#62=ORIENTED_EDGE('',*,*,#142,.F.);
#63=ORIENTED_EDGE('',*,*,#133,.T.);
#64=ORIENTED_EDGE('',*,*,#143,.T.);
#65=ORIENTED_EDGE('',*,*,#144,.T.);
#66=ORIENTED_EDGE('',*,*,#145,.T.);
#67=ORIENTED_EDGE('',*,*,#146,.T.);
#68=ORIENTED_EDGE('',*,*,#142,.T.);
#69=ORIENTED_EDGE('',*,*,#125,.F.);
#70=ORIENTED_EDGE('',*,*,#147,.F.);
#71=ORIENTED_EDGE('',*,*,#134,.T.);
#72=ORIENTED_EDGE('',*,*,#148,.T.);
#73=ORIENTED_EDGE('',*,*,#144,.F.);
#74=ORIENTED_EDGE('',*,*,#149,.T.);
#75=ORIENTED_EDGE('',*,*,#145,.F.);
#76=ORIENTED_EDGE('',*,*,#150,.T.);
#77=ORIENTED_EDGE('',*,*,#146,.F.);
#78=ORIENTED_EDGE('',*,*,#151,.T.);
#79=ORIENTED_EDGE('',*,*,#143,.F.);
#80=ORIENTED_EDGE('',*,*,#152,.F.);
#81=ORIENTED_EDGE('',*,*,#135,.F.);
#82=ORIENTED_EDGE('',*,*,#147,.T.);
#83=ORIENTED_EDGE('',*,*,#124,.F.);
#84=ORIENTED_EDGE('',*,*,#150,.F.);
#85=ORIENTED_EDGE('',*,*,#149,.F.);
#86=ORIENTED_EDGE('',*,*,#148,.F.);
#87=ORIENTED_EDGE('',*,*,#151,.F.);
#88=ORIENTED_EDGE('',*,*,#153,.F.);
#89=ORIENTED_EDGE('',*,*,#154,.F.);
#90=ORIENTED_EDGE('',*,*,#139,.T.);
#91=ORIENTED_EDGE('',*,*,#155,.F.);
#92=ORIENTED_EDGE('',*,*,#120,.F.);
#93=ORIENTED_EDGE('',*,*,#156,.F.);
#94=ORIENTED_EDGE('',*,*,#157,.F.);
#95=ORIENTED_EDGE('',*,*,#128,.T.);
#96=ORIENTED_EDGE('',*,*,#158,.F.);
#97=ORIENTED_EDGE('',*,*,#131,.T.);
#98=ORIENTED_EDGE('',*,*,#136,.T.);
#99=ORIENTED_EDGE('',*,*,#152,.T.);
#100=ORIENTED_EDGE('',*,*,#123,.T.);
#101=ORIENTED_EDGE('',*,*,#159,.F.);
#102=ORIENTED_EDGE('',*,*,#122,.T.);
#103=ORIENTED_EDGE('',*,*,#160,.T.);
#104=ORIENTED_EDGE('',*,*,#137,.T.);
#105=ORIENTED_EDGE('',*,*,#159,.T.);
#106=ORIENTED_EDGE('',*,*,#158,.T.);
#107=ORIENTED_EDGE('',*,*,#127,.F.);
#108=ORIENTED_EDGE('',*,*,#141,.F.);
#109=ORIENTED_EDGE('',*,*,#132,.F.);
#110=ORIENTED_EDGE('',*,*,#129,.T.);
#111=ORIENTED_EDGE('',*,*,#157,.T.);
#112=ORIENTED_EDGE('',*,*,#130,.T.);
#113=ORIENTED_EDGE('',*,*,#154,.T.);
#114=ORIENTED_EDGE('',*,*,#156,.T.);
#115=ORIENTED_EDGE('',*,*,#121,.T.);
#116=ORIENTED_EDGE('',*,*,#155,.T.);
#117=ORIENTED_EDGE('',*,*,#153,.T.);
#118=ORIENTED_EDGE('',*,*,#138,.T.);
#119=ORIENTED_EDGE('',*,*,#160,.F.);
#120=EDGE_CURVE('',#161,#162,#190,.T.);
#121=EDGE_CURVE('',#163,#162,#191,.T.);
#122=EDGE_CURVE('',#164,#163,#192,.T.);
#123=EDGE_CURVE('',#165,#164,#193,.T.);
#124=EDGE_CURVE('',#165,#166,#194,.T.);
#125=EDGE_CURVE('',#166,#167,#195,.T.);
#126=EDGE_CURVE('',#168,#167,#196,.T.);
#127=EDGE_CURVE('',#168,#169,#197,.T.);
#128=EDGE_CURVE('',#170,#169,#198,.T.);
#129=EDGE_CURVE('',#161,#170,#199,.T.);
#130=EDGE_CURVE('',#171,#172,#200,.T.);
#131=EDGE_CURVE('',#173,#171,#201,.T.);
#132=EDGE_CURVE('',#173,#174,#202,.T.);
#133=EDGE_CURVE('',#175,#174,#203,.T.);
#134=EDGE_CURVE('',#176,#175,#204,.T.);
#135=EDGE_CURVE('',#176,#177,#205,.T.);
#136=EDGE_CURVE('',#178,#177,#206,.T.);
#137=EDGE_CURVE('',#179,#178,#207,.T.);
#138=EDGE_CURVE('',#180,#179,#208,.T.);
#139=EDGE_CURVE('',#172,#180,#209,.T.);
#140=EDGE_CURVE('',#174,#168,#21,.T.);
#141=EDGE_CURVE('',#174,#168,#20,.T.);
#142=EDGE_CURVE('',#175,#167,#22,.T.);
#143=EDGE_CURVE('',#181,#181,#23,.T.);
#144=EDGE_CURVE('',#182,#182,#24,.T.);
#145=EDGE_CURVE('',#183,#183,#25,.T.);
#146=EDGE_CURVE('',#184,#184,#26,.T.);
#147=EDGE_CURVE('',#176,#166,#27,.T.);
#148=EDGE_CURVE('',#185,#185,#28,.T.);
#149=EDGE_CURVE('',#186,#186,#29,.T.);
#150=EDGE_CURVE('',#187,#187,#30,.T.);
#151=EDGE_CURVE('',#188,#188,#31,.T.);
#152=EDGE_CURVE('',#177,#165,#210,.T.);
#153=EDGE_CURVE('',#189,#180,#211,.T.);
#154=EDGE_CURVE('',#172,#189,#212,.T.);
#155=EDGE_CURVE('',#162,#189,#213,.T.);
#156=EDGE_CURVE('',#189,#161,#214,.T.);
#157=EDGE_CURVE('',#170,#171,#215,.T.);
#158=EDGE_CURVE('',#173,#169,#216,.T.);
#159=EDGE_CURVE('',#178,#164,#217,.T.);
#160=EDGE_CURVE('',#163,#179,#218,.T.);
#161=VERTEX_POINT('',#475);
#162=VERTEX_POINT('',#476);
#163=VERTEX_POINT('',#478);
#164=VERTEX_POINT('',#480);
#165=VERTEX_POINT('',#482);
#166=VERTEX_POINT('',#484);
#167=VERTEX_POINT('',#486);
#168=VERTEX_POINT('',#488);
#169=VERTEX_POINT('',#490);
#170=VERTEX_POINT('',#492);
#171=VERTEX_POINT('',#496);
#172=VERTEX_POINT('',#497);
#173=VERTEX_POINT('',#499);
#174=VERTEX_POINT('',#501);
#175=VERTEX_POINT('',#503);
#176=VERTEX_POINT('',#505);
#177=VERTEX_POINT('',#507);
#178=VERTEX_POINT('',#509);
#179=VERTEX_POINT('',#511);
#180=VERTEX_POINT('',#513);
#181=VERTEX_POINT('',#521);
#182=VERTEX_POINT('',#523);
#183=VERTEX_POINT('',#525);
#184=VERTEX_POINT('',#527);
#185=VERTEX_POINT('',#532);
#186=VERTEX_POINT('',#535);
#187=VERTEX_POINT('',#538);
#188=VERTEX_POINT('',#541);
#189=VERTEX_POINT('',#546);
#190=LINE('',#474,#219);
#191=LINE('',#477,#220);
#192=LINE('',#479,#221);
#193=LINE('',#481,#222);
#194=LINE('',#483,#223);
#195=LINE('',#485,#224);
#196=LINE('',#487,#225);
#197=LINE('',#489,#226);
#198=LINE('',#491,#227);
#199=LINE('',#493,#228);
#200=LINE('',#495,#229);
#201=LINE('',#498,#230);
#202=LINE('',#500,#231);
#203=LINE('',#502,#232);
#204=LINE('',#504,#233);
#205=LINE('',#506,#234);
#206=LINE('',#508,#235);
#207=LINE('',#510,#236);
#208=LINE('',#512,#237);
#209=LINE('',#514,#238);
#210=LINE('',#543,#239);
#211=LINE('',#545,#240);
#212=LINE('',#547,#241);
#213=LINE('',#549,#242);
#214=LINE('',#550,#243);
#215=LINE('',#552,#244);
#216=LINE('',#553,#245);
#217=LINE('',#555,#246);
#218=LINE('',#557,#247);
#219=VECTOR('',#385,1.);
#220=VECTOR('',#386,1.);
#221=VECTOR('',#387,1.);
#222=VECTOR('',#388,1.);
#223=VECTOR('',#389,1.);
#224=VECTOR('',#390,1.);
#225=VECTOR('',#391,1.);
#226=VECTOR('',#392,1.);
#227=VECTOR('',#393,1.);
#228=VECTOR('',#394,1.);
#229=VECTOR('',#397,1.);
#230=VECTOR('',#398,1.);
#231=VECTOR('',#399,1.);
#232=VECTOR('',#400,1.);
#233=VECTOR('',#401,1.);
#234=VECTOR('',#402,1.);
#235=VECTOR('',#403,1.);
#236=VECTOR('',#404,1.);
#237=VECTOR('',#405,1.);
#238=VECTOR('',#406,1.);
#239=VECTOR('',#447,1.);
#240=VECTOR('',#450,1.);
#241=VECTOR('',#451,1.);
#242=VECTOR('',#454,1.);
#243=VECTOR('',#455,1.);
#244=VECTOR('',#458,1.);
#245=VECTOR('',#459,1.);
#246=VECTOR('',#462,1.);
#247=VECTOR('',#465,1.);
#248=EDGE_LOOP('',(#38,#39,#40,#41,#42,#43,#44,#45,#46,#47));
#249=EDGE_LOOP('',(#48,#49,#50,#51,#52,#53,#54,#55,#56,#57));
#250=EDGE_LOOP('',(#58,#59));
#251=EDGE_LOOP('',(#60,#61,#62,#63));
#252=EDGE_LOOP('',(#64));
#253=EDGE_LOOP('',(#65));
#254=EDGE_LOOP('',(#66));
#255=EDGE_LOOP('',(#67));
#256=EDGE_LOOP('',(#68,#69,#70,#71));
#257=EDGE_LOOP('',(#72));
#258=EDGE_LOOP('',(#73));
#259=EDGE_LOOP('',(#74));
#260=EDGE_LOOP('',(#75));
#261=EDGE_LOOP('',(#76));
#262=EDGE_LOOP('',(#77));
#263=EDGE_LOOP('',(#78));
#264=EDGE_LOOP('',(#79));
#265=EDGE_LOOP('',(#80,#81,#82,#83));
#266=EDGE_LOOP('',(#84));
#267=EDGE_LOOP('',(#85));
#268=EDGE_LOOP('',(#86));
#269=EDGE_LOOP('',(#87));
#270=EDGE_LOOP('',(#88,#89,#90));
#271=EDGE_LOOP('',(#91,#92,#93));
#272=EDGE_LOOP('',(#94,#95,#96,#97));
#273=EDGE_LOOP('',(#98,#99,#100,#101));
#274=EDGE_LOOP('',(#102,#103,#104,#105));
#275=EDGE_LOOP('',(#106,#107,#108,#109));
#276=EDGE_LOOP('',(#110,#111,#112,#113,#114));
#277=EDGE_LOOP('',(#115,#116,#117,#118,#119));
#278=FACE_BOUND('',#248,.T.);
#279=FACE_BOUND('',#249,.T.);
#280=FACE_BOUND('',#250,.T.);
#281=FACE_BOUND('',#251,.T.);
#282=FACE_BOUND('',#252,.T.);
#283=FACE_BOUND('',#253,.T.);
#284=FACE_BOUND('',#254,.T.);
#285=FACE_BOUND('',#255,.T.);
#286=FACE_BOUND('',#256,.T.);
#287=FACE_BOUND('',#257,.T.);
#288=FACE_BOUND('',#258,.T.);
#289=FACE_BOUND('',#259,.T.);
#290=FACE_BOUND('',#260,.T.);
#291=FACE_BOUND('',#261,.T.);
#292=FACE_BOUND('',#262,.T.);
#293=FACE_BOUND('',#263,.T.);
#294=FACE_BOUND('',#264,.T.);
#295=FACE_BOUND('',#265,.T.);
#296=FACE_BOUND('',#266,.T.);
#297=FACE_BOUND('',#267,.T.);
#298=FACE_BOUND('',#268,.T.);
#299=FACE_BOUND('',#269,.T.);
#300=FACE_BOUND('',#270,.T.);
#301=FACE_BOUND('',#271,.T.);
#302=FACE_BOUND('',#272,.T.);
#303=FACE_BOUND('',#273,.T.);
#304=FACE_BOUND('',#274,.T.);
#305=FACE_BOUND('',#275,.T.);
#306=FACE_BOUND('',#276,.T.);
#307=FACE_BOUND('',#277,.T.);
#308=PLANE('',#351);
#309=PLANE('',#352);
#310=PLANE('',#356);
#311=PLANE('',#372);
#312=PLANE('',#373);
#313=PLANE('',#374);
#314=PLANE('',#375);
#315=PLANE('',#376);
#316=PLANE('',#377);
#317=PLANE('',#378);
#318=PLANE('',#379);
#319=PLANE('',#380);
#320=ADVANCED_FACE('',(#278),#308,.T.);
#321=ADVANCED_FACE('',(#279),#309,.T.);
#322=ADVANCED_FACE('',(#280),#32,.F.);
#323=ADVANCED_FACE('',(#281,#282,#283,#284,#285),#310,.F.);
#324=ADVANCED_FACE('',(#286),#33,.T.);
#325=ADVANCED_FACE('',(#287,#288),#34,.F.);
#326=ADVANCED_FACE('',(#289,#290),#35,.F.);
#327=ADVANCED_FACE('',(#291,#292),#36,.F.);
#328=ADVANCED_FACE('',(#293,#294),#37,.F.);
#329=ADVANCED_FACE('',(#295,#296,#297,#298,#299),#311,.T.);
#330=ADVANCED_FACE('',(#300),#312,.T.);
#331=ADVANCED_FACE('',(#301),#313,.T.);
#332=ADVANCED_FACE('',(#302),#314,.T.);
#333=ADVANCED_FACE('',(#303),#315,.F.);
#334=ADVANCED_FACE('',(#304),#316,.F.);
#335=ADVANCED_FACE('',(#305),#317,.T.);
#336=ADVANCED_FACE('',(#306),#318,.F.);
#337=ADVANCED_FACE('',(#307),#319,.F.);
#338=CLOSED_SHELL('',(#320,#321,#322,#323,#324,#325,#326,#327,#328,#329,
#330,#331,#332,#333,#334,#335,#336,#337));
#339=STYLED_ITEM('',(#340),#347);
#340=PRESENTATION_STYLE_ASSIGNMENT((#341));
#341=SURFACE_STYLE_USAGE(.BOTH.,#342);
#342=SURFACE_SIDE_STYLE('',(#343));
#343=SURFACE_STYLE_FILL_AREA(#344);
#344=FILL_AREA_STYLE('',(#345));
#345=FILL_AREA_STYLE_COLOUR('',#346);
#346=COLOUR_RGB('',0.615686274509804,0.811764705882353,0.929411764705882);
#347=MANIFOLD_SOLID_BREP('Part 1',#338);
#348=SHAPE_DEFINITION_REPRESENTATION(#567,#349);
#349=SHAPE_REPRESENTATION('Part 1',(#350),#562);
#350=AXIS2_PLACEMENT_3D('',#472,#381,#382);
#351=AXIS2_PLACEMENT_3D('',#473,#383,#384);
#352=AXIS2_PLACEMENT_3D('',#494,#395,#396);
#353=AXIS2_PLACEMENT_3D('',#515,#407,#408);
#354=AXIS2_PLACEMENT_3D('',#516,#409,#410);
#355=AXIS2_PLACEMENT_3D('',#517,#411,#412);
#356=AXIS2_PLACEMENT_3D('',#518,#413,#414);
#357=AXIS2_PLACEMENT_3D('',#519,#415,#416);
#358=AXIS2_PLACEMENT_3D('',#520,#417,#418);
#359=AXIS2_PLACEMENT_3D('',#522,#419,#420);
#360=AXIS2_PLACEMENT_3D('',#524,#421,#422);
#361=AXIS2_PLACEMENT_3D('',#526,#423,#424);
#362=AXIS2_PLACEMENT_3D('',#528,#425,#426);
#363=AXIS2_PLACEMENT_3D('',#529,#427,#428);
#364=AXIS2_PLACEMENT_3D('',#530,#429,#430);
#365=AXIS2_PLACEMENT_3D('',#531,#431,#432);
#366=AXIS2_PLACEMENT_3D('',#533,#433,#434);
#367=AXIS2_PLACEMENT_3D('',#534,#435,#436);
#368=AXIS2_PLACEMENT_3D('',#536,#437,#438);
#369=AXIS2_PLACEMENT_3D('',#537,#439,#440);
#370=AXIS2_PLACEMENT_3D('',#539,#441,#442);
#371=AXIS2_PLACEMENT_3D('',#540,#443,#444);
#372=AXIS2_PLACEMENT_3D('',#542,#445,#446);
#373=AXIS2_PLACEMENT_3D('',#544,#448,#449);
#374=AXIS2_PLACEMENT_3D('',#548,#452,#453);
#375=AXIS2_PLACEMENT_3D('',#551,#456,#457);
#376=AXIS2_PLACEMENT_3D('',#554,#460,#461);
#377=AXIS2_PLACEMENT_3D('',#556,#463,#464);
#378=AXIS2_PLACEMENT_3D('',#558,#466,#467);
#379=AXIS2_PLACEMENT_3D('',#559,#468,#469);
#380=AXIS2_PLACEMENT_3D('',#560,#470,#471);
#381=DIRECTION('',(0.,0.,1.));
#382=DIRECTION('',(1.,0.,0.));
#383=DIRECTION('',(0.998024840957863,0.,0.0628205128205128));
#384=DIRECTION('',(0.0628205128205128,0.,-0.998024840957863));
#385=DIRECTION('',(0.,-1.,0.));
#386=DIRECTION('',(-0.0562769307973254,0.444383083142387,0.89406743732053));
#387=DIRECTION('',(-0.0628205128205128,-1.2367337090654E-16,0.998024840957863));
#388=DIRECTION('',(-0.0606879780151698,0.258341986200416,0.964145418228212));
#389=DIRECTION('',(0.0628205128205128,0.,-0.998024840957863));
#390=DIRECTION('',(0.,1.,0.));
#391=DIRECTION('',(0.0628205128205128,0.,-0.998024840957863));
#392=DIRECTION('',(-0.0606879780151698,0.258341986200416,0.964145418228212));
#393=DIRECTION('',(0.0628205128205128,0.,-0.998024840957863));
#394=DIRECTION('',(0.0562769307973255,0.444383083142387,-0.89406743732053));
#395=DIRECTION('',(-0.998024840957863,0.,0.0628205128205128));
#396=DIRECTION('',(0.0628205128205128,0.,0.998024840957863));
#397=DIRECTION('',(0.0561883748192255,-0.447213595499958,0.892660555046079));
#398=DIRECTION('',(0.0628205128205128,0.,0.998024840957863));
#399=DIRECTION('',(-0.0606879780151698,-0.258341986200416,-0.964145418228212));
#400=DIRECTION('',(0.0628205128205128,0.,0.998024840957863));
#401=DIRECTION('',(0.,1.,0.));
#402=DIRECTION('',(0.0628205128205128,0.,0.998024840957863));
#403=DIRECTION('',(-0.0606879780151698,-0.258341986200416,-0.964145418228212));
#404=DIRECTION('',(-0.0628205128205128,1.2367337090654E-16,-0.998024840957863));
#405=DIRECTION('',(-0.0561883748192255,-0.447213595499958,-0.892660555046079));
#406=DIRECTION('',(0.,-1.,0.));
#407=DIRECTION('',(0.,-1.,0.));
#408=DIRECTION('',(0.,0.,-1.));
#409=DIRECTION('',(0.,1.,0.));
#410=DIRECTION('',(0.,0.,1.));
#411=DIRECTION('',(0.,0.965925826289069,-0.25881904510252));
#412=DIRECTION('',(0.,-0.25881904510252,-0.965925826289069));
#413=DIRECTION('',(0.,-1.,0.));
#414=DIRECTION('',(1.,0.,0.));
#415=DIRECTION('',(0.,-1.,0.));
#416=DIRECTION('',(0.,0.,-1.));
#417=DIRECTION('',(0.,-1.,0.));
#418=DIRECTION('',(0.,0.,-1.));
#419=DIRECTION('',(0.,-1.,0.));
#420=DIRECTION('',(0.,0.,-1.));
#421=DIRECTION('',(0.,-1.,0.));
#422=DIRECTION('',(0.,0.,-1.));
#423=DIRECTION('',(0.,-1.,0.));
#424=DIRECTION('',(0.,0.,-1.));
#425=DIRECTION('',(0.,1.,0.));
#426=DIRECTION('',(0.,0.,1.));
#427=DIRECTION('',(0.,-1.,0.));
#428=DIRECTION('',(0.,0.,-1.));
#429=DIRECTION('',(0.,1.,0.));
#430=DIRECTION('',(0.,0.,1.));
#431=DIRECTION('',(0.,-1.,0.));
#432=DIRECTION('',(0.,0.,-1.));
#433=DIRECTION('',(0.,1.,0.));
#434=DIRECTION('',(0.,0.,1.));
#435=DIRECTION('',(0.,-1.,0.));
#436=DIRECTION('',(0.,0.,-1.));
#437=DIRECTION('',(0.,1.,0.));
#438=DIRECTION('',(0.,0.,1.));
#439=DIRECTION('',(0.,-1.,0.));
#440=DIRECTION('',(0.,0.,-1.));
#441=DIRECTION('',(0.,1.,0.));
#442=DIRECTION('',(0.,0.,1.));
#443=DIRECTION('',(0.,-1.,0.));
#444=DIRECTION('',(0.,0.,-1.));
#445=DIRECTION('',(0.,-1.,0.));
#446=DIRECTION('',(1.,0.,0.));
#447=DIRECTION('',(1.,0.,0.));
#448=DIRECTION('',(-0.684536152142268,0.,0.728978913556667));
#449=DIRECTION('',(0.728978913556667,0.,0.684536152142268));
#450=DIRECTION('',(-0.684901740895001,-0.3424508704475,-0.643146178289778));
#451=DIRECTION('',(0.684901740895001,-0.3424508704475,0.643146178289778));
#452=DIRECTION('',(0.684536152142268,0.,0.728978913556666));
#453=DIRECTION('',(0.728978913556666,0.,-0.684536152142268));
#454=DIRECTION('',(-0.694559814146904,0.303647303364222,0.652215439660741));
#455=DIRECTION('',(0.694559814146904,0.303647303364222,-0.652215439660741));
#456=DIRECTION('',(0.,1.,0.));
#457=DIRECTION('',(-1.,0.,0.));
#458=DIRECTION('',(-0.998024840957863,0.,0.0628205128205128));
#459=DIRECTION('',(1.,0.,0.));
#460=DIRECTION('',(0.,0.965925826289069,-0.258819045102521));
#461=DIRECTION('',(0.,0.258819045102521,0.965925826289069));
#462=DIRECTION('',(1.,0.,0.));
#463=DIRECTION('',(0.,1.,1.2391812891936E-16));
#464=DIRECTION('',(0.,-1.2391812891936E-16,1.));
#465=DIRECTION('',(-0.998024840957863,0.,0.0628205128205128));
#466=DIRECTION('',(0.,0.965925826289069,-0.25881904510252));
#467=DIRECTION('',(0.,0.25881904510252,0.965925826289069));
#468=DIRECTION('',(-0.0280941874096128,-0.894427190999916,-0.446330277523039));
#469=DIRECTION('',(0.,0.446506522392204,-0.894780378339412));
#470=DIRECTION('',(-0.0280941874096128,0.894427190999916,-0.446330277523039));
#471=DIRECTION('',(0.,0.446506522392204,0.894780378339412));
#472=CARTESIAN_POINT('',(0.,0.,0.));
#473=CARTESIAN_POINT('',(0.0111030263556562,-0.01,0.0981988782051282));
#474=CARTESIAN_POINT('',(0.00499012420478931,0.0172,0.195314102564103));
#475=CARTESIAN_POINT('',(0.00499012420478931,0.0143815799408117,0.195314102564103));
#476=CARTESIAN_POINT('',(0.00499012420478931,0.0100184200591883,0.195314102564103));
#477=CARTESIAN_POINT('',(0.0103965038850621,-0.0326723172805982,0.10942334844087));
#478=CARTESIAN_POINT('',(0.00534705055200112,0.0072,0.189643640084315));
#479=CARTESIAN_POINT('',(0.0111030263556562,0.0072,0.0981988782051282));
#480=CARTESIAN_POINT('',(0.0121850442629702,0.0072,0.0810089397379593));
#481=CARTESIAN_POINT('',(0.0114449068081427,0.0103506829918386,0.0927674487420441));
#482=CARTESIAN_POINT('',(0.0162255536560161,-0.01,0.0168176658477745));
#483=CARTESIAN_POINT('',(0.0111030263556562,-0.01,0.0981988782051282));
#484=CARTESIAN_POINT('',(0.0172159285065232,-0.01,0.00108365384615375));
#485=CARTESIAN_POINT('',(0.0172159285065232,-0.01,0.00108365384615375));
#486=CARTESIAN_POINT('',(0.0172159285065232,0.,0.00108365384615375));
#487=CARTESIAN_POINT('',(0.0111030263556562,0.,0.0981988782051282));
#488=CARTESIAN_POINT('',(0.0163084221085148,0.,0.0155011408719005));
#489=CARTESIAN_POINT('',(0.0116072200246674,0.0200124954495451,0.0901887906758442));
#490=CARTESIAN_POINT('',(0.0122679127154689,0.0172,0.0796924147620853));
#491=CARTESIAN_POINT('',(0.0111030263556562,0.0172,0.0981988782051282));
#492=CARTESIAN_POINT('',(0.00534705055200112,0.0172,0.189643640084315));
#493=CARTESIAN_POINT('',(0.0092861257738848,0.0483043684691071,0.127063843369287));
#494=CARTESIAN_POINT('',(-0.0111030263556562,-0.01,0.0981988782051282));
#495=CARTESIAN_POINT('',(-0.00499074460730896,0.0147,0.195304246275158));
#496=CARTESIAN_POINT('',(-0.00530484717141153,0.0172,0.190314122070369));
#497=CARTESIAN_POINT('',(-0.00499012420478931,0.0146950621023946,0.195314102564103));
#498=CARTESIAN_POINT('',(-0.0111030263556562,0.0172,0.0981988782051282));
#499=CARTESIAN_POINT('',(-0.0122679127154689,0.0172,0.0796924147620853));
#500=CARTESIAN_POINT('',(-0.0116072200246674,0.0200124954495451,0.0901887906758442));
#501=CARTESIAN_POINT('',(-0.0163084221085148,0.,0.0155011408719005));
#502=CARTESIAN_POINT('',(-0.0111030263556562,0.,0.0981988782051282));
#503=CARTESIAN_POINT('',(-0.0172159285065232,0.,0.00108365384615383));
#504=CARTESIAN_POINT('',(-0.0172159285065232,-0.01,0.00108365384615383));
#505=CARTESIAN_POINT('',(-0.0172159285065232,-0.01,0.00108365384615383));
#506=CARTESIAN_POINT('',(-0.0111030263556562,-0.01,0.0981988782051282));
#507=CARTESIAN_POINT('',(-0.0162255536560161,-0.01,0.0168176658477745));
#508=CARTESIAN_POINT('',(-0.0114449068081427,0.0103506829918386,0.0927674487420441));
#509=CARTESIAN_POINT('',(-0.0121850442629702,0.0072,0.0810089397379593));
#510=CARTESIAN_POINT('',(-0.0111030263556562,0.0072,0.0981988782051282));
#511=CARTESIAN_POINT('',(-0.00530484717141153,0.0072,0.190314122070369));
#512=CARTESIAN_POINT('',(-0.00499074460730896,0.0097,0.195304246275158));
#513=CARTESIAN_POINT('',(-0.00499012420478932,0.00970493789760534,0.195314102564103));
#514=CARTESIAN_POINT('',(-0.00499012420478931,0.0172,0.195314102564103));
#515=CARTESIAN_POINT('',(8.67361737988404E-18,0.0172,-4.33680868994202E-18));
#516=CARTESIAN_POINT('',(8.67361737988404E-18,0.,-4.33680868994202E-18));
#517=CARTESIAN_POINT('',(8.67361737988404E-18,-0.00415351817838681,-4.33680868994202E-18));
#518=CARTESIAN_POINT('',(0.,0.,0.091375));
#519=CARTESIAN_POINT('',(3.2500087647127E-19,0.,4.33680868994202E-19));
#520=CARTESIAN_POINT('',(-0.008,0.,-4.33680868994202E-19));
#521=CARTESIAN_POINT('',(-0.008,0.,-0.0014));
#522=CARTESIAN_POINT('',(1.0842021724855E-18,0.,0.008));
#523=CARTESIAN_POINT('',(1.0842021724855E-18,0.,0.0066));
#524=CARTESIAN_POINT('',(0.008,0.,-4.33680868994202E-19));
#525=CARTESIAN_POINT('',(0.008,0.,-0.0014));
#526=CARTESIAN_POINT('',(0.,0.,-0.008));
#527=CARTESIAN_POINT('',(0.,0.,-0.0094));
#528=CARTESIAN_POINT('',(3.2500087647127E-19,-0.01,4.33680868994202E-19));
#529=CARTESIAN_POINT('',(3.2500087647127E-19,-0.01,4.33680868994202E-19));
#530=CARTESIAN_POINT('',(1.0842021724855E-18,-0.01,0.008));
#531=CARTESIAN_POINT('',(1.0842021724855E-18,-0.01,0.008));
#532=CARTESIAN_POINT('',(1.0842021724855E-18,-0.01,0.0066));
#533=CARTESIAN_POINT('',(0.008,-0.01,-4.33680868994202E-19));
#534=CARTESIAN_POINT('',(0.008,-0.01,-4.33680868994202E-19));
#535=CARTESIAN_POINT('',(0.008,-0.01,-0.0014));
#536=CARTESIAN_POINT('',(0.,-0.01,-0.008));
#537=CARTESIAN_POINT('',(0.,-0.01,-0.008));
#538=CARTESIAN_POINT('',(0.,-0.01,-0.0094));
#539=CARTESIAN_POINT('',(-0.008,-0.01,-4.33680868994202E-19));
#540=CARTESIAN_POINT('',(-0.008,-0.01,-4.33680868994202E-19));
#541=CARTESIAN_POINT('',(-0.008,-0.01,-0.0014));
#542=CARTESIAN_POINT('',(0.,-0.01,0.091375));
#543=CARTESIAN_POINT('',(-0.025,-0.01,0.0168176658477745));
#544=CARTESIAN_POINT('',(-0.00249506210239471,0.0172,0.197657051282051));
#545=CARTESIAN_POINT('',(-0.00102973369910073,0.0116851331504497,0.199033044809658));
#546=CARTESIAN_POINT('',(4.19803081186388E-16,0.0122,0.2));
#547=CARTESIAN_POINT('',(-0.00337518567250574,0.0138875928362528,0.196830585123855));
#548=CARTESIAN_POINT('',(0.00249506210239467,0.0172,0.197657051282051));
#549=CARTESIAN_POINT('',(0.00121050709981823,0.0116707911268744,0.198863292398668));
#550=CARTESIAN_POINT('',(0.00331951924572686,0.0136512257215293,0.196882857804014));
#551=CARTESIAN_POINT('',(0.,0.0172,0.091375));
#552=CARTESIAN_POINT('',(0.019645773852535,0.0172,0.188743609249856));
#553=CARTESIAN_POINT('',(-0.025,0.0172,0.0796924147620853));
#554=CARTESIAN_POINT('',(-0.025,-0.0014,0.0489133027928669));
#555=CARTESIAN_POINT('',(-0.025,0.0072,0.0810089397379593));
#556=CARTESIAN_POINT('',(-0.025,0.0072,0.14050446986898));
#557=CARTESIAN_POINT('',(0.019645773852535,0.0072,0.188743609249856));
#558=CARTESIAN_POINT('',(-0.025,0.0086,0.047596777816993));
#559=CARTESIAN_POINT('',(0.0199598764166376,0.0147,0.193733733454646));
#560=CARTESIAN_POINT('',(0.0199598764166376,0.0097,0.193733733454646));
#561=MECHANICAL_DESIGN_GEOMETRIC_PRESENTATION_REPRESENTATION('',(#339),
#562);
#562=(
GEOMETRIC_REPRESENTATION_CONTEXT(3)
GLOBAL_UNCERTAINTY_ASSIGNED_CONTEXT((#563))
GLOBAL_UNIT_ASSIGNED_CONTEXT((#566,#565,#564))
REPRESENTATION_CONTEXT('Part 1','TOP_LEVEL_ASSEMBLY_PART')
);
#563=UNCERTAINTY_MEASURE_WITH_UNIT(LENGTH_MEASURE(1.E-8),#566,
'DISTANCE_ACCURACY_VALUE','Maximum Tolerance applied to model');
#564=(
NAMED_UNIT(*)
SI_UNIT($,.STERADIAN.)
SOLID_ANGLE_UNIT()
);
#565=(
NAMED_UNIT(*)
PLANE_ANGLE_UNIT()
SI_UNIT($,.RADIAN.)
);
#566=(
LENGTH_UNIT()
NAMED_UNIT(*)
SI_UNIT($,.METRE.)
);
#567=PRODUCT_DEFINITION_SHAPE('','',#568);
#568=PRODUCT_DEFINITION('','',#570,#569);
#569=PRODUCT_DEFINITION_CONTEXT('',#576,'design');
#570=PRODUCT_DEFINITION_FORMATION_WITH_SPECIFIED_SOURCE('','',#572,
 .NOT_KNOWN.);
#571=PRODUCT_RELATED_PRODUCT_CATEGORY('','',(#572));
#572=PRODUCT('Part 1','Part 1','Part 1',(#574));
#573=PRODUCT_CATEGORY('','');
#574=PRODUCT_CONTEXT('',#576,'mechanical');
#575=APPLICATION_PROTOCOL_DEFINITION('international standard',
'automotive_design',2010,#576);
#576=APPLICATION_CONTEXT(
'core data for automotive mechanical design processes');
ENDSEC;
END-ISO-10303-21;
