ISO-10303-21;
HEADER;
/* Generated by software containing ST-Developer
 * from STEP Tools, Inc. (www.steptools.com) 
 */
/* OPTION: using custom renumber hook */

FILE_DESCRIPTION(
/* description */ ('STEP AP214'),
/* implementation_level */ '2;1');

FILE_NAME(
/* name */ '68f369b9893047e8a3fb7737',
/* time_stamp */ '2025-10-18T10:19:38Z',
/* author */ (''),
/* organization */ (''),
/* preprocessor_version */ 'ST-DEVELOPER v20',
/* originating_system */ 'ONSHAPE BY PTC INC, 1.205',
/* authorisation */ '  ');

FILE_SCHEMA (('AUTOMOTIVE_DESIGN {1 0 10303 214 3 1 1}'));
ENDSEC;

DATA;
#10=PROPERTY_DEFINITION_REPRESENTATION(#14,#12);
#11=PROPERTY_DEFINITION_REPRESENTATION(#15,#13);
#12=REPRESENTATION('',(#16),#431);
#13=REPRESENTATION('',(#17),#431);
#14=PROPERTY_DEFINITION('pmi validation property','',#436);
#15=PROPERTY_DEFINITION('pmi validation property','',#436);
#16=VALUE_REPRESENTATION_ITEM('number of annotations',COUNT_MEASURE(0.));
#17=VALUE_REPRESENTATION_ITEM('number of views',COUNT_MEASURE(0.));
#18=SHAPE_REPRESENTATION_RELATIONSHIP('','',#261,#19);
#19=ADVANCED_BREP_SHAPE_REPRESENTATION('',(#259),#431);
#20=VERTEX_LOOP('',#141);
#21=VERTEX_LOOP('',#143);
#22=VERTEX_LOOP('',#145);
#23=VERTEX_LOOP('',#147);
#24=CONICAL_SURFACE('',#277,0.001025,1.02974425867665);
#25=CONICAL_SURFACE('',#280,0.001025,1.02974425867665);
#26=CONICAL_SURFACE('',#283,0.001025,1.02974425867665);
#27=CONICAL_SURFACE('',#286,0.001025,1.02974425867665);
#28=LINE('',#375,#38);
#29=LINE('',#377,#39);
#30=LINE('',#379,#40);
#31=LINE('',#391,#41);
#32=LINE('',#396,#42);
#33=LINE('',#398,#43);
#34=LINE('',#423,#44);
#35=LINE('',#424,#45);
#36=LINE('',#426,#46);
#37=LINE('',#428,#47);
#38=VECTOR('',#305,1.);
#39=VECTOR('',#306,1.);
#40=VECTOR('',#307,1.);
#41=VECTOR('',#320,1.);
#42=VECTOR('',#323,1.);
#43=VECTOR('',#324,1.);
#44=VECTOR('',#355,1.);
#45=VECTOR('',#356,1.);
#46=VECTOR('',#359,1.);
#47=VECTOR('',#362,1.);
#48=PLANE('',#266);
#49=PLANE('',#273);
#50=PLANE('',#290);
#51=PLANE('',#291);
#52=PLANE('',#292);
#53=ORIENTED_EDGE('',*,*,#101,.F.);
#54=ORIENTED_EDGE('',*,*,#102,.T.);
#55=ORIENTED_EDGE('',*,*,#103,.F.);
#56=ORIENTED_EDGE('',*,*,#104,.F.);
#57=ORIENTED_EDGE('',*,*,#105,.F.);
#58=ORIENTED_EDGE('',*,*,#106,.F.);
#59=ORIENTED_EDGE('',*,*,#107,.T.);
#60=ORIENTED_EDGE('',*,*,#108,.T.);
#61=ORIENTED_EDGE('',*,*,#109,.T.);
#62=ORIENTED_EDGE('',*,*,#110,.T.);
#63=ORIENTED_EDGE('',*,*,#111,.F.);
#64=ORIENTED_EDGE('',*,*,#101,.T.);
#65=ORIENTED_EDGE('',*,*,#112,.T.);
#66=ORIENTED_EDGE('',*,*,#113,.T.);
#67=ORIENTED_EDGE('',*,*,#114,.T.);
#68=ORIENTED_EDGE('',*,*,#115,.T.);
#69=ORIENTED_EDGE('',*,*,#116,.T.);
#70=ORIENTED_EDGE('',*,*,#102,.F.);
#71=ORIENTED_EDGE('',*,*,#111,.T.);
#72=ORIENTED_EDGE('',*,*,#116,.F.);
#73=ORIENTED_EDGE('',*,*,#117,.F.);
#74=ORIENTED_EDGE('',*,*,#117,.T.);
#75=ORIENTED_EDGE('',*,*,#110,.F.);
#76=ORIENTED_EDGE('',*,*,#118,.F.);
#77=ORIENTED_EDGE('',*,*,#118,.T.);
#78=ORIENTED_EDGE('',*,*,#109,.F.);
#79=ORIENTED_EDGE('',*,*,#119,.F.);
#80=ORIENTED_EDGE('',*,*,#119,.T.);
#81=ORIENTED_EDGE('',*,*,#108,.F.);
#82=ORIENTED_EDGE('',*,*,#120,.F.);
#83=ORIENTED_EDGE('',*,*,#120,.T.);
#84=ORIENTED_EDGE('',*,*,#107,.F.);
#85=ORIENTED_EDGE('',*,*,#121,.T.);
#86=ORIENTED_EDGE('',*,*,#103,.T.);
#87=ORIENTED_EDGE('',*,*,#122,.F.);
#88=ORIENTED_EDGE('',*,*,#113,.F.);
#89=ORIENTED_EDGE('',*,*,#122,.T.);
#90=ORIENTED_EDGE('',*,*,#106,.T.);
#91=ORIENTED_EDGE('',*,*,#123,.F.);
#92=ORIENTED_EDGE('',*,*,#114,.F.);
#93=ORIENTED_EDGE('',*,*,#123,.T.);
#94=ORIENTED_EDGE('',*,*,#105,.T.);
#95=ORIENTED_EDGE('',*,*,#124,.F.);
#96=ORIENTED_EDGE('',*,*,#115,.F.);
#97=ORIENTED_EDGE('',*,*,#124,.T.);
#98=ORIENTED_EDGE('',*,*,#104,.T.);
#99=ORIENTED_EDGE('',*,*,#121,.F.);
#100=ORIENTED_EDGE('',*,*,#112,.F.);
#101=EDGE_CURVE('',#125,#125,#149,.T.);
#102=EDGE_CURVE('',#126,#126,#150,.T.);
#103=EDGE_CURVE('',#127,#128,#151,.T.);
#104=EDGE_CURVE('',#129,#127,#28,.T.);
#105=EDGE_CURVE('',#130,#129,#29,.T.);
#106=EDGE_CURVE('',#128,#130,#30,.T.);
#107=EDGE_CURVE('',#131,#131,#152,.T.);
#108=EDGE_CURVE('',#132,#132,#153,.T.);
#109=EDGE_CURVE('',#133,#133,#154,.T.);
#110=EDGE_CURVE('',#134,#134,#155,.T.);
#111=EDGE_CURVE('',#135,#135,#156,.T.);
#112=EDGE_CURVE('',#136,#137,#31,.T.);
#113=EDGE_CURVE('',#137,#138,#157,.T.);
#114=EDGE_CURVE('',#138,#139,#32,.T.);
#115=EDGE_CURVE('',#139,#136,#33,.T.);
#116=EDGE_CURVE('',#140,#140,#158,.T.);
#117=EDGE_CURVE('',#142,#142,#159,.T.);
#118=EDGE_CURVE('',#144,#144,#160,.T.);
#119=EDGE_CURVE('',#146,#146,#161,.T.);
#120=EDGE_CURVE('',#148,#148,#162,.T.);
#121=EDGE_CURVE('',#137,#127,#34,.T.);
#122=EDGE_CURVE('',#138,#128,#35,.T.);
#123=EDGE_CURVE('',#139,#130,#36,.T.);
#124=EDGE_CURVE('',#136,#129,#37,.T.);
#125=VERTEX_POINT('',#368);
#126=VERTEX_POINT('',#370);
#127=VERTEX_POINT('',#373);
#128=VERTEX_POINT('',#374);
#129=VERTEX_POINT('',#376);
#130=VERTEX_POINT('',#378);
#131=VERTEX_POINT('',#381);
#132=VERTEX_POINT('',#383);
#133=VERTEX_POINT('',#385);
#134=VERTEX_POINT('',#387);
#135=VERTEX_POINT('',#389);
#136=VERTEX_POINT('',#392);
#137=VERTEX_POINT('',#393);
#138=VERTEX_POINT('',#395);
#139=VERTEX_POINT('',#397);
#140=VERTEX_POINT('',#400);
#141=VERTEX_POINT('',#403);
#142=VERTEX_POINT('',#405);
#143=VERTEX_POINT('',#408);
#144=VERTEX_POINT('',#410);
#145=VERTEX_POINT('',#413);
#146=VERTEX_POINT('',#415);
#147=VERTEX_POINT('',#418);
#148=VERTEX_POINT('',#420);
#149=CIRCLE('',#264,0.02);
#150=CIRCLE('',#265,0.02);
#151=CIRCLE('',#267,0.02);
#152=CIRCLE('',#268,0.001025);
#153=CIRCLE('',#269,0.001025);
#154=CIRCLE('',#270,0.001025);
#155=CIRCLE('',#271,0.001025);
#156=CIRCLE('',#272,0.009);
#157=CIRCLE('',#274,0.02);
#158=CIRCLE('',#275,0.009);
#159=CIRCLE('',#278,0.001025);
#160=CIRCLE('',#281,0.001025);
#161=CIRCLE('',#284,0.001025);
#162=CIRCLE('',#287,0.001025);
#163=EDGE_LOOP('',(#53));
#164=EDGE_LOOP('',(#54));
#165=EDGE_LOOP('',(#55,#56,#57,#58));
#166=EDGE_LOOP('',(#59));
#167=EDGE_LOOP('',(#60));
#168=EDGE_LOOP('',(#61));
#169=EDGE_LOOP('',(#62));
#170=EDGE_LOOP('',(#63));
#171=EDGE_LOOP('',(#64));
#172=EDGE_LOOP('',(#65,#66,#67,#68));
#173=EDGE_LOOP('',(#69));
#174=EDGE_LOOP('',(#70));
#175=EDGE_LOOP('',(#71));
#176=EDGE_LOOP('',(#72));
#177=EDGE_LOOP('',(#73));
#178=EDGE_LOOP('',(#74));
#179=EDGE_LOOP('',(#75));
#180=EDGE_LOOP('',(#76));
#181=EDGE_LOOP('',(#77));
#182=EDGE_LOOP('',(#78));
#183=EDGE_LOOP('',(#79));
#184=EDGE_LOOP('',(#80));
#185=EDGE_LOOP('',(#81));
#186=EDGE_LOOP('',(#82));
#187=EDGE_LOOP('',(#83));
#188=EDGE_LOOP('',(#84));
#189=EDGE_LOOP('',(#85,#86,#87,#88));
#190=EDGE_LOOP('',(#89,#90,#91,#92));
#191=EDGE_LOOP('',(#93,#94,#95,#96));
#192=EDGE_LOOP('',(#97,#98,#99,#100));
#193=FACE_BOUND('',#163,.T.);
#194=FACE_BOUND('',#164,.T.);
#195=FACE_BOUND('',#165,.T.);
#196=FACE_BOUND('',#166,.T.);
#197=FACE_BOUND('',#167,.T.);
#198=FACE_BOUND('',#168,.T.);
#199=FACE_BOUND('',#169,.T.);
#200=FACE_BOUND('',#170,.T.);
#201=FACE_BOUND('',#171,.T.);
#202=FACE_BOUND('',#172,.T.);
#203=FACE_BOUND('',#173,.T.);
#204=FACE_BOUND('',#174,.T.);
#205=FACE_BOUND('',#175,.T.);
#206=FACE_BOUND('',#176,.T.);
#207=FACE_BOUND('',#20,.T.);
#208=FACE_BOUND('',#177,.T.);
#209=FACE_BOUND('',#178,.T.);
#210=FACE_BOUND('',#179,.T.);
#211=FACE_BOUND('',#21,.T.);
#212=FACE_BOUND('',#180,.T.);
#213=FACE_BOUND('',#181,.T.);
#214=FACE_BOUND('',#182,.T.);
#215=FACE_BOUND('',#22,.T.);
#216=FACE_BOUND('',#183,.T.);
#217=FACE_BOUND('',#184,.T.);
#218=FACE_BOUND('',#185,.T.);
#219=FACE_BOUND('',#23,.T.);
#220=FACE_BOUND('',#186,.T.);
#221=FACE_BOUND('',#187,.T.);
#222=FACE_BOUND('',#188,.T.);
#223=FACE_BOUND('',#189,.T.);
#224=FACE_BOUND('',#190,.T.);
#225=FACE_BOUND('',#191,.T.);
#226=FACE_BOUND('',#192,.T.);
#227=CYLINDRICAL_SURFACE('',#263,0.02);
#228=CYLINDRICAL_SURFACE('',#276,0.009);
#229=CYLINDRICAL_SURFACE('',#279,0.001025);
#230=CYLINDRICAL_SURFACE('',#282,0.001025);
#231=CYLINDRICAL_SURFACE('',#285,0.001025);
#232=CYLINDRICAL_SURFACE('',#288,0.001025);
#233=CYLINDRICAL_SURFACE('',#289,0.02);
#234=ADVANCED_FACE('',(#193,#194),#227,.T.);
#235=ADVANCED_FACE('',(#195,#196,#197,#198,#199,#200,#201),#48,.T.);
#236=ADVANCED_FACE('',(#202,#203,#204),#49,.F.);
#237=ADVANCED_FACE('',(#205,#206),#228,.F.);
#238=ADVANCED_FACE('',(#207,#208),#24,.F.);
#239=ADVANCED_FACE('',(#209,#210),#229,.F.);
#240=ADVANCED_FACE('',(#211,#212),#25,.F.);
#241=ADVANCED_FACE('',(#213,#214),#230,.F.);
#242=ADVANCED_FACE('',(#215,#216),#26,.F.);
#243=ADVANCED_FACE('',(#217,#218),#231,.F.);
#244=ADVANCED_FACE('',(#219,#220),#27,.F.);
#245=ADVANCED_FACE('',(#221,#222),#232,.F.);
#246=ADVANCED_FACE('',(#223),#233,.F.);
#247=ADVANCED_FACE('',(#224),#50,.F.);
#248=ADVANCED_FACE('',(#225),#51,.F.);
#249=ADVANCED_FACE('',(#226),#52,.F.);
#250=CLOSED_SHELL('',(#234,#235,#236,#237,#238,#239,#240,#241,#242,#243,
#244,#245,#246,#247,#248,#249));
#251=STYLED_ITEM('',(#252),#259);
#252=PRESENTATION_STYLE_ASSIGNMENT((#253));
#253=SURFACE_STYLE_USAGE(.BOTH.,#254);
#254=SURFACE_SIDE_STYLE('',(#255));
#255=SURFACE_STYLE_FILL_AREA(#256);
#256=FILL_AREA_STYLE('',(#257));
#257=FILL_AREA_STYLE_COLOUR('',#258);
#258=COLOUR_RGB('',0.647058823529412,0.647058823529412,0.647058823529412);
#259=MANIFOLD_SOLID_BREP('Part 2',#250);
#260=SHAPE_DEFINITION_REPRESENTATION(#436,#261);
#261=SHAPE_REPRESENTATION('Part 2',(#262),#431);
#262=AXIS2_PLACEMENT_3D('',#365,#293,#294);
#263=AXIS2_PLACEMENT_3D('',#366,#295,#296);
#264=AXIS2_PLACEMENT_3D('',#367,#297,#298);
#265=AXIS2_PLACEMENT_3D('',#369,#299,#300);
#266=AXIS2_PLACEMENT_3D('',#371,#301,#302);
#267=AXIS2_PLACEMENT_3D('',#372,#303,#304);
#268=AXIS2_PLACEMENT_3D('',#380,#308,#309);
#269=AXIS2_PLACEMENT_3D('',#382,#310,#311);
#270=AXIS2_PLACEMENT_3D('',#384,#312,#313);
#271=AXIS2_PLACEMENT_3D('',#386,#314,#315);
#272=AXIS2_PLACEMENT_3D('',#388,#316,#317);
#273=AXIS2_PLACEMENT_3D('',#390,#318,#319);
#274=AXIS2_PLACEMENT_3D('',#394,#321,#322);
#275=AXIS2_PLACEMENT_3D('',#399,#325,#326);
#276=AXIS2_PLACEMENT_3D('',#401,#327,#328);
#277=AXIS2_PLACEMENT_3D('',#402,#329,#330);
#278=AXIS2_PLACEMENT_3D('',#404,#331,#332);
#279=AXIS2_PLACEMENT_3D('',#406,#333,#334);
#280=AXIS2_PLACEMENT_3D('',#407,#335,#336);
#281=AXIS2_PLACEMENT_3D('',#409,#337,#338);
#282=AXIS2_PLACEMENT_3D('',#411,#339,#340);
#283=AXIS2_PLACEMENT_3D('',#412,#341,#342);
#284=AXIS2_PLACEMENT_3D('',#414,#343,#344);
#285=AXIS2_PLACEMENT_3D('',#416,#345,#346);
#286=AXIS2_PLACEMENT_3D('',#417,#347,#348);
#287=AXIS2_PLACEMENT_3D('',#419,#349,#350);
#288=AXIS2_PLACEMENT_3D('',#421,#351,#352);
#289=AXIS2_PLACEMENT_3D('',#422,#353,#354);
#290=AXIS2_PLACEMENT_3D('',#425,#357,#358);
#291=AXIS2_PLACEMENT_3D('',#427,#360,#361);
#292=AXIS2_PLACEMENT_3D('',#429,#363,#364);
#293=DIRECTION('',(0.,0.,1.));
#294=DIRECTION('',(1.,0.,0.));
#295=DIRECTION('',(0.,0.,-1.));
#296=DIRECTION('',(-1.,0.,0.));
#297=DIRECTION('',(0.,0.,1.));
#298=DIRECTION('',(1.,0.,0.));
#299=DIRECTION('',(0.,0.,1.));
#300=DIRECTION('',(1.,0.,0.));
#301=DIRECTION('',(0.,0.,1.));
#302=DIRECTION('',(1.,0.,0.));
#303=DIRECTION('',(0.,0.,1.));
#304=DIRECTION('',(1.,0.,0.));
#305=DIRECTION('',(0.,1.,0.));
#306=DIRECTION('',(1.,0.,0.));
#307=DIRECTION('',(-2.89120579329468E-16,-1.,0.));
#308=DIRECTION('',(0.,0.,-1.));
#309=DIRECTION('',(-1.,0.,0.));
#310=DIRECTION('',(0.,0.,-1.));
#311=DIRECTION('',(-1.,0.,0.));
#312=DIRECTION('',(0.,0.,-1.));
#313=DIRECTION('',(-1.,0.,0.));
#314=DIRECTION('',(0.,0.,-1.));
#315=DIRECTION('',(-1.,0.,0.));
#316=DIRECTION('',(0.,0.,1.));
#317=DIRECTION('',(1.,0.,0.));
#318=DIRECTION('',(0.,0.,1.));
#319=DIRECTION('',(1.,0.,0.));
#320=DIRECTION('',(0.,1.,0.));
#321=DIRECTION('',(0.,0.,1.));
#322=DIRECTION('',(1.,0.,0.));
#323=DIRECTION('',(-2.89120579329468E-16,-1.,0.));
#324=DIRECTION('',(1.,0.,0.));
#325=DIRECTION('',(0.,0.,1.));
#326=DIRECTION('',(1.,0.,0.));
#327=DIRECTION('',(0.,0.,1.));
#328=DIRECTION('',(1.,0.,0.));
#329=DIRECTION('',(0.,0.,1.));
#330=DIRECTION('',(1.,0.,0.));
#331=DIRECTION('',(0.,0.,-1.));
#332=DIRECTION('',(-1.,0.,0.));
#333=DIRECTION('',(0.,0.,-1.));
#334=DIRECTION('',(-1.,0.,0.));
#335=DIRECTION('',(0.,0.,1.));
#336=DIRECTION('',(1.,0.,0.));
#337=DIRECTION('',(0.,0.,-1.));
#338=DIRECTION('',(-1.,0.,0.));
#339=DIRECTION('',(0.,0.,-1.));
#340=DIRECTION('',(-1.,0.,0.));
#341=DIRECTION('',(0.,0.,1.));
#342=DIRECTION('',(1.,0.,0.));
#343=DIRECTION('',(0.,0.,-1.));
#344=DIRECTION('',(-1.,0.,0.));
#345=DIRECTION('',(0.,0.,-1.));
#346=DIRECTION('',(-1.,0.,0.));
#347=DIRECTION('',(0.,0.,1.));
#348=DIRECTION('',(1.,0.,0.));
#349=DIRECTION('',(0.,0.,-1.));
#350=DIRECTION('',(-1.,0.,0.));
#351=DIRECTION('',(0.,0.,-1.));
#352=DIRECTION('',(-1.,0.,0.));
#353=DIRECTION('',(0.,0.,1.));
#354=DIRECTION('',(1.,0.,0.));
#355=DIRECTION('',(0.,0.,1.));
#356=DIRECTION('',(0.,0.,1.));
#357=DIRECTION('',(-1.,2.89120579329468E-16,0.));
#358=DIRECTION('',(-2.89120579329468E-16,-1.,0.));
#359=DIRECTION('',(0.,0.,1.));
#360=DIRECTION('',(0.,-1.,0.));
#361=DIRECTION('',(0.,0.,-1.));
#362=DIRECTION('',(0.,0.,1.));
#363=DIRECTION('',(1.,0.,0.));
#364=DIRECTION('',(0.,0.,-1.));
#365=CARTESIAN_POINT('',(0.,0.,0.));
#366=CARTESIAN_POINT('',(0.,1.22464679914735E-18,0.0178));
#367=CARTESIAN_POINT('',(0.,1.22464679914735E-18,0.0178));
#368=CARTESIAN_POINT('',(0.02,1.22464679914735E-18,0.0178));
#369=CARTESIAN_POINT('',(0.,1.22464679914735E-18,0.014));
#370=CARTESIAN_POINT('',(0.02,1.22464679914735E-18,0.014));
#371=CARTESIAN_POINT('',(0.,0.,0.0178));
#372=CARTESIAN_POINT('',(1.3010426069826E-18,-0.00102174232125872,0.0178));
#373=CARTESIAN_POINT('',(0.004,0.0185741756210067,0.0178));
#374=CARTESIAN_POINT('',(-0.004,0.0185741756210067,0.0178));
#375=CARTESIAN_POINT('',(0.004,0.0170741756210067,0.0178));
#376=CARTESIAN_POINT('',(0.004,0.0155741756210067,0.0178));
#377=CARTESIAN_POINT('',(0.,0.0155741756210067,0.0178));
#378=CARTESIAN_POINT('',(-0.004,0.0155741756210067,0.0178));
#379=CARTESIAN_POINT('',(-0.004,0.0170741756210067,0.0178));
#380=CARTESIAN_POINT('',(0.0120208152801713,0.0120208152801713,0.0178));
#381=CARTESIAN_POINT('',(0.0109958152801713,0.0120208152801713,0.0178));
#382=CARTESIAN_POINT('',(0.0120208152801713,-0.0120208152801713,0.0178));
#383=CARTESIAN_POINT('',(0.0109958152801713,-0.0120208152801713,0.0178));
#384=CARTESIAN_POINT('',(-0.0120208152801713,-0.0120208152801713,0.0178));
#385=CARTESIAN_POINT('',(-0.0130458152801713,-0.0120208152801713,0.0178));
#386=CARTESIAN_POINT('',(-0.0120208152801713,0.0120208152801713,0.0178));
#387=CARTESIAN_POINT('',(-0.0130458152801713,0.0120208152801713,0.0178));
#388=CARTESIAN_POINT('',(0.,5.51091059616309E-19,0.0178));
#389=CARTESIAN_POINT('',(0.009,5.51091059616309E-19,0.0178));
#390=CARTESIAN_POINT('',(0.,0.,0.014));
#391=CARTESIAN_POINT('',(0.004,0.,0.014));
#392=CARTESIAN_POINT('',(0.004,0.0155741756210067,0.014));
#393=CARTESIAN_POINT('',(0.004,0.0185741756210067,0.014));
#394=CARTESIAN_POINT('',(1.3010426069826E-18,-0.00102174232125872,0.014));
#395=CARTESIAN_POINT('',(-0.004,0.0185741756210067,0.014));
#396=CARTESIAN_POINT('',(-0.004,1.15648231731787E-18,0.014));
#397=CARTESIAN_POINT('',(-0.004,0.0155741756210067,0.014));
#398=CARTESIAN_POINT('',(0.,0.0155741756210067,0.014));
#399=CARTESIAN_POINT('',(0.,5.51091059616309E-19,0.014));
#400=CARTESIAN_POINT('',(0.009,5.51091059616309E-19,0.014));
#401=CARTESIAN_POINT('',(0.,5.51091059616309E-19,-0.0072));
#402=CARTESIAN_POINT('',(-0.0120208152801713,0.0120208152801713,0.0148));
#403=CARTESIAN_POINT('',(-0.0120208152801713,0.0120208152801713,0.0141841178654967));
#404=CARTESIAN_POINT('',(-0.0120208152801713,0.0120208152801713,0.0148));
#405=CARTESIAN_POINT('',(-0.0130458152801713,0.0120208152801713,0.0148));
#406=CARTESIAN_POINT('',(-0.0120208152801713,0.0120208152801713,0.0178));
#407=CARTESIAN_POINT('',(-0.0120208152801713,-0.0120208152801713,0.0148));
#408=CARTESIAN_POINT('',(-0.0120208152801713,-0.0120208152801713,0.0141841178654967));
#409=CARTESIAN_POINT('',(-0.0120208152801713,-0.0120208152801713,0.0148));
#410=CARTESIAN_POINT('',(-0.0130458152801713,-0.0120208152801713,0.0148));
#411=CARTESIAN_POINT('',(-0.0120208152801713,-0.0120208152801713,0.0178));
#412=CARTESIAN_POINT('',(0.0120208152801713,-0.0120208152801713,0.0148));
#413=CARTESIAN_POINT('',(0.0120208152801713,-0.0120208152801713,0.0141841178654967));
#414=CARTESIAN_POINT('',(0.0120208152801713,-0.0120208152801713,0.0148));
#415=CARTESIAN_POINT('',(0.0109958152801713,-0.0120208152801713,0.0148));
#416=CARTESIAN_POINT('',(0.0120208152801713,-0.0120208152801713,0.0178));
#417=CARTESIAN_POINT('',(0.0120208152801713,0.0120208152801713,0.0148));
#418=CARTESIAN_POINT('',(0.0120208152801713,0.0120208152801713,0.0141841178654967));
#419=CARTESIAN_POINT('',(0.0120208152801713,0.0120208152801713,0.0148));
#420=CARTESIAN_POINT('',(0.0109958152801713,0.0120208152801713,0.0148));
#421=CARTESIAN_POINT('',(0.0120208152801713,0.0120208152801713,0.0178));
#422=CARTESIAN_POINT('',(1.3010426069826E-18,-0.00102174232125872,0.0138));
#423=CARTESIAN_POINT('',(0.004,0.0185741756210067,0.0138));
#424=CARTESIAN_POINT('',(-0.004,0.0185741756210067,0.0138));
#425=CARTESIAN_POINT('',(-0.004,0.0170741756210067,0.0138));
#426=CARTESIAN_POINT('',(-0.004,0.0155741756210067,0.0138));
#427=CARTESIAN_POINT('',(0.,0.0155741756210067,0.0138));
#428=CARTESIAN_POINT('',(0.004,0.0155741756210067,0.0138));
#429=CARTESIAN_POINT('',(0.004,0.0170741756210067,0.0138));
#430=MECHANICAL_DESIGN_GEOMETRIC_PRESENTATION_REPRESENTATION('',(#251),
#431);
#431=(
GEOMETRIC_REPRESENTATION_CONTEXT(3)
GLOBAL_UNCERTAINTY_ASSIGNED_CONTEXT((#432))
GLOBAL_UNIT_ASSIGNED_CONTEXT((#435,#434,#433))
REPRESENTATION_CONTEXT('Part 2','TOP_LEVEL_ASSEMBLY_PART')
);
#432=UNCERTAINTY_MEASURE_WITH_UNIT(LENGTH_MEASURE(1.E-8),#435,
'DISTANCE_ACCURACY_VALUE','Maximum Tolerance applied to model');
#433=(
NAMED_UNIT(*)
SI_UNIT($,.STERADIAN.)
SOLID_ANGLE_UNIT()
);
#434=(
NAMED_UNIT(*)
PLANE_ANGLE_UNIT()
SI_UNIT($,.RADIAN.)
);
#435=(
LENGTH_UNIT()
NAMED_UNIT(*)
SI_UNIT($,.METRE.)
);
#436=PRODUCT_DEFINITION_SHAPE('','',#437);
#437=PRODUCT_DEFINITION('','',#439,#438);
#438=PRODUCT_DEFINITION_CONTEXT('',#445,'design');
#439=PRODUCT_DEFINITION_FORMATION_WITH_SPECIFIED_SOURCE('','',#441,
 .NOT_KNOWN.);
#440=PRODUCT_RELATED_PRODUCT_CATEGORY('','',(#441));
#441=PRODUCT('Part 2','Part 2','Part 2',(#443));
#442=PRODUCT_CATEGORY('','');
#443=PRODUCT_CONTEXT('',#445,'mechanical');
#444=APPLICATION_PROTOCOL_DEFINITION('international standard',
'automotive_design',2010,#445);
#445=APPLICATION_CONTEXT(
'core data for automotive mechanical design processes');
ENDSEC;
END-ISO-10303-21;
